<svg xmlns="http://www.w3.org/2000/svg" xmlns:xlink="http://www.w3.org/1999/xlink" version="1.1" viewBox="0 0 3820 1625" style="background: #ffffff"><defs joint-selector="defs"></defs><g joint-selector="layers"  transform="matrix(1,0,0,1,0,0)"><g ></g><g ><g   id="j_51"  transform="translate(20,1580)"><g id="v-632"><text  id="v-633" font-size="22px" xml:space="preserve" y="0.8em" font-weight="normal" text-anchor="start" fill="#aaaaaa" pointer-events="none" font-family="Open Sans"><tspan dy="0" >Freitag, 31. März 2023 um 07:17 Mitteleuropäische Sommerzeit</tspan></text></g></g><g   id="j_50"  transform="translate(20,1536)"><g id="v-630"><text  id="v-631" font-size="36px" xml:space="preserve" y="0.8em" font-weight="normal" text-anchor="start" fill="#000000" pointer-events="none" font-family="Open Sans"><tspan dy="0" >[Container] D-LAMA</tspan></text></g></g><g   id="j_39"  transform="translate(879,705)" style=""><g id="v-444"><rect  id="v-445" width="2740" height="411" rx="0" ry="0" fill="#ffffff" stroke="#0f5eaa" stroke-width="1" stroke-dasharray="20,20" pointer-events="none"></rect><text  id="v-446" font-size="24px" xml:space="preserve" y="372" font-weight="normal" fill="#0f5eaa" text-anchor="start" pointer-events="visible" font-family="Open Sans" transform="matrix(1,0,0,1,15,0)"><tspan dy="0" >D-LAMA</tspan></text><text  id="v-447" font-size="17px" xml:space="preserve" y="396" font-weight="normal" fill="#0f5eaa" text-anchor="start" pointer-events="visible" font-family="Open Sans" transform="matrix(1,0,0,1,15,0)"><tspan dy="0" >[Software System]</tspan></text><image  id="v-448" pointer-events="visible"></image></g></g><g   id="j_43" ><path  stroke="#707070" d="M 2099 875 L 2399 875" id="v-506" stroke-width="2" stroke-dasharray="30 30" fill="none" style="opacity: 1;"></path><path  fill="black" stroke="black" d="M 0 0 0 0" transform="matrix(1,0,0,1,2099,875)"></path><path  fill="#707070" stroke="#707070" d="M 20 0 L 0 10 L 20 20 z" id="v-508" transform="matrix(-1,1.2246467991473532e-16,-1.2246467991473532e-16,-1,2399,885)" style="opacity: 1;"></path><path  d="M 2099 875 L 2399 875" id="v-507" fill="none" style="cursor: auto; pointer-events: visiblepainted;"></path><g ><g id="v-497"  label-idx="0" cursor="move" transform="matrix(1,0,0,1,2249,875)" style="cursor: default; opacity: 1;"><rect joint-selector="rect" id="v-501" fill="#ffffff" rx="3" ry="3" stroke="#ffffff" stroke-width="20px" pointer-events="none" width="198.83401489257812" height="33.42500305175781" transform="matrix(1,0,0,1,-99.4,-16.7)"></rect><text joint-selector="text" id="v-500" font-size="24px" xml:space="preserve" y="0.8em" fill="#707070" text-anchor="middle" pointer-events="none" font-family="Open Sans" font-weight="normal" transform="matrix(1,0,0,1,0,-9.6)"><tspan dy="0" >Makes API calls to</tspan></text></g><g id="v-498"  label-idx="1" cursor="move" transform="matrix(1,0,0,1,2249,902)" style="cursor: default; opacity: 1;"><rect joint-selector="rect" id="v-503" fill="#ffffff" rx="3" ry="3" pointer-events="none" width="108.07169342041016" height="23.87500286102295" transform="matrix(1,0,0,1,-54,-11.9)"></rect><text joint-selector="text" id="v-502" font-size="17px" xml:space="preserve" y="0.8em" fill="#707070" text-anchor="middle" pointer-events="none" font-family="Open Sans" font-weight="normal" transform="matrix(1,0,0,1,0,-6.4)"><tspan dy="0" >[JSON/HTTPS]</tspan></text></g><g id="v-499"  label-idx="2" cursor="move" transform="matrix(1,0,0,1,2239,911.25)" style="cursor: default; opacity: 1;"><rect joint-selector="rect" id="v-505" fill="#ffffff" rx="3" ry="3"  width="0" height="0" transform="matrix(1,0,0,1,0,0)" display="none"></rect><text joint-selector="text" id="v-504" fill="#000000" font-size="14" text-anchor="middle" pointer-events="none"></text></g></g><g  display="none" style="display: none;"></g><g  id="v-510" display="none"><g  id="v-495"><path  end="source" d="M 26 0 L 0 13 L 26 26 z"></path></g><g  id="v-496"><path  end="target" d="M 26 0 L 0 13 L 26 26 z"></path></g></g><g  id="v-509" display="none"><g  id="v-494" transform="translate(2139, 875) "><g  event="remove"><circle r="11"></circle><path transform="scale(.8) translate(-16, -16)" d="M24.778,21.419 19.276,15.917 24.777,10.415 21.949,7.585 16.447,13.087 10.945,7.585 8.117,10.415 13.618,15.917 8.116,21.419 10.946,24.248 16.447,18.746 21.948,24.248z"></path><title>Remove link.</title></g><g  event="link:options"><circle r="11" transform="translate(25)"></circle><path fill="white" transform="scale(.55) translate(29, -16)" d="M31.229,17.736c0.064-0.571,0.104-1.148,0.104-1.736s-0.04-1.166-0.104-1.737l-4.377-1.557c-0.218-0.716-0.504-1.401-0.851-2.05l1.993-4.192c-0.725-0.91-1.549-1.734-2.458-2.459l-4.193,1.994c-0.647-0.347-1.334-0.632-2.049-0.849l-1.558-4.378C17.165,0.708,16.588,0.667,16,0.667s-1.166,0.041-1.737,0.105L12.707,5.15c-0.716,0.217-1.401,0.502-2.05,0.849L6.464,4.005C5.554,4.73,4.73,5.554,4.005,6.464l1.994,4.192c-0.347,0.648-0.632,1.334-0.849,2.05l-4.378,1.557C0.708,14.834,0.667,15.412,0.667,16s0.041,1.165,0.105,1.736l4.378,1.558c0.217,0.715,0.502,1.401,0.849,2.049l-1.994,4.193c0.725,0.909,1.549,1.733,2.459,2.458l4.192-1.993c0.648,0.347,1.334,0.633,2.05,0.851l1.557,4.377c0.571,0.064,1.148,0.104,1.737,0.104c0.588,0,1.165-0.04,1.736-0.104l1.558-4.377c0.715-0.218,1.399-0.504,2.049-0.851l4.193,1.993c0.909-0.725,1.733-1.549,2.458-2.458l-1.993-4.193c0.347-0.647,0.633-1.334,0.851-2.049L31.229,17.736zM16,20.871c-2.69,0-4.872-2.182-4.872-4.871c0-2.69,2.182-4.872,4.872-4.872c2.689,0,4.871,2.182,4.871,4.872C20.871,18.689,18.689,20.871,16,20.871z"></path><title>Link options.</title></g></g></g></g><g   id="j_44" ><path  stroke="#707070" d="M 599 1214 L 1339 1176 C 1345.6666666666665 1175.3333333333333 1352 1173.3333333333333 1358 1170 L 1649 1004" id="v-527" stroke-width="2" stroke-dasharray="30 30" fill="none" style="opacity: 1;"></path><path  fill="black" stroke="black" d="M 0 0 0 0" transform="matrix(0.9986180818578568,-0.05255403492154293,0.05255403492154293,0.9986180818578568,599,1214.469970703125)"></path><path  fill="#707070" stroke="#707070" d="M 20 0 L 0 10 L 20 20 z" id="v-529" transform="matrix(-0.8682413637412599,0.4961420505144843,-0.4961420505144843,-0.8682413637412599,1653.9614610956824,1012.2524262377365)" style="opacity: 1;"></path><path  d="M 599 1214 L 1339 1176 C 1345.6666666666665 1175.3333333333333 1352 1173.3333333333333 1358 1170 L 1649 1004" id="v-528" fill="none" style="cursor: auto; pointer-events: visiblepainted;"></path><g ><g id="v-518"  label-idx="0" cursor="move" transform="matrix(1,0,0,1,1146.30712890625,1185.89501953125)" style="cursor: default; opacity: 1;"><rect joint-selector="rect" id="v-522" fill="#ffffff" rx="3" ry="3" stroke="#ffffff" stroke-width="20px" pointer-events="none" width="167.9593048095703" height="119.82501220703125" transform="matrix(1,0,0,1,-83.7,-60)"></rect><text joint-selector="text" id="v-521" font-size="24px" xml:space="preserve" y="0.8em" fill="#707070" text-anchor="middle" pointer-events="none" font-family="Open Sans" font-weight="normal" transform="matrix(1,0,0,1,0,-52.9)"><tspan dy="0" >Administrates</tspan><tspan dy="1.2em" x="0" >and supervises</tspan><tspan dy="1.2em" x="0" >the labeling</tspan><tspan dy="1.2em" x="0" >projects</tspan></text></g><g id="v-519"  label-idx="1" cursor="move" transform="matrix(1,0,0,1,1146.30712890625,1257.89501953125)" style="cursor: default; opacity: 1;"><rect joint-selector="rect" id="v-524" fill="#ffffff" rx="3" ry="3" pointer-events="none" width="61.96309280395508" height="23.87500286102295" transform="matrix(1,0,0,1,-31,-11.9)"></rect><text joint-selector="text" id="v-523" font-size="17px" xml:space="preserve" y="0.8em" fill="#707070" text-anchor="middle" pointer-events="none" font-family="Open Sans" font-weight="normal" transform="matrix(1,0,0,1,0,-6.4)"><tspan dy="0" >[HTTPS]</tspan></text></g><g id="v-520"  label-idx="2" cursor="move" transform="matrix(1,0,0,1,1136.30712890625,1267.14501953125)" style="cursor: default; opacity: 1;"><rect joint-selector="rect" id="v-526" fill="#ffffff" rx="3" ry="3"  width="0" height="0" transform="matrix(1,0,0,1,0,0)" display="none"></rect><text joint-selector="text" id="v-525" fill="#000000" font-size="14" text-anchor="middle" pointer-events="none"></text></g></g><g  display="none" style="display: none;"><g  transform="translate(1349, 1175)" id="v-515"><circle  idx="0" r="10"></circle><path  idx="0" d="M16,5.333c-7.732,0-14,4.701-14,10.5c0,1.982,0.741,3.833,2.016,5.414L2,25.667l5.613-1.441c2.339,1.317,5.237,2.107,8.387,2.107c7.732,0,14-4.701,14-10.5C30,10.034,23.732,5.333,16,5.333z" transform="translate(5, -33)"></path><path  idx="0" transform="scale(.8) translate(9.5, -37)" d="M24.778,21.419 19.276,15.917 24.777,10.415 21.949,7.585 16.447,13.087 10.945,7.585 8.117,10.415 13.618,15.917 8.116,21.419 10.946,24.248 16.447,18.746 21.948,24.248z"><title>Remove vertex.</title></path></g></g><g  id="v-531" display="none"><g  id="v-516"><path  end="source" d="M 26 0 L 0 13 L 26 26 z"></path></g><g  id="v-517"><path  end="target" d="M 26 0 L 0 13 L 26 26 z"></path></g></g><g  id="v-530" display="none"><g  id="v-514" transform="translate(638.9473648490841, 1211.948648832074) "><g  event="remove"><circle r="11"></circle><path transform="scale(.8) translate(-16, -16)" d="M24.778,21.419 19.276,15.917 24.777,10.415 21.949,7.585 16.447,13.087 10.945,7.585 8.117,10.415 13.618,15.917 8.116,21.419 10.946,24.248 16.447,18.746 21.948,24.248z"></path><title>Remove link.</title></g><g  event="link:options"><circle r="11" transform="translate(25)"></circle><path fill="white" transform="scale(.55) translate(29, -16)" d="M31.229,17.736c0.064-0.571,0.104-1.148,0.104-1.736s-0.04-1.166-0.104-1.737l-4.377-1.557c-0.218-0.716-0.504-1.401-0.851-2.05l1.993-4.192c-0.725-0.91-1.549-1.734-2.458-2.459l-4.193,1.994c-0.647-0.347-1.334-0.632-2.049-0.849l-1.558-4.378C17.165,0.708,16.588,0.667,16,0.667s-1.166,0.041-1.737,0.105L12.707,5.15c-0.716,0.217-1.401,0.502-2.05,0.849L6.464,4.005C5.554,4.73,4.73,5.554,4.005,6.464l1.994,4.192c-0.347,0.648-0.632,1.334-0.849,2.05l-4.378,1.557C0.708,14.834,0.667,15.412,0.667,16s0.041,1.165,0.105,1.736l4.378,1.558c0.217,0.715,0.502,1.401,0.849,2.049l-1.994,4.193c0.725,0.909,1.549,1.733,2.459,2.458l4.192-1.993c0.648,0.347,1.334,0.633,2.05,0.851l1.557,4.377c0.571,0.064,1.148,0.104,1.737,0.104c0.588,0,1.165-0.04,1.736-0.104l1.558-4.377c0.715-0.218,1.399-0.504,2.049-0.851l4.193,1.993c0.909-0.725,1.733-1.549,2.458-2.458l-1.993-4.193c0.347-0.647,0.633-1.334,0.851-2.049L31.229,17.736zM16,20.871c-2.69,0-4.872-2.182-4.872-4.871c0-2.69,2.182-4.872,4.872-4.872c2.689,0,4.871,2.182,4.871,4.872C20.871,18.689,18.689,20.871,16,20.871z"></path><title>Link options.</title></g></g></g></g><g   id="j_45" ><path  stroke="#707070" d="M 1349 875 L 1649 875" id="v-544" stroke-width="2" stroke-dasharray="30 30" fill="none" style="opacity: 1;"></path><path  fill="black" stroke="black" d="M 0 0 0 0" transform="matrix(1,0,0,1,1349,875)"></path><path  fill="#707070" stroke="#707070" d="M 20 0 L 0 10 L 20 20 z" id="v-546" transform="matrix(-1,1.2246467991473532e-16,-1.2246467991473532e-16,-1,1649,885)" style="opacity: 1;"></path><path  d="M 1349 875 L 1649 875" id="v-545" fill="none" style="cursor: auto; pointer-events: visiblepainted;"></path><g ><g id="v-538"  label-idx="0" cursor="move" transform="matrix(1,0,0,1,1499,875)" style="cursor: default; opacity: 1;"><rect joint-selector="rect" id="v-541" fill="#ffffff" rx="3" ry="3" stroke="#ffffff" stroke-width="20px" pointer-events="none" width="162.7432098388672" height="119.82501220703125" transform="matrix(1,0,0,1,-81,-60)"></rect><text joint-selector="text" id="v-540" font-size="24px" xml:space="preserve" y="0.8em" fill="#707070" text-anchor="middle" pointer-events="none" font-family="Open Sans" font-weight="normal" transform="matrix(1,0,0,1,0,-52.9)"><tspan dy="0" >Delivers to the</tspan><tspan dy="1.2em" x="0" >admin or</tspan><tspan dy="1.2em" x="0" >labeler's web</tspan><tspan dy="1.2em" x="0" >browser</tspan></text></g><g id="v-539"  label-idx="1" cursor="move" transform="matrix(1,0,0,1,1489,947)" style="cursor: default; opacity: 1;"><rect joint-selector="rect" id="v-543" fill="#ffffff" rx="3" ry="3"  width="0" height="0" transform="matrix(1,0,0,1,0,0)" display="none"></rect><text joint-selector="text" id="v-542" fill="#000000" font-size="14" text-anchor="middle" pointer-events="none"></text></g></g><g  display="none" style="display: none;"></g><g  id="v-548" display="none"><g  id="v-536"><path  end="source" d="M 26 0 L 0 13 L 26 26 z"></path></g><g  id="v-537"><path  end="target" d="M 26 0 L 0 13 L 26 26 z"></path></g></g><g  id="v-547" display="none"><g  id="v-535" transform="translate(1389, 875) "><g  event="remove"><circle r="11"></circle><path transform="scale(.8) translate(-16, -16)" d="M24.778,21.419 19.276,15.917 24.777,10.415 21.949,7.585 16.447,13.087 10.945,7.585 8.117,10.415 13.618,15.917 8.116,21.419 10.946,24.248 16.447,18.746 21.948,24.248z"></path><title>Remove link.</title></g><g  event="link:options"><circle r="11" transform="translate(25)"></circle><path fill="white" transform="scale(.55) translate(29, -16)" d="M31.229,17.736c0.064-0.571,0.104-1.148,0.104-1.736s-0.04-1.166-0.104-1.737l-4.377-1.557c-0.218-0.716-0.504-1.401-0.851-2.05l1.993-4.192c-0.725-0.91-1.549-1.734-2.458-2.459l-4.193,1.994c-0.647-0.347-1.334-0.632-2.049-0.849l-1.558-4.378C17.165,0.708,16.588,0.667,16,0.667s-1.166,0.041-1.737,0.105L12.707,5.15c-0.716,0.217-1.401,0.502-2.05,0.849L6.464,4.005C5.554,4.73,4.73,5.554,4.005,6.464l1.994,4.192c-0.347,0.648-0.632,1.334-0.849,2.05l-4.378,1.557C0.708,14.834,0.667,15.412,0.667,16s0.041,1.165,0.105,1.736l4.378,1.558c0.217,0.715,0.502,1.401,0.849,2.049l-1.994,4.193c0.725,0.909,1.549,1.733,2.459,2.458l4.192-1.993c0.648,0.347,1.334,0.633,2.05,0.851l1.557,4.377c0.571,0.064,1.148,0.104,1.737,0.104c0.588,0,1.165-0.04,1.736-0.104l1.558-4.377c0.715-0.218,1.399-0.504,2.049-0.851l4.193,1.993c0.909-0.725,1.733-1.549,2.458-2.458l-1.993-4.193c0.347-0.647,0.633-1.334,0.851-2.049L31.229,17.736zM16,20.871c-2.69,0-4.872-2.182-4.872-4.871c0-2.69,2.182-4.872,4.872-4.872c2.689,0,4.871,2.182,4.871,4.872C20.871,18.689,18.689,20.871,16,20.871z"></path><title>Link options.</title></g></g></g></g><g   id="j_46" ><path  stroke="#707070" d="M 599 531 L 899 728" id="v-564" stroke-width="2" stroke-dasharray="30 30" fill="none" style="opacity: 1;"></path><path  fill="black" stroke="black" d="M 0 0 0 0" transform="matrix(0.8364505359982763,0.5480424261206392,-0.5480424261206392,0.8364505359982763,599,531.030029296875)"></path><path  fill="#707070" stroke="#707070" d="M 20 0 L 0 10 L 20 20 z" id="v-566" transform="matrix(-0.8364505359982762,-0.5480424261206392,0.5480424261206392,-0.8364505359982762,893.5195791456514,735.9544877266579)" style="opacity: 1;"></path><path  d="M 599 531 L 899 728" id="v-565" fill="none" style="cursor: auto; pointer-events: visiblepainted;"></path><g ><g id="v-555"  label-idx="0" cursor="move" transform="matrix(1,0,0,1,749,629.5)" style="cursor: default; opacity: 1;"><rect joint-selector="rect" id="v-559" fill="#ffffff" rx="3" ry="3" stroke="#ffffff" stroke-width="20px" pointer-events="none" width="157.58303833007812" height="91.02500915527344" transform="matrix(1,0,0,1,-79.2,-45.6)"></rect><text joint-selector="text" id="v-558" font-size="24px" xml:space="preserve" y="0.8em" fill="#707070" text-anchor="middle" pointer-events="none" font-family="Open Sans" font-weight="normal" transform="matrix(1,0,0,1,0,-38.5)"><tspan dy="0" >Visits D-LAMA</tspan><tspan dy="1.2em" x="0" >using a</tspan><tspan dy="1.2em" x="0" >smartphone</tspan></text></g><g id="v-556"  label-idx="1" cursor="move" transform="matrix(1,0,0,1,749,686.5)" style="cursor: default; opacity: 1;"><rect joint-selector="rect" id="v-561" fill="#ffffff" rx="3" ry="3" pointer-events="none" width="61.96309280395508" height="23.87500286102295" transform="matrix(1,0,0,1,-31,-11.9)"></rect><text joint-selector="text" id="v-560" font-size="17px" xml:space="preserve" y="0.8em" fill="#707070" text-anchor="middle" pointer-events="none" font-family="Open Sans" font-weight="normal" transform="matrix(1,0,0,1,0,-6.4)"><tspan dy="0" >[HTTPS]</tspan></text></g><g id="v-557"  label-idx="2" cursor="move" transform="matrix(1,0,0,1,739,695.75)" style="cursor: default; opacity: 1;"><rect joint-selector="rect" id="v-563" fill="#ffffff" rx="3" ry="3"  width="0" height="0" transform="matrix(1,0,0,1,0,0)" display="none"></rect><text joint-selector="text" id="v-562" fill="#000000" font-size="14" text-anchor="middle" pointer-events="none"></text></g></g><g  display="none" style="display: none;"></g><g  id="v-568" display="none"><g  id="v-553"><path  end="source" d="M 26 0 L 0 13 L 26 26 z"></path></g><g  id="v-554"><path  end="target" d="M 26 0 L 0 13 L 26 26 z"></path></g></g><g  id="v-567" display="none"><g  id="v-552" transform="translate(632.4355246083064, 552.9559944927879) "><g  event="remove"><circle r="11"></circle><path transform="scale(.8) translate(-16, -16)" d="M24.778,21.419 19.276,15.917 24.777,10.415 21.949,7.585 16.447,13.087 10.945,7.585 8.117,10.415 13.618,15.917 8.116,21.419 10.946,24.248 16.447,18.746 21.948,24.248z"></path><title>Remove link.</title></g><g  event="link:options"><circle r="11" transform="translate(25)"></circle><path fill="white" transform="scale(.55) translate(29, -16)" d="M31.229,17.736c0.064-0.571,0.104-1.148,0.104-1.736s-0.04-1.166-0.104-1.737l-4.377-1.557c-0.218-0.716-0.504-1.401-0.851-2.05l1.993-4.192c-0.725-0.91-1.549-1.734-2.458-2.459l-4.193,1.994c-0.647-0.347-1.334-0.632-2.049-0.849l-1.558-4.378C17.165,0.708,16.588,0.667,16,0.667s-1.166,0.041-1.737,0.105L12.707,5.15c-0.716,0.217-1.401,0.502-2.05,0.849L6.464,4.005C5.554,4.73,4.73,5.554,4.005,6.464l1.994,4.192c-0.347,0.648-0.632,1.334-0.849,2.05l-4.378,1.557C0.708,14.834,0.667,15.412,0.667,16s0.041,1.165,0.105,1.736l4.378,1.558c0.217,0.715,0.502,1.401,0.849,2.049l-1.994,4.193c0.725,0.909,1.549,1.733,2.459,2.458l4.192-1.993c0.648,0.347,1.334,0.633,2.05,0.851l1.557,4.377c0.571,0.064,1.148,0.104,1.737,0.104c0.588,0,1.165-0.04,1.736-0.104l1.558-4.377c0.715-0.218,1.399-0.504,2.049-0.851l4.193,1.993c0.909-0.725,1.733-1.549,2.458-2.458l-1.993-4.193c0.347-0.647,0.633-1.334,0.851-2.049L31.229,17.736zM16,20.871c-2.69,0-4.872-2.182-4.872-4.871c0-2.69,2.182-4.872,4.872-4.872c2.689,0,4.871,2.182,4.871,4.872C20.871,18.689,18.689,20.871,16,20.871z"></path><title>Link options.</title></g></g></g></g><g   id="j_47" ><path  stroke="#707070" d="M 599 1128 L 899 984" id="v-584" stroke-width="2" stroke-dasharray="30 30" fill="none" style="opacity: 1;"></path><path  fill="black" stroke="black" d="M 0 0 0 0" transform="matrix(0.9005487019045832,-0.43475514430305484,0.43475514430305484,0.9005487019045832,599,1128.449951171875)"></path><path  fill="#707070" stroke="#707070" d="M 20 0 L 0 10 L 20 20 z" id="v-586" transform="matrix(-0.9005488176868497,0.4347549044724133,-0.4347549044724133,-0.9005488176868497,903.3475440575302,992.6254684290194)" style="opacity: 1;"></path><path  d="M 599 1128 L 899 984" id="v-585" fill="none" style="cursor: auto; pointer-events: visiblepainted;"></path><g ><g id="v-575"  label-idx="0" cursor="move" transform="matrix(1,0,0,1,749,1056)" style="cursor: default; opacity: 1;"><rect joint-selector="rect" id="v-579" fill="#ffffff" rx="3" ry="3" stroke="#ffffff" stroke-width="20px" pointer-events="none" width="175.6304931640625" height="91.02500915527344" transform="matrix(1,0,0,1,-87.8,-45.6)"></rect><text joint-selector="text" id="v-578" font-size="24px" xml:space="preserve" y="0.8em" fill="#707070" text-anchor="middle" pointer-events="none" font-family="Open Sans" font-weight="normal" transform="matrix(1,0,0,1,0,-38.5)"><tspan dy="0" >Visits D-LAMA</tspan><tspan dy="1.2em" x="0" >using a desktop</tspan><tspan dy="1.2em" x="0" >pc</tspan></text></g><g id="v-576"  label-idx="1" cursor="move" transform="matrix(1,0,0,1,749,1113)" style="cursor: default; opacity: 1;"><rect joint-selector="rect" id="v-581" fill="#ffffff" rx="3" ry="3" pointer-events="none" width="61.96309280395508" height="23.87500286102295" transform="matrix(1,0,0,1,-31,-11.9)"></rect><text joint-selector="text" id="v-580" font-size="17px" xml:space="preserve" y="0.8em" fill="#707070" text-anchor="middle" pointer-events="none" font-family="Open Sans" font-weight="normal" transform="matrix(1,0,0,1,0,-6.4)"><tspan dy="0" >[HTTPS]</tspan></text></g><g id="v-577"  label-idx="2" cursor="move" transform="matrix(1,0,0,1,739,1122.25)" style="cursor: default; opacity: 1;"><rect joint-selector="rect" id="v-583" fill="#ffffff" rx="3" ry="3"  width="0" height="0" transform="matrix(1,0,0,1,0,0)" display="none"></rect><text joint-selector="text" id="v-582" fill="#000000" font-size="14" text-anchor="middle" pointer-events="none"></text></g></g><g  display="none" style="display: none;"></g><g  id="v-588" display="none"><g  id="v-573"><path  end="source" d="M 26 0 L 0 13 L 26 26 z"></path></g><g  id="v-574"><path  end="target" d="M 26 0 L 0 13 L 26 26 z"></path></g></g><g  id="v-587" display="none"><g  id="v-572" transform="translate(635.0609222987309, 1110.690757296609) "><g  event="remove"><circle r="11"></circle><path transform="scale(.8) translate(-16, -16)" d="M24.778,21.419 19.276,15.917 24.777,10.415 21.949,7.585 16.447,13.087 10.945,7.585 8.117,10.415 13.618,15.917 8.116,21.419 10.946,24.248 16.447,18.746 21.948,24.248z"></path><title>Remove link.</title></g><g  event="link:options"><circle r="11" transform="translate(25)"></circle><path fill="white" transform="scale(.55) translate(29, -16)" d="M31.229,17.736c0.064-0.571,0.104-1.148,0.104-1.736s-0.04-1.166-0.104-1.737l-4.377-1.557c-0.218-0.716-0.504-1.401-0.851-2.05l1.993-4.192c-0.725-0.91-1.549-1.734-2.458-2.459l-4.193,1.994c-0.647-0.347-1.334-0.632-2.049-0.849l-1.558-4.378C17.165,0.708,16.588,0.667,16,0.667s-1.166,0.041-1.737,0.105L12.707,5.15c-0.716,0.217-1.401,0.502-2.05,0.849L6.464,4.005C5.554,4.73,4.73,5.554,4.005,6.464l1.994,4.192c-0.347,0.648-0.632,1.334-0.849,2.05l-4.378,1.557C0.708,14.834,0.667,15.412,0.667,16s0.041,1.165,0.105,1.736l4.378,1.558c0.217,0.715,0.502,1.401,0.849,2.049l-1.994,4.193c0.725,0.909,1.549,1.733,2.459,2.458l4.192-1.993c0.648,0.347,1.334,0.633,2.05,0.851l1.557,4.377c0.571,0.064,1.148,0.104,1.737,0.104c0.588,0,1.165-0.04,1.736-0.104l1.558-4.377c0.715-0.218,1.399-0.504,2.049-0.851l4.193,1.993c0.909-0.725,1.733-1.549,2.458-2.458l-1.993-4.193c0.347-0.647,0.633-1.334,0.851-2.049L31.229,17.736zM16,20.871c-2.69,0-4.872-2.182-4.872-4.871c0-2.69,2.182-4.872,4.872-4.872c2.689,0,4.871,2.182,4.871,4.872C20.871,18.689,18.689,20.871,16,20.871z"></path><title>Link options.</title></g></g></g></g><g   id="j_48" ><path  stroke="#707070" d="M 599 437 L 1339 573 C 1345.6666666666665 574.3333333333333 1352 576.6666666666666 1358 580 L 1649 746" id="v-605" stroke-width="2" stroke-dasharray="30 30" fill="none" style="opacity: 1;"></path><path  fill="black" stroke="black" d="M 0 0 0 0" transform="matrix(0.9834526975382044,0.1811650951613719,-0.1811650951613719,0.9834526975382044,599,436.8399963378906)"></path><path  fill="#707070" stroke="#707070" d="M 20 0 L 0 10 L 20 20 z" id="v-607" transform="matrix(-0.86824136374126,-0.49614205051448407,0.49614205051448407,-0.86824136374126,1644.0386200853927,755.1124010370887)" style="opacity: 1;"></path><path  d="M 599 437 L 1339 573 C 1345.6666666666665 574.3333333333333 1352 576.6666666666666 1358 580 L 1649 746" id="v-606" fill="none" style="cursor: auto; pointer-events: visiblepainted;"></path><g ><g id="v-596"  label-idx="0" cursor="move" transform="matrix(1,0,0,1,1143.7449951171875,537.1152954101562)" style="cursor: default; opacity: 1;"><rect joint-selector="rect" id="v-600" fill="#ffffff" rx="3" ry="3" stroke="#ffffff" stroke-width="20px" pointer-events="none" width="184.69552612304688" height="91.02500915527344" transform="matrix(1,0,0,1,-92.3,-45.6)"></rect><text joint-selector="text" id="v-599" font-size="24px" xml:space="preserve" y="0.8em" fill="#707070" text-anchor="middle" pointer-events="none" font-family="Open Sans" font-weight="normal" transform="matrix(1,0,0,1,0,-38.5)"><tspan dy="0" >Views labeling</tspan><tspan dy="1.2em" x="0" >projects and can</tspan><tspan dy="1.2em" x="0" >label them</tspan></text></g><g id="v-597"  label-idx="1" cursor="move" transform="matrix(1,0,0,1,1143.7449951171875,594.1152954101562)" style="cursor: default; opacity: 1;"><rect joint-selector="rect" id="v-602" fill="#ffffff" rx="3" ry="3" pointer-events="none" width="61.96309280395508" height="23.87500286102295" transform="matrix(1,0,0,1,-31,-11.9)"></rect><text joint-selector="text" id="v-601" font-size="17px" xml:space="preserve" y="0.8em" fill="#707070" text-anchor="middle" pointer-events="none" font-family="Open Sans" font-weight="normal" transform="matrix(1,0,0,1,0,-6.4)"><tspan dy="0" >[HTTPS]</tspan></text></g><g id="v-598"  label-idx="2" cursor="move" transform="matrix(1,0,0,1,1133.7449951171875,603.3652954101562)" style="cursor: default; opacity: 1;"><rect joint-selector="rect" id="v-604" fill="#ffffff" rx="3" ry="3"  width="0" height="0" transform="matrix(1,0,0,1,0,0)" display="none"></rect><text joint-selector="text" id="v-603" fill="#000000" font-size="14" text-anchor="middle" pointer-events="none"></text></g></g><g  display="none" style="display: none;"><g  transform="translate(1349, 575)" id="v-593"><circle  idx="0" r="10"></circle><path  idx="0" d="M16,5.333c-7.732,0-14,4.701-14,10.5c0,1.982,0.741,3.833,2.016,5.414L2,25.667l5.613-1.441c2.339,1.317,5.237,2.107,8.387,2.107c7.732,0,14-4.701,14-10.5C30,10.034,23.732,5.333,16,5.333z" transform="translate(5, -33)"></path><path  idx="0" transform="scale(.8) translate(9.5, -37)" d="M24.778,21.419 19.276,15.917 24.777,10.415 21.949,7.585 16.447,13.087 10.945,7.585 8.117,10.415 13.618,15.917 8.116,21.419 10.946,24.248 16.447,18.746 21.948,24.248z"><title>Remove vertex.</title></path></g></g><g  id="v-609" display="none"><g  id="v-594"><path  end="source" d="M 26 0 L 0 13 L 26 26 z"></path></g><g  id="v-595"><path  end="target" d="M 26 0 L 0 13 L 26 26 z"></path></g></g><g  id="v-608" display="none"><g  id="v-592" transform="translate(638.3411153164566, 444.2302590311325) "><g  event="remove"><circle r="11"></circle><path transform="scale(.8) translate(-16, -16)" d="M24.778,21.419 19.276,15.917 24.777,10.415 21.949,7.585 16.447,13.087 10.945,7.585 8.117,10.415 13.618,15.917 8.116,21.419 10.946,24.248 16.447,18.746 21.948,24.248z"></path><title>Remove link.</title></g><g  event="link:options"><circle r="11" transform="translate(25)"></circle><path fill="white" transform="scale(.55) translate(29, -16)" d="M31.229,17.736c0.064-0.571,0.104-1.148,0.104-1.736s-0.04-1.166-0.104-1.737l-4.377-1.557c-0.218-0.716-0.504-1.401-0.851-2.05l1.993-4.192c-0.725-0.91-1.549-1.734-2.458-2.459l-4.193,1.994c-0.647-0.347-1.334-0.632-2.049-0.849l-1.558-4.378C17.165,0.708,16.588,0.667,16,0.667s-1.166,0.041-1.737,0.105L12.707,5.15c-0.716,0.217-1.401,0.502-2.05,0.849L6.464,4.005C5.554,4.73,4.73,5.554,4.005,6.464l1.994,4.192c-0.347,0.648-0.632,1.334-0.849,2.05l-4.378,1.557C0.708,14.834,0.667,15.412,0.667,16s0.041,1.165,0.105,1.736l4.378,1.558c0.217,0.715,0.502,1.401,0.849,2.049l-1.994,4.193c0.725,0.909,1.549,1.733,2.459,2.458l4.192-1.993c0.648,0.347,1.334,0.633,2.05,0.851l1.557,4.377c0.571,0.064,1.148,0.104,1.737,0.104c0.588,0,1.165-0.04,1.736-0.104l1.558-4.377c0.715-0.218,1.399-0.504,2.049-0.851l4.193,1.993c0.909-0.725,1.733-1.549,2.458-2.458l-1.993-4.193c0.347-0.647,0.633-1.334,0.851-2.049L31.229,17.736zM16,20.871c-2.69,0-4.872-2.182-4.872-4.871c0-2.69,2.182-4.872,4.872-4.872c2.689,0,4.871,2.182,4.871,4.872C20.871,18.689,18.689,20.871,16,20.871z"></path><title>Link options.</title></g></g></g></g><g   id="j_49" ><path  stroke="#707070" d="M 2849 875 L 3149 875" id="v-625" stroke-width="2" stroke-dasharray="30 30" fill="none" style="opacity: 1;"></path><path  fill="black" stroke="black" d="M 0 0 0 0" transform="matrix(1,0,0,1,2849,875)"></path><path  fill="#707070" stroke="#707070" d="M 20 0 L 0 10 L 20 20 z" id="v-627" transform="matrix(-1,1.2246467991473532e-16,-1.2246467991473532e-16,-1,3149,885)" style="opacity: 1;"></path><path  d="M 2849 875 L 3149 875" id="v-626" fill="none" style="cursor: auto; pointer-events: visiblepainted;"></path><g ><g id="v-616"  label-idx="0" cursor="move" transform="matrix(1,0,0,1,2999,875)" style="cursor: default; opacity: 1;"><rect joint-selector="rect" id="v-620" fill="#ffffff" rx="3" ry="3" stroke="#ffffff" stroke-width="20px" pointer-events="none" width="185.62814331054688" height="62.22500038146973" transform="matrix(1,0,0,1,-94,-31.1)"></rect><text joint-selector="text" id="v-619" font-size="24px" xml:space="preserve" y="0.8em" fill="#707070" text-anchor="middle" pointer-events="none" font-family="Open Sans" font-weight="normal" transform="matrix(1,0,0,1,0,-24)"><tspan dy="0" >Reads from and</tspan><tspan dy="1.2em" x="0" >writes to / CRUD</tspan></text></g><g id="v-617"  label-idx="1" cursor="move" transform="matrix(1,0,0,1,2999,917)" style="cursor: default; opacity: 1;"><rect joint-selector="rect" id="v-622" fill="#ffffff" rx="3" ry="3" pointer-events="none" width="79.08594512939453" height="23.87500286102295" transform="matrix(1,0,0,1,-39.5,-11.9)"></rect><text joint-selector="text" id="v-621" font-size="17px" xml:space="preserve" y="0.8em" fill="#707070" text-anchor="middle" pointer-events="none" font-family="Open Sans" font-weight="normal" transform="matrix(1,0,0,1,0,-6.4)"><tspan dy="0" >[SQL/TCP]</tspan></text></g><g id="v-618"  label-idx="2" cursor="move" transform="matrix(1,0,0,1,2989,926.25)" style="cursor: default; opacity: 1;"><rect joint-selector="rect" id="v-624" fill="#ffffff" rx="3" ry="3"  width="0" height="0" transform="matrix(1,0,0,1,0,0)" display="none"></rect><text joint-selector="text" id="v-623" fill="#000000" font-size="14" text-anchor="middle" pointer-events="none"></text></g></g><g  display="none" style="display: none;"></g><g  id="v-629" display="none"><g  id="v-614"><path  end="source" d="M 26 0 L 0 13 L 26 26 z"></path></g><g  id="v-615"><path  end="target" d="M 26 0 L 0 13 L 26 26 z"></path></g></g><g  id="v-628" display="none"><g  id="v-613" transform="translate(2889, 875) "><g  event="remove"><circle r="11"></circle><path transform="scale(.8) translate(-16, -16)" d="M24.778,21.419 19.276,15.917 24.777,10.415 21.949,7.585 16.447,13.087 10.945,7.585 8.117,10.415 13.618,15.917 8.116,21.419 10.946,24.248 16.447,18.746 21.948,24.248z"></path><title>Remove link.</title></g><g  event="link:options"><circle r="11" transform="translate(25)"></circle><path fill="white" transform="scale(.55) translate(29, -16)" d="M31.229,17.736c0.064-0.571,0.104-1.148,0.104-1.736s-0.04-1.166-0.104-1.737l-4.377-1.557c-0.218-0.716-0.504-1.401-0.851-2.05l1.993-4.192c-0.725-0.91-1.549-1.734-2.458-2.459l-4.193,1.994c-0.647-0.347-1.334-0.632-2.049-0.849l-1.558-4.378C17.165,0.708,16.588,0.667,16,0.667s-1.166,0.041-1.737,0.105L12.707,5.15c-0.716,0.217-1.401,0.502-2.05,0.849L6.464,4.005C5.554,4.73,4.73,5.554,4.005,6.464l1.994,4.192c-0.347,0.648-0.632,1.334-0.849,2.05l-4.378,1.557C0.708,14.834,0.667,15.412,0.667,16s0.041,1.165,0.105,1.736l4.378,1.558c0.217,0.715,0.502,1.401,0.849,2.049l-1.994,4.193c0.725,0.909,1.549,1.733,2.459,2.458l4.192-1.993c0.648,0.347,1.334,0.633,2.05,0.851l1.557,4.377c0.571,0.064,1.148,0.104,1.737,0.104c0.588,0,1.165-0.04,1.736-0.104l1.558-4.377c0.715-0.218,1.399-0.504,2.049-0.851l4.193,1.993c0.909-0.725,1.733-1.549,2.458-2.458l-1.993-4.193c0.347-0.647,0.633-1.334,0.851-2.049L31.229,17.736zM16,20.871c-2.69,0-4.872-2.182-4.872-4.871c0-2.69,2.182-4.872,4.872-4.872c2.689,0,4.871,2.182,4.871,4.872C20.871,18.689,18.689,20.871,16,20.871z"></path><title>Link options.</title></g></g></g></g><g   id="j_36"  transform="translate(199,200)" style=""><g  id="v-408" style="opacity: 1;"><rect  x="0" y="160" width="400" height="240" rx="70" id="v-410" stroke="#073b6f" stroke-width="2" pointer-events="visiblePainted" fill="#08427b" style="fill: rgb(8, 66, 123); stroke: rgb(7, 59, 111);"></rect><circle  cx="200" cy="88.88888888888889" r="88.88888888888889" id="v-409" stroke="#073b6f" stroke-width="2" pointer-events="visiblePainted" fill="#08427b" style="fill: rgb(8, 66, 123); stroke: rgb(7, 59, 111);"></circle><line  x1="80" y1="266.6666666666667" x2="80" y2="400" id="v-416" stroke="#073b6f" stroke-width="2" style="stroke: rgb(7, 59, 111);"></line><line  x1="320" y1="266.6666666666667" x2="320" y2="400" id="v-417" stroke="#073b6f" stroke-width="2" style="stroke: rgb(7, 59, 111);"></line><text  id="v-411" font-size="34" xml:space="preserve" y="0.8em" font-weight="bold" text-anchor="middle" pointer-events="visible" font-family="Open Sans" fill="#ffffff" transform="matrix(1,0,0,1,200,213.1)" style="fill: rgb(255, 255, 255);"><tspan dy="0" >Labeler</tspan></text><text  id="v-412" font-size="17" xml:space="preserve" y="0.8em" text-anchor="middle" font-family="Open Sans" fill="#ffffff" transform="matrix(1,0,0,1,200,255.6)" style="fill: rgb(255, 255, 255);"><tspan dy="0" >[Person]</tspan></text><text  id="v-413" font-size="24" xml:space="preserve" y="0.8em" text-anchor="middle" font-family="Open Sans" fill="#ffffff" transform="matrix(1,0,0,1,200,286.9)" style="fill: rgb(255, 255, 255);"><tspan dy="0" >A user of the application acting</tspan><tspan dy="1.2em" x="0" >as a data labeler</tspan></text><g  id="v-414" font-weight="normal" text-anchor="middle" color="#ffffff" transform="matrix(1,0,0,1,197.5,356.9)" style="fill: rgb(255, 255, 255);" display="none"><g ></g><g ></g><g ></g><g ></g></g><image  id="v-415"></image></g></g><g   id="j_37"  transform="translate(199,1025)" style=""><g  id="v-421" style="opacity: 1;"><rect  x="0" y="160" width="400" height="240" rx="70" id="v-423" stroke="#073b6f" stroke-width="2" pointer-events="visiblePainted" fill="#08427b" style="fill: rgb(8, 66, 123); stroke: rgb(7, 59, 111);"></rect><circle  cx="200" cy="88.88888888888889" r="88.88888888888889" id="v-422" stroke="#073b6f" stroke-width="2" pointer-events="visiblePainted" fill="#08427b" style="fill: rgb(8, 66, 123); stroke: rgb(7, 59, 111);"></circle><line  x1="80" y1="266.6666666666667" x2="80" y2="400" id="v-429" stroke="#073b6f" stroke-width="2" style="stroke: rgb(7, 59, 111);"></line><line  x1="320" y1="266.6666666666667" x2="320" y2="400" id="v-430" stroke="#073b6f" stroke-width="2" style="stroke: rgb(7, 59, 111);"></line><text  id="v-424" font-size="34" xml:space="preserve" y="0.8em" font-weight="bold" text-anchor="middle" pointer-events="visible" font-family="Open Sans" fill="#ffffff" transform="matrix(1,0,0,1,200,183.1)" style="fill: rgb(255, 255, 255);"><tspan dy="0" >Admin</tspan></text><text  id="v-425" font-size="17" xml:space="preserve" y="0.8em" text-anchor="middle" font-family="Open Sans" fill="#ffffff" transform="matrix(1,0,0,1,200,225.6)" style="fill: rgb(255, 255, 255);"><tspan dy="0" >[Person]</tspan></text><text  id="v-426" font-size="24" xml:space="preserve" y="0.8em" text-anchor="middle" font-family="Open Sans" fill="#ffffff" transform="matrix(1,0,0,1,200,256.9)" style="fill: rgb(255, 255, 255);"><tspan dy="0" >A user of the application acting</tspan><tspan dy="1.2em" x="0" >as an admin who provides the</tspan><tspan dy="1.2em" x="0" >data and needs the data</tspan><tspan dy="1.2em" x="0" >labeled</tspan></text><g  id="v-427" font-weight="normal" text-anchor="middle" color="#ffffff" transform="matrix(1,0,0,1,197.5,386.9)" style="fill: rgb(255, 255, 255);" display="none"><g ></g><g ></g><g ></g><g ></g></g><image  id="v-428"></image></g></g><g   id="j_38"  transform="translate(2399,725)" style=""><g  id="v-437" style="opacity: 1;"><rect  id="v-438" rx="20" ry="20" stroke="#3c7fc0" stroke-width="2" pointer-events="visiblePainted" fill="#438dd5" width="450" height="300" style="fill: rgb(67, 141, 213); stroke: rgb(60, 127, 192);"></rect><text  id="v-439" font-size="34" xml:space="preserve" y="0.8em" font-weight="bold" text-anchor="middle" pointer-events="visible" font-family="Open Sans" fill="#ffffff" transform="matrix(1,0,0,1,225,83.1)" style="fill: rgb(255, 255, 255);"><tspan dy="0" >Server-side REST API</tspan></text><text  id="v-440" font-size="17" xml:space="preserve" y="0.8em" text-anchor="middle" font-family="Open Sans" fill="#ffffff" transform="matrix(1,0,0,1,225,125.6)" style="fill: rgb(255, 255, 255);"><tspan dy="0" >[Container: .NET Core]</tspan></text><text  id="v-441" font-size="24" xml:space="preserve" y="0.8em" text-anchor="middle" font-family="Open Sans" fill="#ffffff" transform="matrix(1,0,0,1,225,156.9)" style="fill: rgb(255, 255, 255);"><tspan dy="0" >Provides the D-LAMA functionality</tspan><tspan dy="1.2em" x="0" >via JSON/HTTPS API</tspan></text><g  id="v-442" color="#ffffff" transform="matrix(1,0,0,1,210,226.9)" style="fill: rgb(255, 255, 255);" display="none"><g  transform="translate(5 0)"><svg xmlns="http://www.w3.org/2000/svg" width="20" height="20" fill="currentColor" viewBox="0 0 16 16"><path fill-rule="evenodd" d="M6.5 12a5.5 5.5 0 1 0 0-11 5.5 5.5 0 0 0 0 11zM13 6.5a6.5 6.5 0 1 1-13 0 6.5 6.5 0 0 1 13 0z"></path><path d="M10.344 11.742c.03.04.062.078.098.115l3.85 3.85a1 1 0 0 0 1.415-1.414l-3.85-3.85a1.007 1.007 0 0 0-.115-.1 6.538 6.538 0 0 1-1.398 1.4z"></path><path fill-rule="evenodd" d="M6.5 3a.5.5 0 0 1 .5.5V6h2.5a.5.5 0 0 1 0 1H7v2.5a.5.5 0 0 1-1 0V7H3.5a.5.5 0 0 1 0-1H6V3.5a.5.5 0 0 1 .5-.5z"></path></svg></g><g ></g><g ></g><g ></g></g><image  id="v-443"></image></g></g><g   id="j_40"  transform="translate(899,725)" style=""><g  id="v-452" style="opacity: 1;"><rect  id="v-453" rx="20" ry="20" stroke="#3c7fc0" stroke-width="2" pointer-events="visiblePainted" fill="#438dd5" width="450" height="300" style="fill: rgb(67, 141, 213); stroke: rgb(60, 127, 192);"></rect><text  id="v-454" font-size="34" xml:space="preserve" y="0.8em" font-weight="bold" text-anchor="middle" pointer-events="visible" font-family="Open Sans" fill="#ffffff" transform="matrix(1,0,0,1,225,83.1)" style="fill: rgb(255, 255, 255);"><tspan dy="0" >Web Application</tspan></text><text  id="v-455" font-size="17" xml:space="preserve" y="0.8em" text-anchor="middle" font-family="Open Sans" fill="#ffffff" transform="matrix(1,0,0,1,225,125.6)" style="fill: rgb(255, 255, 255);"><tspan dy="0" >[Container: Node.js]</tspan></text><text  id="v-456" font-size="24" xml:space="preserve" y="0.8em" text-anchor="middle" font-family="Open Sans" fill="#ffffff" transform="matrix(1,0,0,1,225,156.9)" style="fill: rgb(255, 255, 255);"><tspan dy="0" >Delivers the static content and the</tspan><tspan dy="1.2em" x="0" >D-LAMA Progressiv Web Application</tspan></text><g  id="v-457" color="#ffffff" transform="matrix(1,0,0,1,222.5,226.9)" style="fill: rgb(255, 255, 255);" display="none"><g ></g><g ></g><g ></g><g ></g></g><image  id="v-458"></image></g></g><g   id="j_41"  transform="translate(3149,725)" style=""><g  id="v-465" style="opacity: 1;"><path  d="M 0,30 a 225,30 0,0,0 450 0 a 225,30 0,0,0 -450 0 l 0,240 a 225,30 0,0,0 450 0 l 0,-240" id="v-466" stroke="#3c7fc0" stroke-width="2" pointer-events="visiblePainted" fill="#438dd5" style="fill: rgb(67, 141, 213); stroke: rgb(60, 127, 192);"></path><rect  id="v-467" stroke-width="0" pointer-events="visiblePainted" fill="none" stroke="none" width="450" height="270" x="0" y="30"></rect><text  id="v-468" font-size="34" xml:space="preserve" y="0.8em" font-weight="bold" text-anchor="middle" pointer-events="visible" font-family="Open Sans" fill="#ffffff" transform="matrix(1,0,0,1,225,68.1)" style="fill: rgb(255, 255, 255);"><tspan dy="0" >Database</tspan></text><text  id="v-469" font-size="17" xml:space="preserve" y="0.8em" text-anchor="middle" font-family="Open Sans" fill="#ffffff" transform="matrix(1,0,0,1,225,110.6)" style="fill: rgb(255, 255, 255);"><tspan dy="0" >[Container: Microsoft SQL Server]</tspan></text><text  id="v-470" font-size="24" xml:space="preserve" y="0.8em" text-anchor="middle" font-family="Open Sans" fill="#ffffff" transform="matrix(1,0,0,1,225,141.9)" style="fill: rgb(255, 255, 255);"><tspan dy="0" >Stores labeling projects</tspan><tspan dy="1.2em" x="0" >informations and meta data. Stores</tspan><tspan dy="1.2em" x="0" >user registration information,</tspan><tspan dy="1.2em" x="0" >hashed authentication credentials,</tspan><tspan dy="1.2em" x="0" >access logs, etc.</tspan></text><g  id="v-471" font-weight="normal" text-anchor="middle" color="#ffffff" transform="matrix(1,0,0,1,222.5,31)" style="fill: rgb(255, 255, 255);" display="none"><g ></g><g ></g><g ></g><g ></g></g><image  id="v-472"></image></g></g><g   id="j_42"  transform="translate(1649,725)" style=""><g  id="v-479" style="opacity: 1;"><rect  id="v-480" rx="10" ry="10" stroke="#3c7fc0" stroke-width="2" pointer-events="visiblePainted" fill="#3c7fc0" width="450" height="300" style="fill: rgb(60, 127, 192); stroke: rgb(60, 127, 192);"></rect><rect  id="v-481" rx="10" ry="10" stroke="#3c7fc0" stroke-width="0" pointer-events="visiblePainted" fill="#438dd5" width="430" height="250" x="10" y="40" style="fill: rgb(67, 141, 213);"></rect><ellipse  id="v-488" fill="#438dd5" cx="20" cy="20" rx="10" ry="10" style="fill: rgb(67, 141, 213);"></ellipse><ellipse  id="v-489" fill="#438dd5" cx="50" cy="20" rx="10" ry="10" style="fill: rgb(67, 141, 213);"></ellipse><ellipse  id="v-490" fill="#438dd5" cx="80" cy="20" rx="10" ry="10" style="fill: rgb(67, 141, 213);"></ellipse><rect  id="v-482" rx="10" ry="10" stroke="#444444" stroke-width="0" pointer-events="visiblePainted" fill="#438dd5" width="340" height="20" x="100" y="10" style="fill: rgb(67, 141, 213);"></rect><text  id="v-483" font-size="34" xml:space="preserve" y="0.8em" font-weight="bold" text-anchor="middle" pointer-events="visible" font-family="Open Sans" fill="#ffffff" transform="matrix(1,0,0,1,225,46.9)" style="fill: rgb(255, 255, 255);"><tspan dy="0" >Progressiv Web</tspan><tspan dy="1.2em" x="0" >Application</tspan></text><text  id="v-484" font-size="17" xml:space="preserve" y="0.8em" text-anchor="middle" font-family="Open Sans" fill="#ffffff" transform="matrix(1,0,0,1,225,131.9)" style="fill: rgb(255, 255, 255);"><tspan dy="0" >[Container: React and Ionic]</tspan></text><text  id="v-485" font-size="24" xml:space="preserve" y="0.8em" text-anchor="middle" font-family="Open Sans" fill="#ffffff" transform="matrix(1,0,0,1,225,163.1)" style="fill: rgb(255, 255, 255);"><tspan dy="0" >Provides all of the D-LAMA</tspan><tspan dy="1.2em" x="0" >functionality to the admin and</tspan><tspan dy="1.2em" x="0" >labeler via their web browser or</tspan><tspan dy="1.2em" x="0" >mobile app</tspan></text><g  id="v-486" font-weight="normal" text-anchor="middle" color="#ffffff" transform="matrix(1,0,0,1,210,41)" style="fill: rgb(255, 255, 255);" display="none"><g  transform="translate(5 0)"><svg xmlns="http://www.w3.org/2000/svg" width="20" height="20" fill="currentColor" viewBox="0 0 16 16"><path fill-rule="evenodd" d="M6.5 12a5.5 5.5 0 1 0 0-11 5.5 5.5 0 0 0 0 11zM13 6.5a6.5 6.5 0 1 1-13 0 6.5 6.5 0 0 1 13 0z"></path><path d="M10.344 11.742c.03.04.062.078.098.115l3.85 3.85a1 1 0 0 0 1.415-1.414l-3.85-3.85a1.007 1.007 0 0 0-.115-.1 6.538 6.538 0 0 1-1.398 1.4z"></path><path fill-rule="evenodd" d="M6.5 3a.5.5 0 0 1 .5.5V6h2.5a.5.5 0 0 1 0 1H7v2.5a.5.5 0 0 1-1 0V7H3.5a.5.5 0 0 1 0-1H6V3.5a.5.5 0 0 1 .5-.5z"></path></svg></g><g ></g><g ></g><g ></g></g><image  id="v-487"></image></g></g></g><g ></g><g ></g><g ></g></g></svg>