<svg xmlns="http://www.w3.org/2000/svg" xmlns:xlink="http://www.w3.org/1999/xlink" version="1.1" viewBox="0 0 3658 2216" style="background: #ffffff"><defs joint-selector="defs"></defs><g joint-selector="layers"  transform="matrix(1,0,0,1,0,0)"><g ></g><g ><g   id="j_258"  transform="translate(20,2171)"><g id="v-3480"><text  id="v-3481" font-size="22px" xml:space="preserve" y="0.8em" font-weight="normal" text-anchor="start" fill="#aaaaaa" pointer-events="none" font-family="Open Sans"><tspan dy="0" >Samstag, 1. April 2023 um 10:31 Mitteleuropäische Sommerzeit</tspan></text></g></g><g   id="j_257"  transform="translate(20,2127)"><g id="v-3478"><text  id="v-3479" font-size="36px" xml:space="preserve" y="0.8em" font-weight="normal" text-anchor="start" fill="#000000" pointer-events="none" font-family="Open Sans"><tspan dy="0" >[Component] D-LAMA - Progressiv Web Application</tspan></text></g></g><g   id="j_239"  transform="translate(309,988)" style=""><g id="v-3193"><rect  id="v-3194" width="3040" height="411" rx="0" ry="0" fill="#ffffff" stroke="#3c7fc0" stroke-width="1" stroke-dasharray="20,20" pointer-events="none"></rect><text  id="v-3195" font-size="24px" xml:space="preserve" y="372" font-weight="normal" fill="#3c7fc0" text-anchor="start" pointer-events="visible" font-family="Open Sans" transform="matrix(1,0,0,1,15,0)"><tspan dy="0" >Progressiv Web Application</tspan></text><text  id="v-3196" font-size="17px" xml:space="preserve" y="396" font-weight="normal" fill="#3c7fc0" text-anchor="start" pointer-events="visible" font-family="Open Sans" transform="matrix(1,0,0,1,15,0)"><tspan dy="0" >[Container]</tspan></text><image  id="v-3197" pointer-events="visible"></image></g></g><g   id="j_246" ><path  stroke="#707070" d="M 2890 437 L 1629 1049" id="v-3288" stroke-width="2" stroke-dasharray="30 30" fill="none" style="opacity: 1;"></path><path  fill="black" stroke="black" d="M 0 0 0 0" transform="matrix(-0.899697488590721,0.4365139505486044,-0.4365139505486044,-0.899697488590721,2890,437.0299987792969)"></path><path  fill="#707070" stroke="#707070" d="M 20 0 L 0 10 L 20 20 z" id="v-3290" transform="matrix(0.8996976048413857,-0.4365137109446549,0.4365137109446549,0.8996976048413857,1624.6348350843273,1039.8430145766577)" style="opacity: 1;"></path><path  d="M 2890 437 L 1629 1049" id="v-3289" fill="none" style="cursor: default;"></path><g ><g id="v-3279"  label-idx="0" cursor="move" transform="matrix(1,0,0,1,2259.5,743)" style="cursor: default; opacity: 1;"><rect joint-selector="rect" id="v-3283" fill="#ffffff" rx="3" ry="3" stroke="#ffffff" stroke-width="20px" pointer-events="none" width="81.98160552978516" height="32.80937957763672" transform="matrix(1,0,0,1,-40.2,-16.4)"></rect><text joint-selector="text" id="v-3282" font-size="24px" xml:space="preserve" y="0.8em" fill="#707070" text-anchor="middle" pointer-events="none" font-family="Open Sans" font-weight="normal" transform="matrix(1,0,0,1,0,-11)"><tspan dy="0" >SignOn</tspan></text></g><g id="v-3280"  label-idx="1" cursor="move" transform="matrix(1,0,0,1,2259.5,770)" style="cursor: default; opacity: 1;"><rect joint-selector="rect" id="v-3285" fill="#ffffff" rx="3" ry="3" pointer-events="none" width="61.85934829711914" height="24.60703468322754" transform="matrix(1,0,0,1,-30.9,-12.3)"></rect><text joint-selector="text" id="v-3284" font-size="17px" xml:space="preserve" y="0.8em" fill="#707070" text-anchor="middle" pointer-events="none" font-family="Open Sans" font-weight="normal" transform="matrix(1,0,0,1,0,-6.8)"><tspan dy="0" >[HTTPS]</tspan></text></g><g id="v-3281"  label-idx="2" cursor="move" transform="matrix(1,0,0,1,2249.5,779.25)" style="cursor: default; opacity: 1;"><rect joint-selector="rect" id="v-3287" fill="#ffffff" rx="3" ry="3"  width="0" height="0" transform="matrix(1,0,0,1,0,0)" display="none"></rect><text joint-selector="text" id="v-3286" fill="#000000" font-size="14" text-anchor="middle" pointer-events="none"></text></g></g><g  display="none"></g><g  id="v-3292" display="none"><g  id="v-3277"><path  end="source" d="M 26 0 L 0 13 L 26 26 z"></path></g><g  id="v-3278"><path  end="target" d="M 26 0 L 0 13 L 26 26 z"></path></g></g><g  id="v-3291" display="none"><g  id="v-3276" transform="translate(2854.0142280244577, 454.4649424655291) "><g  event="remove"><circle r="11"></circle><path transform="scale(.8) translate(-16, -16)" d="M24.778,21.419 19.276,15.917 24.777,10.415 21.949,7.585 16.447,13.087 10.945,7.585 8.117,10.415 13.618,15.917 8.116,21.419 10.946,24.248 16.447,18.746 21.948,24.248z"></path><title>Remove link.</title></g><g  event="link:options"><circle r="11" transform="translate(25)"></circle><path fill="white" transform="scale(.55) translate(29, -16)" d="M31.229,17.736c0.064-0.571,0.104-1.148,0.104-1.736s-0.04-1.166-0.104-1.737l-4.377-1.557c-0.218-0.716-0.504-1.401-0.851-2.05l1.993-4.192c-0.725-0.91-1.549-1.734-2.458-2.459l-4.193,1.994c-0.647-0.347-1.334-0.632-2.049-0.849l-1.558-4.378C17.165,0.708,16.588,0.667,16,0.667s-1.166,0.041-1.737,0.105L12.707,5.15c-0.716,0.217-1.401,0.502-2.05,0.849L6.464,4.005C5.554,4.73,4.73,5.554,4.005,6.464l1.994,4.192c-0.347,0.648-0.632,1.334-0.849,2.05l-4.378,1.557C0.708,14.834,0.667,15.412,0.667,16s0.041,1.165,0.105,1.736l4.378,1.558c0.217,0.715,0.502,1.401,0.849,2.049l-1.994,4.193c0.725,0.909,1.549,1.733,2.459,2.458l4.192-1.993c0.648,0.347,1.334,0.633,2.05,0.851l1.557,4.377c0.571,0.064,1.148,0.104,1.737,0.104c0.588,0,1.165-0.04,1.736-0.104l1.558-4.377c0.715-0.218,1.399-0.504,2.049-0.851l4.193,1.993c0.909-0.725,1.733-1.549,2.458-2.458l-1.993-4.193c0.347-0.647,0.633-1.334,0.851-2.049L31.229,17.736zM16,20.871c-2.69,0-4.872-2.182-4.872-4.871c0-2.69,2.182-4.872,4.872-4.872c2.689,0,4.871,2.182,4.871,4.872C20.871,18.689,18.689,20.871,16,20.871z"></path><title>Link options.</title></g></g></g></g><g   id="j_247" ><path  stroke="#707070" d="M 750 551 L 1242 1008" id="v-3305" stroke-width="2" stroke-dasharray="30 30" fill="none" style="opacity: 1;"></path><path  fill="black" stroke="black" d="M 0 0 0 0" transform="matrix(0.7327892469291707,0.6804556705509763,-0.6804556705509763,0.7327892469291707,750,550.7100219726562)"></path><path  fill="#707070" stroke="#707070" d="M 20 0 L 0 10 L 20 20 z" id="v-3307" transform="matrix(-0.7327892922332457,-0.6804556217625796,0.6804556217625796,-0.7327892922332457,1235.6554167828315,1015.3278837102706)" style="opacity: 1;"></path><path  d="M 750 551 L 1242 1008" id="v-3306" fill="none" style="cursor: default;"></path><g ><g id="v-3296"  label-idx="0" cursor="move" transform="matrix(1,0,0,1,996,779.5)" style="cursor: default; opacity: 1;"><rect joint-selector="rect" id="v-3300" fill="#ffffff" rx="3" ry="3" stroke="#ffffff" stroke-width="20px" pointer-events="none" width="81.98160552978516" height="32.80937957763672" transform="matrix(1,0,0,1,-40.2,-16.4)"></rect><text joint-selector="text" id="v-3299" font-size="24px" xml:space="preserve" y="0.8em" fill="#707070" text-anchor="middle" pointer-events="none" font-family="Open Sans" font-weight="normal" transform="matrix(1,0,0,1,0,-11)"><tspan dy="0" >SignOn</tspan></text></g><g id="v-3297"  label-idx="1" cursor="move" transform="matrix(1,0,0,1,996,806.5)" style="cursor: default; opacity: 1;"><rect joint-selector="rect" id="v-3302" fill="#ffffff" rx="3" ry="3" pointer-events="none" width="61.85934829711914" height="24.60703468322754" transform="matrix(1,0,0,1,-30.9,-12.3)"></rect><text joint-selector="text" id="v-3301" font-size="17px" xml:space="preserve" y="0.8em" fill="#707070" text-anchor="middle" pointer-events="none" font-family="Open Sans" font-weight="normal" transform="matrix(1,0,0,1,0,-6.8)"><tspan dy="0" >[HTTPS]</tspan></text></g><g id="v-3298"  label-idx="2" cursor="move" transform="matrix(1,0,0,1,986,815.75)" style="cursor: default; opacity: 1;"><rect joint-selector="rect" id="v-3304" fill="#ffffff" rx="3" ry="3"  width="0" height="0" transform="matrix(1,0,0,1,0,0)" display="none"></rect><text joint-selector="text" id="v-3303" fill="#000000" font-size="14" text-anchor="middle" pointer-events="none"></text></g></g><g  display="none"></g><g  id="v-3309" display="none"><g  id="v-3294"><path  end="source" d="M 26 0 L 0 13 L 26 26 z"></path></g><g  id="v-3295"><path  end="target" d="M 26 0 L 0 13 L 26 26 z"></path></g></g><g  id="v-3308" display="none"><g  id="v-3293" transform="translate(779.3074961030522, 578.2226132501929) "><g  event="remove"><circle r="11"></circle><path transform="scale(.8) translate(-16, -16)" d="M24.778,21.419 19.276,15.917 24.777,10.415 21.949,7.585 16.447,13.087 10.945,7.585 8.117,10.415 13.618,15.917 8.116,21.419 10.946,24.248 16.447,18.746 21.948,24.248z"></path><title>Remove link.</title></g><g  event="link:options"><circle r="11" transform="translate(25)"></circle><path fill="white" transform="scale(.55) translate(29, -16)" d="M31.229,17.736c0.064-0.571,0.104-1.148,0.104-1.736s-0.04-1.166-0.104-1.737l-4.377-1.557c-0.218-0.716-0.504-1.401-0.851-2.05l1.993-4.192c-0.725-0.91-1.549-1.734-2.458-2.459l-4.193,1.994c-0.647-0.347-1.334-0.632-2.049-0.849l-1.558-4.378C17.165,0.708,16.588,0.667,16,0.667s-1.166,0.041-1.737,0.105L12.707,5.15c-0.716,0.217-1.401,0.502-2.05,0.849L6.464,4.005C5.554,4.73,4.73,5.554,4.005,6.464l1.994,4.192c-0.347,0.648-0.632,1.334-0.849,2.05l-4.378,1.557C0.708,14.834,0.667,15.412,0.667,16s0.041,1.165,0.105,1.736l4.378,1.558c0.217,0.715,0.502,1.401,0.849,2.049l-1.994,4.193c0.725,0.909,1.549,1.733,2.459,2.458l4.192-1.993c0.648,0.347,1.334,0.633,2.05,0.851l1.557,4.377c0.571,0.064,1.148,0.104,1.737,0.104c0.588,0,1.165-0.04,1.736-0.104l1.558-4.377c0.715-0.218,1.399-0.504,2.049-0.851l4.193,1.993c0.909-0.725,1.733-1.549,2.458-2.458l-1.993-4.193c0.347-0.647,0.633-1.334,0.851-2.049L31.229,17.736zM16,20.871c-2.69,0-4.872-2.182-4.872-4.871c0-2.69,2.182-4.872,4.872-4.872c2.689,0,4.871,2.182,4.871,4.872C20.871,18.689,18.689,20.871,16,20.871z"></path><title>Link options.</title></g></g></g></g><g   id="j_248" ><path  stroke="#707070" d="M 779 1282 L 1604 1734" id="v-3322" stroke-width="2" stroke-dasharray="30 30" fill="none" style="opacity: 1;"></path><path  fill="black" stroke="black" d="M 0 0 0 0" transform="matrix(0.8765790848598679,0.48125783940236916,-0.48125783940236916,0.8765790848598679,779,1281.530029296875)"></path><path  fill="#707070" stroke="#707070" d="M 20 0 L 0 10 L 20 20 z" id="v-3324" transform="matrix(-0.8765790207765025,-0.4812579561259305,0.4812579561259305,-0.8765790207765025,1599.187463576193,1743.2358404721492)" style="opacity: 1;"></path><path  d="M 779 1282 L 1604 1734" id="v-3323" fill="none" style="cursor: default;"></path><g ><g id="v-3313"  label-idx="0" cursor="move" transform="matrix(1,0,0,1,1191.5,1508)" style="cursor: default; opacity: 1;"><rect joint-selector="rect" id="v-3317" fill="#ffffff" rx="3" ry="3" stroke="#ffffff" stroke-width="20px" pointer-events="none" width="18.925201416015625" height="32.80937957763672" transform="matrix(1,0,0,1,-9.5,-16.4)"></rect><text joint-selector="text" id="v-3316" font-size="24px" xml:space="preserve" y="0.8em" fill="#707070" text-anchor="middle" pointer-events="none" font-family="Open Sans" font-weight="normal" transform="matrix(1,0,0,1,0,-11)"><tspan dy="0" >...</tspan></text></g><g id="v-3314"  label-idx="1" cursor="move" transform="matrix(1,0,0,1,1191.5,1535)" style="cursor: default; opacity: 1;"><rect joint-selector="rect" id="v-3319" fill="#ffffff" rx="3" ry="3" pointer-events="none" width="107.95481872558594" height="24.60703468322754" transform="matrix(1,0,0,1,-54,-12.3)"></rect><text joint-selector="text" id="v-3318" font-size="17px" xml:space="preserve" y="0.8em" fill="#707070" text-anchor="middle" pointer-events="none" font-family="Open Sans" font-weight="normal" transform="matrix(1,0,0,1,0,-6.8)"><tspan dy="0" >[JSON/HTTPS]</tspan></text></g><g id="v-3315"  label-idx="2" cursor="move" transform="matrix(1,0,0,1,1181.5,1544.25)" style="cursor: default; opacity: 1;"><rect joint-selector="rect" id="v-3321" fill="#ffffff" rx="3" ry="3"  width="0" height="0" transform="matrix(1,0,0,1,0,0)" display="none"></rect><text joint-selector="text" id="v-3320" fill="#000000" font-size="14" text-anchor="middle" pointer-events="none"></text></g></g><g  display="none"></g><g  id="v-3326" display="none"><g  id="v-3311"><path  end="source" d="M 26 0 L 0 13 L 26 26 z"></path></g><g  id="v-3312"><path  end="target" d="M 26 0 L 0 13 L 26 26 z"></path></g></g><g  id="v-3325" display="none"><g  id="v-3310" transform="translate(814.0800114204043, 1301.2195941357852) "><g  event="remove"><circle r="11"></circle><path transform="scale(.8) translate(-16, -16)" d="M24.778,21.419 19.276,15.917 24.777,10.415 21.949,7.585 16.447,13.087 10.945,7.585 8.117,10.415 13.618,15.917 8.116,21.419 10.946,24.248 16.447,18.746 21.948,24.248z"></path><title>Remove link.</title></g><g  event="link:options"><circle r="11" transform="translate(25)"></circle><path fill="white" transform="scale(.55) translate(29, -16)" d="M31.229,17.736c0.064-0.571,0.104-1.148,0.104-1.736s-0.04-1.166-0.104-1.737l-4.377-1.557c-0.218-0.716-0.504-1.401-0.851-2.05l1.993-4.192c-0.725-0.91-1.549-1.734-2.458-2.459l-4.193,1.994c-0.647-0.347-1.334-0.632-2.049-0.849l-1.558-4.378C17.165,0.708,16.588,0.667,16,0.667s-1.166,0.041-1.737,0.105L12.707,5.15c-0.716,0.217-1.401,0.502-2.05,0.849L6.464,4.005C5.554,4.73,4.73,5.554,4.005,6.464l1.994,4.192c-0.347,0.648-0.632,1.334-0.849,2.05l-4.378,1.557C0.708,14.834,0.667,15.412,0.667,16s0.041,1.165,0.105,1.736l4.378,1.558c0.217,0.715,0.502,1.401,0.849,2.049l-1.994,4.193c0.725,0.909,1.549,1.733,2.459,2.458l4.192-1.993c0.648,0.347,1.334,0.633,2.05,0.851l1.557,4.377c0.571,0.064,1.148,0.104,1.737,0.104c0.588,0,1.165-0.04,1.736-0.104l1.558-4.377c0.715-0.218,1.399-0.504,2.049-0.851l4.193,1.993c0.909-0.725,1.733-1.549,2.458-2.458l-1.993-4.193c0.347-0.647,0.633-1.334,0.851-2.049L31.229,17.736zM16,20.871c-2.69,0-4.872-2.182-4.872-4.871c0-2.69,2.182-4.872,4.872-4.872c2.689,0,4.871,2.182,4.871,4.872C20.871,18.689,18.689,20.871,16,20.871z"></path><title>Link options.</title></g></g></g></g><g   id="j_249" ><path  stroke="#707070" d="M 2879 1282 L 2054 1734" id="v-3339" stroke-width="2" stroke-dasharray="30 30" fill="none" style="opacity: 1;"></path><path  fill="black" stroke="black" d="M 0 0 0 0" transform="matrix(-0.8765790207765025,0.4812579561259303,-0.4812579561259303,-0.8765790207765025,2879,1281.530029296875)"></path><path  fill="#707070" stroke="#707070" d="M 20 0 L 0 10 L 20 20 z" id="v-3341" transform="matrix(0.8765791489432175,-0.48125772267879957,0.48125772267879957,0.8765791489432175,2049.1875004244052,1725.7042564404808)" style="opacity: 1;"></path><path  d="M 2879 1282 L 2054 1734" id="v-3340" fill="none" style="cursor: default;"></path><g ><g id="v-3330"  label-idx="0" cursor="move" transform="matrix(1,0,0,1,2466.5,1508)" style="cursor: default; opacity: 1;"><rect joint-selector="rect" id="v-3334" fill="#ffffff" rx="3" ry="3" stroke="#ffffff" stroke-width="20px" pointer-events="none" width="18.925201416015625" height="32.80937957763672" transform="matrix(1,0,0,1,-9.5,-16.4)"></rect><text joint-selector="text" id="v-3333" font-size="24px" xml:space="preserve" y="0.8em" fill="#707070" text-anchor="middle" pointer-events="none" font-family="Open Sans" font-weight="normal" transform="matrix(1,0,0,1,0,-11)"><tspan dy="0" >...</tspan></text></g><g id="v-3331"  label-idx="1" cursor="move" transform="matrix(1,0,0,1,2466.5,1535)" style="cursor: default; opacity: 1;"><rect joint-selector="rect" id="v-3336" fill="#ffffff" rx="3" ry="3" pointer-events="none" width="107.95481872558594" height="24.60703468322754" transform="matrix(1,0,0,1,-54,-12.3)"></rect><text joint-selector="text" id="v-3335" font-size="17px" xml:space="preserve" y="0.8em" fill="#707070" text-anchor="middle" pointer-events="none" font-family="Open Sans" font-weight="normal" transform="matrix(1,0,0,1,0,-6.8)"><tspan dy="0" >[JSON/HTTPS]</tspan></text></g><g id="v-3332"  label-idx="2" cursor="move" transform="matrix(1,0,0,1,2456.5,1544.25)" style="cursor: default; opacity: 1;"><rect joint-selector="rect" id="v-3338" fill="#ffffff" rx="3" ry="3"  width="0" height="0" transform="matrix(1,0,0,1,0,0)" display="none"></rect><text joint-selector="text" id="v-3337" fill="#000000" font-size="14" text-anchor="middle" pointer-events="none"></text></g></g><g  display="none"></g><g  id="v-3343" display="none"><g  id="v-3328"><path  end="source" d="M 26 0 L 0 13 L 26 26 z"></path></g><g  id="v-3329"><path  end="target" d="M 26 0 L 0 13 L 26 26 z"></path></g></g><g  id="v-3342" display="none"><g  id="v-3327" transform="translate(2843.9199885795956, 1301.2195941357852) "><g  event="remove"><circle r="11"></circle><path transform="scale(.8) translate(-16, -16)" d="M24.778,21.419 19.276,15.917 24.777,10.415 21.949,7.585 16.447,13.087 10.945,7.585 8.117,10.415 13.618,15.917 8.116,21.419 10.946,24.248 16.447,18.746 21.948,24.248z"></path><title>Remove link.</title></g><g  event="link:options"><circle r="11" transform="translate(25)"></circle><path fill="white" transform="scale(.55) translate(29, -16)" d="M31.229,17.736c0.064-0.571,0.104-1.148,0.104-1.736s-0.04-1.166-0.104-1.737l-4.377-1.557c-0.218-0.716-0.504-1.401-0.851-2.05l1.993-4.192c-0.725-0.91-1.549-1.734-2.458-2.459l-4.193,1.994c-0.647-0.347-1.334-0.632-2.049-0.849l-1.558-4.378C17.165,0.708,16.588,0.667,16,0.667s-1.166,0.041-1.737,0.105L12.707,5.15c-0.716,0.217-1.401,0.502-2.05,0.849L6.464,4.005C5.554,4.73,4.73,5.554,4.005,6.464l1.994,4.192c-0.347,0.648-0.632,1.334-0.849,2.05l-4.378,1.557C0.708,14.834,0.667,15.412,0.667,16s0.041,1.165,0.105,1.736l4.378,1.558c0.217,0.715,0.502,1.401,0.849,2.049l-1.994,4.193c0.725,0.909,1.549,1.733,2.459,2.458l4.192-1.993c0.648,0.347,1.334,0.633,2.05,0.851l1.557,4.377c0.571,0.064,1.148,0.104,1.737,0.104c0.588,0,1.165-0.04,1.736-0.104l1.558-4.377c0.715-0.218,1.399-0.504,2.049-0.851l4.193,1.993c0.909-0.725,1.733-1.549,2.458-2.458l-1.993-4.193c0.347-0.647,0.633-1.334,0.851-2.049L31.229,17.736zM16,20.871c-2.69,0-4.872-2.182-4.872-4.871c0-2.69,2.182-4.872,4.872-4.872c2.689,0,4.871,2.182,4.871,4.872C20.871,18.689,18.689,20.871,16,20.871z"></path><title>Link options.</title></g></g></g></g><g   id="j_250" ><path  stroke="#707070" d="M 2890 536 L 2407 1008" id="v-3356" stroke-width="2" stroke-dasharray="30 30" fill="none" style="opacity: 1;"></path><path  fill="black" stroke="black" d="M 0 0 0 0" transform="matrix(-0.7147574096838366,0.6993724653588045,-0.6993724653588045,-0.7147574096838366,2890,535.6900024414062)"></path><path  fill="#707070" stroke="#707070" d="M 20 0 L 0 10 L 20 20 z" id="v-3358" transform="matrix(0.7147574096838365,-0.6993724653588046,0.6993724653588046,0.7147574096838365,2400.3062110151986,1000.8524371778433)" style="opacity: 1;"></path><path  d="M 2890 536 L 2407 1008" id="v-3357" fill="none" style="cursor: default;"></path><g ><g id="v-3347"  label-idx="0" cursor="move" transform="matrix(1,0,0,1,2648.5,772)" style="cursor: default; opacity: 1;"><rect joint-selector="rect" id="v-3351" fill="#ffffff" rx="3" ry="3" stroke="#ffffff" stroke-width="20px" pointer-events="none" width="70.02764892578125" height="32.80937957763672" transform="matrix(1,0,0,1,-34.2,-16.4)"></rect><text joint-selector="text" id="v-3350" font-size="24px" xml:space="preserve" y="0.8em" fill="#707070" text-anchor="middle" pointer-events="none" font-family="Open Sans" font-weight="normal" transform="matrix(1,0,0,1,0,-11)"><tspan dy="0" >SignIn</tspan></text></g><g id="v-3348"  label-idx="1" cursor="move" transform="matrix(1,0,0,1,2648.5,799)" style="cursor: default; opacity: 1;"><rect joint-selector="rect" id="v-3353" fill="#ffffff" rx="3" ry="3" pointer-events="none" width="61.85934829711914" height="24.60703468322754" transform="matrix(1,0,0,1,-30.9,-12.3)"></rect><text joint-selector="text" id="v-3352" font-size="17px" xml:space="preserve" y="0.8em" fill="#707070" text-anchor="middle" pointer-events="none" font-family="Open Sans" font-weight="normal" transform="matrix(1,0,0,1,0,-6.8)"><tspan dy="0" >[HTTPS]</tspan></text></g><g id="v-3349"  label-idx="2" cursor="move" transform="matrix(1,0,0,1,2638.5,808.25)" style="cursor: default; opacity: 1;"><rect joint-selector="rect" id="v-3355" fill="#ffffff" rx="3" ry="3"  width="0" height="0" transform="matrix(1,0,0,1,0,0)" display="none"></rect><text joint-selector="text" id="v-3354" fill="#000000" font-size="14" text-anchor="middle" pointer-events="none"></text></g></g><g  display="none"></g><g  id="v-3360" display="none"><g  id="v-3345"><path  end="source" d="M 26 0 L 0 13 L 26 26 z"></path></g><g  id="v-3346"><path  end="target" d="M 26 0 L 0 13 L 26 26 z"></path></g></g><g  id="v-3359" display="none"><g  id="v-3344" transform="translate(2861.391839020219, 563.9566293632644) "><g  event="remove"><circle r="11"></circle><path transform="scale(.8) translate(-16, -16)" d="M24.778,21.419 19.276,15.917 24.777,10.415 21.949,7.585 16.447,13.087 10.945,7.585 8.117,10.415 13.618,15.917 8.116,21.419 10.946,24.248 16.447,18.746 21.948,24.248z"></path><title>Remove link.</title></g><g  event="link:options"><circle r="11" transform="translate(25)"></circle><path fill="white" transform="scale(.55) translate(29, -16)" d="M31.229,17.736c0.064-0.571,0.104-1.148,0.104-1.736s-0.04-1.166-0.104-1.737l-4.377-1.557c-0.218-0.716-0.504-1.401-0.851-2.05l1.993-4.192c-0.725-0.91-1.549-1.734-2.458-2.459l-4.193,1.994c-0.647-0.347-1.334-0.632-2.049-0.849l-1.558-4.378C17.165,0.708,16.588,0.667,16,0.667s-1.166,0.041-1.737,0.105L12.707,5.15c-0.716,0.217-1.401,0.502-2.05,0.849L6.464,4.005C5.554,4.73,4.73,5.554,4.005,6.464l1.994,4.192c-0.347,0.648-0.632,1.334-0.849,2.05l-4.378,1.557C0.708,14.834,0.667,15.412,0.667,16s0.041,1.165,0.105,1.736l4.378,1.558c0.217,0.715,0.502,1.401,0.849,2.049l-1.994,4.193c0.725,0.909,1.549,1.733,2.459,2.458l4.192-1.993c0.648,0.347,1.334,0.633,2.05,0.851l1.557,4.377c0.571,0.064,1.148,0.104,1.737,0.104c0.588,0,1.165-0.04,1.736-0.104l1.558-4.377c0.715-0.218,1.399-0.504,2.049-0.851l4.193,1.993c0.909-0.725,1.733-1.549,2.458-2.458l-1.993-4.193c0.347-0.647,0.633-1.334,0.851-2.049L31.229,17.736zM16,20.871c-2.69,0-4.872-2.182-4.872-4.871c0-2.69,2.182-4.872,4.872-4.872c2.689,0,4.871,2.182,4.871,4.872C20.871,18.689,18.689,20.871,16,20.871z"></path><title>Link options.</title></g></g></g></g><g   id="j_251" ><path  stroke="#707070" d="M 750 458 L 2029 1053" id="v-3373" stroke-width="2" stroke-dasharray="30 30" fill="none" style="opacity: 1;"></path><path  fill="black" stroke="black" d="M 0 0 0 0" transform="matrix(0.906632647763528,0.4219208954404776,-0.4219208954404776,0.906632647763528,750,458.0799865722656)"></path><path  fill="#707070" stroke="#707070" d="M 20 0 L 0 10 L 20 20 z" id="v-3375" transform="matrix(-0.9066326758546088,-0.421920835077757,0.421920835077757,-0.9066326758546088,2024.7808342280807,1062.3563358905735)" style="opacity: 1;"></path><path  d="M 750 458 L 2029 1053" id="v-3374" fill="none" style="cursor: default;"></path><g ><g id="v-3364"  label-idx="0" cursor="move" transform="matrix(1,0,0,1,1389.5,755.5)" style="cursor: default; opacity: 1;"><rect joint-selector="rect" id="v-3368" fill="#ffffff" rx="3" ry="3" stroke="#ffffff" stroke-width="20px" pointer-events="none" width="70.02764892578125" height="32.80937957763672" transform="matrix(1,0,0,1,-34.2,-16.4)"></rect><text joint-selector="text" id="v-3367" font-size="24px" xml:space="preserve" y="0.8em" fill="#707070" text-anchor="middle" pointer-events="none" font-family="Open Sans" font-weight="normal" transform="matrix(1,0,0,1,0,-11)"><tspan dy="0" >SignIn</tspan></text></g><g id="v-3365"  label-idx="1" cursor="move" transform="matrix(1,0,0,1,1389.5,782.5)" style="cursor: default; opacity: 1;"><rect joint-selector="rect" id="v-3370" fill="#ffffff" rx="3" ry="3" pointer-events="none" width="61.85934829711914" height="24.60703468322754" transform="matrix(1,0,0,1,-30.9,-12.3)"></rect><text joint-selector="text" id="v-3369" font-size="17px" xml:space="preserve" y="0.8em" fill="#707070" text-anchor="middle" pointer-events="none" font-family="Open Sans" font-weight="normal" transform="matrix(1,0,0,1,0,-6.8)"><tspan dy="0" >[HTTPS]</tspan></text></g><g id="v-3366"  label-idx="2" cursor="move" transform="matrix(1,0,0,1,1379.5,791.75)" style="cursor: default; opacity: 1;"><rect joint-selector="rect" id="v-3372" fill="#ffffff" rx="3" ry="3"  width="0" height="0" transform="matrix(1,0,0,1,0,0)" display="none"></rect><text joint-selector="text" id="v-3371" fill="#000000" font-size="14" text-anchor="middle" pointer-events="none"></text></g></g><g  display="none"></g><g  id="v-3377" display="none"><g  id="v-3362"><path  end="source" d="M 26 0 L 0 13 L 26 26 z"></path></g><g  id="v-3363"><path  end="target" d="M 26 0 L 0 13 L 26 26 z"></path></g></g><g  id="v-3376" display="none"><g  id="v-3361" transform="translate(786.2675835381783, 474.8719407390274) "><g  event="remove"><circle r="11"></circle><path transform="scale(.8) translate(-16, -16)" d="M24.778,21.419 19.276,15.917 24.777,10.415 21.949,7.585 16.447,13.087 10.945,7.585 8.117,10.415 13.618,15.917 8.116,21.419 10.946,24.248 16.447,18.746 21.948,24.248z"></path><title>Remove link.</title></g><g  event="link:options"><circle r="11" transform="translate(25)"></circle><path fill="white" transform="scale(.55) translate(29, -16)" d="M31.229,17.736c0.064-0.571,0.104-1.148,0.104-1.736s-0.04-1.166-0.104-1.737l-4.377-1.557c-0.218-0.716-0.504-1.401-0.851-2.05l1.993-4.192c-0.725-0.91-1.549-1.734-2.458-2.459l-4.193,1.994c-0.647-0.347-1.334-0.632-2.049-0.849l-1.558-4.378C17.165,0.708,16.588,0.667,16,0.667s-1.166,0.041-1.737,0.105L12.707,5.15c-0.716,0.217-1.401,0.502-2.05,0.849L6.464,4.005C5.554,4.73,4.73,5.554,4.005,6.464l1.994,4.192c-0.347,0.648-0.632,1.334-0.849,2.05l-4.378,1.557C0.708,14.834,0.667,15.412,0.667,16s0.041,1.165,0.105,1.736l4.378,1.558c0.217,0.715,0.502,1.401,0.849,2.049l-1.994,4.193c0.725,0.909,1.549,1.733,2.459,2.458l4.192-1.993c0.648,0.347,1.334,0.633,2.05,0.851l1.557,4.377c0.571,0.064,1.148,0.104,1.737,0.104c0.588,0,1.165-0.04,1.736-0.104l1.558-4.377c0.715-0.218,1.399-0.504,2.049-0.851l4.193,1.993c0.909-0.725,1.733-1.549,2.458-2.458l-1.993-4.193c0.347-0.647,0.633-1.334,0.851-2.049L31.229,17.736zM16,20.871c-2.69,0-4.872-2.182-4.872-4.871c0-2.69,2.182-4.872,4.872-4.872c2.689,0,4.871,2.182,4.871,4.872C20.871,18.689,18.689,20.871,16,20.871z"></path><title>Link options.</title></g></g></g></g><g   id="j_252" ><path  stroke="#707070" d="M 551 565 L 553 1008" id="v-3393" stroke-width="2" stroke-dasharray="30 30" fill="none" style="opacity: 1;"></path><path  fill="black" stroke="black" d="M 0 0 0 0" transform="matrix(0.005033752676074652,0.999987330586741,-0.999987330586741,0.005033752676074652,551.010009765625,565)"></path><path  fill="#707070" stroke="#707070" d="M 20 0 L 0 10 L 20 20 z" id="v-3395" transform="matrix(-0.0050338858324422775,-0.9999873299164475,0.9999873299164475,-0.0050338858324422775,543.2401017896287,1008.0503342278012)" style="opacity: 1;"></path><path  d="M 551 565 L 553 1008" id="v-3394" fill="none" style="cursor: default;"></path><g ><g id="v-3384"  label-idx="0" cursor="move" transform="matrix(1,0,0,1,552,786.5)" style="cursor: default; opacity: 1;"><rect joint-selector="rect" id="v-3388" fill="#ffffff" rx="3" ry="3" stroke="#ffffff" stroke-width="20px" pointer-events="none" width="169.7977752685547" height="32.80937957763672" transform="matrix(1,0,0,1,-83.8,-16.4)"></rect><text joint-selector="text" id="v-3387" font-size="24px" xml:space="preserve" y="0.8em" fill="#707070" text-anchor="middle" pointer-events="none" font-family="Open Sans" font-weight="normal" transform="matrix(1,0,0,1,0,-11)"><tspan dy="0" >Labels projects</tspan></text></g><g id="v-3385"  label-idx="1" cursor="move" transform="matrix(1,0,0,1,552,813.5)" style="cursor: default; opacity: 1;"><rect joint-selector="rect" id="v-3390" fill="#ffffff" rx="3" ry="3" pointer-events="none" width="61.85934829711914" height="24.60703468322754" transform="matrix(1,0,0,1,-30.9,-12.3)"></rect><text joint-selector="text" id="v-3389" font-size="17px" xml:space="preserve" y="0.8em" fill="#707070" text-anchor="middle" pointer-events="none" font-family="Open Sans" font-weight="normal" transform="matrix(1,0,0,1,0,-6.8)"><tspan dy="0" >[HTTPS]</tspan></text></g><g id="v-3386"  label-idx="2" cursor="move" transform="matrix(1,0,0,1,542,822.75)" style="cursor: default; opacity: 1;"><rect joint-selector="rect" id="v-3392" fill="#ffffff" rx="3" ry="3"  width="0" height="0" transform="matrix(1,0,0,1,0,0)" display="none"></rect><text joint-selector="text" id="v-3391" fill="#000000" font-size="14" text-anchor="middle" pointer-events="none"></text></g></g><g  display="none"></g><g  id="v-3397" display="none"><g  id="v-3382"><path  end="source" d="M 26 0 L 0 13 L 26 26 z"></path></g><g  id="v-3383"><path  end="target" d="M 26 0 L 0 13 L 26 26 z"></path></g></g><g  id="v-3396" display="none"><g  id="v-3381" transform="translate(551.1805850670918, 604.9995923608421) "><g  event="remove"><circle r="11"></circle><path transform="scale(.8) translate(-16, -16)" d="M24.778,21.419 19.276,15.917 24.777,10.415 21.949,7.585 16.447,13.087 10.945,7.585 8.117,10.415 13.618,15.917 8.116,21.419 10.946,24.248 16.447,18.746 21.948,24.248z"></path><title>Remove link.</title></g><g  event="link:options"><circle r="11" transform="translate(25)"></circle><path fill="white" transform="scale(.55) translate(29, -16)" d="M31.229,17.736c0.064-0.571,0.104-1.148,0.104-1.736s-0.04-1.166-0.104-1.737l-4.377-1.557c-0.218-0.716-0.504-1.401-0.851-2.05l1.993-4.192c-0.725-0.91-1.549-1.734-2.458-2.459l-4.193,1.994c-0.647-0.347-1.334-0.632-2.049-0.849l-1.558-4.378C17.165,0.708,16.588,0.667,16,0.667s-1.166,0.041-1.737,0.105L12.707,5.15c-0.716,0.217-1.401,0.502-2.05,0.849L6.464,4.005C5.554,4.73,4.73,5.554,4.005,6.464l1.994,4.192c-0.347,0.648-0.632,1.334-0.849,2.05l-4.378,1.557C0.708,14.834,0.667,15.412,0.667,16s0.041,1.165,0.105,1.736l4.378,1.558c0.217,0.715,0.502,1.401,0.849,2.049l-1.994,4.193c0.725,0.909,1.549,1.733,2.459,2.458l4.192-1.993c0.648,0.347,1.334,0.633,2.05,0.851l1.557,4.377c0.571,0.064,1.148,0.104,1.737,0.104c0.588,0,1.165-0.04,1.736-0.104l1.558-4.377c0.715-0.218,1.399-0.504,2.049-0.851l4.193,1.993c0.909-0.725,1.733-1.549,2.458-2.458l-1.993-4.193c0.347-0.647,0.633-1.334,0.851-2.049L31.229,17.736zM16,20.871c-2.69,0-4.872-2.182-4.872-4.871c0-2.69,2.182-4.872,4.872-4.872c2.689,0,4.871,2.182,4.871,4.872C20.871,18.689,18.689,20.871,16,20.871z"></path><title>Link options.</title></g></g></g></g><g   id="j_253" ><path  stroke="#707070" d="M 1495 1308 L 1738 1708" id="v-3413" stroke-width="2" stroke-dasharray="30 30" fill="none" style="opacity: 1;"></path><path  fill="black" stroke="black" d="M 0 0 0 0" transform="matrix(0.5189825914245976,0.8547848090591041,-0.8547848090591041,0.5189825914245976,1495.0699462890625,1308)"></path><path  fill="#707070" stroke="#707070" d="M 20 0 L 0 10 L 20 20 z" id="v-3415" transform="matrix(-0.5189827052460751,-0.8547847399523845,0.8547847399523845,-0.5189827052460751,1729.3822140279367,1713.1898228894845)" style="opacity: 1;"></path><path  d="M 1495 1308 L 1738 1708" id="v-3414" fill="none" style="cursor: default;"></path><g ><g id="v-3404"  label-idx="0" cursor="move" transform="matrix(1,0,0,1,1616.5,1508)" style="cursor: default; opacity: 1;"><rect joint-selector="rect" id="v-3408" fill="#ffffff" rx="3" ry="3" stroke="#ffffff" stroke-width="20px" pointer-events="none" width="190.2690887451172" height="32.80937957763672" transform="matrix(1,0,0,1,-93.9,-16.4)"></rect><text joint-selector="text" id="v-3407" font-size="24px" xml:space="preserve" y="0.8em" fill="#707070" text-anchor="middle" pointer-events="none" font-family="Open Sans" font-weight="normal" transform="matrix(1,0,0,1,0,-11)"><tspan dy="0" >Register Request</tspan></text></g><g id="v-3405"  label-idx="1" cursor="move" transform="matrix(1,0,0,1,1616.5,1535)" style="cursor: default; opacity: 1;"><rect joint-selector="rect" id="v-3410" fill="#ffffff" rx="3" ry="3" pointer-events="none" width="107.95481872558594" height="24.60703468322754" transform="matrix(1,0,0,1,-54,-12.3)"></rect><text joint-selector="text" id="v-3409" font-size="17px" xml:space="preserve" y="0.8em" fill="#707070" text-anchor="middle" pointer-events="none" font-family="Open Sans" font-weight="normal" transform="matrix(1,0,0,1,0,-6.8)"><tspan dy="0" >[JSON/HTTPS]</tspan></text></g><g id="v-3406"  label-idx="2" cursor="move" transform="matrix(1,0,0,1,1606.5,1544.25)" style="cursor: default; opacity: 1;"><rect joint-selector="rect" id="v-3412" fill="#ffffff" rx="3" ry="3"  width="0" height="0" transform="matrix(1,0,0,1,0,0)" display="none"></rect><text joint-selector="text" id="v-3411" fill="#000000" font-size="14" text-anchor="middle" pointer-events="none"></text></g></g><g  display="none"></g><g  id="v-3417" display="none"><g  id="v-3402"><path  end="source" d="M 26 0 L 0 13 L 26 26 z"></path></g><g  id="v-3403"><path  end="target" d="M 26 0 L 0 13 L 26 26 z"></path></g></g><g  id="v-3416" display="none"><g  id="v-3401" transform="translate(1515.7680455422153, 1342.1860831970623) "><g  event="remove"><circle r="11"></circle><path transform="scale(.8) translate(-16, -16)" d="M24.778,21.419 19.276,15.917 24.777,10.415 21.949,7.585 16.447,13.087 10.945,7.585 8.117,10.415 13.618,15.917 8.116,21.419 10.946,24.248 16.447,18.746 21.948,24.248z"></path><title>Remove link.</title></g><g  event="link:options"><circle r="11" transform="translate(25)"></circle><path fill="white" transform="scale(.55) translate(29, -16)" d="M31.229,17.736c0.064-0.571,0.104-1.148,0.104-1.736s-0.04-1.166-0.104-1.737l-4.377-1.557c-0.218-0.716-0.504-1.401-0.851-2.05l1.993-4.192c-0.725-0.91-1.549-1.734-2.458-2.459l-4.193,1.994c-0.647-0.347-1.334-0.632-2.049-0.849l-1.558-4.378C17.165,0.708,16.588,0.667,16,0.667s-1.166,0.041-1.737,0.105L12.707,5.15c-0.716,0.217-1.401,0.502-2.05,0.849L6.464,4.005C5.554,4.73,4.73,5.554,4.005,6.464l1.994,4.192c-0.347,0.648-0.632,1.334-0.849,2.05l-4.378,1.557C0.708,14.834,0.667,15.412,0.667,16s0.041,1.165,0.105,1.736l4.378,1.558c0.217,0.715,0.502,1.401,0.849,2.049l-1.994,4.193c0.725,0.909,1.549,1.733,2.459,2.458l4.192-1.993c0.648,0.347,1.334,0.633,2.05,0.851l1.557,4.377c0.571,0.064,1.148,0.104,1.737,0.104c0.588,0,1.165-0.04,1.736-0.104l1.558-4.377c0.715-0.218,1.399-0.504,2.049-0.851l4.193,1.993c0.909-0.725,1.733-1.549,2.458-2.458l-1.993-4.193c0.347-0.647,0.633-1.334,0.851-2.049L31.229,17.736zM16,20.871c-2.69,0-4.872-2.182-4.872-4.871c0-2.69,2.182-4.872,4.872-4.872c2.689,0,4.871,2.182,4.871,4.872C20.871,18.689,18.689,20.871,16,20.871z"></path><title>Link options.</title></g></g></g></g><g   id="j_254" ><path  stroke="#707070" d="M 3093 540 L 3101 1008" id="v-3433" stroke-width="2" stroke-dasharray="30 30" fill="none" style="opacity: 1;"></path><path  fill="black" stroke="black" d="M 0 0 0 0" transform="matrix(0.01711290411429619,0.9998535635345682,-0.9998535635345682,0.01711290411429619,3093.419921875,540)"></path><path  fill="#707070" stroke="#707070" d="M 20 0 L 0 10 L 20 20 z" id="v-3435" transform="matrix(-0.017112637837184707,-0.9998535680919748,0.9998535680919748,-0.017112637837184707,3091.431379759952,1008.1711269030413)" style="opacity: 1;"></path><path  d="M 3093 540 L 3101 1008" id="v-3434" fill="none" style="cursor: default;"></path><g ><g id="v-3424"  label-idx="0" cursor="move" transform="matrix(1,0,0,1,3097,774)" style="cursor: default; opacity: 1;"><rect joint-selector="rect" id="v-3428" fill="#ffffff" rx="3" ry="3" stroke="#ffffff" stroke-width="20px" pointer-events="none" width="169.58700561523438" height="119.20938491821289" transform="matrix(1,0,0,1,-83.7,-59.6)"></rect><text joint-selector="text" id="v-3427" font-size="24px" xml:space="preserve" y="0.8em" fill="#707070" text-anchor="middle" pointer-events="none" font-family="Open Sans" font-weight="normal" transform="matrix(1,0,0,1,0,-54.2)"><tspan dy="0" >Administrates</tspan><tspan dy="1.2em" x="0" >and supervises</tspan><tspan dy="1.2em" x="0" >the labeling</tspan><tspan dy="1.2em" x="0" >projects</tspan></text></g><g id="v-3425"  label-idx="1" cursor="move" transform="matrix(1,0,0,1,3097,846)" style="cursor: default; opacity: 1;"><rect joint-selector="rect" id="v-3430" fill="#ffffff" rx="3" ry="3" pointer-events="none" width="61.85934829711914" height="24.60703468322754" transform="matrix(1,0,0,1,-30.9,-12.3)"></rect><text joint-selector="text" id="v-3429" font-size="17px" xml:space="preserve" y="0.8em" fill="#707070" text-anchor="middle" pointer-events="none" font-family="Open Sans" font-weight="normal" transform="matrix(1,0,0,1,0,-6.8)"><tspan dy="0" >[HTTPS]</tspan></text></g><g id="v-3426"  label-idx="2" cursor="move" transform="matrix(1,0,0,1,3087,855.25)" style="cursor: default; opacity: 1;"><rect joint-selector="rect" id="v-3432" fill="#ffffff" rx="3" ry="3"  width="0" height="0" transform="matrix(1,0,0,1,0,0)" display="none"></rect><text joint-selector="text" id="v-3431" fill="#000000" font-size="14" text-anchor="middle" pointer-events="none"></text></g></g><g  display="none"></g><g  id="v-3437" display="none"><g  id="v-3422"><path  end="source" d="M 26 0 L 0 13 L 26 26 z"></path></g><g  id="v-3423"><path  end="target" d="M 26 0 L 0 13 L 26 26 z"></path></g></g><g  id="v-3436" display="none"><g  id="v-3421" transform="translate(3093.68366080636, 579.9941571720401) "><g  event="remove"><circle r="11"></circle><path transform="scale(.8) translate(-16, -16)" d="M24.778,21.419 19.276,15.917 24.777,10.415 21.949,7.585 16.447,13.087 10.945,7.585 8.117,10.415 13.618,15.917 8.116,21.419 10.946,24.248 16.447,18.746 21.948,24.248z"></path><title>Remove link.</title></g><g  event="link:options"><circle r="11" transform="translate(25)"></circle><path fill="white" transform="scale(.55) translate(29, -16)" d="M31.229,17.736c0.064-0.571,0.104-1.148,0.104-1.736s-0.04-1.166-0.104-1.737l-4.377-1.557c-0.218-0.716-0.504-1.401-0.851-2.05l1.993-4.192c-0.725-0.91-1.549-1.734-2.458-2.459l-4.193,1.994c-0.647-0.347-1.334-0.632-2.049-0.849l-1.558-4.378C17.165,0.708,16.588,0.667,16,0.667s-1.166,0.041-1.737,0.105L12.707,5.15c-0.716,0.217-1.401,0.502-2.05,0.849L6.464,4.005C5.554,4.73,4.73,5.554,4.005,6.464l1.994,4.192c-0.347,0.648-0.632,1.334-0.849,2.05l-4.378,1.557C0.708,14.834,0.667,15.412,0.667,16s0.041,1.165,0.105,1.736l4.378,1.558c0.217,0.715,0.502,1.401,0.849,2.049l-1.994,4.193c0.725,0.909,1.549,1.733,2.459,2.458l4.192-1.993c0.648,0.347,1.334,0.633,2.05,0.851l1.557,4.377c0.571,0.064,1.148,0.104,1.737,0.104c0.588,0,1.165-0.04,1.736-0.104l1.558-4.377c0.715-0.218,1.399-0.504,2.049-0.851l4.193,1.993c0.909-0.725,1.733-1.549,2.458-2.458l-1.993-4.193c0.347-0.647,0.633-1.334,0.851-2.049L31.229,17.736zM16,20.871c-2.69,0-4.872-2.182-4.872-4.871c0-2.69,2.182-4.872,4.872-4.872c2.689,0,4.871,2.182,4.871,4.872C20.871,18.689,18.689,20.871,16,20.871z"></path><title>Link options.</title></g></g></g></g><g   id="j_255" ><path  stroke="#707070" d="M 750 427 L 2879 1088" id="v-3453" stroke-width="2" stroke-dasharray="30 30" fill="none" style="opacity: 1;"></path><path  fill="black" stroke="black" d="M 0 0 0 0" transform="matrix(0.9550240213892688,0.2965284447898202,-0.2965284447898202,0.9550240213892688,750,427.1000061035156)"></path><path  fill="#707070" stroke="#707070" d="M 20 0 L 0 10 L 20 20 z" id="v-3455" transform="matrix(-0.9550240510031272,-0.29652834941296324,0.29652834941296324,-0.9550240510031272,2876.0346640471516,1097.6902066213484)" style="opacity: 1;"></path><path  d="M 750 427 L 2879 1088" id="v-3454" fill="none" style="cursor: default;"></path><g ><g id="v-3444"  label-idx="0" cursor="move" transform="matrix(1,0,0,1,1814.5,757.5)" style="cursor: default; opacity: 1;"><rect joint-selector="rect" id="v-3448" fill="#ffffff" rx="3" ry="3" stroke="#ffffff" stroke-width="20px" pointer-events="none" width="160.7769317626953" height="61.609384536743164" transform="matrix(1,0,0,1,-81.4,-30.8)"></rect><text joint-selector="text" id="v-3447" font-size="24px" xml:space="preserve" y="0.8em" fill="#707070" text-anchor="middle" pointer-events="none" font-family="Open Sans" font-weight="normal" transform="matrix(1,0,0,1,0,-25.4)"><tspan dy="0" >Views labeling</tspan><tspan dy="1.2em" x="0" >projects</tspan></text></g><g id="v-3445"  label-idx="1" cursor="move" transform="matrix(1,0,0,1,1814.5,799.5)" style="cursor: default; opacity: 1;"><rect joint-selector="rect" id="v-3450" fill="#ffffff" rx="3" ry="3" pointer-events="none" width="61.85934829711914" height="24.60703468322754" transform="matrix(1,0,0,1,-30.9,-12.3)"></rect><text joint-selector="text" id="v-3449" font-size="17px" xml:space="preserve" y="0.8em" fill="#707070" text-anchor="middle" pointer-events="none" font-family="Open Sans" font-weight="normal" transform="matrix(1,0,0,1,0,-6.8)"><tspan dy="0" >[HTTPS]</tspan></text></g><g id="v-3446"  label-idx="2" cursor="move" transform="matrix(1,0,0,1,1804.5,808.75)" style="cursor: default; opacity: 1;"><rect joint-selector="rect" id="v-3452" fill="#ffffff" rx="3" ry="3"  width="0" height="0" transform="matrix(1,0,0,1,0,0)" display="none"></rect><text joint-selector="text" id="v-3451" fill="#000000" font-size="14" text-anchor="middle" pointer-events="none"></text></g></g><g  display="none"></g><g  id="v-3457" display="none"><g  id="v-3442"><path  end="source" d="M 26 0 L 0 13 L 26 26 z"></path></g><g  id="v-3443"><path  end="target" d="M 26 0 L 0 13 L 26 26 z"></path></g></g><g  id="v-3456" display="none"><g  id="v-3441" transform="translate(788.2011639979613, 438.8604835146324) "><g  event="remove"><circle r="11"></circle><path transform="scale(.8) translate(-16, -16)" d="M24.778,21.419 19.276,15.917 24.777,10.415 21.949,7.585 16.447,13.087 10.945,7.585 8.117,10.415 13.618,15.917 8.116,21.419 10.946,24.248 16.447,18.746 21.948,24.248z"></path><title>Remove link.</title></g><g  event="link:options"><circle r="11" transform="translate(25)"></circle><path fill="white" transform="scale(.55) translate(29, -16)" d="M31.229,17.736c0.064-0.571,0.104-1.148,0.104-1.736s-0.04-1.166-0.104-1.737l-4.377-1.557c-0.218-0.716-0.504-1.401-0.851-2.05l1.993-4.192c-0.725-0.91-1.549-1.734-2.458-2.459l-4.193,1.994c-0.647-0.347-1.334-0.632-2.049-0.849l-1.558-4.378C17.165,0.708,16.588,0.667,16,0.667s-1.166,0.041-1.737,0.105L12.707,5.15c-0.716,0.217-1.401,0.502-2.05,0.849L6.464,4.005C5.554,4.73,4.73,5.554,4.005,6.464l1.994,4.192c-0.347,0.648-0.632,1.334-0.849,2.05l-4.378,1.557C0.708,14.834,0.667,15.412,0.667,16s0.041,1.165,0.105,1.736l4.378,1.558c0.217,0.715,0.502,1.401,0.849,2.049l-1.994,4.193c0.725,0.909,1.549,1.733,2.459,2.458l4.192-1.993c0.648,0.347,1.334,0.633,2.05,0.851l1.557,4.377c0.571,0.064,1.148,0.104,1.737,0.104c0.588,0,1.165-0.04,1.736-0.104l1.558-4.377c0.715-0.218,1.399-0.504,2.049-0.851l4.193,1.993c0.909-0.725,1.733-1.549,2.458-2.458l-1.993-4.193c0.347-0.647,0.633-1.334,0.851-2.049L31.229,17.736zM16,20.871c-2.69,0-4.872-2.182-4.872-4.871c0-2.69,2.182-4.872,4.872-4.872c2.689,0,4.871,2.182,4.871,4.872C20.871,18.689,18.689,20.871,16,20.871z"></path><title>Link options.</title></g></g></g></g><g   id="j_256" ><path  stroke="#707070" d="M 2163 1308 L 1920 1708" id="v-3473" stroke-width="2" stroke-dasharray="30 30" fill="none" style="opacity: 1;"></path><path  fill="black" stroke="black" d="M 0 0 0 0" transform="matrix(-0.5189825914245975,0.8547848090591043,-0.8547848090591043,-0.5189825914245975,2162.929931640625,1308)"></path><path  fill="#707070" stroke="#707070" d="M 20 0 L 0 10 L 20 20 z" id="v-3475" transform="matrix(0.5189827052460748,-0.8547847399523846,0.8547847399523846,0.5189827052460748,1911.5220911730155,1702.8101687845628)" style="opacity: 1;"></path><path  d="M 2163 1308 L 1920 1708" id="v-3474" fill="none" style="cursor: default;"></path><g ><g id="v-3464"  label-idx="0" cursor="move" transform="matrix(1,0,0,1,2041.5,1508)" style="cursor: default; opacity: 1;"><rect joint-selector="rect" id="v-3468" fill="#ffffff" rx="3" ry="3" stroke="#ffffff" stroke-width="20px" pointer-events="none" width="160.41348266601562" height="32.80937957763672" transform="matrix(1,0,0,1,-79,-16.4)"></rect><text joint-selector="text" id="v-3467" font-size="24px" xml:space="preserve" y="0.8em" fill="#707070" text-anchor="middle" pointer-events="none" font-family="Open Sans" font-weight="normal" transform="matrix(1,0,0,1,0,-11)"><tspan dy="0" >Login Request</tspan></text></g><g id="v-3465"  label-idx="1" cursor="move" transform="matrix(1,0,0,1,2041.5,1535)" style="cursor: default; opacity: 1;"><rect joint-selector="rect" id="v-3470" fill="#ffffff" rx="3" ry="3" pointer-events="none" width="107.95481872558594" height="24.60703468322754" transform="matrix(1,0,0,1,-54,-12.3)"></rect><text joint-selector="text" id="v-3469" font-size="17px" xml:space="preserve" y="0.8em" fill="#707070" text-anchor="middle" pointer-events="none" font-family="Open Sans" font-weight="normal" transform="matrix(1,0,0,1,0,-6.8)"><tspan dy="0" >[JSON/HTTPS]</tspan></text></g><g id="v-3466"  label-idx="2" cursor="move" transform="matrix(1,0,0,1,2031.5,1544.25)" style="cursor: default; opacity: 1;"><rect joint-selector="rect" id="v-3472" fill="#ffffff" rx="3" ry="3"  width="0" height="0" transform="matrix(1,0,0,1,0,0)" display="none"></rect><text joint-selector="text" id="v-3471" fill="#000000" font-size="14" text-anchor="middle" pointer-events="none"></text></g></g><g  display="none"></g><g  id="v-3477" display="none"><g  id="v-3462"><path  end="source" d="M 26 0 L 0 13 L 26 26 z"></path></g><g  id="v-3463"><path  end="target" d="M 26 0 L 0 13 L 26 26 z"></path></g></g><g  id="v-3476" display="none"><g  id="v-3461" transform="translate(2142.2319544577845, 1342.1860831970623) "><g  event="remove"><circle r="11"></circle><path transform="scale(.8) translate(-16, -16)" d="M24.778,21.419 19.276,15.917 24.777,10.415 21.949,7.585 16.447,13.087 10.945,7.585 8.117,10.415 13.618,15.917 8.116,21.419 10.946,24.248 16.447,18.746 21.948,24.248z"></path><title>Remove link.</title></g><g  event="link:options"><circle r="11" transform="translate(25)"></circle><path fill="white" transform="scale(.55) translate(29, -16)" d="M31.229,17.736c0.064-0.571,0.104-1.148,0.104-1.736s-0.04-1.166-0.104-1.737l-4.377-1.557c-0.218-0.716-0.504-1.401-0.851-2.05l1.993-4.192c-0.725-0.91-1.549-1.734-2.458-2.459l-4.193,1.994c-0.647-0.347-1.334-0.632-2.049-0.849l-1.558-4.378C17.165,0.708,16.588,0.667,16,0.667s-1.166,0.041-1.737,0.105L12.707,5.15c-0.716,0.217-1.401,0.502-2.05,0.849L6.464,4.005C5.554,4.73,4.73,5.554,4.005,6.464l1.994,4.192c-0.347,0.648-0.632,1.334-0.849,2.05l-4.378,1.557C0.708,14.834,0.667,15.412,0.667,16s0.041,1.165,0.105,1.736l4.378,1.558c0.217,0.715,0.502,1.401,0.849,2.049l-1.994,4.193c0.725,0.909,1.549,1.733,2.459,2.458l4.192-1.993c0.648,0.347,1.334,0.633,2.05,0.851l1.557,4.377c0.571,0.064,1.148,0.104,1.737,0.104c0.588,0,1.165-0.04,1.736-0.104l1.558-4.377c0.715-0.218,1.399-0.504,2.049-0.851l4.193,1.993c0.909-0.725,1.733-1.549,2.458-2.458l-1.993-4.193c0.347-0.647,0.633-1.334,0.851-2.049L31.229,17.736zM16,20.871c-2.69,0-4.872-2.182-4.872-4.871c0-2.69,2.182-4.872,4.872-4.872c2.689,0,4.871,2.182,4.871,4.872C20.871,18.689,18.689,20.871,16,20.871z"></path><title>Link options.</title></g></g></g></g><g   id="j_238"  transform="translate(329,1008)" style=""><g  id="v-3186" style="opacity: 1;"><rect  id="v-3187" rx="20" ry="20" stroke="#78a8d8" stroke-width="2" pointer-events="visiblePainted" fill="#85bbf0" width="450" height="300" style="fill: rgb(133, 187, 240); stroke: rgb(120, 168, 216);"></rect><text  id="v-3188" font-size="34" xml:space="preserve" y="0.8em" font-weight="bold" text-anchor="middle" pointer-events="visible" font-family="Open Sans" fill="#000000" transform="matrix(1,0,0,1,225,83.1)" style="fill: rgb(0, 0, 0);"><tspan dy="0" >Label Controller</tspan></text><text  id="v-3189" font-size="17" xml:space="preserve" y="0.8em" text-anchor="middle" font-family="Open Sans" fill="#000000" transform="matrix(1,0,0,1,225,125.6)" style="fill: rgb(0, 0, 0);"><tspan dy="0" >[Component: React and Ionic]</tspan></text><text  id="v-3190" font-size="24" xml:space="preserve" y="0.8em" text-anchor="middle" font-family="Open Sans" fill="#000000" transform="matrix(1,0,0,1,225,156.9)" style="fill: rgb(0, 0, 0);"><tspan dy="0" >Allows labeler to label available</tspan><tspan dy="1.2em" x="0" >projects</tspan></text><g  id="v-3191" color="#000000" transform="matrix(1,0,0,1,222.5,226.9)" style="fill: rgb(0, 0, 0);" display="none"><g ></g><g ></g><g ></g><g ></g></g><image  id="v-3192"></image></g></g><g   id="j_240"  transform="translate(350,165)" style=""><g  id="v-3201" style="opacity: 1;"><rect  x="0" y="160" width="400" height="240" rx="70" id="v-3203" stroke="#073b6f" stroke-width="2" pointer-events="visiblePainted" fill="#08427b" style="fill: rgb(8, 66, 123); stroke: rgb(7, 59, 111);"></rect><circle  cx="200" cy="88.88888888888889" r="88.88888888888889" id="v-3202" stroke="#073b6f" stroke-width="2" pointer-events="visiblePainted" fill="#08427b" style="fill: rgb(8, 66, 123); stroke: rgb(7, 59, 111);"></circle><line  x1="80" y1="266.6666666666667" x2="80" y2="400" id="v-3209" stroke="#073b6f" stroke-width="2" style="stroke: rgb(7, 59, 111);"></line><line  x1="320" y1="266.6666666666667" x2="320" y2="400" id="v-3210" stroke="#073b6f" stroke-width="2" style="stroke: rgb(7, 59, 111);"></line><text  id="v-3204" font-size="34" xml:space="preserve" y="0.8em" font-weight="bold" text-anchor="middle" pointer-events="visible" font-family="Open Sans" fill="#ffffff" transform="matrix(1,0,0,1,200,213.1)" style="fill: rgb(255, 255, 255);"><tspan dy="0" >Labeler</tspan></text><text  id="v-3205" font-size="17" xml:space="preserve" y="0.8em" text-anchor="middle" font-family="Open Sans" fill="#ffffff" transform="matrix(1,0,0,1,200,255.6)" style="fill: rgb(255, 255, 255);"><tspan dy="0" >[Person]</tspan></text><text  id="v-3206" font-size="24" xml:space="preserve" y="0.8em" text-anchor="middle" font-family="Open Sans" fill="#ffffff" transform="matrix(1,0,0,1,200,286.9)" style="fill: rgb(255, 255, 255);"><tspan dy="0" >A user of the application acting</tspan><tspan dy="1.2em" x="0" >as a data labeler</tspan></text><g  id="v-3207" font-weight="normal" text-anchor="middle" color="#ffffff" transform="matrix(1,0,0,1,197.5,356.9)" style="fill: rgb(255, 255, 255);" display="none"><g ></g><g ></g><g ></g><g ></g></g><image  id="v-3208"></image></g></g><g   id="j_241"  transform="translate(1604,1708)" style=""><g  id="v-3217" style="opacity: 1;"><rect  id="v-3218" rx="20" ry="20" stroke="#3c7fc0" stroke-width="2" pointer-events="visiblePainted" fill="#438dd5" width="450" height="300" style="fill: rgb(67, 141, 213); stroke: rgb(60, 127, 192);"></rect><text  id="v-3219" font-size="34" xml:space="preserve" y="0.8em" font-weight="bold" text-anchor="middle" pointer-events="visible" font-family="Open Sans" fill="#ffffff" transform="matrix(1,0,0,1,225,83.1)" style="fill: rgb(255, 255, 255);"><tspan dy="0" >Server-side REST API</tspan></text><text  id="v-3220" font-size="17" xml:space="preserve" y="0.8em" text-anchor="middle" font-family="Open Sans" fill="#ffffff" transform="matrix(1,0,0,1,225,125.6)" style="fill: rgb(255, 255, 255);"><tspan dy="0" >[Container: .NET Core]</tspan></text><text  id="v-3221" font-size="24" xml:space="preserve" y="0.8em" text-anchor="middle" font-family="Open Sans" fill="#ffffff" transform="matrix(1,0,0,1,225,156.9)" style="fill: rgb(255, 255, 255);"><tspan dy="0" >Provides the D-LAMA functionality</tspan><tspan dy="1.2em" x="0" >via JSON/HTTPS API</tspan></text><g  id="v-3222" color="#ffffff" transform="matrix(1,0,0,1,210,226.9)" style="fill: rgb(255, 255, 255);" display="none"><g  transform="translate(5 0)"><svg xmlns="http://www.w3.org/2000/svg" width="20" height="20" fill="currentColor" viewBox="0 0 16 16"><path fill-rule="evenodd" d="M6.5 12a5.5 5.5 0 1 0 0-11 5.5 5.5 0 0 0 0 11zM13 6.5a6.5 6.5 0 1 1-13 0 6.5 6.5 0 0 1 13 0z"></path><path d="M10.344 11.742c.03.04.062.078.098.115l3.85 3.85a1 1 0 0 0 1.415-1.414l-3.85-3.85a1.007 1.007 0 0 0-.115-.1 6.538 6.538 0 0 1-1.398 1.4z"></path><path fill-rule="evenodd" d="M6.5 3a.5.5 0 0 1 .5.5V6h2.5a.5.5 0 0 1 0 1H7v2.5a.5.5 0 0 1-1 0V7H3.5a.5.5 0 0 1 0-1H6V3.5a.5.5 0 0 1 .5-.5z"></path></svg></g><g ></g><g ></g><g ></g></g><image  id="v-3223"></image></g></g><g   id="j_242"  transform="translate(2890,140)" style=""><g  id="v-3227" style="opacity: 1;"><rect  x="0" y="160" width="400" height="240" rx="70" id="v-3229" stroke="#073b6f" stroke-width="2" pointer-events="visiblePainted" fill="#08427b" style="fill: rgb(8, 66, 123); stroke: rgb(7, 59, 111);"></rect><circle  cx="200" cy="88.88888888888889" r="88.88888888888889" id="v-3228" stroke="#073b6f" stroke-width="2" pointer-events="visiblePainted" fill="#08427b" style="fill: rgb(8, 66, 123); stroke: rgb(7, 59, 111);"></circle><line  x1="80" y1="266.6666666666667" x2="80" y2="400" id="v-3235" stroke="#073b6f" stroke-width="2" style="stroke: rgb(7, 59, 111);"></line><line  x1="320" y1="266.6666666666667" x2="320" y2="400" id="v-3236" stroke="#073b6f" stroke-width="2" style="stroke: rgb(7, 59, 111);"></line><text  id="v-3230" font-size="34" xml:space="preserve" y="0.8em" font-weight="bold" text-anchor="middle" pointer-events="visible" font-family="Open Sans" fill="#ffffff" transform="matrix(1,0,0,1,200,183.1)" style="fill: rgb(255, 255, 255);"><tspan dy="0" >Admin</tspan></text><text  id="v-3231" font-size="17" xml:space="preserve" y="0.8em" text-anchor="middle" font-family="Open Sans" fill="#ffffff" transform="matrix(1,0,0,1,200,225.6)" style="fill: rgb(255, 255, 255);"><tspan dy="0" >[Person]</tspan></text><text  id="v-3232" font-size="24" xml:space="preserve" y="0.8em" text-anchor="middle" font-family="Open Sans" fill="#ffffff" transform="matrix(1,0,0,1,200,256.9)" style="fill: rgb(255, 255, 255);"><tspan dy="0" >A user of the application acting</tspan><tspan dy="1.2em" x="0" >as an admin who provides the</tspan><tspan dy="1.2em" x="0" >data and needs the data</tspan><tspan dy="1.2em" x="0" >labeled</tspan></text><g  id="v-3233" font-weight="normal" text-anchor="middle" color="#ffffff" transform="matrix(1,0,0,1,197.5,386.9)" style="fill: rgb(255, 255, 255);" display="none"><g ></g><g ></g><g ></g><g ></g></g><image  id="v-3234"></image></g></g><g   id="j_243"  transform="translate(2029,1008)" style=""><g  id="v-3243" style="opacity: 1;"><rect  id="v-3244" rx="20" ry="20" stroke="#78a8d8" stroke-width="2" pointer-events="visiblePainted" fill="#85bbf0" width="450" height="300" style="fill: rgb(133, 187, 240); stroke: rgb(120, 168, 216);"></rect><text  id="v-3245" font-size="34" xml:space="preserve" y="0.8em" font-weight="bold" text-anchor="middle" pointer-events="visible" font-family="Open Sans" fill="#000000" transform="matrix(1,0,0,1,225,83.1)" style="fill: rgb(0, 0, 0);"><tspan dy="0" >Sign In Controller</tspan></text><text  id="v-3246" font-size="17" xml:space="preserve" y="0.8em" text-anchor="middle" font-family="Open Sans" fill="#000000" transform="matrix(1,0,0,1,225,125.6)" style="fill: rgb(0, 0, 0);"><tspan dy="0" >[Component: React and Ionic]</tspan></text><text  id="v-3247" font-size="24" xml:space="preserve" y="0.8em" text-anchor="middle" font-family="Open Sans" fill="#000000" transform="matrix(1,0,0,1,225,156.9)" style="fill: rgb(0, 0, 0);"><tspan dy="0" >Allows labeler and admin to sign in</tspan><tspan dy="1.2em" x="0" >to the D-LAMA App</tspan></text><g  id="v-3248" color="#000000" transform="matrix(1,0,0,1,222.5,226.9)" style="fill: rgb(0, 0, 0);" display="none"><g ></g><g ></g><g ></g><g ></g></g><image  id="v-3249"></image></g></g><g   id="j_244"  transform="translate(1179,1008)" style=""><g  id="v-3256" style="opacity: 1;"><rect  id="v-3257" rx="20" ry="20" stroke="#78a8d8" stroke-width="2" pointer-events="visiblePainted" fill="#85bbf0" width="450" height="300" style="fill: rgb(133, 187, 240); stroke: rgb(120, 168, 216);"></rect><text  id="v-3258" font-size="34" xml:space="preserve" y="0.8em" font-weight="bold" text-anchor="middle" pointer-events="visible" font-family="Open Sans" fill="#000000" transform="matrix(1,0,0,1,225,83.1)" style="fill: rgb(0, 0, 0);"><tspan dy="0" >Sign On Controller</tspan></text><text  id="v-3259" font-size="17" xml:space="preserve" y="0.8em" text-anchor="middle" font-family="Open Sans" fill="#000000" transform="matrix(1,0,0,1,225,125.6)" style="fill: rgb(0, 0, 0);"><tspan dy="0" >[Component: React and Ionic]</tspan></text><text  id="v-3260" font-size="24" xml:space="preserve" y="0.8em" text-anchor="middle" font-family="Open Sans" fill="#000000" transform="matrix(1,0,0,1,225,156.9)" style="fill: rgb(0, 0, 0);"><tspan dy="0" >Allows labeler and admin to register</tspan><tspan dy="1.2em" x="0" >an account</tspan></text><g  id="v-3261" color="#000000" transform="matrix(1,0,0,1,222.5,226.9)" style="fill: rgb(0, 0, 0);" display="none"><g ></g><g ></g><g ></g><g ></g></g><image  id="v-3262"></image></g></g><g   id="j_245"  transform="translate(2879,1008)" style=""><g  id="v-3269" style="opacity: 1;"><rect  id="v-3270" rx="20" ry="20" stroke="#78a8d8" stroke-width="2" pointer-events="visiblePainted" fill="#85bbf0" width="450" height="300" style="fill: rgb(133, 187, 240); stroke: rgb(120, 168, 216);"></rect><text  id="v-3271" font-size="34" xml:space="preserve" y="0.8em" font-weight="bold" text-anchor="middle" pointer-events="visible" font-family="Open Sans" fill="#000000" transform="matrix(1,0,0,1,225,53.1)" style="fill: rgb(0, 0, 0);"><tspan dy="0" >Project Controller</tspan></text><text  id="v-3272" font-size="17" xml:space="preserve" y="0.8em" text-anchor="middle" font-family="Open Sans" fill="#000000" transform="matrix(1,0,0,1,225,95.6)" style="fill: rgb(0, 0, 0);"><tspan dy="0" >[Component: React and Ionic]</tspan></text><text  id="v-3273" font-size="24" xml:space="preserve" y="0.8em" text-anchor="middle" font-family="Open Sans" fill="#000000" transform="matrix(1,0,0,1,225,126.9)" style="fill: rgb(0, 0, 0);"><tspan dy="0" >Allows labeler to view available</tspan><tspan dy="1.2em" x="0" >projects and allows admin to</tspan><tspan dy="1.2em" x="0" >administrate and supervise the</tspan><tspan dy="1.2em" x="0" >labeling projects</tspan></text><g  id="v-3274" color="#000000" transform="matrix(1,0,0,1,222.5,256.9)" style="fill: rgb(0, 0, 0);" display="none"><g ></g><g ></g><g ></g><g ></g></g><image  id="v-3275"></image></g></g></g><g ></g><g ></g><g ></g></g></svg>