<svg xmlns="http://www.w3.org/2000/svg" xmlns:xlink="http://www.w3.org/1999/xlink" version="1.1" viewBox="0 0 3980 1550" style="background: #ffffff"><defs joint-selector="defs"></defs><g joint-selector="layers"  transform="matrix(1,0,0,1,0,0)"><g ></g><g ><g   id="j_237"  transform="translate(20,1505)"><g id="v-3178"><text  id="v-3179" font-size="22px" xml:space="preserve" y="0.8em" font-weight="normal" text-anchor="start" fill="#aaaaaa" pointer-events="none" font-family="Open Sans"><tspan dy="0" >Samstag, 1. April 2023 um 10:31 Mitteleuropäische Sommerzeit</tspan></text></g></g><g   id="j_236"  transform="translate(20,1461)"><g id="v-3176"><text  id="v-3177" font-size="36px" xml:space="preserve" y="0.8em" font-weight="normal" text-anchor="start" fill="#000000" pointer-events="none" font-family="Open Sans"><tspan dy="0" >[Container] D-LAMA</tspan></text></g></g><g   id="j_224"  transform="translate(900,725)" style=""><g id="v-2978"><rect  id="v-2979" width="2740" height="411" rx="0" ry="0" fill="#ffffff" stroke="#0f5eaa" stroke-width="1" stroke-dasharray="20,20" pointer-events="none"></rect><text  id="v-2980" font-size="24px" xml:space="preserve" y="372" font-weight="normal" fill="#0f5eaa" text-anchor="start" pointer-events="visible" font-family="Open Sans" transform="matrix(1,0,0,1,15,0)"><tspan dy="0" >D-LAMA</tspan></text><text  id="v-2981" font-size="17px" xml:space="preserve" y="396" font-weight="normal" fill="#0f5eaa" text-anchor="start" pointer-events="visible" font-family="Open Sans" transform="matrix(1,0,0,1,15,0)"><tspan dy="0" >[Software System]</tspan></text><image  id="v-2982" pointer-events="visible"></image></g></g><g   id="j_229" ><path  stroke="#707070" d="M 2120 895 L 2420 895" id="v-3052" stroke-width="2" stroke-dasharray="30 30" fill="none" style="opacity: 1;"></path><path  fill="black" stroke="black" d="M 0 0 0 0" transform="matrix(1,0,0,1,2120,895)"></path><path  fill="#707070" stroke="#707070" d="M 20 0 L 0 10 L 20 20 z" id="v-3054" transform="matrix(-1,1.2246467991473532e-16,-1.2246467991473532e-16,-1,2420,905)" style="opacity: 1;"></path><path  d="M 2120 895 L 2420 895" id="v-3053" fill="none" style="cursor: default;"></path><g ><g id="v-3043"  label-idx="0" cursor="move" transform="matrix(1,0,0,1,2270,895)" style="cursor: default; opacity: 1;"><rect joint-selector="rect" id="v-3047" fill="#ffffff" rx="3" ry="3" stroke="#ffffff" stroke-width="20px" pointer-events="none" width="199.17347717285156" height="32.33749771118164" transform="matrix(1,0,0,1,-99.3,-16.2)"></rect><text joint-selector="text" id="v-3046" font-size="24px" xml:space="preserve" y="0.8em" fill="#707070" text-anchor="middle" pointer-events="none" font-family="Open Sans" font-weight="normal" transform="matrix(1,0,0,1,0,-10.5)"><tspan dy="0" >Makes API calls to</tspan></text></g><g id="v-3044"  label-idx="1" cursor="move" transform="matrix(1,0,0,1,2270,922)" style="cursor: default; opacity: 1;"><rect joint-selector="rect" id="v-3049" fill="#ffffff" rx="3" ry="3" pointer-events="none" width="108.01190185546875" height="22.387497901916504" transform="matrix(1,0,0,1,-54,-11.2)"></rect><text joint-selector="text" id="v-3048" font-size="17px" xml:space="preserve" y="0.8em" fill="#707070" text-anchor="middle" pointer-events="none" font-family="Open Sans" font-weight="normal" transform="matrix(1,0,0,1,0,-7.4)"><tspan dy="0" >[JSON/HTTPS]</tspan></text></g><g id="v-3045"  label-idx="2" cursor="move" transform="matrix(1,0,0,1,2260,931.25)" style="cursor: default; opacity: 1;"><rect joint-selector="rect" id="v-3051" fill="#ffffff" rx="3" ry="3"  width="0" height="0" transform="matrix(1,0,0,1,0,0)" display="none"></rect><text joint-selector="text" id="v-3050" fill="#000000" font-size="14" text-anchor="middle" pointer-events="none"></text></g></g><g  display="none"></g><g  id="v-3056" display="none"><g  id="v-3041"><path  end="source" d="M 26 0 L 0 13 L 26 26 z"></path></g><g  id="v-3042"><path  end="target" d="M 26 0 L 0 13 L 26 26 z"></path></g></g><g  id="v-3055" display="none"><g  id="v-3040" transform="translate(2160, 895.0000000000001) "><g  event="remove"><circle r="11"></circle><path transform="scale(.8) translate(-16, -16)" d="M24.778,21.419 19.276,15.917 24.777,10.415 21.949,7.585 16.447,13.087 10.945,7.585 8.117,10.415 13.618,15.917 8.116,21.419 10.946,24.248 16.447,18.746 21.948,24.248z"></path><title>Remove link.</title></g><g  event="link:options"><circle r="11" transform="translate(25)"></circle><path fill="white" transform="scale(.55) translate(29, -16)" d="M31.229,17.736c0.064-0.571,0.104-1.148,0.104-1.736s-0.04-1.166-0.104-1.737l-4.377-1.557c-0.218-0.716-0.504-1.401-0.851-2.05l1.993-4.192c-0.725-0.91-1.549-1.734-2.458-2.459l-4.193,1.994c-0.647-0.347-1.334-0.632-2.049-0.849l-1.558-4.378C17.165,0.708,16.588,0.667,16,0.667s-1.166,0.041-1.737,0.105L12.707,5.15c-0.716,0.217-1.401,0.502-2.05,0.849L6.464,4.005C5.554,4.73,4.73,5.554,4.005,6.464l1.994,4.192c-0.347,0.648-0.632,1.334-0.849,2.05l-4.378,1.557C0.708,14.834,0.667,15.412,0.667,16s0.041,1.165,0.105,1.736l4.378,1.558c0.217,0.715,0.502,1.401,0.849,2.049l-1.994,4.193c0.725,0.909,1.549,1.733,2.459,2.458l4.192-1.993c0.648,0.347,1.334,0.633,2.05,0.851l1.557,4.377c0.571,0.064,1.148,0.104,1.737,0.104c0.588,0,1.165-0.04,1.736-0.104l1.558-4.377c0.715-0.218,1.399-0.504,2.049-0.851l4.193,1.993c0.909-0.725,1.733-1.549,2.458-2.458l-1.993-4.193c0.347-0.647,0.633-1.334,0.851-2.049L31.229,17.736zM16,20.871c-2.69,0-4.872-2.182-4.872-4.871c0-2.69,2.182-4.872,4.872-4.872c2.689,0,4.871,2.182,4.871,4.872C20.871,18.689,18.689,20.871,16,20.871z"></path><title>Link options.</title></g></g></g></g><g   id="j_230" ><path  stroke="#707070" d="M 2870 895 L 3170 895" id="v-3072" stroke-width="2" stroke-dasharray="30 30" fill="none" style="opacity: 1;"></path><path  fill="black" stroke="black" d="M 0 0 0 0" transform="matrix(1,0,0,1,2870,895)"></path><path  fill="#707070" stroke="#707070" d="M 20 0 L 0 10 L 20 20 z" id="v-3074" transform="matrix(-1,1.2246467991473532e-16,-1.2246467991473532e-16,-1,3170,905)" style="opacity: 1;"></path><path  d="M 2870 895 L 3170 895" id="v-3073" fill="none" style="cursor: default;"></path><g ><g id="v-3063"  label-idx="0" cursor="move" transform="matrix(1,0,0,1,3020,895)" style="cursor: default; opacity: 1;"><rect joint-selector="rect" id="v-3067" fill="#ffffff" rx="3" ry="3" stroke="#ffffff" stroke-width="20px" pointer-events="none" width="185.62966918945312" height="61.13749885559082" transform="matrix(1,0,0,1,-94.1,-30.6)"></rect><text joint-selector="text" id="v-3066" font-size="24px" xml:space="preserve" y="0.8em" fill="#707070" text-anchor="middle" pointer-events="none" font-family="Open Sans" font-weight="normal" transform="matrix(1,0,0,1,0,-24.9)"><tspan dy="0" >Reads from and</tspan><tspan dy="1.2em" x="0" >writes to / CRUD</tspan></text></g><g id="v-3064"  label-idx="1" cursor="move" transform="matrix(1,0,0,1,3020,937)" style="cursor: default; opacity: 1;"><rect joint-selector="rect" id="v-3069" fill="#ffffff" rx="3" ry="3" pointer-events="none" width="79.05584716796875" height="22.387497901916504" transform="matrix(1,0,0,1,-39.5,-11.2)"></rect><text joint-selector="text" id="v-3068" font-size="17px" xml:space="preserve" y="0.8em" fill="#707070" text-anchor="middle" pointer-events="none" font-family="Open Sans" font-weight="normal" transform="matrix(1,0,0,1,0,-7.4)"><tspan dy="0" >[SQL/TCP]</tspan></text></g><g id="v-3065"  label-idx="2" cursor="move" transform="matrix(1,0,0,1,3010,946.25)" style="cursor: default; opacity: 1;"><rect joint-selector="rect" id="v-3071" fill="#ffffff" rx="3" ry="3"  width="0" height="0" transform="matrix(1,0,0,1,0,0)" display="none"></rect><text joint-selector="text" id="v-3070" fill="#000000" font-size="14" text-anchor="middle" pointer-events="none"></text></g></g><g  display="none"></g><g  id="v-3076" display="none"><g  id="v-3061"><path  end="source" d="M 26 0 L 0 13 L 26 26 z"></path></g><g  id="v-3062"><path  end="target" d="M 26 0 L 0 13 L 26 26 z"></path></g></g><g  id="v-3075" display="none"><g  id="v-3060" transform="translate(2910, 895.0000000000001) "><g  event="remove"><circle r="11"></circle><path transform="scale(.8) translate(-16, -16)" d="M24.778,21.419 19.276,15.917 24.777,10.415 21.949,7.585 16.447,13.087 10.945,7.585 8.117,10.415 13.618,15.917 8.116,21.419 10.946,24.248 16.447,18.746 21.948,24.248z"></path><title>Remove link.</title></g><g  event="link:options"><circle r="11" transform="translate(25)"></circle><path fill="white" transform="scale(.55) translate(29, -16)" d="M31.229,17.736c0.064-0.571,0.104-1.148,0.104-1.736s-0.04-1.166-0.104-1.737l-4.377-1.557c-0.218-0.716-0.504-1.401-0.851-2.05l1.993-4.192c-0.725-0.91-1.549-1.734-2.458-2.459l-4.193,1.994c-0.647-0.347-1.334-0.632-2.049-0.849l-1.558-4.378C17.165,0.708,16.588,0.667,16,0.667s-1.166,0.041-1.737,0.105L12.707,5.15c-0.716,0.217-1.401,0.502-2.05,0.849L6.464,4.005C5.554,4.73,4.73,5.554,4.005,6.464l1.994,4.192c-0.347,0.648-0.632,1.334-0.849,2.05l-4.378,1.557C0.708,14.834,0.667,15.412,0.667,16s0.041,1.165,0.105,1.736l4.378,1.558c0.217,0.715,0.502,1.401,0.849,2.049l-1.994,4.193c0.725,0.909,1.549,1.733,2.459,2.458l4.192-1.993c0.648,0.347,1.334,0.633,2.05,0.851l1.557,4.377c0.571,0.064,1.148,0.104,1.737,0.104c0.588,0,1.165-0.04,1.736-0.104l1.558-4.377c0.715-0.218,1.399-0.504,2.049-0.851l4.193,1.993c0.909-0.725,1.733-1.549,2.458-2.458l-1.993-4.193c0.347-0.647,0.633-1.334,0.851-2.049L31.229,17.736zM16,20.871c-2.69,0-4.872-2.182-4.872-4.871c0-2.69,2.182-4.872,4.872-4.872c2.689,0,4.871,2.182,4.871,4.872C20.871,18.689,18.689,20.871,16,20.871z"></path><title>Link options.</title></g></g></g></g><g   id="j_231" ><path  stroke="#707070" d="M 620 1234 L 1360 1196 C 1366.6666666666665 1195.3333333333333 1373 1193.3333333333333 1379 1190 L 1670 1024" id="v-3093" stroke-width="2" stroke-dasharray="30 30" fill="none" style="opacity: 1;"></path><path  fill="black" stroke="black" d="M 0 0 0 0" transform="matrix(0.9986180818578568,-0.05255403492154293,0.05255403492154293,0.9986180818578568,620,1234.469970703125)"></path><path  fill="#707070" stroke="#707070" d="M 20 0 L 0 10 L 20 20 z" id="v-3095" transform="matrix(-0.8682413637412599,0.4961420505144843,-0.4961420505144843,-0.8682413637412599,1674.9614610956826,1032.2523652025802)" style="opacity: 1;"></path><path  d="M 620 1234 L 1360 1196 C 1366.6666666666665 1195.3333333333333 1373 1193.3333333333333 1379 1190 L 1670 1024" id="v-3094" fill="none" style="cursor: default;"></path><g ><g id="v-3084"  label-idx="0" cursor="move" transform="matrix(1,0,0,1,1167.30712890625,1205.89501953125)" style="cursor: default; opacity: 1;"><rect joint-selector="rect" id="v-3088" fill="#ffffff" rx="3" ry="3" stroke="#ffffff" stroke-width="20px" pointer-events="none" width="168.36257934570312" height="118.73749542236328" transform="matrix(1,0,0,1,-83.7,-59.4)"></rect><text joint-selector="text" id="v-3087" font-size="24px" xml:space="preserve" y="0.8em" fill="#707070" text-anchor="middle" pointer-events="none" font-family="Open Sans" font-weight="normal" transform="matrix(1,0,0,1,0,-53.7)"><tspan dy="0" >Administrates</tspan><tspan dy="1.2em" x="0" >and supervises</tspan><tspan dy="1.2em" x="0" >the labeling</tspan><tspan dy="1.2em" x="0" >projects</tspan></text></g><g id="v-3085"  label-idx="1" cursor="move" transform="matrix(1,0,0,1,1167.30712890625,1277.89501953125)" style="cursor: default; opacity: 1;"><rect joint-selector="rect" id="v-3090" fill="#ffffff" rx="3" ry="3" pointer-events="none" width="61.91542434692383" height="22.387497901916504" transform="matrix(1,0,0,1,-31,-11.2)"></rect><text joint-selector="text" id="v-3089" font-size="17px" xml:space="preserve" y="0.8em" fill="#707070" text-anchor="middle" pointer-events="none" font-family="Open Sans" font-weight="normal" transform="matrix(1,0,0,1,0,-7.4)"><tspan dy="0" >[HTTPS]</tspan></text></g><g id="v-3086"  label-idx="2" cursor="move" transform="matrix(1,0,0,1,1157.30712890625,1287.14501953125)" style="cursor: default; opacity: 1;"><rect joint-selector="rect" id="v-3092" fill="#ffffff" rx="3" ry="3"  width="0" height="0" transform="matrix(1,0,0,1,0,0)" display="none"></rect><text joint-selector="text" id="v-3091" fill="#000000" font-size="14" text-anchor="middle" pointer-events="none"></text></g></g><g  display="none"><g  transform="translate(1370, 1195)" id="v-3081"><circle  idx="0" r="10"></circle><path  idx="0" d="M16,5.333c-7.732,0-14,4.701-14,10.5c0,1.982,0.741,3.833,2.016,5.414L2,25.667l5.613-1.441c2.339,1.317,5.237,2.107,8.387,2.107c7.732,0,14-4.701,14-10.5C30,10.034,23.732,5.333,16,5.333z" transform="translate(5, -33)"></path><path  idx="0" transform="scale(.8) translate(9.5, -37)" d="M24.778,21.419 19.276,15.917 24.777,10.415 21.949,7.585 16.447,13.087 10.945,7.585 8.117,10.415 13.618,15.917 8.116,21.419 10.946,24.248 16.447,18.746 21.948,24.248z"><title>Remove vertex.</title></path></g></g><g  id="v-3097" display="none"><g  id="v-3082"><path  end="source" d="M 26 0 L 0 13 L 26 26 z"></path></g><g  id="v-3083"><path  end="target" d="M 26 0 L 0 13 L 26 26 z"></path></g></g><g  id="v-3096" display="none"><g  id="v-3080" transform="translate(659.9473648490842, 1231.948648832074) "><g  event="remove"><circle r="11"></circle><path transform="scale(.8) translate(-16, -16)" d="M24.778,21.419 19.276,15.917 24.777,10.415 21.949,7.585 16.447,13.087 10.945,7.585 8.117,10.415 13.618,15.917 8.116,21.419 10.946,24.248 16.447,18.746 21.948,24.248z"></path><title>Remove link.</title></g><g  event="link:options"><circle r="11" transform="translate(25)"></circle><path fill="white" transform="scale(.55) translate(29, -16)" d="M31.229,17.736c0.064-0.571,0.104-1.148,0.104-1.736s-0.04-1.166-0.104-1.737l-4.377-1.557c-0.218-0.716-0.504-1.401-0.851-2.05l1.993-4.192c-0.725-0.91-1.549-1.734-2.458-2.459l-4.193,1.994c-0.647-0.347-1.334-0.632-2.049-0.849l-1.558-4.378C17.165,0.708,16.588,0.667,16,0.667s-1.166,0.041-1.737,0.105L12.707,5.15c-0.716,0.217-1.401,0.502-2.05,0.849L6.464,4.005C5.554,4.73,4.73,5.554,4.005,6.464l1.994,4.192c-0.347,0.648-0.632,1.334-0.849,2.05l-4.378,1.557C0.708,14.834,0.667,15.412,0.667,16s0.041,1.165,0.105,1.736l4.378,1.558c0.217,0.715,0.502,1.401,0.849,2.049l-1.994,4.193c0.725,0.909,1.549,1.733,2.459,2.458l4.192-1.993c0.648,0.347,1.334,0.633,2.05,0.851l1.557,4.377c0.571,0.064,1.148,0.104,1.737,0.104c0.588,0,1.165-0.04,1.736-0.104l1.558-4.377c0.715-0.218,1.399-0.504,2.049-0.851l4.193,1.993c0.909-0.725,1.733-1.549,2.458-2.458l-1.993-4.193c0.347-0.647,0.633-1.334,0.851-2.049L31.229,17.736zM16,20.871c-2.69,0-4.872-2.182-4.872-4.871c0-2.69,2.182-4.872,4.872-4.872c2.689,0,4.871,2.182,4.871,4.872C20.871,18.689,18.689,20.871,16,20.871z"></path><title>Link options.</title></g></g></g></g><g   id="j_232" ><path  stroke="#707070" d="M 1370 895 L 1670 895" id="v-3110" stroke-width="2" stroke-dasharray="30 30" fill="none" style="opacity: 1;"></path><path  fill="black" stroke="black" d="M 0 0 0 0" transform="matrix(1,0,0,1,1370,895)"></path><path  fill="#707070" stroke="#707070" d="M 20 0 L 0 10 L 20 20 z" id="v-3112" transform="matrix(-1,1.2246467991473532e-16,-1.2246467991473532e-16,-1,1670.0000000000002,905)" style="opacity: 1;"></path><path  d="M 1370 895 L 1670 895" id="v-3111" fill="none" style="cursor: default;"></path><g ><g id="v-3104"  label-idx="0" cursor="move" transform="matrix(1,0,0,1,1520,895)" style="cursor: default; opacity: 1;"><rect joint-selector="rect" id="v-3107" fill="#ffffff" rx="3" ry="3" stroke="#ffffff" stroke-width="20px" pointer-events="none" width="163.25112915039062" height="118.73749542236328" transform="matrix(1,0,0,1,-80.9,-59.4)"></rect><text joint-selector="text" id="v-3106" font-size="24px" xml:space="preserve" y="0.8em" fill="#707070" text-anchor="middle" pointer-events="none" font-family="Open Sans" font-weight="normal" transform="matrix(1,0,0,1,0,-53.7)"><tspan dy="0" >Delivers to the</tspan><tspan dy="1.2em" x="0" >admin or</tspan><tspan dy="1.2em" x="0" >labeler's web</tspan><tspan dy="1.2em" x="0" >browser</tspan></text></g><g id="v-3105"  label-idx="1" cursor="move" transform="matrix(1,0,0,1,1510,967)" style="cursor: default; opacity: 1;"><rect joint-selector="rect" id="v-3109" fill="#ffffff" rx="3" ry="3"  width="0" height="0" transform="matrix(1,0,0,1,0,0)" display="none"></rect><text joint-selector="text" id="v-3108" fill="#000000" font-size="14" text-anchor="middle" pointer-events="none"></text></g></g><g  display="none"></g><g  id="v-3114" display="none"><g  id="v-3102"><path  end="source" d="M 26 0 L 0 13 L 26 26 z"></path></g><g  id="v-3103"><path  end="target" d="M 26 0 L 0 13 L 26 26 z"></path></g></g><g  id="v-3113" display="none"><g  id="v-3101" transform="translate(1410.0000000000002, 895.0000000000001) "><g  event="remove"><circle r="11"></circle><path transform="scale(.8) translate(-16, -16)" d="M24.778,21.419 19.276,15.917 24.777,10.415 21.949,7.585 16.447,13.087 10.945,7.585 8.117,10.415 13.618,15.917 8.116,21.419 10.946,24.248 16.447,18.746 21.948,24.248z"></path><title>Remove link.</title></g><g  event="link:options"><circle r="11" transform="translate(25)"></circle><path fill="white" transform="scale(.55) translate(29, -16)" d="M31.229,17.736c0.064-0.571,0.104-1.148,0.104-1.736s-0.04-1.166-0.104-1.737l-4.377-1.557c-0.218-0.716-0.504-1.401-0.851-2.05l1.993-4.192c-0.725-0.91-1.549-1.734-2.458-2.459l-4.193,1.994c-0.647-0.347-1.334-0.632-2.049-0.849l-1.558-4.378C17.165,0.708,16.588,0.667,16,0.667s-1.166,0.041-1.737,0.105L12.707,5.15c-0.716,0.217-1.401,0.502-2.05,0.849L6.464,4.005C5.554,4.73,4.73,5.554,4.005,6.464l1.994,4.192c-0.347,0.648-0.632,1.334-0.849,2.05l-4.378,1.557C0.708,14.834,0.667,15.412,0.667,16s0.041,1.165,0.105,1.736l4.378,1.558c0.217,0.715,0.502,1.401,0.849,2.049l-1.994,4.193c0.725,0.909,1.549,1.733,2.459,2.458l4.192-1.993c0.648,0.347,1.334,0.633,2.05,0.851l1.557,4.377c0.571,0.064,1.148,0.104,1.737,0.104c0.588,0,1.165-0.04,1.736-0.104l1.558-4.377c0.715-0.218,1.399-0.504,2.049-0.851l4.193,1.993c0.909-0.725,1.733-1.549,2.458-2.458l-1.993-4.193c0.347-0.647,0.633-1.334,0.851-2.049L31.229,17.736zM16,20.871c-2.69,0-4.872-2.182-4.872-4.871c0-2.69,2.182-4.872,4.872-4.872c2.689,0,4.871,2.182,4.871,4.872C20.871,18.689,18.689,20.871,16,20.871z"></path><title>Link options.</title></g></g></g></g><g   id="j_233" ><path  stroke="#707070" d="M 620 551 L 920 748" id="v-3130" stroke-width="2" stroke-dasharray="30 30" fill="none" style="opacity: 1;"></path><path  fill="black" stroke="black" d="M 0 0 0 0" transform="matrix(0.8364505359982763,0.5480424261206392,-0.5480424261206392,0.8364505359982763,620,551.030029296875)"></path><path  fill="#707070" stroke="#707070" d="M 20 0 L 0 10 L 20 20 z" id="v-3132" transform="matrix(-0.8364505359982762,-0.5480424261206392,0.5480424261206392,-0.8364505359982762,914.5195791456515,755.9544877266579)" style="opacity: 1;"></path><path  d="M 620 551 L 920 748" id="v-3131" fill="none" style="cursor: default;"></path><g ><g id="v-3121"  label-idx="0" cursor="move" transform="matrix(1,0,0,1,770,649.5)" style="cursor: default; opacity: 1;"><rect joint-selector="rect" id="v-3125" fill="#ffffff" rx="3" ry="3" stroke="#ffffff" stroke-width="20px" pointer-events="none" width="158.29714965820312" height="89.93749237060547" transform="matrix(1,0,0,1,-79.3,-45)"></rect><text joint-selector="text" id="v-3124" font-size="24px" xml:space="preserve" y="0.8em" fill="#707070" text-anchor="middle" pointer-events="none" font-family="Open Sans" font-weight="normal" transform="matrix(1,0,0,1,0,-39.3)"><tspan dy="0" >Visits D-LAMA</tspan><tspan dy="1.2em" x="0" >using a</tspan><tspan dy="1.2em" x="0" >smartphone</tspan></text></g><g id="v-3122"  label-idx="1" cursor="move" transform="matrix(1,0,0,1,770,706.5)" style="cursor: default; opacity: 1;"><rect joint-selector="rect" id="v-3127" fill="#ffffff" rx="3" ry="3" pointer-events="none" width="61.91542434692383" height="22.387497901916504" transform="matrix(1,0,0,1,-31,-11.2)"></rect><text joint-selector="text" id="v-3126" font-size="17px" xml:space="preserve" y="0.8em" fill="#707070" text-anchor="middle" pointer-events="none" font-family="Open Sans" font-weight="normal" transform="matrix(1,0,0,1,0,-7.4)"><tspan dy="0" >[HTTPS]</tspan></text></g><g id="v-3123"  label-idx="2" cursor="move" transform="matrix(1,0,0,1,760,715.75)" style="cursor: default; opacity: 1;"><rect joint-selector="rect" id="v-3129" fill="#ffffff" rx="3" ry="3"  width="0" height="0" transform="matrix(1,0,0,1,0,0)" display="none"></rect><text joint-selector="text" id="v-3128" fill="#000000" font-size="14" text-anchor="middle" pointer-events="none"></text></g></g><g  display="none"></g><g  id="v-3134" display="none"><g  id="v-3119"><path  end="source" d="M 26 0 L 0 13 L 26 26 z"></path></g><g  id="v-3120"><path  end="target" d="M 26 0 L 0 13 L 26 26 z"></path></g></g><g  id="v-3133" display="none"><g  id="v-3118" transform="translate(653.4355246083064, 572.9559944927879) "><g  event="remove"><circle r="11"></circle><path transform="scale(.8) translate(-16, -16)" d="M24.778,21.419 19.276,15.917 24.777,10.415 21.949,7.585 16.447,13.087 10.945,7.585 8.117,10.415 13.618,15.917 8.116,21.419 10.946,24.248 16.447,18.746 21.948,24.248z"></path><title>Remove link.</title></g><g  event="link:options"><circle r="11" transform="translate(25)"></circle><path fill="white" transform="scale(.55) translate(29, -16)" d="M31.229,17.736c0.064-0.571,0.104-1.148,0.104-1.736s-0.04-1.166-0.104-1.737l-4.377-1.557c-0.218-0.716-0.504-1.401-0.851-2.05l1.993-4.192c-0.725-0.91-1.549-1.734-2.458-2.459l-4.193,1.994c-0.647-0.347-1.334-0.632-2.049-0.849l-1.558-4.378C17.165,0.708,16.588,0.667,16,0.667s-1.166,0.041-1.737,0.105L12.707,5.15c-0.716,0.217-1.401,0.502-2.05,0.849L6.464,4.005C5.554,4.73,4.73,5.554,4.005,6.464l1.994,4.192c-0.347,0.648-0.632,1.334-0.849,2.05l-4.378,1.557C0.708,14.834,0.667,15.412,0.667,16s0.041,1.165,0.105,1.736l4.378,1.558c0.217,0.715,0.502,1.401,0.849,2.049l-1.994,4.193c0.725,0.909,1.549,1.733,2.459,2.458l4.192-1.993c0.648,0.347,1.334,0.633,2.05,0.851l1.557,4.377c0.571,0.064,1.148,0.104,1.737,0.104c0.588,0,1.165-0.04,1.736-0.104l1.558-4.377c0.715-0.218,1.399-0.504,2.049-0.851l4.193,1.993c0.909-0.725,1.733-1.549,2.458-2.458l-1.993-4.193c0.347-0.647,0.633-1.334,0.851-2.049L31.229,17.736zM16,20.871c-2.69,0-4.872-2.182-4.872-4.871c0-2.69,2.182-4.872,4.872-4.872c2.689,0,4.871,2.182,4.871,4.872C20.871,18.689,18.689,20.871,16,20.871z"></path><title>Link options.</title></g></g></g></g><g   id="j_234" ><path  stroke="#707070" d="M 620 1148 L 920 1004" id="v-3150" stroke-width="2" stroke-dasharray="30 30" fill="none" style="opacity: 1;"></path><path  fill="black" stroke="black" d="M 0 0 0 0" transform="matrix(0.9005487019045832,-0.43475514430305484,0.43475514430305484,0.9005487019045832,620,1148.449951171875)"></path><path  fill="#707070" stroke="#707070" d="M 20 0 L 0 10 L 20 20 z" id="v-3152" transform="matrix(-0.9005488176868497,0.4347549044724133,-0.4347549044724133,-0.9005488176868497,924.3475440575303,1012.6254684290193)" style="opacity: 1;"></path><path  d="M 620 1148 L 920 1004" id="v-3151" fill="none" style="cursor: default;"></path><g ><g id="v-3141"  label-idx="0" cursor="move" transform="matrix(1,0,0,1,770,1076)" style="cursor: default; opacity: 1;"><rect joint-selector="rect" id="v-3145" fill="#ffffff" rx="3" ry="3" stroke="#ffffff" stroke-width="20px" pointer-events="none" width="175.75599670410156" height="89.93749237060547" transform="matrix(1,0,0,1,-87.8,-45)"></rect><text joint-selector="text" id="v-3144" font-size="24px" xml:space="preserve" y="0.8em" fill="#707070" text-anchor="middle" pointer-events="none" font-family="Open Sans" font-weight="normal" transform="matrix(1,0,0,1,0,-39.3)"><tspan dy="0" >Visits D-LAMA</tspan><tspan dy="1.2em" x="0" >using a desktop</tspan><tspan dy="1.2em" x="0" >pc</tspan></text></g><g id="v-3142"  label-idx="1" cursor="move" transform="matrix(1,0,0,1,770,1133)" style="cursor: default; opacity: 1;"><rect joint-selector="rect" id="v-3147" fill="#ffffff" rx="3" ry="3" pointer-events="none" width="61.91542434692383" height="22.387497901916504" transform="matrix(1,0,0,1,-31,-11.2)"></rect><text joint-selector="text" id="v-3146" font-size="17px" xml:space="preserve" y="0.8em" fill="#707070" text-anchor="middle" pointer-events="none" font-family="Open Sans" font-weight="normal" transform="matrix(1,0,0,1,0,-7.4)"><tspan dy="0" >[HTTPS]</tspan></text></g><g id="v-3143"  label-idx="2" cursor="move" transform="matrix(1,0,0,1,760,1142.25)" style="cursor: default; opacity: 1;"><rect joint-selector="rect" id="v-3149" fill="#ffffff" rx="3" ry="3"  width="0" height="0" transform="matrix(1,0,0,1,0,0)" display="none"></rect><text joint-selector="text" id="v-3148" fill="#000000" font-size="14" text-anchor="middle" pointer-events="none"></text></g></g><g  display="none"></g><g  id="v-3154" display="none"><g  id="v-3139"><path  end="source" d="M 26 0 L 0 13 L 26 26 z"></path></g><g  id="v-3140"><path  end="target" d="M 26 0 L 0 13 L 26 26 z"></path></g></g><g  id="v-3153" display="none"><g  id="v-3138" transform="translate(656.0609222987309, 1130.690757296609) "><g  event="remove"><circle r="11"></circle><path transform="scale(.8) translate(-16, -16)" d="M24.778,21.419 19.276,15.917 24.777,10.415 21.949,7.585 16.447,13.087 10.945,7.585 8.117,10.415 13.618,15.917 8.116,21.419 10.946,24.248 16.447,18.746 21.948,24.248z"></path><title>Remove link.</title></g><g  event="link:options"><circle r="11" transform="translate(25)"></circle><path fill="white" transform="scale(.55) translate(29, -16)" d="M31.229,17.736c0.064-0.571,0.104-1.148,0.104-1.736s-0.04-1.166-0.104-1.737l-4.377-1.557c-0.218-0.716-0.504-1.401-0.851-2.05l1.993-4.192c-0.725-0.91-1.549-1.734-2.458-2.459l-4.193,1.994c-0.647-0.347-1.334-0.632-2.049-0.849l-1.558-4.378C17.165,0.708,16.588,0.667,16,0.667s-1.166,0.041-1.737,0.105L12.707,5.15c-0.716,0.217-1.401,0.502-2.05,0.849L6.464,4.005C5.554,4.73,4.73,5.554,4.005,6.464l1.994,4.192c-0.347,0.648-0.632,1.334-0.849,2.05l-4.378,1.557C0.708,14.834,0.667,15.412,0.667,16s0.041,1.165,0.105,1.736l4.378,1.558c0.217,0.715,0.502,1.401,0.849,2.049l-1.994,4.193c0.725,0.909,1.549,1.733,2.459,2.458l4.192-1.993c0.648,0.347,1.334,0.633,2.05,0.851l1.557,4.377c0.571,0.064,1.148,0.104,1.737,0.104c0.588,0,1.165-0.04,1.736-0.104l1.558-4.377c0.715-0.218,1.399-0.504,2.049-0.851l4.193,1.993c0.909-0.725,1.733-1.549,2.458-2.458l-1.993-4.193c0.347-0.647,0.633-1.334,0.851-2.049L31.229,17.736zM16,20.871c-2.69,0-4.872-2.182-4.872-4.871c0-2.69,2.182-4.872,4.872-4.872c2.689,0,4.871,2.182,4.871,4.872C20.871,18.689,18.689,20.871,16,20.871z"></path><title>Link options.</title></g></g></g></g><g   id="j_235" ><path  stroke="#707070" d="M 620 457 L 1360 593 C 1366.6666666666665 594.3333333333333 1373 596.6666666666666 1379 600 L 1670 766" id="v-3171" stroke-width="2" stroke-dasharray="30 30" fill="none" style="opacity: 1;"></path><path  fill="black" stroke="black" d="M 0 0 0 0" transform="matrix(0.9834526975382044,0.1811650951613719,-0.1811650951613719,0.9834526975382044,620,456.8399963378906)"></path><path  fill="#707070" stroke="#707070" d="M 20 0 L 0 10 L 20 20 z" id="v-3173" transform="matrix(-0.86824136374126,-0.49614205051448407,0.49614205051448407,-0.86824136374126,1665.038620085393,775.1124010370887)" style="opacity: 1;"></path><path  d="M 620 457 L 1360 593 C 1366.6666666666665 594.3333333333333 1373 596.6666666666666 1379 600 L 1670 766" id="v-3172" fill="none" style="cursor: default;"></path><g ><g id="v-3162"  label-idx="0" cursor="move" transform="matrix(1,0,0,1,1164.7449951171875,557.1152954101562)" style="cursor: default; opacity: 1;"><rect joint-selector="rect" id="v-3166" fill="#ffffff" rx="3" ry="3" stroke="#ffffff" stroke-width="20px" pointer-events="none" width="184.77169799804688" height="89.93749237060547" transform="matrix(1,0,0,1,-92.3,-45)"></rect><text joint-selector="text" id="v-3165" font-size="24px" xml:space="preserve" y="0.8em" fill="#707070" text-anchor="middle" pointer-events="none" font-family="Open Sans" font-weight="normal" transform="matrix(1,0,0,1,0,-39.3)"><tspan dy="0" >Views labeling</tspan><tspan dy="1.2em" x="0" >projects and can</tspan><tspan dy="1.2em" x="0" >label them</tspan></text></g><g id="v-3163"  label-idx="1" cursor="move" transform="matrix(1,0,0,1,1164.7449951171875,614.1152954101562)" style="cursor: default; opacity: 1;"><rect joint-selector="rect" id="v-3168" fill="#ffffff" rx="3" ry="3" pointer-events="none" width="61.91542434692383" height="22.387497901916504" transform="matrix(1,0,0,1,-31,-11.2)"></rect><text joint-selector="text" id="v-3167" font-size="17px" xml:space="preserve" y="0.8em" fill="#707070" text-anchor="middle" pointer-events="none" font-family="Open Sans" font-weight="normal" transform="matrix(1,0,0,1,0,-7.4)"><tspan dy="0" >[HTTPS]</tspan></text></g><g id="v-3164"  label-idx="2" cursor="move" transform="matrix(1,0,0,1,1154.7449951171875,623.3652954101562)" style="cursor: default; opacity: 1;"><rect joint-selector="rect" id="v-3170" fill="#ffffff" rx="3" ry="3"  width="0" height="0" transform="matrix(1,0,0,1,0,0)" display="none"></rect><text joint-selector="text" id="v-3169" fill="#000000" font-size="14" text-anchor="middle" pointer-events="none"></text></g></g><g  display="none"><g  transform="translate(1370, 595)" id="v-3159"><circle  idx="0" r="10"></circle><path  idx="0" d="M16,5.333c-7.732,0-14,4.701-14,10.5c0,1.982,0.741,3.833,2.016,5.414L2,25.667l5.613-1.441c2.339,1.317,5.237,2.107,8.387,2.107c7.732,0,14-4.701,14-10.5C30,10.034,23.732,5.333,16,5.333z" transform="translate(5, -33)"></path><path  idx="0" transform="scale(.8) translate(9.5, -37)" d="M24.778,21.419 19.276,15.917 24.777,10.415 21.949,7.585 16.447,13.087 10.945,7.585 8.117,10.415 13.618,15.917 8.116,21.419 10.946,24.248 16.447,18.746 21.948,24.248z"><title>Remove vertex.</title></path></g></g><g  id="v-3175" display="none"><g  id="v-3160"><path  end="source" d="M 26 0 L 0 13 L 26 26 z"></path></g><g  id="v-3161"><path  end="target" d="M 26 0 L 0 13 L 26 26 z"></path></g></g><g  id="v-3174" display="none"><g  id="v-3158" transform="translate(659.3411153164565, 464.2302590311325) "><g  event="remove"><circle r="11"></circle><path transform="scale(.8) translate(-16, -16)" d="M24.778,21.419 19.276,15.917 24.777,10.415 21.949,7.585 16.447,13.087 10.945,7.585 8.117,10.415 13.618,15.917 8.116,21.419 10.946,24.248 16.447,18.746 21.948,24.248z"></path><title>Remove link.</title></g><g  event="link:options"><circle r="11" transform="translate(25)"></circle><path fill="white" transform="scale(.55) translate(29, -16)" d="M31.229,17.736c0.064-0.571,0.104-1.148,0.104-1.736s-0.04-1.166-0.104-1.737l-4.377-1.557c-0.218-0.716-0.504-1.401-0.851-2.05l1.993-4.192c-0.725-0.91-1.549-1.734-2.458-2.459l-4.193,1.994c-0.647-0.347-1.334-0.632-2.049-0.849l-1.558-4.378C17.165,0.708,16.588,0.667,16,0.667s-1.166,0.041-1.737,0.105L12.707,5.15c-0.716,0.217-1.401,0.502-2.05,0.849L6.464,4.005C5.554,4.73,4.73,5.554,4.005,6.464l1.994,4.192c-0.347,0.648-0.632,1.334-0.849,2.05l-4.378,1.557C0.708,14.834,0.667,15.412,0.667,16s0.041,1.165,0.105,1.736l4.378,1.558c0.217,0.715,0.502,1.401,0.849,2.049l-1.994,4.193c0.725,0.909,1.549,1.733,2.459,2.458l4.192-1.993c0.648,0.347,1.334,0.633,2.05,0.851l1.557,4.377c0.571,0.064,1.148,0.104,1.737,0.104c0.588,0,1.165-0.04,1.736-0.104l1.558-4.377c0.715-0.218,1.399-0.504,2.049-0.851l4.193,1.993c0.909-0.725,1.733-1.549,2.458-2.458l-1.993-4.193c0.347-0.647,0.633-1.334,0.851-2.049L31.229,17.736zM16,20.871c-2.69,0-4.872-2.182-4.872-4.871c0-2.69,2.182-4.872,4.872-4.872c2.689,0,4.871,2.182,4.871,4.872C20.871,18.689,18.689,20.871,16,20.871z"></path><title>Link options.</title></g></g></g></g><g   id="j_222"  transform="translate(220,220)" style=""><g  id="v-2954" style="opacity: 1;"><rect  x="0" y="160" width="400" height="240" rx="70" id="v-2956" stroke="#073b6f" stroke-width="2" pointer-events="visiblePainted" fill="#08427b" style="fill: rgb(8, 66, 123); stroke: rgb(7, 59, 111);"></rect><circle  cx="200" cy="88.88888888888889" r="88.88888888888889" id="v-2955" stroke="#073b6f" stroke-width="2" pointer-events="visiblePainted" fill="#08427b" style="fill: rgb(8, 66, 123); stroke: rgb(7, 59, 111);"></circle><line  x1="80" y1="266.6666666666667" x2="80" y2="400" id="v-2962" stroke="#073b6f" stroke-width="2" style="stroke: rgb(7, 59, 111);"></line><line  x1="320" y1="266.6666666666667" x2="320" y2="400" id="v-2963" stroke="#073b6f" stroke-width="2" style="stroke: rgb(7, 59, 111);"></line><text  id="v-2957" font-size="34" xml:space="preserve" y="0.8em" font-weight="bold" text-anchor="middle" pointer-events="visible" font-family="Open Sans" fill="#ffffff" transform="matrix(1,0,0,1,200,213.1)" style="fill: rgb(255, 255, 255);"><tspan dy="0" >Labeler</tspan></text><text  id="v-2958" font-size="17" xml:space="preserve" y="0.8em" text-anchor="middle" font-family="Open Sans" fill="#ffffff" transform="matrix(1,0,0,1,200,255.6)" style="fill: rgb(255, 255, 255);"><tspan dy="0" >[Person]</tspan></text><text  id="v-2959" font-size="24" xml:space="preserve" y="0.8em" text-anchor="middle" font-family="Open Sans" fill="#ffffff" transform="matrix(1,0,0,1,200,286.9)" style="fill: rgb(255, 255, 255);"><tspan dy="0" >A user of the application acting</tspan><tspan dy="1.2em" x="0" >as a data labeler</tspan></text><g  id="v-2960" font-weight="normal" text-anchor="middle" color="#ffffff" transform="matrix(1,0,0,1,197.5,356.9)" style="fill: rgb(255, 255, 255);" display="none"><g ></g><g ></g><g ></g><g ></g></g><image  id="v-2961"></image></g></g><g   id="j_223"  transform="translate(3170,745)" style=""><g  id="v-2970" style="opacity: 1;"><path  d="M 0,30 a 225,30 0,0,0 450 0 a 225,30 0,0,0 -450 0 l 0,240 a 225,30 0,0,0 450 0 l 0,-240" id="v-2971" stroke="#3c7fc0" stroke-width="2" pointer-events="visiblePainted" fill="#438dd5" style="fill: rgb(67, 141, 213); stroke: rgb(60, 127, 192);"></path><rect  id="v-2972" stroke-width="0" pointer-events="visiblePainted" fill="none" stroke="none" width="450" height="270" x="0" y="30"></rect><text  id="v-2973" font-size="34" xml:space="preserve" y="0.8em" font-weight="bold" text-anchor="middle" pointer-events="visible" font-family="Open Sans" fill="#ffffff" transform="matrix(1,0,0,1,225,68.1)" style="fill: rgb(255, 255, 255);"><tspan dy="0" >Database</tspan></text><text  id="v-2974" font-size="17" xml:space="preserve" y="0.8em" text-anchor="middle" font-family="Open Sans" fill="#ffffff" transform="matrix(1,0,0,1,225,110.6)" style="fill: rgb(255, 255, 255);"><tspan dy="0" >[Container: Microsoft SQL Server]</tspan></text><text  id="v-2975" font-size="24" xml:space="preserve" y="0.8em" text-anchor="middle" font-family="Open Sans" fill="#ffffff" transform="matrix(1,0,0,1,225,141.9)" style="fill: rgb(255, 255, 255);"><tspan dy="0" >Stores labeling projects</tspan><tspan dy="1.2em" x="0" >informations and meta data. Stores</tspan><tspan dy="1.2em" x="0" >user registration information,</tspan><tspan dy="1.2em" x="0" >hashed authentication credentials,</tspan><tspan dy="1.2em" x="0" >access logs, etc.</tspan></text><g  id="v-2976" font-weight="normal" text-anchor="middle" color="#ffffff" transform="matrix(1,0,0,1,222.5,31)" style="fill: rgb(255, 255, 255);" display="none"><g ></g><g ></g><g ></g><g ></g></g><image  id="v-2977"></image></g></g><g   id="j_225"  transform="translate(220,1045)" style=""><g  id="v-2986" style="opacity: 1;"><rect  x="0" y="160" width="400" height="240" rx="70" id="v-2988" stroke="#073b6f" stroke-width="2" pointer-events="visiblePainted" fill="#08427b" style="fill: rgb(8, 66, 123); stroke: rgb(7, 59, 111);"></rect><circle  cx="200" cy="88.88888888888889" r="88.88888888888889" id="v-2987" stroke="#073b6f" stroke-width="2" pointer-events="visiblePainted" fill="#08427b" style="fill: rgb(8, 66, 123); stroke: rgb(7, 59, 111);"></circle><line  x1="80" y1="266.6666666666667" x2="80" y2="400" id="v-2994" stroke="#073b6f" stroke-width="2" style="stroke: rgb(7, 59, 111);"></line><line  x1="320" y1="266.6666666666667" x2="320" y2="400" id="v-2995" stroke="#073b6f" stroke-width="2" style="stroke: rgb(7, 59, 111);"></line><text  id="v-2989" font-size="34" xml:space="preserve" y="0.8em" font-weight="bold" text-anchor="middle" pointer-events="visible" font-family="Open Sans" fill="#ffffff" transform="matrix(1,0,0,1,200,183.1)" style="fill: rgb(255, 255, 255);"><tspan dy="0" >Admin</tspan></text><text  id="v-2990" font-size="17" xml:space="preserve" y="0.8em" text-anchor="middle" font-family="Open Sans" fill="#ffffff" transform="matrix(1,0,0,1,200,225.6)" style="fill: rgb(255, 255, 255);"><tspan dy="0" >[Person]</tspan></text><text  id="v-2991" font-size="24" xml:space="preserve" y="0.8em" text-anchor="middle" font-family="Open Sans" fill="#ffffff" transform="matrix(1,0,0,1,200,256.9)" style="fill: rgb(255, 255, 255);"><tspan dy="0" >A user of the application acting</tspan><tspan dy="1.2em" x="0" >as an admin who provides the</tspan><tspan dy="1.2em" x="0" >data and needs the data</tspan><tspan dy="1.2em" x="0" >labeled</tspan></text><g  id="v-2992" font-weight="normal" text-anchor="middle" color="#ffffff" transform="matrix(1,0,0,1,197.5,386.9)" style="fill: rgb(255, 255, 255);" display="none"><g ></g><g ></g><g ></g><g ></g></g><image  id="v-2993"></image></g></g><g   id="j_226"  transform="translate(2420,745)" style=""><g  id="v-3002" style="opacity: 1;"><rect  id="v-3003" rx="20" ry="20" stroke="#3c7fc0" stroke-width="2" pointer-events="visiblePainted" fill="#438dd5" width="450" height="300" style="fill: rgb(67, 141, 213); stroke: rgb(60, 127, 192);"></rect><text  id="v-3004" font-size="34" xml:space="preserve" y="0.8em" font-weight="bold" text-anchor="middle" pointer-events="visible" font-family="Open Sans" fill="#ffffff" transform="matrix(1,0,0,1,225,83.1)" style="fill: rgb(255, 255, 255);"><tspan dy="0" >Server-side REST API</tspan></text><text  id="v-3005" font-size="17" xml:space="preserve" y="0.8em" text-anchor="middle" font-family="Open Sans" fill="#ffffff" transform="matrix(1,0,0,1,225,125.6)" style="fill: rgb(255, 255, 255);"><tspan dy="0" >[Container: .NET Core]</tspan></text><text  id="v-3006" font-size="24" xml:space="preserve" y="0.8em" text-anchor="middle" font-family="Open Sans" fill="#ffffff" transform="matrix(1,0,0,1,225,156.9)" style="fill: rgb(255, 255, 255);"><tspan dy="0" >Provides the D-LAMA functionality</tspan><tspan dy="1.2em" x="0" >via JSON/HTTPS API</tspan></text><g  id="v-3007" color="#ffffff" transform="matrix(1,0,0,1,210,226.9)" style="fill: rgb(255, 255, 255);" display="none"><g  transform="translate(5 0)"><svg xmlns="http://www.w3.org/2000/svg" width="20" height="20" fill="currentColor" viewBox="0 0 16 16"><path fill-rule="evenodd" d="M6.5 12a5.5 5.5 0 1 0 0-11 5.5 5.5 0 0 0 0 11zM13 6.5a6.5 6.5 0 1 1-13 0 6.5 6.5 0 0 1 13 0z"></path><path d="M10.344 11.742c.03.04.062.078.098.115l3.85 3.85a1 1 0 0 0 1.415-1.414l-3.85-3.85a1.007 1.007 0 0 0-.115-.1 6.538 6.538 0 0 1-1.398 1.4z"></path><path fill-rule="evenodd" d="M6.5 3a.5.5 0 0 1 .5.5V6h2.5a.5.5 0 0 1 0 1H7v2.5a.5.5 0 0 1-1 0V7H3.5a.5.5 0 0 1 0-1H6V3.5a.5.5 0 0 1 .5-.5z"></path></svg></g><g ></g><g ></g><g ></g></g><image  id="v-3008"></image></g></g><g   id="j_227"  transform="translate(920,745)" style=""><g  id="v-3012" style="opacity: 1;"><rect  id="v-3013" rx="20" ry="20" stroke="#3c7fc0" stroke-width="2" pointer-events="visiblePainted" fill="#438dd5" width="450" height="300" style="fill: rgb(67, 141, 213); stroke: rgb(60, 127, 192);"></rect><text  id="v-3014" font-size="34" xml:space="preserve" y="0.8em" font-weight="bold" text-anchor="middle" pointer-events="visible" font-family="Open Sans" fill="#ffffff" transform="matrix(1,0,0,1,225,83.1)" style="fill: rgb(255, 255, 255);"><tspan dy="0" >Web Application</tspan></text><text  id="v-3015" font-size="17" xml:space="preserve" y="0.8em" text-anchor="middle" font-family="Open Sans" fill="#ffffff" transform="matrix(1,0,0,1,225,125.6)" style="fill: rgb(255, 255, 255);"><tspan dy="0" >[Container: Node.js]</tspan></text><text  id="v-3016" font-size="24" xml:space="preserve" y="0.8em" text-anchor="middle" font-family="Open Sans" fill="#ffffff" transform="matrix(1,0,0,1,225,156.9)" style="fill: rgb(255, 255, 255);"><tspan dy="0" >Delivers the static content and the</tspan><tspan dy="1.2em" x="0" >D-LAMA Progressiv Web Application</tspan></text><g  id="v-3017" color="#ffffff" transform="matrix(1,0,0,1,222.5,226.9)" style="fill: rgb(255, 255, 255);" display="none"><g ></g><g ></g><g ></g><g ></g></g><image  id="v-3018"></image></g></g><g   id="j_228"  transform="translate(1670,745)" style=""><g  id="v-3025" style="opacity: 1;"><rect  id="v-3026" rx="10" ry="10" stroke="#3c7fc0" stroke-width="2" pointer-events="visiblePainted" fill="#3c7fc0" width="450" height="300" style="fill: rgb(60, 127, 192); stroke: rgb(60, 127, 192);"></rect><rect  id="v-3027" rx="10" ry="10" stroke="#3c7fc0" stroke-width="0" pointer-events="visiblePainted" fill="#438dd5" width="430" height="250" x="10" y="40" style="fill: rgb(67, 141, 213);"></rect><ellipse  id="v-3034" fill="#438dd5" cx="20" cy="20" rx="10" ry="10" style="fill: rgb(67, 141, 213);"></ellipse><ellipse  id="v-3035" fill="#438dd5" cx="50" cy="20" rx="10" ry="10" style="fill: rgb(67, 141, 213);"></ellipse><ellipse  id="v-3036" fill="#438dd5" cx="80" cy="20" rx="10" ry="10" style="fill: rgb(67, 141, 213);"></ellipse><rect  id="v-3028" rx="10" ry="10" stroke="#444444" stroke-width="0" pointer-events="visiblePainted" fill="#438dd5" width="340" height="20" x="100" y="10" style="fill: rgb(67, 141, 213);"></rect><text  id="v-3029" font-size="34" xml:space="preserve" y="0.8em" font-weight="bold" text-anchor="middle" pointer-events="visible" font-family="Open Sans" fill="#ffffff" transform="matrix(1,0,0,1,225,46.9)" style="fill: rgb(255, 255, 255);"><tspan dy="0" >Progressiv Web</tspan><tspan dy="1.2em" x="0" >Application</tspan></text><text  id="v-3030" font-size="17" xml:space="preserve" y="0.8em" text-anchor="middle" font-family="Open Sans" fill="#ffffff" transform="matrix(1,0,0,1,225,131.9)" style="fill: rgb(255, 255, 255);"><tspan dy="0" >[Container: React and Ionic]</tspan></text><text  id="v-3031" font-size="24" xml:space="preserve" y="0.8em" text-anchor="middle" font-family="Open Sans" fill="#ffffff" transform="matrix(1,0,0,1,225,163.1)" style="fill: rgb(255, 255, 255);"><tspan dy="0" >Provides all of the D-LAMA</tspan><tspan dy="1.2em" x="0" >functionality to the admin and</tspan><tspan dy="1.2em" x="0" >labeler via their web browser or</tspan><tspan dy="1.2em" x="0" >mobile app</tspan></text><g  id="v-3032" font-weight="normal" text-anchor="middle" color="#ffffff" transform="matrix(1,0,0,1,210,41)" style="fill: rgb(255, 255, 255);" display="none"><g  transform="translate(5 0)"><svg xmlns="http://www.w3.org/2000/svg" width="20" height="20" fill="currentColor" viewBox="0 0 16 16"><path fill-rule="evenodd" d="M6.5 12a5.5 5.5 0 1 0 0-11 5.5 5.5 0 0 0 0 11zM13 6.5a6.5 6.5 0 1 1-13 0 6.5 6.5 0 0 1 13 0z"></path><path d="M10.344 11.742c.03.04.062.078.098.115l3.85 3.85a1 1 0 0 0 1.415-1.414l-3.85-3.85a1.007 1.007 0 0 0-.115-.1 6.538 6.538 0 0 1-1.398 1.4z"></path><path fill-rule="evenodd" d="M6.5 3a.5.5 0 0 1 .5.5V6h2.5a.5.5 0 0 1 0 1H7v2.5a.5.5 0 0 1-1 0V7H3.5a.5.5 0 0 1 0-1H6V3.5a.5.5 0 0 1 .5-.5z"></path></svg></g><g ></g><g ></g><g ></g></g><image  id="v-3033"></image></g></g></g><g ></g><g ></g><g ></g></g></svg>