<svg xmlns="http://www.w3.org/2000/svg" xmlns:xlink="http://www.w3.org/1999/xlink" version="1.1" viewBox="0 0 2900 2886" style="background: #ffffff"><defs joint-selector="defs"></defs><g joint-selector="layers"  transform="matrix(1,0,0,1,0,0)"><g ></g><g ><g   id="j_172"  transform="translate(20,2841)"><g id="v-2488"><text  id="v-2489" font-size="22px" xml:space="preserve" y="0.8em" font-weight="normal" text-anchor="start" fill="#aaaaaa" pointer-events="none" font-family="Open Sans"><tspan dy="0" >Friday, 7 April 2023 at 07:45 Central European Summer Time</tspan></text></g></g><g   id="j_171"  transform="translate(20,2797)"><g id="v-2486"><text  id="v-2487" font-size="36px" xml:space="preserve" y="0.8em" font-weight="normal" text-anchor="start" fill="#000000" pointer-events="none" font-family="Open Sans"><tspan dy="0" >[Component] D-LAMA - Progressiv Web Application</tspan></text></g></g><g   id="j_152"  transform="translate(210,964)" style=""><g id="v-2157"><rect  id="v-2158" width="1975" height="1292" rx="0" ry="0" fill="#ffffff" stroke="#3c7fc0" stroke-width="1" stroke-dasharray="20,20" pointer-events="none"></rect><text  id="v-2159" font-size="24px" xml:space="preserve" y="1253" font-weight="normal" fill="#3c7fc0" text-anchor="start" pointer-events="visible" font-family="Open Sans" transform="matrix(1,0,0,1,15,0)"><tspan dy="0" >Progressiv Web Application</tspan></text><text  id="v-2160" font-size="17px" xml:space="preserve" y="1277" font-weight="normal" fill="#3c7fc0" text-anchor="start" pointer-events="visible" font-family="Open Sans" transform="matrix(1,0,0,1,15,0)"><tspan dy="0" >[Container]</tspan></text><image  id="v-2161" pointer-events="visible"></image></g></g><g   id="j_157" ><path  stroke="#707070" d="M 1821 1285 L 919 2420" id="v-2226" stroke-width="2" stroke-dasharray="30 30" fill="none" style="opacity: 1;"></path><path  fill="black" stroke="black" d="M 0 0 0 0" transform="matrix(-0.6220328574689509,0.7829911393042784,-0.7829911393042784,-0.6220328574689509,1820.8399658203125,1285)"></path><path  fill="#707070" stroke="#707070" d="M 20 0 L 0 10 L 20 20 z" id="v-2228" transform="matrix(0.6220330659920824,-0.7829909736468803,0.7829909736468803,0.6220330659920824,911.3300696622041,2413.779745092173)" style="opacity: 1;"></path><path  d="M 1821 1285 L 919 2420" id="v-2227" fill="none" style="cursor: default;"></path><g ><g id="v-2217"  label-idx="0" cursor="move" transform="matrix(1,0,0,1,1370,1852.5)" style="cursor: default; opacity: 1;"><rect joint-selector="rect" id="v-2221" fill="#ffffff" rx="3" ry="3" stroke="#ffffff" stroke-width="20px" pointer-events="none" width="179.65980529785156" height="89.64688491821289" transform="matrix(1,0,0,1,-90.2,-44.8)"></rect><text joint-selector="text" id="v-2220" font-size="24px" xml:space="preserve" y="0.8em" fill="#707070" text-anchor="middle" pointer-events="none" font-family="Open Sans" font-weight="normal" transform="matrix(1,0,0,1,0,-39.1)"><tspan dy="0" >Views and edits</tspan><tspan dy="1.2em" x="0" >labels of a</tspan><tspan dy="1.2em" x="0" >specific project</tspan></text></g><g id="v-2218"  label-idx="1" cursor="move" transform="matrix(1,0,0,1,1370,1909.5)" style="cursor: default; opacity: 1;"><rect joint-selector="rect" id="v-2223" fill="#ffffff" rx="3" ry="3" pointer-events="none" width="109.54442596435547" height="21.36458969116211" transform="matrix(1,0,0,1,-54,-10.7)"></rect><text joint-selector="text" id="v-2222" font-size="17px" xml:space="preserve" y="0.8em" fill="#707070" text-anchor="middle" pointer-events="none" font-family="Open Sans" font-weight="normal" transform="matrix(1,0,0,1,0,-6.5)"><tspan dy="0" >[JSON/HTTPS]</tspan></text></g><g id="v-2219"  label-idx="2" cursor="move" transform="matrix(1,0,0,1,1360,1918.75)" style="cursor: default; opacity: 1;"><rect joint-selector="rect" id="v-2225" fill="#ffffff" rx="3" ry="3"  width="0" height="0" transform="matrix(1,0,0,1,0,0)" display="none"></rect><text joint-selector="text" id="v-2224" fill="#000000" font-size="14" text-anchor="middle" pointer-events="none"></text></g></g><g  display="none"></g><g  id="v-2230" display="none"><g  id="v-2215"><path  end="source" d="M 26 0 L 0 13 L 26 26 z"></path></g><g  id="v-2216"><path  end="target" d="M 26 0 L 0 13 L 26 26 z"></path></g></g><g  id="v-2229" display="none"><g  id="v-2214" transform="translate(1796.1132698386452, 1316.3153422762057) "><g  event="remove"><circle r="11"></circle><path transform="scale(.8) translate(-16, -16)" d="M24.778,21.419 19.276,15.917 24.777,10.415 21.949,7.585 16.447,13.087 10.945,7.585 8.117,10.415 13.618,15.917 8.116,21.419 10.946,24.248 16.447,18.746 21.948,24.248z"></path><title>Remove link.</title></g><g  event="link:options"><circle r="11" transform="translate(25)"></circle><path fill="white" transform="scale(.55) translate(29, -16)" d="M31.229,17.736c0.064-0.571,0.104-1.148,0.104-1.736s-0.04-1.166-0.104-1.737l-4.377-1.557c-0.218-0.716-0.504-1.401-0.851-2.05l1.993-4.192c-0.725-0.91-1.549-1.734-2.458-2.459l-4.193,1.994c-0.647-0.347-1.334-0.632-2.049-0.849l-1.558-4.378C17.165,0.708,16.588,0.667,16,0.667s-1.166,0.041-1.737,0.105L12.707,5.15c-0.716,0.217-1.401,0.502-2.05,0.849L6.464,4.005C5.554,4.73,4.73,5.554,4.005,6.464l1.994,4.192c-0.347,0.648-0.632,1.334-0.849,2.05l-4.378,1.557C0.708,14.834,0.667,15.412,0.667,16s0.041,1.165,0.105,1.736l4.378,1.558c0.217,0.715,0.502,1.401,0.849,2.049l-1.994,4.193c0.725,0.909,1.549,1.733,2.459,2.458l4.192-1.993c0.648,0.347,1.334,0.633,2.05,0.851l1.557,4.377c0.571,0.064,1.148,0.104,1.737,0.104c0.588,0,1.165-0.04,1.736-0.104l1.558-4.377c0.715-0.218,1.399-0.504,2.049-0.851l4.193,1.993c0.909-0.725,1.733-1.549,2.458-2.458l-1.993-4.193c0.347-0.647,0.633-1.334,0.851-2.049L31.229,17.736zM16,20.871c-2.69,0-4.872-2.182-4.872-4.871c0-2.69,2.182-4.872,4.872-4.872c2.689,0,4.871,2.182,4.871,4.872C20.871,18.689,18.689,20.871,16,20.871z"></path><title>Link options.</title></g></g></g></g><g   id="j_158" ><path  stroke="#707070" d="M 593 705 L 502 995" id="v-2243" stroke-width="2" stroke-dasharray="30 30" fill="none" style="opacity: 1;"></path><path  fill="black" stroke="black" d="M 0 0 0 0" transform="matrix(-0.29826003164166454,0.9544846533732815,-0.9544846533732815,-0.29826003164166454,592.5,705)"></path><path  fill="#707070" stroke="#707070" d="M 20 0 L 0 10 L 20 20 z" id="v-2245" transform="matrix(0.2982599045443422,-0.9544846930889986,0.9544846930889986,0.2982599045443422,492.33516388694784,992.0173870456028)" style="opacity: 1;"></path><path  d="M 593 705 L 502 995" id="v-2244" fill="none" style="cursor: default;"></path><g ><g id="v-2234"  label-idx="0" cursor="move" transform="matrix(1,0,0,1,547.5,850)" style="cursor: default; opacity: 1;"><rect joint-selector="rect" id="v-2238" fill="#ffffff" rx="3" ry="3" stroke="#ffffff" stroke-width="20px" pointer-events="none" width="80.39539337158203" height="32.04688262939453" transform="matrix(1,0,0,1,-40.2,-16)"></rect><text joint-selector="text" id="v-2237" font-size="24px" xml:space="preserve" y="0.8em" fill="#707070" text-anchor="middle" pointer-events="none" font-family="Open Sans" font-weight="normal" transform="matrix(1,0,0,1,0,-10.3)"><tspan dy="0" >SignOn</tspan></text></g><g id="v-2235"  label-idx="1" cursor="move" transform="matrix(1,0,0,1,547.5,877)" style="cursor: default; opacity: 1;"><rect joint-selector="rect" id="v-2240" fill="#ffffff" rx="3" ry="3" pointer-events="none" width="63.441659927368164" height="21.36458969116211" transform="matrix(1,0,0,1,-31,-10.7)"></rect><text joint-selector="text" id="v-2239" font-size="17px" xml:space="preserve" y="0.8em" fill="#707070" text-anchor="middle" pointer-events="none" font-family="Open Sans" font-weight="normal" transform="matrix(1,0,0,1,0,-6.5)"><tspan dy="0" >[HTTPS]</tspan></text></g><g id="v-2236"  label-idx="2" cursor="move" transform="matrix(1,0,0,1,537.5,886.25)" style="cursor: default; opacity: 1;"><rect joint-selector="rect" id="v-2242" fill="#ffffff" rx="3" ry="3"  width="0" height="0" transform="matrix(1,0,0,1,0,0)" display="none"></rect><text joint-selector="text" id="v-2241" fill="#000000" font-size="14" text-anchor="middle" pointer-events="none"></text></g></g><g  display="none"></g><g  id="v-2247" display="none"><g  id="v-2232"><path  end="source" d="M 26 0 L 0 13 L 26 26 z"></path></g><g  id="v-2233"><path  end="target" d="M 26 0 L 0 13 L 26 26 z"></path></g></g><g  id="v-2246" display="none"><g  id="v-2231" transform="translate(581.0240477946414, 743.1651224126815) "><g  event="remove"><circle r="11"></circle><path transform="scale(.8) translate(-16, -16)" d="M24.778,21.419 19.276,15.917 24.777,10.415 21.949,7.585 16.447,13.087 10.945,7.585 8.117,10.415 13.618,15.917 8.116,21.419 10.946,24.248 16.447,18.746 21.948,24.248z"></path><title>Remove link.</title></g><g  event="link:options"><circle r="11" transform="translate(25)"></circle><path fill="white" transform="scale(.55) translate(29, -16)" d="M31.229,17.736c0.064-0.571,0.104-1.148,0.104-1.736s-0.04-1.166-0.104-1.737l-4.377-1.557c-0.218-0.716-0.504-1.401-0.851-2.05l1.993-4.192c-0.725-0.91-1.549-1.734-2.458-2.459l-4.193,1.994c-0.647-0.347-1.334-0.632-2.049-0.849l-1.558-4.378C17.165,0.708,16.588,0.667,16,0.667s-1.166,0.041-1.737,0.105L12.707,5.15c-0.716,0.217-1.401,0.502-2.05,0.849L6.464,4.005C5.554,4.73,4.73,5.554,4.005,6.464l1.994,4.192c-0.347,0.648-0.632,1.334-0.849,2.05l-4.378,1.557C0.708,14.834,0.667,15.412,0.667,16s0.041,1.165,0.105,1.736l4.378,1.558c0.217,0.715,0.502,1.401,0.849,2.049l-1.994,4.193c0.725,0.909,1.549,1.733,2.459,2.458l4.192-1.993c0.648,0.347,1.334,0.633,2.05,0.851l1.557,4.377c0.571,0.064,1.148,0.104,1.737,0.104c0.588,0,1.165-0.04,1.736-0.104l1.558-4.377c0.715-0.218,1.399-0.504,2.049-0.851l4.193,1.993c0.909-0.725,1.733-1.549,2.458-2.458l-1.993-4.193c0.347-0.647,0.633-1.334,0.851-2.049L31.229,17.736zM16,20.871c-2.69,0-4.872-2.182-4.872-4.871c0-2.69,2.182-4.872,4.872-4.872c2.689,0,4.871,2.182,4.871,4.872C20.871,18.689,18.689,20.871,16,20.871z"></path><title>Link options.</title></g></g></g></g><g   id="j_159" ><path  stroke="#707070" d="M 826 705 L 1065 984" id="v-2260" stroke-width="2" stroke-dasharray="30 30" fill="none" style="opacity: 1;"></path><path  fill="black" stroke="black" d="M 0 0 0 0" transform="matrix(0.6506927547610334,0.7593411215662548,-0.7593411215662548,0.6506927547610334,826.3800048828125,705)"></path><path  fill="#707070" stroke="#707070" d="M 20 0 L 0 10 L 20 20 z" id="v-2262" transform="matrix(-0.650692805317225,-0.7593410782437626,0.7593410782437626,-0.650692805317225,1057.8666422707347,990.5069550465473)" style="opacity: 1;"></path><path  d="M 826 705 L 1065 984" id="v-2261" fill="none" style="cursor: default;"></path><g ><g id="v-2251"  label-idx="0" cursor="move" transform="matrix(1,0,0,1,945.5,844.5)" style="cursor: default; opacity: 1;"><rect joint-selector="rect" id="v-2255" fill="#ffffff" rx="3" ry="3" stroke="#ffffff" stroke-width="20px" pointer-events="none" width="68.4334487915039" height="32.04688262939453" transform="matrix(1,0,0,1,-34.2,-16)"></rect><text joint-selector="text" id="v-2254" font-size="24px" xml:space="preserve" y="0.8em" fill="#707070" text-anchor="middle" pointer-events="none" font-family="Open Sans" font-weight="normal" transform="matrix(1,0,0,1,0,-10.3)"><tspan dy="0" >SignIn</tspan></text></g><g id="v-2252"  label-idx="1" cursor="move" transform="matrix(1,0,0,1,945.5,871.5)" style="cursor: default; opacity: 1;"><rect joint-selector="rect" id="v-2257" fill="#ffffff" rx="3" ry="3" pointer-events="none" width="63.441659927368164" height="21.36458969116211" transform="matrix(1,0,0,1,-31,-10.7)"></rect><text joint-selector="text" id="v-2256" font-size="17px" xml:space="preserve" y="0.8em" fill="#707070" text-anchor="middle" pointer-events="none" font-family="Open Sans" font-weight="normal" transform="matrix(1,0,0,1,0,-6.5)"><tspan dy="0" >[HTTPS]</tspan></text></g><g id="v-2253"  label-idx="2" cursor="move" transform="matrix(1,0,0,1,935.5,880.75)" style="cursor: default; opacity: 1;"><rect joint-selector="rect" id="v-2259" fill="#ffffff" rx="3" ry="3"  width="0" height="0" transform="matrix(1,0,0,1,0,0)" display="none"></rect><text joint-selector="text" id="v-2258" fill="#000000" font-size="14" text-anchor="middle" pointer-events="none"></text></g></g><g  display="none"></g><g  id="v-2264" display="none"><g  id="v-2249"><path  end="source" d="M 26 0 L 0 13 L 26 26 z"></path></g><g  id="v-2250"><path  end="target" d="M 26 0 L 0 13 L 26 26 z"></path></g></g><g  id="v-2263" display="none"><g  id="v-2248" transform="translate(852.0226870889182, 735.3779485263941) "><g  event="remove"><circle r="11"></circle><path transform="scale(.8) translate(-16, -16)" d="M24.778,21.419 19.276,15.917 24.777,10.415 21.949,7.585 16.447,13.087 10.945,7.585 8.117,10.415 13.618,15.917 8.116,21.419 10.946,24.248 16.447,18.746 21.948,24.248z"></path><title>Remove link.</title></g><g  event="link:options"><circle r="11" transform="translate(25)"></circle><path fill="white" transform="scale(.55) translate(29, -16)" d="M31.229,17.736c0.064-0.571,0.104-1.148,0.104-1.736s-0.04-1.166-0.104-1.737l-4.377-1.557c-0.218-0.716-0.504-1.401-0.851-2.05l1.993-4.192c-0.725-0.91-1.549-1.734-2.458-2.459l-4.193,1.994c-0.647-0.347-1.334-0.632-2.049-0.849l-1.558-4.378C17.165,0.708,16.588,0.667,16,0.667s-1.166,0.041-1.737,0.105L12.707,5.15c-0.716,0.217-1.401,0.502-2.05,0.849L6.464,4.005C5.554,4.73,4.73,5.554,4.005,6.464l1.994,4.192c-0.347,0.648-0.632,1.334-0.849,2.05l-4.378,1.557C0.708,14.834,0.667,15.412,0.667,16s0.041,1.165,0.105,1.736l4.378,1.558c0.217,0.715,0.502,1.401,0.849,2.049l-1.994,4.193c0.725,0.909,1.549,1.733,2.459,2.458l4.192-1.993c0.648,0.347,1.334,0.633,2.05,0.851l1.557,4.377c0.571,0.064,1.148,0.104,1.737,0.104c0.588,0,1.165-0.04,1.736-0.104l1.558-4.377c0.715-0.218,1.399-0.504,2.049-0.851l4.193,1.993c0.909-0.725,1.733-1.549,2.458-2.458l-1.993-4.193c0.347-0.647,0.633-1.334,0.851-2.049L31.229,17.736zM16,20.871c-2.69,0-4.872-2.182-4.872-4.871c0-2.69,2.182-4.872,4.872-4.872c2.689,0,4.871,2.182,4.871,4.872C20.871,18.689,18.689,20.871,16,20.871z"></path><title>Link options.</title></g></g></g></g><g   id="j_160" ><path  stroke="#707070" d="M 1774 2015 L 1952 1881 C 1957.333333333333 1877 1961.333333333333 1872 1964 1866 L 2051 1644 C 2053.6666666666665 1638 2054.333333333333 1631.6666666666665 2053 1625 L 1975 1285" id="v-2282" stroke-width="2" stroke-dasharray="30 30" fill="none" style="opacity: 1;"></path><path  fill="black" stroke="black" d="M 0 0 0 0" transform="matrix(0.7989677944821443,-0.6013738133476865,0.6013738133476865,0.7989677944821443,1774,2015)"></path><path  fill="#707070" stroke="#707070" d="M 20 0 L 0 10 L 20 20 z" id="v-2284" transform="matrix(0.22414772532533314,0.9745551791620005,-0.9745551791620005,0.22414772532533314,1984.2455296164917,1282.7585764238768)" style="opacity: 1;"></path><path  d="M 1774 2015 L 1952 1881 C 1957.333333333333 1877 1961.333333333333 1872 1964 1866 L 2051 1644 C 2053.6666666666665 1638 2054.333333333333 1631.6666666666665 2053 1625 L 1975 1285" id="v-2283" fill="none" style="cursor: default;"></path><g ><g id="v-2273"  label-idx="0" cursor="move" transform="matrix(1,0,0,1,2030.4921875,1696.3302001953125)" style="cursor: default; opacity: 1;"><rect joint-selector="rect" id="v-2277" fill="#ffffff" rx="3" ry="3" stroke="#ffffff" stroke-width="20px" pointer-events="none" width="157.23550415039062" height="60.846885681152344" transform="matrix(1,0,0,1,-78.1,-30.4)"></rect><text joint-selector="text" id="v-2276" font-size="24px" xml:space="preserve" y="0.8em" fill="#707070" text-anchor="middle" pointer-events="none" font-family="Open Sans" font-weight="normal" transform="matrix(1,0,0,1,0,-24.7)"><tspan dy="0" >Provides label</tspan><tspan dy="1.2em" x="0" >results</tspan></text></g><g id="v-2274"  label-idx="1" cursor="move" transform="matrix(1,0,0,1,2030.4921875,1738.3302001953125)" style="cursor: default; opacity: 1;"><rect joint-selector="rect" id="v-2279" fill="#ffffff" rx="3" ry="3" pointer-events="none" width="56.32600021362305" height="21.36458969116211" transform="matrix(1,0,0,1,-27.4,-10.7)"></rect><text joint-selector="text" id="v-2278" font-size="17px" xml:space="preserve" y="0.8em" fill="#707070" text-anchor="middle" pointer-events="none" font-family="Open Sans" font-weight="normal" transform="matrix(1,0,0,1,0,-6.5)"><tspan dy="0" >[React]</tspan></text></g><g id="v-2275"  label-idx="2" cursor="move" transform="matrix(1,0,0,1,2020.4921875,1747.5802001953125)" style="cursor: default; opacity: 1;"><rect joint-selector="rect" id="v-2281" fill="#ffffff" rx="3" ry="3"  width="0" height="0" transform="matrix(1,0,0,1,0,0)" display="none"></rect><text joint-selector="text" id="v-2280" fill="#000000" font-size="14" text-anchor="middle" pointer-events="none"></text></g></g><g  display="none"><g  transform="translate(1960, 1875)" id="v-2269"><circle  idx="0" r="10"></circle><path  idx="0" d="M16,5.333c-7.732,0-14,4.701-14,10.5c0,1.982,0.741,3.833,2.016,5.414L2,25.667l5.613-1.441c2.339,1.317,5.237,2.107,8.387,2.107c7.732,0,14-4.701,14-10.5C30,10.034,23.732,5.333,16,5.333z" transform="translate(5, -33)"></path><path  idx="0" transform="scale(.8) translate(9.5, -37)" d="M24.778,21.419 19.276,15.917 24.777,10.415 21.949,7.585 16.447,13.087 10.945,7.585 8.117,10.415 13.618,15.917 8.116,21.419 10.946,24.248 16.447,18.746 21.948,24.248z"><title>Remove vertex.</title></path></g><g  transform="translate(2055, 1635)" id="v-2270"><circle  idx="1" r="10"></circle><path  idx="1" d="M16,5.333c-7.732,0-14,4.701-14,10.5c0,1.982,0.741,3.833,2.016,5.414L2,25.667l5.613-1.441c2.339,1.317,5.237,2.107,8.387,2.107c7.732,0,14-4.701,14-10.5C30,10.034,23.732,5.333,16,5.333z" transform="translate(5, -33)"></path><path  idx="1" transform="scale(.8) translate(9.5, -37)" d="M24.778,21.419 19.276,15.917 24.777,10.415 21.949,7.585 16.447,13.087 10.945,7.585 8.117,10.415 13.618,15.917 8.116,21.419 10.946,24.248 16.447,18.746 21.948,24.248z"><title>Remove vertex.</title></path></g></g><g  id="v-2286" display="none"><g  id="v-2271"><path  end="source" d="M 26 0 L 0 13 L 26 26 z"></path></g><g  id="v-2272"><path  end="target" d="M 26 0 L 0 13 L 26 26 z"></path></g></g><g  id="v-2285" display="none"><g  id="v-2268" transform="translate(1805.956860526811, 1990.9425881427378) "><g  event="remove"><circle r="11"></circle><path transform="scale(.8) translate(-16, -16)" d="M24.778,21.419 19.276,15.917 24.777,10.415 21.949,7.585 16.447,13.087 10.945,7.585 8.117,10.415 13.618,15.917 8.116,21.419 10.946,24.248 16.447,18.746 21.948,24.248z"></path><title>Remove link.</title></g><g  event="link:options"><circle r="11" transform="translate(25)"></circle><path fill="white" transform="scale(.55) translate(29, -16)" d="M31.229,17.736c0.064-0.571,0.104-1.148,0.104-1.736s-0.04-1.166-0.104-1.737l-4.377-1.557c-0.218-0.716-0.504-1.401-0.851-2.05l1.993-4.192c-0.725-0.91-1.549-1.734-2.458-2.459l-4.193,1.994c-0.647-0.347-1.334-0.632-2.049-0.849l-1.558-4.378C17.165,0.708,16.588,0.667,16,0.667s-1.166,0.041-1.737,0.105L12.707,5.15c-0.716,0.217-1.401,0.502-2.05,0.849L6.464,4.005C5.554,4.73,4.73,5.554,4.005,6.464l1.994,4.192c-0.347,0.648-0.632,1.334-0.849,2.05l-4.378,1.557C0.708,14.834,0.667,15.412,0.667,16s0.041,1.165,0.105,1.736l4.378,1.558c0.217,0.715,0.502,1.401,0.849,2.049l-1.994,4.193c0.725,0.909,1.549,1.733,2.459,2.458l4.192-1.993c0.648,0.347,1.334,0.633,2.05,0.851l1.557,4.377c0.571,0.064,1.148,0.104,1.737,0.104c0.588,0,1.165-0.04,1.736-0.104l1.558-4.377c0.715-0.218,1.399-0.504,2.049-0.851l4.193,1.993c0.909-0.725,1.733-1.549,2.458-2.458l-1.993-4.193c0.347-0.647,0.633-1.334,0.851-2.049L31.229,17.736zM16,20.871c-2.69,0-4.872-2.182-4.872-4.871c0-2.69,2.182-4.872,4.872-4.872c2.689,0,4.871,2.182,4.871,4.872C20.871,18.689,18.689,20.871,16,20.871z"></path><title>Link options.</title></g></g></g></g><g   id="j_161" ><path  stroke="#707070" d="M 1989 548 L 1397 984" id="v-2299" stroke-width="2" stroke-dasharray="30 30" fill="none" style="opacity: 1;"></path><path  fill="black" stroke="black" d="M 0 0 0 0" transform="matrix(-0.8047308940997688,0.5936397797329511,-0.5936397797329511,-0.8047308940997688,1989,547.5399780273438)"></path><path  fill="#707070" stroke="#707070" d="M 20 0 L 0 10 L 20 20 z" id="v-2301" transform="matrix(0.8047310521955763,-0.5936395654201299,0.5936395654201299,0.8047310521955763,1391.4036229254054,975.952683765058)" style="opacity: 1;"></path><path  d="M 1989 548 L 1397 984" id="v-2300" fill="none" style="cursor: default;"></path><g ><g id="v-2290"  label-idx="0" cursor="move" transform="matrix(1,0,0,1,1693,766)" style="cursor: default; opacity: 1;"><rect joint-selector="rect" id="v-2294" fill="#ffffff" rx="3" ry="3" stroke="#ffffff" stroke-width="20px" pointer-events="none" width="68.4334487915039" height="32.04688262939453" transform="matrix(1,0,0,1,-34.2,-16)"></rect><text joint-selector="text" id="v-2293" font-size="24px" xml:space="preserve" y="0.8em" fill="#707070" text-anchor="middle" pointer-events="none" font-family="Open Sans" font-weight="normal" transform="matrix(1,0,0,1,0,-10.3)"><tspan dy="0" >SignIn</tspan></text></g><g id="v-2291"  label-idx="1" cursor="move" transform="matrix(1,0,0,1,1693,793)" style="cursor: default; opacity: 1;"><rect joint-selector="rect" id="v-2296" fill="#ffffff" rx="3" ry="3" pointer-events="none" width="63.441659927368164" height="21.36458969116211" transform="matrix(1,0,0,1,-31,-10.7)"></rect><text joint-selector="text" id="v-2295" font-size="17px" xml:space="preserve" y="0.8em" fill="#707070" text-anchor="middle" pointer-events="none" font-family="Open Sans" font-weight="normal" transform="matrix(1,0,0,1,0,-6.5)"><tspan dy="0" >[HTTPS]</tspan></text></g><g id="v-2292"  label-idx="2" cursor="move" transform="matrix(1,0,0,1,1683,802.25)" style="cursor: default; opacity: 1;"><rect joint-selector="rect" id="v-2298" fill="#ffffff" rx="3" ry="3"  width="0" height="0" transform="matrix(1,0,0,1,0,0)" display="none"></rect><text joint-selector="text" id="v-2297" fill="#000000" font-size="14" text-anchor="middle" pointer-events="none"></text></g></g><g  display="none"></g><g  id="v-2303" display="none"><g  id="v-2288"><path  end="source" d="M 26 0 L 0 13 L 26 26 z"></path></g><g  id="v-2289"><path  end="target" d="M 26 0 L 0 13 L 26 26 z"></path></g></g><g  id="v-2302" display="none"><g  id="v-2287" transform="translate(1956.7922975687407, 571.7205376014005) "><g  event="remove"><circle r="11"></circle><path transform="scale(.8) translate(-16, -16)" d="M24.778,21.419 19.276,15.917 24.777,10.415 21.949,7.585 16.447,13.087 10.945,7.585 8.117,10.415 13.618,15.917 8.116,21.419 10.946,24.248 16.447,18.746 21.948,24.248z"></path><title>Remove link.</title></g><g  event="link:options"><circle r="11" transform="translate(25)"></circle><path fill="white" transform="scale(.55) translate(29, -16)" d="M31.229,17.736c0.064-0.571,0.104-1.148,0.104-1.736s-0.04-1.166-0.104-1.737l-4.377-1.557c-0.218-0.716-0.504-1.401-0.851-2.05l1.993-4.192c-0.725-0.91-1.549-1.734-2.458-2.459l-4.193,1.994c-0.647-0.347-1.334-0.632-2.049-0.849l-1.558-4.378C17.165,0.708,16.588,0.667,16,0.667s-1.166,0.041-1.737,0.105L12.707,5.15c-0.716,0.217-1.401,0.502-2.05,0.849L6.464,4.005C5.554,4.73,4.73,5.554,4.005,6.464l1.994,4.192c-0.347,0.648-0.632,1.334-0.849,2.05l-4.378,1.557C0.708,14.834,0.667,15.412,0.667,16s0.041,1.165,0.105,1.736l4.378,1.558c0.217,0.715,0.502,1.401,0.849,2.049l-1.994,4.193c0.725,0.909,1.549,1.733,2.459,2.458l4.192-1.993c0.648,0.347,1.334,0.633,2.05,0.851l1.557,4.377c0.571,0.064,1.148,0.104,1.737,0.104c0.588,0,1.165-0.04,1.736-0.104l1.558-4.377c0.715-0.218,1.399-0.504,2.049-0.851l4.193,1.993c0.909-0.725,1.733-1.549,2.458-2.458l-1.993-4.193c0.347-0.647,0.633-1.334,0.851-2.049L31.229,17.736zM16,20.871c-2.69,0-4.872-2.182-4.872-4.871c0-2.69,2.182-4.872,4.872-4.872c2.689,0,4.871,2.182,4.871,4.872C20.871,18.689,18.689,20.871,16,20.871z"></path><title>Link options.</title></g></g></g></g><g   id="j_162" ><path  stroke="#707070" d="M 1895 1285 L 1808 1580 C 1806 1586.6666666666665 1804.6666666666665 1593.3333333333333 1804 1600 L 1785 1865" id="v-2320" stroke-width="2" stroke-dasharray="30 30" fill="none" style="opacity: 1;"></path><path  fill="black" stroke="black" d="M 0 0 0 0" transform="matrix(-0.2844339625347675,0.9586956352027324,-0.9586956352027324,-0.2844339625347675,1895.489990234375,1285)"></path><path  fill="#707070" stroke="#707070" d="M 20 0 L 0 10 L 20 20 z" id="v-2322" transform="matrix(0.07275235127028605,-0.9973500365391506,0.9973500365391506,0.07275235127028605,1774.9664565906555,1864.2724661105012)" style="opacity: 1;"></path><path  d="M 1895 1285 L 1808 1580 C 1806 1586.6666666666665 1804.6666666666665 1593.3333333333333 1804 1600 L 1785 1865" id="v-2321" fill="none" style="cursor: default;"></path><g ><g id="v-2311"  label-idx="0" cursor="move" transform="matrix(1,0,0,1,1811.0345458984375,1569.7103271484375)" style="cursor: default; opacity: 1;"><rect joint-selector="rect" id="v-2315" fill="#ffffff" rx="3" ry="3" stroke="#ffffff" stroke-width="20px" pointer-events="none" width="137.7928924560547" height="60.846885681152344" transform="matrix(1,0,0,1,-67.8,-30.4)"></rect><text joint-selector="text" id="v-2314" font-size="24px" xml:space="preserve" y="0.8em" fill="#707070" text-anchor="middle" pointer-events="none" font-family="Open Sans" font-weight="normal" transform="matrix(1,0,0,1,0,-24.7)"><tspan dy="0" >Gets project</tspan><tspan dy="1.2em" x="0" >information</tspan></text></g><g id="v-2312"  label-idx="1" cursor="move" transform="matrix(1,0,0,1,1811.0345458984375,1611.7103271484375)" style="cursor: default; opacity: 1;"><rect joint-selector="rect" id="v-2317" fill="#ffffff" rx="3" ry="3" pointer-events="none" width="56.32600021362305" height="21.36458969116211" transform="matrix(1,0,0,1,-27.4,-10.7)"></rect><text joint-selector="text" id="v-2316" font-size="17px" xml:space="preserve" y="0.8em" fill="#707070" text-anchor="middle" pointer-events="none" font-family="Open Sans" font-weight="normal" transform="matrix(1,0,0,1,0,-6.5)"><tspan dy="0" >[React]</tspan></text></g><g id="v-2313"  label-idx="2" cursor="move" transform="matrix(1,0,0,1,1801.0345458984375,1620.9603271484375)" style="cursor: default; opacity: 1;"><rect joint-selector="rect" id="v-2319" fill="#ffffff" rx="3" ry="3"  width="0" height="0" transform="matrix(1,0,0,1,0,0)" display="none"></rect><text joint-selector="text" id="v-2318" fill="#000000" font-size="14" text-anchor="middle" pointer-events="none"></text></g></g><g  display="none"><g  transform="translate(1805, 1590)" id="v-2308"><circle  idx="0" r="10"></circle><path  idx="0" d="M16,5.333c-7.732,0-14,4.701-14,10.5c0,1.982,0.741,3.833,2.016,5.414L2,25.667l5.613-1.441c2.339,1.317,5.237,2.107,8.387,2.107c7.732,0,14-4.701,14-10.5C30,10.034,23.732,5.333,16,5.333z" transform="translate(5, -33)"></path><path  idx="0" transform="scale(.8) translate(9.5, -37)" d="M24.778,21.419 19.276,15.917 24.777,10.415 21.949,7.585 16.447,13.087 10.945,7.585 8.117,10.415 13.618,15.917 8.116,21.419 10.946,24.248 16.447,18.746 21.948,24.248z"><title>Remove vertex.</title></path></g></g><g  id="v-2324" display="none"><g  id="v-2309"><path  end="source" d="M 26 0 L 0 13 L 26 26 z"></path></g><g  id="v-2310"><path  end="target" d="M 26 0 L 0 13 L 26 26 z"></path></g></g><g  id="v-2323" display="none"><g  id="v-2307" transform="translate(1883.6851852290808, 1323.3663259473694) "><g  event="remove"><circle r="11"></circle><path transform="scale(.8) translate(-16, -16)" d="M24.778,21.419 19.276,15.917 24.777,10.415 21.949,7.585 16.447,13.087 10.945,7.585 8.117,10.415 13.618,15.917 8.116,21.419 10.946,24.248 16.447,18.746 21.948,24.248z"></path><title>Remove link.</title></g><g  event="link:options"><circle r="11" transform="translate(25)"></circle><path fill="white" transform="scale(.55) translate(29, -16)" d="M31.229,17.736c0.064-0.571,0.104-1.148,0.104-1.736s-0.04-1.166-0.104-1.737l-4.377-1.557c-0.218-0.716-0.504-1.401-0.851-2.05l1.993-4.192c-0.725-0.91-1.549-1.734-2.458-2.459l-4.193,1.994c-0.647-0.347-1.334-0.632-2.049-0.849l-1.558-4.378C17.165,0.708,16.588,0.667,16,0.667s-1.166,0.041-1.737,0.105L12.707,5.15c-0.716,0.217-1.401,0.502-2.05,0.849L6.464,4.005C5.554,4.73,4.73,5.554,4.005,6.464l1.994,4.192c-0.347,0.648-0.632,1.334-0.849,2.05l-4.378,1.557C0.708,14.834,0.667,15.412,0.667,16s0.041,1.165,0.105,1.736l4.378,1.558c0.217,0.715,0.502,1.401,0.849,2.049l-1.994,4.193c0.725,0.909,1.549,1.733,2.459,2.458l4.192-1.993c0.648,0.347,1.334,0.633,2.05,0.851l1.557,4.377c0.571,0.064,1.148,0.104,1.737,0.104c0.588,0,1.165-0.04,1.736-0.104l1.558-4.377c0.715-0.218,1.399-0.504,2.049-0.851l4.193,1.993c0.909-0.725,1.733-1.549,2.458-2.458l-1.993-4.193c0.347-0.647,0.633-1.334,0.851-2.049L31.229,17.736zM16,20.871c-2.69,0-4.872-2.182-4.872-4.871c0-2.69,2.182-4.872,4.872-4.872c2.689,0,4.871,2.182,4.871,4.872C20.871,18.689,18.689,20.871,16,20.871z"></path><title>Link options.</title></g></g></g></g><g   id="j_163" ><path  stroke="#707070" d="M 2121 600 L 1991 985" id="v-2340" stroke-width="2" stroke-dasharray="30 30" fill="none" style="opacity: 1;"></path><path  fill="black" stroke="black" d="M 0 0 0 0" transform="matrix(-0.32084399833404414,0.9471320545378157,-0.9471320545378157,-0.32084399833404414,2121.239990234375,600)"></path><path  fill="#707070" stroke="#707070" d="M 20 0 L 0 10 L 20 20 z" id="v-2342" transform="matrix(0.3208442505705559,-0.947131969091857,0.947131969091857,0.3208442505705559,1981.3486801861884,981.7915637086505)" style="opacity: 1;"></path><path  d="M 2121 600 L 1991 985" id="v-2341" fill="none" style="cursor: default;"></path><g ><g id="v-2331"  label-idx="0" cursor="move" transform="matrix(1,0,0,1,2056,792.5)" style="cursor: default; opacity: 1;"><rect joint-selector="rect" id="v-2335" fill="#ffffff" rx="3" ry="3" stroke="#ffffff" stroke-width="20px" pointer-events="none" width="170.50926208496094" height="32.04688262939453" transform="matrix(1,0,0,1,-83.9,-16)"></rect><text joint-selector="text" id="v-2334" font-size="24px" xml:space="preserve" y="0.8em" fill="#707070" text-anchor="middle" pointer-events="none" font-family="Open Sans" font-weight="normal" transform="matrix(1,0,0,1,0,-10.3)"><tspan dy="0" >Labels projects</tspan></text></g><g id="v-2332"  label-idx="1" cursor="move" transform="matrix(1,0,0,1,2056,819.5)" style="cursor: default; opacity: 1;"><rect joint-selector="rect" id="v-2337" fill="#ffffff" rx="3" ry="3" pointer-events="none" width="63.441659927368164" height="21.36458969116211" transform="matrix(1,0,0,1,-31,-10.7)"></rect><text joint-selector="text" id="v-2336" font-size="17px" xml:space="preserve" y="0.8em" fill="#707070" text-anchor="middle" pointer-events="none" font-family="Open Sans" font-weight="normal" transform="matrix(1,0,0,1,0,-6.5)"><tspan dy="0" >[HTTPS]</tspan></text></g><g id="v-2333"  label-idx="2" cursor="move" transform="matrix(1,0,0,1,2046,828.75)" style="cursor: default; opacity: 1;"><rect joint-selector="rect" id="v-2339" fill="#ffffff" rx="3" ry="3"  width="0" height="0" transform="matrix(1,0,0,1,0,0)" display="none"></rect><text joint-selector="text" id="v-2338" fill="#000000" font-size="14" text-anchor="middle" pointer-events="none"></text></g></g><g  display="none"></g><g  id="v-2344" display="none"><g  id="v-2329"><path  end="source" d="M 26 0 L 0 13 L 26 26 z"></path></g><g  id="v-2330"><path  end="target" d="M 26 0 L 0 13 L 26 26 z"></path></g></g><g  id="v-2343" display="none"><g  id="v-2328" transform="translate(2108.203331243476, 637.8978267020129) "><g  event="remove"><circle r="11"></circle><path transform="scale(.8) translate(-16, -16)" d="M24.778,21.419 19.276,15.917 24.777,10.415 21.949,7.585 16.447,13.087 10.945,7.585 8.117,10.415 13.618,15.917 8.116,21.419 10.946,24.248 16.447,18.746 21.948,24.248z"></path><title>Remove link.</title></g><g  event="link:options"><circle r="11" transform="translate(25)"></circle><path fill="white" transform="scale(.55) translate(29, -16)" d="M31.229,17.736c0.064-0.571,0.104-1.148,0.104-1.736s-0.04-1.166-0.104-1.737l-4.377-1.557c-0.218-0.716-0.504-1.401-0.851-2.05l1.993-4.192c-0.725-0.91-1.549-1.734-2.458-2.459l-4.193,1.994c-0.647-0.347-1.334-0.632-2.049-0.849l-1.558-4.378C17.165,0.708,16.588,0.667,16,0.667s-1.166,0.041-1.737,0.105L12.707,5.15c-0.716,0.217-1.401,0.502-2.05,0.849L6.464,4.005C5.554,4.73,4.73,5.554,4.005,6.464l1.994,4.192c-0.347,0.648-0.632,1.334-0.849,2.05l-4.378,1.557C0.708,14.834,0.667,15.412,0.667,16s0.041,1.165,0.105,1.736l4.378,1.558c0.217,0.715,0.502,1.401,0.849,2.049l-1.994,4.193c0.725,0.909,1.549,1.733,2.459,2.458l4.192-1.993c0.648,0.347,1.334,0.633,2.05,0.851l1.557,4.377c0.571,0.064,1.148,0.104,1.737,0.104c0.588,0,1.165-0.04,1.736-0.104l1.558-4.377c0.715-0.218,1.399-0.504,2.049-0.851l4.193,1.993c0.909-0.725,1.733-1.549,2.458-2.458l-1.993-4.193c0.347-0.647,0.633-1.334,0.851-2.049L31.229,17.736zM16,20.871c-2.69,0-4.872-2.182-4.872-4.871c0-2.69,2.182-4.872,4.872-4.872c2.689,0,4.871,2.182,4.871,4.872C20.871,18.689,18.689,20.871,16,20.871z"></path><title>Link options.</title></g></g></g></g><g   id="j_164" ><path  stroke="#707070" d="M 1153 1284 L 841 2420" id="v-2360" stroke-width="2" stroke-dasharray="30 30" fill="none" style="opacity: 1;"></path><path  fill="black" stroke="black" d="M 0 0 0 0" transform="matrix(-0.26458817480329777,0.9643614974449465,-0.9643614974449465,-0.26458817480329777,1152.8399658203125,1284)"></path><path  fill="#707070" stroke="#707070" d="M 20 0 L 0 10 L 20 20 z" id="v-2362" transform="matrix(0.2645884316282899,-0.9643614269808192,0.9643614269808192,0.2645884316282899,831.5164096170339,2417.3541752660253)" style="opacity: 1;"></path><path  d="M 1153 1284 L 841 2420" id="v-2361" fill="none" style="cursor: default;"></path><g ><g id="v-2351"  label-idx="0" cursor="move" transform="matrix(1,0,0,1,997,1852)" style="cursor: default; opacity: 1;"><rect joint-selector="rect" id="v-2355" fill="#ffffff" rx="3" ry="3" stroke="#ffffff" stroke-width="20px" pointer-events="none" width="160.29244995117188" height="32.04688262939453" transform="matrix(1,0,0,1,-79.1,-16)"></rect><text joint-selector="text" id="v-2354" font-size="24px" xml:space="preserve" y="0.8em" fill="#707070" text-anchor="middle" pointer-events="none" font-family="Open Sans" font-weight="normal" transform="matrix(1,0,0,1,0,-10.3)"><tspan dy="0" >Login Request</tspan></text></g><g id="v-2352"  label-idx="1" cursor="move" transform="matrix(1,0,0,1,997,1879)" style="cursor: default; opacity: 1;"><rect joint-selector="rect" id="v-2357" fill="#ffffff" rx="3" ry="3" pointer-events="none" width="109.54442596435547" height="21.36458969116211" transform="matrix(1,0,0,1,-54,-10.7)"></rect><text joint-selector="text" id="v-2356" font-size="17px" xml:space="preserve" y="0.8em" fill="#707070" text-anchor="middle" pointer-events="none" font-family="Open Sans" font-weight="normal" transform="matrix(1,0,0,1,0,-6.5)"><tspan dy="0" >[JSON/HTTPS]</tspan></text></g><g id="v-2353"  label-idx="2" cursor="move" transform="matrix(1,0,0,1,987,1888.25)" style="cursor: default; opacity: 1;"><rect joint-selector="rect" id="v-2359" fill="#ffffff" rx="3" ry="3"  width="0" height="0" transform="matrix(1,0,0,1,0,0)" display="none"></rect><text joint-selector="text" id="v-2358" fill="#000000" font-size="14" text-anchor="middle" pointer-events="none"></text></g></g><g  display="none"></g><g  id="v-2364" display="none"><g  id="v-2349"><path  end="source" d="M 26 0 L 0 13 L 26 26 z"></path></g><g  id="v-2350"><path  end="target" d="M 26 0 L 0 13 L 26 26 z"></path></g></g><g  id="v-2363" display="none"><g  id="v-2348" transform="translate(1142.4063679339674, 1322.5716859840159) "><g  event="remove"><circle r="11"></circle><path transform="scale(.8) translate(-16, -16)" d="M24.778,21.419 19.276,15.917 24.777,10.415 21.949,7.585 16.447,13.087 10.945,7.585 8.117,10.415 13.618,15.917 8.116,21.419 10.946,24.248 16.447,18.746 21.948,24.248z"></path><title>Remove link.</title></g><g  event="link:options"><circle r="11" transform="translate(25)"></circle><path fill="white" transform="scale(.55) translate(29, -16)" d="M31.229,17.736c0.064-0.571,0.104-1.148,0.104-1.736s-0.04-1.166-0.104-1.737l-4.377-1.557c-0.218-0.716-0.504-1.401-0.851-2.05l1.993-4.192c-0.725-0.91-1.549-1.734-2.458-2.459l-4.193,1.994c-0.647-0.347-1.334-0.632-2.049-0.849l-1.558-4.378C17.165,0.708,16.588,0.667,16,0.667s-1.166,0.041-1.737,0.105L12.707,5.15c-0.716,0.217-1.401,0.502-2.05,0.849L6.464,4.005C5.554,4.73,4.73,5.554,4.005,6.464l1.994,4.192c-0.347,0.648-0.632,1.334-0.849,2.05l-4.378,1.557C0.708,14.834,0.667,15.412,0.667,16s0.041,1.165,0.105,1.736l4.378,1.558c0.217,0.715,0.502,1.401,0.849,2.049l-1.994,4.193c0.725,0.909,1.549,1.733,2.459,2.458l4.192-1.993c0.648,0.347,1.334,0.633,2.05,0.851l1.557,4.377c0.571,0.064,1.148,0.104,1.737,0.104c0.588,0,1.165-0.04,1.736-0.104l1.558-4.377c0.715-0.218,1.399-0.504,2.049-0.851l4.193,1.993c0.909-0.725,1.733-1.549,2.458-2.458l-1.993-4.193c0.347-0.647,0.633-1.334,0.851-2.049L31.229,17.736zM16,20.871c-2.69,0-4.872-2.182-4.872-4.871c0-2.69,2.182-4.872,4.872-4.872c2.689,0,4.871,2.182,4.871,4.872C20.871,18.689,18.689,20.871,16,20.871z"></path><title>Link options.</title></g></g></g></g><g   id="j_165" ><path  stroke="#707070" d="M 1293 1284 L 1675 1865" id="v-2380" stroke-width="2" stroke-dasharray="30 30" fill="none" style="opacity: 1;"></path><path  fill="black" stroke="black" d="M 0 0 0 0" transform="matrix(0.5498804866266734,0.8352433480293111,-0.8352433480293111,0.5498804866266734,1292.75,1284)"></path><path  fill="#707070" stroke="#707070" d="M 20 0 L 0 10 L 20 20 z" id="v-2382" transform="matrix(-0.5498804310169827,-0.835243384639817,0.835243384639817,-0.5498804310169827,1666.8975911668967,1870.4988211643804)" style="opacity: 1;"></path><path  d="M 1293 1284 L 1675 1865" id="v-2381" fill="none" style="cursor: default;"></path><g ><g id="v-2371"  label-idx="0" cursor="move" transform="matrix(1,0,0,1,1484,1574.5)" style="cursor: default; opacity: 1;"><rect joint-selector="rect" id="v-2375" fill="#ffffff" rx="3" ry="3" stroke="#ffffff" stroke-width="20px" pointer-events="none" width="187.2684783935547" height="60.846885681152344" transform="matrix(1,0,0,1,-92.6,-30.4)"></rect><text joint-selector="text" id="v-2374" font-size="24px" xml:space="preserve" y="0.8em" fill="#707070" text-anchor="middle" pointer-events="none" font-family="Open Sans" font-weight="normal" transform="matrix(1,0,0,1,0,-24.7)"><tspan dy="0" >Provides current</tspan><tspan dy="1.2em" x="0" >user</tspan></text></g><g id="v-2372"  label-idx="1" cursor="move" transform="matrix(1,0,0,1,1484,1616.5)" style="cursor: default; opacity: 1;"><rect joint-selector="rect" id="v-2377" fill="#ffffff" rx="3" ry="3" pointer-events="none" width="56.32600021362305" height="21.36458969116211" transform="matrix(1,0,0,1,-27.4,-10.7)"></rect><text joint-selector="text" id="v-2376" font-size="17px" xml:space="preserve" y="0.8em" fill="#707070" text-anchor="middle" pointer-events="none" font-family="Open Sans" font-weight="normal" transform="matrix(1,0,0,1,0,-6.5)"><tspan dy="0" >[React]</tspan></text></g><g id="v-2373"  label-idx="2" cursor="move" transform="matrix(1,0,0,1,1474,1625.75)" style="cursor: default; opacity: 1;"><rect joint-selector="rect" id="v-2379" fill="#ffffff" rx="3" ry="3"  width="0" height="0" transform="matrix(1,0,0,1,0,0)" display="none"></rect><text joint-selector="text" id="v-2378" fill="#000000" font-size="14" text-anchor="middle" pointer-events="none"></text></g></g><g  display="none"></g><g  id="v-2384" display="none"><g  id="v-2369"><path  end="source" d="M 26 0 L 0 13 L 26 26 z"></path></g><g  id="v-2370"><path  end="target" d="M 26 0 L 0 13 L 26 26 z"></path></g></g><g  id="v-2383" display="none"><g  id="v-2368" transform="translate(1314.9751501852359, 1317.4229378471782) "><g  event="remove"><circle r="11"></circle><path transform="scale(.8) translate(-16, -16)" d="M24.778,21.419 19.276,15.917 24.777,10.415 21.949,7.585 16.447,13.087 10.945,7.585 8.117,10.415 13.618,15.917 8.116,21.419 10.946,24.248 16.447,18.746 21.948,24.248z"></path><title>Remove link.</title></g><g  event="link:options"><circle r="11" transform="translate(25)"></circle><path fill="white" transform="scale(.55) translate(29, -16)" d="M31.229,17.736c0.064-0.571,0.104-1.148,0.104-1.736s-0.04-1.166-0.104-1.737l-4.377-1.557c-0.218-0.716-0.504-1.401-0.851-2.05l1.993-4.192c-0.725-0.91-1.549-1.734-2.458-2.459l-4.193,1.994c-0.647-0.347-1.334-0.632-2.049-0.849l-1.558-4.378C17.165,0.708,16.588,0.667,16,0.667s-1.166,0.041-1.737,0.105L12.707,5.15c-0.716,0.217-1.401,0.502-2.05,0.849L6.464,4.005C5.554,4.73,4.73,5.554,4.005,6.464l1.994,4.192c-0.347,0.648-0.632,1.334-0.849,2.05l-4.378,1.557C0.708,14.834,0.667,15.412,0.667,16s0.041,1.165,0.105,1.736l4.378,1.558c0.217,0.715,0.502,1.401,0.849,2.049l-1.994,4.193c0.725,0.909,1.549,1.733,2.459,2.458l4.192-1.993c0.648,0.347,1.334,0.633,2.05,0.851l1.557,4.377c0.571,0.064,1.148,0.104,1.737,0.104c0.588,0,1.165-0.04,1.736-0.104l1.558-4.377c0.715-0.218,1.399-0.504,2.049-0.851l4.193,1.993c0.909-0.725,1.733-1.549,2.458-2.458l-1.993-4.193c0.347-0.647,0.633-1.334,0.851-2.049L31.229,17.736zM16,20.871c-2.69,0-4.872-2.182-4.872-4.871c0-2.69,2.182-4.872,4.872-4.872c2.689,0,4.871,2.182,4.871,4.872C20.871,18.689,18.689,20.871,16,20.871z"></path><title>Link options.</title></g></g></g></g><g   id="j_166" ><path  stroke="#707070" d="M 697 705 L 837 1370 C 838.3333333333333 1376.6666666666665 841.6666666666665 1382 847 1386 L 1553 1865" id="v-2401" stroke-width="2" stroke-dasharray="30 30" fill="none" style="opacity: 1;"></path><path  fill="black" stroke="black" d="M 0 0 0 0" transform="matrix(0.20578098963201175,0.9785980708677439,-0.9785980708677439,0.20578098963201175,697.0599975585938,705)"></path><path  fill="#707070" stroke="#707070" d="M 20 0 L 0 10 L 20 20 z" id="v-2403" transform="matrix(-0.8272540576616594,-0.5618280200224264,0.5618280200224264,-0.8272540576616594,1547.5116822513924,1873.2725346440284)" style="opacity: 1;"></path><path  d="M 697 705 L 837 1370 C 838.3333333333333 1376.6666666666665 841.6666666666665 1382 847 1386 L 1553 1865" id="v-2402" fill="none" style="cursor: default;"></path><g ><g id="v-2392"  label-idx="0" cursor="move" transform="matrix(1,0,0,1,910.8280029296875,1429.305419921875)" style="cursor: default; opacity: 1;"><rect joint-selector="rect" id="v-2396" fill="#ffffff" rx="3" ry="3" stroke="#ffffff" stroke-width="20px" pointer-events="none" width="170.29840087890625" height="118.4468879699707" transform="matrix(1,0,0,1,-83.8,-59.2)"></rect><text joint-selector="text" id="v-2395" font-size="24px" xml:space="preserve" y="0.8em" fill="#707070" text-anchor="middle" pointer-events="none" font-family="Open Sans" font-weight="normal" transform="matrix(1,0,0,1,0,-53.5)"><tspan dy="0" >Administrates</tspan><tspan dy="1.2em" x="0" >and supervises</tspan><tspan dy="1.2em" x="0" >the labeling</tspan><tspan dy="1.2em" x="0" >projects</tspan></text></g><g id="v-2393"  label-idx="1" cursor="move" transform="matrix(1,0,0,1,910.8280029296875,1501.305419921875)" style="cursor: default; opacity: 1;"><rect joint-selector="rect" id="v-2398" fill="#ffffff" rx="3" ry="3" pointer-events="none" width="63.441659927368164" height="21.36458969116211" transform="matrix(1,0,0,1,-31,-10.7)"></rect><text joint-selector="text" id="v-2397" font-size="17px" xml:space="preserve" y="0.8em" fill="#707070" text-anchor="middle" pointer-events="none" font-family="Open Sans" font-weight="normal" transform="matrix(1,0,0,1,0,-6.5)"><tspan dy="0" >[HTTPS]</tspan></text></g><g id="v-2394"  label-idx="2" cursor="move" transform="matrix(1,0,0,1,900.8280029296875,1510.555419921875)" style="cursor: default; opacity: 1;"><rect joint-selector="rect" id="v-2400" fill="#ffffff" rx="3" ry="3"  width="0" height="0" transform="matrix(1,0,0,1,0,0)" display="none"></rect><text joint-selector="text" id="v-2399" fill="#000000" font-size="14" text-anchor="middle" pointer-events="none"></text></g></g><g  display="none"><g  transform="translate(839, 1380)" id="v-2389"><circle  idx="0" r="10"></circle><path  idx="0" d="M16,5.333c-7.732,0-14,4.701-14,10.5c0,1.982,0.741,3.833,2.016,5.414L2,25.667l5.613-1.441c2.339,1.317,5.237,2.107,8.387,2.107c7.732,0,14-4.701,14-10.5C30,10.034,23.732,5.333,16,5.333z" transform="translate(5, -33)"></path><path  idx="0" transform="scale(.8) translate(9.5, -37)" d="M24.778,21.419 19.276,15.917 24.777,10.415 21.949,7.585 16.447,13.087 10.945,7.585 8.117,10.415 13.618,15.917 8.116,21.419 10.946,24.248 16.447,18.746 21.948,24.248z"><title>Remove vertex.</title></path></g></g><g  id="v-2405" display="none"><g  id="v-2390"><path  end="source" d="M 26 0 L 0 13 L 26 26 z"></path></g><g  id="v-2391"><path  end="target" d="M 26 0 L 0 13 L 26 26 z"></path></g></g><g  id="v-2404" display="none"><g  id="v-2388" transform="translate(705.2404192419937, 744.14199139947) "><g  event="remove"><circle r="11"></circle><path transform="scale(.8) translate(-16, -16)" d="M24.778,21.419 19.276,15.917 24.777,10.415 21.949,7.585 16.447,13.087 10.945,7.585 8.117,10.415 13.618,15.917 8.116,21.419 10.946,24.248 16.447,18.746 21.948,24.248z"></path><title>Remove link.</title></g><g  event="link:options"><circle r="11" transform="translate(25)"></circle><path fill="white" transform="scale(.55) translate(29, -16)" d="M31.229,17.736c0.064-0.571,0.104-1.148,0.104-1.736s-0.04-1.166-0.104-1.737l-4.377-1.557c-0.218-0.716-0.504-1.401-0.851-2.05l1.993-4.192c-0.725-0.91-1.549-1.734-2.458-2.459l-4.193,1.994c-0.647-0.347-1.334-0.632-2.049-0.849l-1.558-4.378C17.165,0.708,16.588,0.667,16,0.667s-1.166,0.041-1.737,0.105L12.707,5.15c-0.716,0.217-1.401,0.502-2.05,0.849L6.464,4.005C5.554,4.73,4.73,5.554,4.005,6.464l1.994,4.192c-0.347,0.648-0.632,1.334-0.849,2.05l-4.378,1.557C0.708,14.834,0.667,15.412,0.667,16s0.041,1.165,0.105,1.736l4.378,1.558c0.217,0.715,0.502,1.401,0.849,2.049l-1.994,4.193c0.725,0.909,1.549,1.733,2.459,2.458l4.192-1.993c0.648,0.347,1.334,0.633,2.05,0.851l1.557,4.377c0.571,0.064,1.148,0.104,1.737,0.104c0.588,0,1.165-0.04,1.736-0.104l1.558-4.377c0.715-0.218,1.399-0.504,2.049-0.851l4.193,1.993c0.909-0.725,1.733-1.549,2.458-2.458l-1.993-4.193c0.347-0.647,0.633-1.334,0.851-2.049L31.229,17.736zM16,20.871c-2.69,0-4.872-2.182-4.872-4.871c0-2.69,2.182-4.872,4.872-4.872c2.689,0,4.871,2.182,4.871,4.872C20.871,18.689,18.689,20.871,16,20.871z"></path><title>Link options.</title></g></g></g></g><g   id="j_167" ><path  stroke="#707070" d="M 491 1295 L 764 2420" id="v-2421" stroke-width="2" stroke-dasharray="30 30" fill="none" style="opacity: 1;"></path><path  fill="black" stroke="black" d="M 0 0 0 0" transform="matrix(0.23530037018503083,0.9719227005224168,-0.9719227005224168,0.23530037018503083,491.32000732421875,1295)"></path><path  fill="#707070" stroke="#707070" d="M 20 0 L 0 10 L 20 20 z" id="v-2423" transform="matrix(-0.23530011134635037,-0.9719227631866614,0.9719227631866614,-0.23530011134635037,753.9607998487844,2422.35299046408)" style="opacity: 1;"></path><path  d="M 491 1295 L 764 2420" id="v-2422" fill="none" style="cursor: default;"></path><g ><g id="v-2412"  label-idx="0" cursor="move" transform="matrix(1,0,0,1,627.5,1857.5)" style="cursor: default; opacity: 1;"><rect joint-selector="rect" id="v-2416" fill="#ffffff" rx="3" ry="3" stroke="#ffffff" stroke-width="20px" pointer-events="none" width="190.17459106445312" height="32.04688262939453" transform="matrix(1,0,0,1,-94,-16)"></rect><text joint-selector="text" id="v-2415" font-size="24px" xml:space="preserve" y="0.8em" fill="#707070" text-anchor="middle" pointer-events="none" font-family="Open Sans" font-weight="normal" transform="matrix(1,0,0,1,0,-10.3)"><tspan dy="0" >Register Request</tspan></text></g><g id="v-2413"  label-idx="1" cursor="move" transform="matrix(1,0,0,1,627.5,1884.5)" style="cursor: default; opacity: 1;"><rect joint-selector="rect" id="v-2418" fill="#ffffff" rx="3" ry="3" pointer-events="none" width="109.54442596435547" height="21.36458969116211" transform="matrix(1,0,0,1,-54,-10.7)"></rect><text joint-selector="text" id="v-2417" font-size="17px" xml:space="preserve" y="0.8em" fill="#707070" text-anchor="middle" pointer-events="none" font-family="Open Sans" font-weight="normal" transform="matrix(1,0,0,1,0,-6.5)"><tspan dy="0" >[JSON/HTTPS]</tspan></text></g><g id="v-2414"  label-idx="2" cursor="move" transform="matrix(1,0,0,1,617.5,1893.75)" style="cursor: default; opacity: 1;"><rect joint-selector="rect" id="v-2420" fill="#ffffff" rx="3" ry="3"  width="0" height="0" transform="matrix(1,0,0,1,0,0)" display="none"></rect><text joint-selector="text" id="v-2419" fill="#000000" font-size="14" text-anchor="middle" pointer-events="none"></text></g></g><g  display="none"></g><g  id="v-2425" display="none"><g  id="v-2410"><path  end="source" d="M 26 0 L 0 13 L 26 26 z"></path></g><g  id="v-2411"><path  end="target" d="M 26 0 L 0 13 L 26 26 z"></path></g></g><g  id="v-2424" display="none"><g  id="v-2409" transform="translate(500.432901183077, 1333.8718455346577) "><g  event="remove"><circle r="11"></circle><path transform="scale(.8) translate(-16, -16)" d="M24.778,21.419 19.276,15.917 24.777,10.415 21.949,7.585 16.447,13.087 10.945,7.585 8.117,10.415 13.618,15.917 8.116,21.419 10.946,24.248 16.447,18.746 21.948,24.248z"></path><title>Remove link.</title></g><g  event="link:options"><circle r="11" transform="translate(25)"></circle><path fill="white" transform="scale(.55) translate(29, -16)" d="M31.229,17.736c0.064-0.571,0.104-1.148,0.104-1.736s-0.04-1.166-0.104-1.737l-4.377-1.557c-0.218-0.716-0.504-1.401-0.851-2.05l1.993-4.192c-0.725-0.91-1.549-1.734-2.458-2.459l-4.193,1.994c-0.647-0.347-1.334-0.632-2.049-0.849l-1.558-4.378C17.165,0.708,16.588,0.667,16,0.667s-1.166,0.041-1.737,0.105L12.707,5.15c-0.716,0.217-1.401,0.502-2.05,0.849L6.464,4.005C5.554,4.73,4.73,5.554,4.005,6.464l1.994,4.192c-0.347,0.648-0.632,1.334-0.849,2.05l-4.378,1.557C0.708,14.834,0.667,15.412,0.667,16s0.041,1.165,0.105,1.736l4.378,1.558c0.217,0.715,0.502,1.401,0.849,2.049l-1.994,4.193c0.725,0.909,1.549,1.733,2.459,2.458l4.192-1.993c0.648,0.347,1.334,0.633,2.05,0.851l1.557,4.377c0.571,0.064,1.148,0.104,1.737,0.104c0.588,0,1.165-0.04,1.736-0.104l1.558-4.377c0.715-0.218,1.399-0.504,2.049-0.851l4.193,1.993c0.909-0.725,1.733-1.549,2.458-2.458l-1.993-4.193c0.347-0.647,0.633-1.334,0.851-2.049L31.229,17.736zM16,20.871c-2.69,0-4.872-2.182-4.872-4.871c0-2.69,2.182-4.872,4.872-4.872c2.689,0,4.871,2.182,4.871,4.872C20.871,18.689,18.689,20.871,16,20.871z"></path><title>Link options.</title></g></g></g></g><g   id="j_168" ><path  stroke="#707070" d="M 2288 600 L 2289 603 C 2289.6666666666665 604.3333333333333 2290 608.3333333333333 2290 615 L 2295 1410 C 2295 1416.6666666666665 2295 1423.3333333333333 2295 1430 L 2295 2020 C 2295 2026.6666666666665 2291.6666666666665 2030 2285 2030 L 1999 2021" id="v-2444" stroke-width="2" stroke-dasharray="30 30" fill="none" style="opacity: 1;"></path><path  fill="black" stroke="black" d="M 0 0 0 0" transform="matrix(0.44146177712779866,0.8972800562450755,-0.8972800562450755,0.44146177712779866,2287.5400390625,600)"></path><path  fill="#707070" stroke="#707070" d="M 20 0 L 0 10 L 20 20 z" id="v-2446" transform="matrix(0.9995860041305505,0.02877186727202259,-0.02877186727202259,0.9995860041305505,1999.2877082407897,2011.4841214812868)" style="opacity: 1;"></path><path  d="M 2288 600 L 2289 603 C 2289.6666666666665 604.3333333333333 2290 608.3333333333333 2290 615 L 2295 1410 C 2295 1416.6666666666665 2295 1423.3333333333333 2295 1430 L 2295 2020 C 2295 2026.6666666666665 2291.6666666666665 2030 2285 2030 L 1999 2021" id="v-2445" fill="none" style="cursor: default;"></path><g ><g id="v-2435"  label-idx="0" cursor="move" transform="matrix(1,0,0,1,2295,1461.0511474609375)" style="cursor: default; opacity: 1;"><rect joint-selector="rect" id="v-2439" fill="#ffffff" rx="3" ry="3" stroke="#ffffff" stroke-width="20px" pointer-events="none" width="162.30465698242188" height="60.846885681152344" transform="matrix(1,0,0,1,-82.3,-30.4)"></rect><text joint-selector="text" id="v-2438" font-size="24px" xml:space="preserve" y="0.8em" fill="#707070" text-anchor="middle" pointer-events="none" font-family="Open Sans" font-weight="normal" transform="matrix(1,0,0,1,0,-24.7)"><tspan dy="0" >Views labeling</tspan><tspan dy="1.2em" x="0" >projects</tspan></text></g><g id="v-2436"  label-idx="1" cursor="move" transform="matrix(1,0,0,1,2295,1503.0511474609375)" style="cursor: default; opacity: 1;"><rect joint-selector="rect" id="v-2441" fill="#ffffff" rx="3" ry="3" pointer-events="none" width="63.441659927368164" height="21.36458969116211" transform="matrix(1,0,0,1,-31,-10.7)"></rect><text joint-selector="text" id="v-2440" font-size="17px" xml:space="preserve" y="0.8em" fill="#707070" text-anchor="middle" pointer-events="none" font-family="Open Sans" font-weight="normal" transform="matrix(1,0,0,1,0,-6.5)"><tspan dy="0" >[HTTPS]</tspan></text></g><g id="v-2437"  label-idx="2" cursor="move" transform="matrix(1,0,0,1,2285,1512.3011474609375)" style="cursor: default; opacity: 1;"><rect joint-selector="rect" id="v-2443" fill="#ffffff" rx="3" ry="3"  width="0" height="0" transform="matrix(1,0,0,1,0,0)" display="none"></rect><text joint-selector="text" id="v-2442" fill="#000000" font-size="14" text-anchor="middle" pointer-events="none"></text></g></g><g  display="none"><g  transform="translate(2290, 605)" id="v-2430"><circle  idx="0" r="10"></circle><path  idx="0" d="M16,5.333c-7.732,0-14,4.701-14,10.5c0,1.982,0.741,3.833,2.016,5.414L2,25.667l5.613-1.441c2.339,1.317,5.237,2.107,8.387,2.107c7.732,0,14-4.701,14-10.5C30,10.034,23.732,5.333,16,5.333z" transform="translate(5, -33)"></path><path  idx="0" transform="scale(.8) translate(9.5, -37)" d="M24.778,21.419 19.276,15.917 24.777,10.415 21.949,7.585 16.447,13.087 10.945,7.585 8.117,10.415 13.618,15.917 8.116,21.419 10.946,24.248 16.447,18.746 21.948,24.248z"><title>Remove vertex.</title></path></g><g  transform="translate(2295, 1420)" id="v-2431"><circle  idx="1" r="10"></circle><path  idx="1" d="M16,5.333c-7.732,0-14,4.701-14,10.5c0,1.982,0.741,3.833,2.016,5.414L2,25.667l5.613-1.441c2.339,1.317,5.237,2.107,8.387,2.107c7.732,0,14-4.701,14-10.5C30,10.034,23.732,5.333,16,5.333z" transform="translate(5, -33)"></path><path  idx="1" transform="scale(.8) translate(9.5, -37)" d="M24.778,21.419 19.276,15.917 24.777,10.415 21.949,7.585 16.447,13.087 10.945,7.585 8.117,10.415 13.618,15.917 8.116,21.419 10.946,24.248 16.447,18.746 21.948,24.248z"><title>Remove vertex.</title></path></g><g  transform="translate(2295, 2030)" id="v-2432"><circle  idx="2" r="10"></circle><path  idx="2" d="M16,5.333c-7.732,0-14,4.701-14,10.5c0,1.982,0.741,3.833,2.016,5.414L2,25.667l5.613-1.441c2.339,1.317,5.237,2.107,8.387,2.107c7.732,0,14-4.701,14-10.5C30,10.034,23.732,5.333,16,5.333z" transform="translate(5, -33)"></path><path  idx="2" transform="scale(.8) translate(9.5, -37)" d="M24.778,21.419 19.276,15.917 24.777,10.415 21.949,7.585 16.447,13.087 10.945,7.585 8.117,10.415 13.618,15.917 8.116,21.419 10.946,24.248 16.447,18.746 21.948,24.248z"><title>Remove vertex.</title></path></g></g><g  id="v-2448" display="none"><g  id="v-2433"><path  end="source" d="M 26 0 L 0 13 L 26 26 z"></path></g><g  id="v-2434"><path  end="target" d="M 26 0 L 0 13 L 26 26 z"></path></g></g><g  id="v-2447" display="none"><g  id="v-2429" transform="translate(2290.15563123949, 639.7453670789344) "><g  event="remove"><circle r="11"></circle><path transform="scale(.8) translate(-16, -16)" d="M24.778,21.419 19.276,15.917 24.777,10.415 21.949,7.585 16.447,13.087 10.945,7.585 8.117,10.415 13.618,15.917 8.116,21.419 10.946,24.248 16.447,18.746 21.948,24.248z"></path><title>Remove link.</title></g><g  event="link:options"><circle r="11" transform="translate(25)"></circle><path fill="white" transform="scale(.55) translate(29, -16)" d="M31.229,17.736c0.064-0.571,0.104-1.148,0.104-1.736s-0.04-1.166-0.104-1.737l-4.377-1.557c-0.218-0.716-0.504-1.401-0.851-2.05l1.993-4.192c-0.725-0.91-1.549-1.734-2.458-2.459l-4.193,1.994c-0.647-0.347-1.334-0.632-2.049-0.849l-1.558-4.378C17.165,0.708,16.588,0.667,16,0.667s-1.166,0.041-1.737,0.105L12.707,5.15c-0.716,0.217-1.401,0.502-2.05,0.849L6.464,4.005C5.554,4.73,4.73,5.554,4.005,6.464l1.994,4.192c-0.347,0.648-0.632,1.334-0.849,2.05l-4.378,1.557C0.708,14.834,0.667,15.412,0.667,16s0.041,1.165,0.105,1.736l4.378,1.558c0.217,0.715,0.502,1.401,0.849,2.049l-1.994,4.193c0.725,0.909,1.549,1.733,2.459,2.458l4.192-1.993c0.648,0.347,1.334,0.633,2.05,0.851l1.557,4.377c0.571,0.064,1.148,0.104,1.737,0.104c0.588,0,1.165-0.04,1.736-0.104l1.558-4.377c0.715-0.218,1.399-0.504,2.049-0.851l4.193,1.993c0.909-0.725,1.733-1.549,2.458-2.458l-1.993-4.193c0.347-0.647,0.633-1.334,0.851-2.049L31.229,17.736zM16,20.871c-2.69,0-4.872-2.182-4.872-4.871c0-2.69,2.182-4.872,4.872-4.872c2.689,0,4.871,2.182,4.871,4.872C20.871,18.689,18.689,20.871,16,20.871z"></path><title>Link options.</title></g></g></g></g><g   id="j_169" ><path  stroke="#707070" d="M 1549 2143 L 1025 2442" id="v-2464" stroke-width="2" stroke-dasharray="30 30" fill="none" style="opacity: 1;"></path><path  fill="black" stroke="black" d="M 0 0 0 0" transform="matrix(-0.8688486447805263,0.49507780445405036,-0.49507780445405036,-0.8688486447805263,1549,2143.2099609375)"></path><path  fill="#707070" stroke="#707070" d="M 20 0 L 0 10 L 20 20 z" id="v-2466" transform="matrix(0.8688485129333008,-0.49507803584242344,0.49507803584242344,0.8688485129333008,1020.0492110747427,2433.1014065572163)" style="opacity: 1;"></path><path  d="M 1549 2143 L 1025 2442" id="v-2465" fill="none" style="cursor: default;"></path><g ><g id="v-2455"  label-idx="0" cursor="move" transform="matrix(1,0,0,1,1287,2292.5)" style="cursor: default; opacity: 1;"><rect joint-selector="rect" id="v-2459" fill="#ffffff" rx="3" ry="3" stroke="#ffffff" stroke-width="20px" pointer-events="none" width="186.4113311767578" height="60.846885681152344" transform="matrix(1,0,0,1,-91.8,-30.4)"></rect><text joint-selector="text" id="v-2458" font-size="24px" xml:space="preserve" y="0.8em" fill="#707070" text-anchor="middle" pointer-events="none" font-family="Open Sans" font-weight="normal" transform="matrix(1,0,0,1,0,-24.7)"><tspan dy="0" >Views and edits</tspan><tspan dy="1.2em" x="0" >labeling projects</tspan></text></g><g id="v-2456"  label-idx="1" cursor="move" transform="matrix(1,0,0,1,1287,2334.5)" style="cursor: default; opacity: 1;"><rect joint-selector="rect" id="v-2461" fill="#ffffff" rx="3" ry="3" pointer-events="none" width="109.54442596435547" height="21.36458969116211" transform="matrix(1,0,0,1,-54,-10.7)"></rect><text joint-selector="text" id="v-2460" font-size="17px" xml:space="preserve" y="0.8em" fill="#707070" text-anchor="middle" pointer-events="none" font-family="Open Sans" font-weight="normal" transform="matrix(1,0,0,1,0,-6.5)"><tspan dy="0" >[JSON/HTTPS]</tspan></text></g><g id="v-2457"  label-idx="2" cursor="move" transform="matrix(1,0,0,1,1277,2343.75)" style="cursor: default; opacity: 1;"><rect joint-selector="rect" id="v-2463" fill="#ffffff" rx="3" ry="3"  width="0" height="0" transform="matrix(1,0,0,1,0,0)" display="none"></rect><text joint-selector="text" id="v-2462" fill="#000000" font-size="14" text-anchor="middle" pointer-events="none"></text></g></g><g  display="none"></g><g  id="v-2468" display="none"><g  id="v-2453"><path  end="source" d="M 26 0 L 0 13 L 26 26 z"></path></g><g  id="v-2454"><path  end="target" d="M 26 0 L 0 13 L 26 26 z"></path></g></g><g  id="v-2467" display="none"><g  id="v-2452" transform="translate(1514.258040653307, 2162.824133291338) "><g  event="remove"><circle r="11"></circle><path transform="scale(.8) translate(-16, -16)" d="M24.778,21.419 19.276,15.917 24.777,10.415 21.949,7.585 16.447,13.087 10.945,7.585 8.117,10.415 13.618,15.917 8.116,21.419 10.946,24.248 16.447,18.746 21.948,24.248z"></path><title>Remove link.</title></g><g  event="link:options"><circle r="11" transform="translate(25)"></circle><path fill="white" transform="scale(.55) translate(29, -16)" d="M31.229,17.736c0.064-0.571,0.104-1.148,0.104-1.736s-0.04-1.166-0.104-1.737l-4.377-1.557c-0.218-0.716-0.504-1.401-0.851-2.05l1.993-4.192c-0.725-0.91-1.549-1.734-2.458-2.459l-4.193,1.994c-0.647-0.347-1.334-0.632-2.049-0.849l-1.558-4.378C17.165,0.708,16.588,0.667,16,0.667s-1.166,0.041-1.737,0.105L12.707,5.15c-0.716,0.217-1.401,0.502-2.05,0.849L6.464,4.005C5.554,4.73,4.73,5.554,4.005,6.464l1.994,4.192c-0.347,0.648-0.632,1.334-0.849,2.05l-4.378,1.557C0.708,14.834,0.667,15.412,0.667,16s0.041,1.165,0.105,1.736l4.378,1.558c0.217,0.715,0.502,1.401,0.849,2.049l-1.994,4.193c0.725,0.909,1.549,1.733,2.459,2.458l4.192-1.993c0.648,0.347,1.334,0.633,2.05,0.851l1.557,4.377c0.571,0.064,1.148,0.104,1.737,0.104c0.588,0,1.165-0.04,1.736-0.104l1.558-4.377c0.715-0.218,1.399-0.504,2.049-0.851l4.193,1.993c0.909-0.725,1.733-1.549,2.458-2.458l-1.993-4.193c0.347-0.647,0.633-1.334,0.851-2.049L31.229,17.736zM16,20.871c-2.69,0-4.872-2.182-4.872-4.871c0-2.69,2.182-4.872,4.872-4.872c2.689,0,4.871,2.182,4.871,4.872C20.871,18.689,18.689,20.871,16,20.871z"></path><title>Link options.</title></g></g></g></g><g   id="j_170" ><path  stroke="#707070" d="M 1989 486 L 680 1048" id="v-2481" stroke-width="2" stroke-dasharray="30 30" fill="none" style="opacity: 1;"></path><path  fill="black" stroke="black" d="M 0 0 0 0" transform="matrix(-0.918788897346875,0.39474923953329377,-0.39474923953329377,-0.918788897346875,1989,485.92999267578125)"></path><path  fill="#707070" stroke="#707070" d="M 20 0 L 0 10 L 20 20 z" id="v-2483" transform="matrix(0.9187888973468751,-0.39474923953329344,0.39474923953329344,0.9187888973468751,676.0524848421359,1039.1420497109266)" style="opacity: 1;"></path><path  d="M 1989 486 L 680 1048" id="v-2482" fill="none" style="cursor: default;"></path><g ><g id="v-2472"  label-idx="0" cursor="move" transform="matrix(1,0,0,1,1334.5,767)" style="cursor: default; opacity: 1;"><rect joint-selector="rect" id="v-2476" fill="#ffffff" rx="3" ry="3" stroke="#ffffff" stroke-width="20px" pointer-events="none" width="80.39539337158203" height="32.04688262939453" transform="matrix(1,0,0,1,-40.2,-16)"></rect><text joint-selector="text" id="v-2475" font-size="24px" xml:space="preserve" y="0.8em" fill="#707070" text-anchor="middle" pointer-events="none" font-family="Open Sans" font-weight="normal" transform="matrix(1,0,0,1,0,-10.3)"><tspan dy="0" >SignOn</tspan></text></g><g id="v-2473"  label-idx="1" cursor="move" transform="matrix(1,0,0,1,1334.5,794)" style="cursor: default; opacity: 1;"><rect joint-selector="rect" id="v-2478" fill="#ffffff" rx="3" ry="3" pointer-events="none" width="63.441659927368164" height="21.36458969116211" transform="matrix(1,0,0,1,-31,-10.7)"></rect><text joint-selector="text" id="v-2477" font-size="17px" xml:space="preserve" y="0.8em" fill="#707070" text-anchor="middle" pointer-events="none" font-family="Open Sans" font-weight="normal" transform="matrix(1,0,0,1,0,-6.5)"><tspan dy="0" >[HTTPS]</tspan></text></g><g id="v-2474"  label-idx="2" cursor="move" transform="matrix(1,0,0,1,1324.5,803.25)" style="cursor: default; opacity: 1;"><rect joint-selector="rect" id="v-2480" fill="#ffffff" rx="3" ry="3"  width="0" height="0" transform="matrix(1,0,0,1,0,0)" display="none"></rect><text joint-selector="text" id="v-2479" fill="#000000" font-size="14" text-anchor="middle" pointer-events="none"></text></g></g><g  display="none"></g><g  id="v-2485" display="none"><g  id="v-2470"><path  end="source" d="M 26 0 L 0 13 L 26 26 z"></path></g><g  id="v-2471"><path  end="target" d="M 26 0 L 0 13 L 26 26 z"></path></g></g><g  id="v-2484" display="none"><g  id="v-2469" transform="translate(1952.244373046473, 501.7804907164876) "><g  event="remove"><circle r="11"></circle><path transform="scale(.8) translate(-16, -16)" d="M24.778,21.419 19.276,15.917 24.777,10.415 21.949,7.585 16.447,13.087 10.945,7.585 8.117,10.415 13.618,15.917 8.116,21.419 10.946,24.248 16.447,18.746 21.948,24.248z"></path><title>Remove link.</title></g><g  event="link:options"><circle r="11" transform="translate(25)"></circle><path fill="white" transform="scale(.55) translate(29, -16)" d="M31.229,17.736c0.064-0.571,0.104-1.148,0.104-1.736s-0.04-1.166-0.104-1.737l-4.377-1.557c-0.218-0.716-0.504-1.401-0.851-2.05l1.993-4.192c-0.725-0.91-1.549-1.734-2.458-2.459l-4.193,1.994c-0.647-0.347-1.334-0.632-2.049-0.849l-1.558-4.378C17.165,0.708,16.588,0.667,16,0.667s-1.166,0.041-1.737,0.105L12.707,5.15c-0.716,0.217-1.401,0.502-2.05,0.849L6.464,4.005C5.554,4.73,4.73,5.554,4.005,6.464l1.994,4.192c-0.347,0.648-0.632,1.334-0.849,2.05l-4.378,1.557C0.708,14.834,0.667,15.412,0.667,16s0.041,1.165,0.105,1.736l4.378,1.558c0.217,0.715,0.502,1.401,0.849,2.049l-1.994,4.193c0.725,0.909,1.549,1.733,2.459,2.458l4.192-1.993c0.648,0.347,1.334,0.633,2.05,0.851l1.557,4.377c0.571,0.064,1.148,0.104,1.737,0.104c0.588,0,1.165-0.04,1.736-0.104l1.558-4.377c0.715-0.218,1.399-0.504,2.049-0.851l4.193,1.993c0.909-0.725,1.733-1.549,2.458-2.458l-1.993-4.193c0.347-0.647,0.633-1.334,0.851-2.049L31.229,17.736zM16,20.871c-2.69,0-4.872-2.182-4.872-4.871c0-2.69,2.182-4.872,4.872-4.872c2.689,0,4.871,2.182,4.871,4.872C20.871,18.689,18.689,20.871,16,20.871z"></path><title>Link options.</title></g></g></g></g><g   id="j_149"  transform="translate(1989,200)" style=""><g  id="v-2124" style="opacity: 1;"><rect  x="0" y="160" width="400" height="240" rx="70" id="v-2126" stroke="#073b6f" stroke-width="2" pointer-events="visiblePainted" fill="#08427b" style="fill: rgb(8, 66, 123); stroke: rgb(7, 59, 111);"></rect><circle  cx="200" cy="88.88888888888889" r="88.88888888888889" id="v-2125" stroke="#073b6f" stroke-width="2" pointer-events="visiblePainted" fill="#08427b" style="fill: rgb(8, 66, 123); stroke: rgb(7, 59, 111);"></circle><line  x1="80" y1="266.6666666666667" x2="80" y2="400" id="v-2132" stroke="#073b6f" stroke-width="2" style="stroke: rgb(7, 59, 111);"></line><line  x1="320" y1="266.6666666666667" x2="320" y2="400" id="v-2133" stroke="#073b6f" stroke-width="2" style="stroke: rgb(7, 59, 111);"></line><text  id="v-2127" font-size="34" xml:space="preserve" y="0.8em" font-weight="bold" text-anchor="middle" pointer-events="visible" font-family="Open Sans" fill="#ffffff" transform="matrix(1,0,0,1,200,213.1)" style="fill: rgb(255, 255, 255);"><tspan dy="0" >Labeler</tspan></text><text  id="v-2128" font-size="17" xml:space="preserve" y="0.8em" text-anchor="middle" font-family="Open Sans" fill="#ffffff" transform="matrix(1,0,0,1,200,255.6)" style="fill: rgb(255, 255, 255);"><tspan dy="0" >[Person]</tspan></text><text  id="v-2129" font-size="24" xml:space="preserve" y="0.8em" text-anchor="middle" font-family="Open Sans" fill="#ffffff" transform="matrix(1,0,0,1,200,286.9)" style="fill: rgb(255, 255, 255);"><tspan dy="0" >A user of the application acting</tspan><tspan dy="1.2em" x="0" >as a data labeler</tspan></text><g  id="v-2130" font-weight="normal" text-anchor="middle" color="#ffffff" transform="matrix(1,0,0,1,197.5,356.9)" style="fill: rgb(255, 255, 255);" display="none"><g ></g><g ></g><g ></g><g ></g></g><image  id="v-2131"></image></g></g><g   id="j_150"  transform="translate(455,305)" style=""><g  id="v-2137" style="opacity: 1;"><rect  x="0" y="160" width="400" height="240" rx="70" id="v-2139" stroke="#073b6f" stroke-width="2" pointer-events="visiblePainted" fill="#08427b" style="fill: rgb(8, 66, 123); stroke: rgb(7, 59, 111);"></rect><circle  cx="200" cy="88.88888888888889" r="88.88888888888889" id="v-2138" stroke="#073b6f" stroke-width="2" pointer-events="visiblePainted" fill="#08427b" style="fill: rgb(8, 66, 123); stroke: rgb(7, 59, 111);"></circle><line  x1="80" y1="266.6666666666667" x2="80" y2="400" id="v-2145" stroke="#073b6f" stroke-width="2" style="stroke: rgb(7, 59, 111);"></line><line  x1="320" y1="266.6666666666667" x2="320" y2="400" id="v-2146" stroke="#073b6f" stroke-width="2" style="stroke: rgb(7, 59, 111);"></line><text  id="v-2140" font-size="34" xml:space="preserve" y="0.8em" font-weight="bold" text-anchor="middle" pointer-events="visible" font-family="Open Sans" fill="#ffffff" transform="matrix(1,0,0,1,200,183.1)" style="fill: rgb(255, 255, 255);"><tspan dy="0" >Admin</tspan></text><text  id="v-2141" font-size="17" xml:space="preserve" y="0.8em" text-anchor="middle" font-family="Open Sans" fill="#ffffff" transform="matrix(1,0,0,1,200,225.6)" style="fill: rgb(255, 255, 255);"><tspan dy="0" >[Person]</tspan></text><text  id="v-2142" font-size="24" xml:space="preserve" y="0.8em" text-anchor="middle" font-family="Open Sans" fill="#ffffff" transform="matrix(1,0,0,1,200,256.9)" style="fill: rgb(255, 255, 255);"><tspan dy="0" >A user of the application acting</tspan><tspan dy="1.2em" x="0" >as an admin who provides the</tspan><tspan dy="1.2em" x="0" >data and needs the data</tspan><tspan dy="1.2em" x="0" >labeled</tspan></text><g  id="v-2143" font-weight="normal" text-anchor="middle" color="#ffffff" transform="matrix(1,0,0,1,197.5,386.9)" style="fill: rgb(255, 255, 255);" display="none"><g ></g><g ></g><g ></g><g ></g></g><image  id="v-2144"></image></g></g><g   id="j_151"  transform="translate(1715,985)" style=""><g  id="v-2150" style="opacity: 1;"><rect  id="v-2151" rx="20" ry="20" stroke="#78a8d8" stroke-width="2" pointer-events="visiblePainted" fill="#85bbf0" width="450" height="300" style="fill: rgb(133, 187, 240); stroke: rgb(120, 168, 216);"></rect><text  id="v-2152" font-size="34" xml:space="preserve" y="0.8em" font-weight="bold" text-anchor="middle" pointer-events="visible" font-family="Open Sans" fill="#000000" transform="matrix(1,0,0,1,225,83.1)" style="fill: rgb(0, 0, 0);"><tspan dy="0" >Label Tracker</tspan></text><text  id="v-2153" font-size="17" xml:space="preserve" y="0.8em" text-anchor="middle" font-family="Open Sans" fill="#000000" transform="matrix(1,0,0,1,225,125.6)" style="fill: rgb(0, 0, 0);"><tspan dy="0" >[Component: React and Ionic]</tspan></text><text  id="v-2154" font-size="24" xml:space="preserve" y="0.8em" text-anchor="middle" font-family="Open Sans" fill="#000000" transform="matrix(1,0,0,1,225,156.9)" style="fill: rgb(0, 0, 0);"><tspan dy="0" >Allows labeler to label available</tspan><tspan dy="1.2em" x="0" >projects</tspan></text><g  id="v-2155" color="#000000" transform="matrix(1,0,0,1,222.5,226.9)" style="fill: rgb(0, 0, 0);" display="none"><g ></g><g ></g><g ></g><g ></g></g><image  id="v-2156"></image></g></g><g   id="j_153"  transform="translate(969,984)" style=""><g  id="v-2168" style="opacity: 1;"><rect  id="v-2169" rx="20" ry="20" stroke="#78a8d8" stroke-width="2" pointer-events="visiblePainted" fill="#85bbf0" width="450" height="300" style="fill: rgb(133, 187, 240); stroke: rgb(120, 168, 216);"></rect><text  id="v-2170" font-size="34" xml:space="preserve" y="0.8em" font-weight="bold" text-anchor="middle" pointer-events="visible" font-family="Open Sans" fill="#000000" transform="matrix(1,0,0,1,225,83.1)" style="fill: rgb(0, 0, 0);"><tspan dy="0" >Sign In Controller</tspan></text><text  id="v-2171" font-size="17" xml:space="preserve" y="0.8em" text-anchor="middle" font-family="Open Sans" fill="#000000" transform="matrix(1,0,0,1,225,125.6)" style="fill: rgb(0, 0, 0);"><tspan dy="0" >[Component: React and Ionic]</tspan></text><text  id="v-2172" font-size="24" xml:space="preserve" y="0.8em" text-anchor="middle" font-family="Open Sans" fill="#000000" transform="matrix(1,0,0,1,225,156.9)" style="fill: rgb(0, 0, 0);"><tspan dy="0" >Allows labeler and admin to sign in</tspan><tspan dy="1.2em" x="0" >to the D-LAMA App</tspan></text><g  id="v-2173" color="#000000" transform="matrix(1,0,0,1,222.5,226.9)" style="fill: rgb(0, 0, 0);" display="none"><g ></g><g ></g><g ></g><g ></g></g><image  id="v-2174"></image></g></g><g   id="j_154"  transform="translate(575,2420)" style=""><g  id="v-2178" style="opacity: 1;"><rect  id="v-2179" rx="20" ry="20" stroke="#3c7fc0" stroke-width="2" pointer-events="visiblePainted" fill="#438dd5" width="450" height="300" style="fill: rgb(67, 141, 213); stroke: rgb(60, 127, 192);"></rect><text  id="v-2180" font-size="34" xml:space="preserve" y="0.8em" font-weight="bold" text-anchor="middle" pointer-events="visible" font-family="Open Sans" fill="#ffffff" transform="matrix(1,0,0,1,225,83.1)" style="fill: rgb(255, 255, 255);"><tspan dy="0" >REST API</tspan></text><text  id="v-2181" font-size="17" xml:space="preserve" y="0.8em" text-anchor="middle" font-family="Open Sans" fill="#ffffff" transform="matrix(1,0,0,1,225,125.6)" style="fill: rgb(255, 255, 255);"><tspan dy="0" >[Container: .NET Core]</tspan></text><text  id="v-2182" font-size="24" xml:space="preserve" y="0.8em" text-anchor="middle" font-family="Open Sans" fill="#ffffff" transform="matrix(1,0,0,1,225,156.9)" style="fill: rgb(255, 255, 255);"><tspan dy="0" >Provides the D-LAMA functionality</tspan><tspan dy="1.2em" x="0" >via JSON/HTTPS API</tspan></text><g  id="v-2183" color="#ffffff" transform="matrix(1,0,0,1,210,226.9)" style="fill: rgb(255, 255, 255);" display="none"><g  transform="translate(5 0)"><svg xmlns="http://www.w3.org/2000/svg" width="20" height="20" fill="currentColor" viewBox="0 0 16 16"><path fill-rule="evenodd" d="M6.5 12a5.5 5.5 0 1 0 0-11 5.5 5.5 0 0 0 0 11zM13 6.5a6.5 6.5 0 1 1-13 0 6.5 6.5 0 0 1 13 0z"></path><path d="M10.344 11.742c.03.04.062.078.098.115l3.85 3.85a1 1 0 0 0 1.415-1.414l-3.85-3.85a1.007 1.007 0 0 0-.115-.1 6.538 6.538 0 0 1-1.398 1.4z"></path><path fill-rule="evenodd" d="M6.5 3a.5.5 0 0 1 .5.5V6h2.5a.5.5 0 0 1 0 1H7v2.5a.5.5 0 0 1-1 0V7H3.5a.5.5 0 0 1 0-1H6V3.5a.5.5 0 0 1 .5-.5z"></path></svg></g><g ></g><g ></g><g ></g></g><image  id="v-2184"></image></g></g><g   id="j_155"  transform="translate(230,995)" style=""><g  id="v-2191" style="opacity: 1;"><rect  id="v-2192" rx="20" ry="20" stroke="#78a8d8" stroke-width="2" pointer-events="visiblePainted" fill="#85bbf0" width="450" height="300" style="fill: rgb(133, 187, 240); stroke: rgb(120, 168, 216);"></rect><text  id="v-2193" font-size="34" xml:space="preserve" y="0.8em" font-weight="bold" text-anchor="middle" pointer-events="visible" font-family="Open Sans" fill="#000000" transform="matrix(1,0,0,1,225,83.1)" style="fill: rgb(0, 0, 0);"><tspan dy="0" >Sign On Controller</tspan></text><text  id="v-2194" font-size="17" xml:space="preserve" y="0.8em" text-anchor="middle" font-family="Open Sans" fill="#000000" transform="matrix(1,0,0,1,225,125.6)" style="fill: rgb(0, 0, 0);"><tspan dy="0" >[Component: React and Ionic]</tspan></text><text  id="v-2195" font-size="24" xml:space="preserve" y="0.8em" text-anchor="middle" font-family="Open Sans" fill="#000000" transform="matrix(1,0,0,1,225,156.9)" style="fill: rgb(0, 0, 0);"><tspan dy="0" >Allows labeler and admin to register</tspan><tspan dy="1.2em" x="0" >an account</tspan></text><g  id="v-2196" color="#000000" transform="matrix(1,0,0,1,222.5,226.9)" style="fill: rgb(0, 0, 0);" display="none"><g ></g><g ></g><g ></g><g ></g></g><image  id="v-2197"></image></g></g><g   id="j_156"  transform="translate(1549,1865)" style=""><g  id="v-2204" style="opacity: 1;"><rect  id="v-2205" rx="20" ry="20" stroke="#78a8d8" stroke-width="2" pointer-events="visiblePainted" fill="#85bbf0" width="450" height="300" style="fill: rgb(133, 187, 240); stroke: rgb(120, 168, 216);"></rect><text  id="v-2206" font-size="34" xml:space="preserve" y="0.8em" font-weight="bold" text-anchor="middle" pointer-events="visible" font-family="Open Sans" fill="#000000" transform="matrix(1,0,0,1,225,53.1)" style="fill: rgb(0, 0, 0);"><tspan dy="0" >Project Administration</tspan></text><text  id="v-2207" font-size="17" xml:space="preserve" y="0.8em" text-anchor="middle" font-family="Open Sans" fill="#000000" transform="matrix(1,0,0,1,225,95.6)" style="fill: rgb(0, 0, 0);"><tspan dy="0" >[Component: React and Ionic]</tspan></text><text  id="v-2208" font-size="24" xml:space="preserve" y="0.8em" text-anchor="middle" font-family="Open Sans" fill="#000000" transform="matrix(1,0,0,1,225,126.9)" style="fill: rgb(0, 0, 0);"><tspan dy="0" >Allows labeler to view available</tspan><tspan dy="1.2em" x="0" >projects and allows admin to</tspan><tspan dy="1.2em" x="0" >administrate and supervise the</tspan><tspan dy="1.2em" x="0" >labeling projects</tspan></text><g  id="v-2209" color="#000000" transform="matrix(1,0,0,1,222.5,256.9)" style="fill: rgb(0, 0, 0);" display="none"><g ></g><g ></g><g ></g><g ></g></g><image  id="v-2210"></image></g></g></g><g ></g><g ></g><g ></g></g></svg>