<svg xmlns="http://www.w3.org/2000/svg" xmlns:xlink="http://www.w3.org/1999/xlink" version="1.1" viewBox="0 0 1663 3891" style="background: #ffffff"><defs joint-selector="defs"></defs><g joint-selector="layers"  transform="matrix(1,0,0,1,0,0)"><g ></g><g ><g   id="j_148"  transform="translate(20,3846)"><g id="v-2119"><text  id="v-2120" font-size="22px" xml:space="preserve" y="0.8em" font-weight="normal" text-anchor="start" fill="#aaaaaa" pointer-events="none" font-family="Open Sans"><tspan dy="0" >Friday, 7 April 2023 at 07:45 Central European Summer Time</tspan></text></g></g><g   id="j_147"  transform="translate(20,3802)"><g id="v-2117"><text  id="v-2118" font-size="36px" xml:space="preserve" y="0.8em" font-weight="normal" text-anchor="start" fill="#000000" pointer-events="none" font-family="Open Sans"><tspan dy="0" >[Container] D-LAMA</tspan></text></g></g><g   id="j_132"  transform="translate(505,880)" style=""><g id="v-1882"><rect  id="v-1883" width="490" height="2811" rx="0" ry="0" fill="#ffffff" stroke="#0f5eaa" stroke-width="1" stroke-dasharray="20,20" pointer-events="none"></rect><text  id="v-1884" font-size="24px" xml:space="preserve" y="2772" font-weight="normal" fill="#0f5eaa" text-anchor="start" pointer-events="visible" font-family="Open Sans" transform="matrix(1,0,0,1,15,0)"><tspan dy="0" >D-LAMA</tspan></text><text  id="v-1885" font-size="17px" xml:space="preserve" y="2796" font-weight="normal" fill="#0f5eaa" text-anchor="start" pointer-events="visible" font-family="Open Sans" transform="matrix(1,0,0,1,15,0)"><tspan dy="0" >[Software System]</tspan></text><image  id="v-1886" pointer-events="visible"></image></g></g><g   id="j_139" ><path  stroke="#707070" d="M 750 3000 L 750 3300" id="v-1975" stroke-width="2" stroke-dasharray="30 30" fill="none" style="opacity: 1;"></path><path  fill="black" stroke="black" d="M 0 0 0 0" transform="matrix(6.123233995736766e-17,1,-1,6.123233995736766e-17,750,3000)"></path><path  fill="#707070" stroke="#707070" d="M 20 0 L 0 10 L 20 20 z" id="v-1977" transform="matrix(-1.8369701987210297e-16,-1,1,-1.8369701987210297e-16,740,3300)" style="opacity: 1;"></path><path  d="M 750 3000 L 750 3300" id="v-1976" fill="none" style="cursor: auto; pointer-events: visiblepainted;"></path><g ><g id="v-1966"  label-idx="0" cursor="move" transform="matrix(1,0,0,1,750,3150)" style="cursor: default; opacity: 1;"><rect joint-selector="rect" id="v-1970" fill="#ffffff" rx="3" ry="3" stroke="#ffffff" stroke-width="20px" pointer-events="none" width="189.55239868164062" height="57.60444450378418" transform="matrix(1,0,0,1,-96.3,-28.8)"></rect><text joint-selector="text" id="v-1969" font-size="24px" xml:space="preserve" y="0.8em" fill="#707070" text-anchor="middle" pointer-events="none" font-family="Open Sans" font-weight="normal" transform="matrix(1,0,0,1,0,-24)"><tspan dy="0" >Reads from and</tspan><tspan dy="1.2em" x="0" >writes to / CRUD</tspan></text></g><g id="v-1967"  label-idx="1" cursor="move" transform="matrix(1,0,0,1,750,3192)" style="cursor: default; opacity: 1;"><rect joint-selector="rect" id="v-1972" fill="#ffffff" rx="3" ry="3" pointer-events="none" width="83.08966827392578" height="24.003701210021973" transform="matrix(1,0,0,1,-39.5,-12)"></rect><text joint-selector="text" id="v-1971" font-size="17px" xml:space="preserve" y="0.8em" fill="#707070" text-anchor="middle" pointer-events="none" font-family="Open Sans" font-weight="normal" transform="matrix(1,0,0,1,0,-6.4)"><tspan dy="0" >[SQL/TCP]</tspan></text></g><g id="v-1968"  label-idx="2" cursor="move" transform="matrix(1,0,0,1,740,3201.25)" style="cursor: default; opacity: 1;"><rect joint-selector="rect" id="v-1974" fill="#ffffff" rx="3" ry="3"  width="0" height="0" transform="matrix(1,0,0,1,0,0)" display="none"></rect><text joint-selector="text" id="v-1973" fill="#000000" font-size="14" text-anchor="middle" pointer-events="none"></text></g></g><g  display="none" style="display: none;"></g><g  id="v-1979" display="none"><g  id="v-1964"><path  end="source" d="M 26 0 L 0 13 L 26 26 z"></path></g><g  id="v-1965"><path  end="target" d="M 26 0 L 0 13 L 26 26 z"></path></g></g><g  id="v-1978" display="none"><g  id="v-1963" transform="translate(750, 3040) "><g  event="remove"><circle r="11"></circle><path transform="scale(.8) translate(-16, -16)" d="M24.778,21.419 19.276,15.917 24.777,10.415 21.949,7.585 16.447,13.087 10.945,7.585 8.117,10.415 13.618,15.917 8.116,21.419 10.946,24.248 16.447,18.746 21.948,24.248z"></path><title>Remove link.</title></g><g  event="link:options"><circle r="11" transform="translate(25)"></circle><path fill="white" transform="scale(.55) translate(29, -16)" d="M31.229,17.736c0.064-0.571,0.104-1.148,0.104-1.736s-0.04-1.166-0.104-1.737l-4.377-1.557c-0.218-0.716-0.504-1.401-0.851-2.05l1.993-4.192c-0.725-0.91-1.549-1.734-2.458-2.459l-4.193,1.994c-0.647-0.347-1.334-0.632-2.049-0.849l-1.558-4.378C17.165,0.708,16.588,0.667,16,0.667s-1.166,0.041-1.737,0.105L12.707,5.15c-0.716,0.217-1.401,0.502-2.05,0.849L6.464,4.005C5.554,4.73,4.73,5.554,4.005,6.464l1.994,4.192c-0.347,0.648-0.632,1.334-0.849,2.05l-4.378,1.557C0.708,14.834,0.667,15.412,0.667,16s0.041,1.165,0.105,1.736l4.378,1.558c0.217,0.715,0.502,1.401,0.849,2.049l-1.994,4.193c0.725,0.909,1.549,1.733,2.459,2.458l4.192-1.993c0.648,0.347,1.334,0.633,2.05,0.851l1.557,4.377c0.571,0.064,1.148,0.104,1.737,0.104c0.588,0,1.165-0.04,1.736-0.104l1.558-4.377c0.715-0.218,1.399-0.504,2.049-0.851l4.193,1.993c0.909-0.725,1.733-1.549,2.458-2.458l-1.993-4.193c0.347-0.647,0.633-1.334,0.851-2.049L31.229,17.736zM16,20.871c-2.69,0-4.872-2.182-4.872-4.871c0-2.69,2.182-4.872,4.872-4.872c2.689,0,4.871,2.182,4.871,4.872C20.871,18.689,18.689,20.871,16,20.871z"></path><title>Link options.</title></g></g></g></g><g   id="j_140" ><path  stroke="#707070" d="M 750 1200 L 750 1500" id="v-1992" stroke-width="2" stroke-dasharray="30 30" fill="none" style="opacity: 1;"></path><path  fill="black" stroke="black" d="M 0 0 0 0" transform="matrix(6.123233995736766e-17,1,-1,6.123233995736766e-17,750,1200)"></path><path  fill="#707070" stroke="#707070" d="M 20 0 L 0 10 L 20 20 z" id="v-1994" transform="matrix(-1.8369701987210297e-16,-1,1,-1.8369701987210297e-16,740,1500)" style="opacity: 1;"></path><path  d="M 750 1200 L 750 1500" id="v-1993" fill="none" style="cursor: auto; pointer-events: visiblepainted;"></path><g ><g id="v-1986"  label-idx="0" cursor="move" transform="matrix(1,0,0,1,750,1350)" style="cursor: default; opacity: 1;"><rect joint-selector="rect" id="v-1989" fill="#ffffff" rx="3" ry="3" stroke="#ffffff" stroke-width="20px" pointer-events="none" width="162.5806884765625" height="115.20444869995117" transform="matrix(1,0,0,1,-80.8,-57.6)"></rect><text joint-selector="text" id="v-1988" font-size="24px" xml:space="preserve" y="0.8em" fill="#707070" text-anchor="middle" pointer-events="none" font-family="Open Sans" font-weight="normal" transform="matrix(1,0,0,1,0,-52.8)"><tspan dy="0" >Delivers to the</tspan><tspan dy="1.2em" x="0" >admin or</tspan><tspan dy="1.2em" x="0" >labeler's web</tspan><tspan dy="1.2em" x="0" >browser</tspan></text></g><g id="v-1987"  label-idx="1" cursor="move" transform="matrix(1,0,0,1,740,1422)" style="cursor: default; opacity: 1;"><rect joint-selector="rect" id="v-1991" fill="#ffffff" rx="3" ry="3"  width="0" height="0" transform="matrix(1,0,0,1,0,0)" display="none"></rect><text joint-selector="text" id="v-1990" fill="#000000" font-size="14" text-anchor="middle" pointer-events="none"></text></g></g><g  display="none" style="display: none;"></g><g  id="v-1996" display="none"><g  id="v-1984"><path  end="source" d="M 26 0 L 0 13 L 26 26 z"></path></g><g  id="v-1985"><path  end="target" d="M 26 0 L 0 13 L 26 26 z"></path></g></g><g  id="v-1995" display="none"><g  id="v-1983" transform="translate(750, 1240) "><g  event="remove"><circle r="11"></circle><path transform="scale(.8) translate(-16, -16)" d="M24.778,21.419 19.276,15.917 24.777,10.415 21.949,7.585 16.447,13.087 10.945,7.585 8.117,10.415 13.618,15.917 8.116,21.419 10.946,24.248 16.447,18.746 21.948,24.248z"></path><title>Remove link.</title></g><g  event="link:options"><circle r="11" transform="translate(25)"></circle><path fill="white" transform="scale(.55) translate(29, -16)" d="M31.229,17.736c0.064-0.571,0.104-1.148,0.104-1.736s-0.04-1.166-0.104-1.737l-4.377-1.557c-0.218-0.716-0.504-1.401-0.851-2.05l1.993-4.192c-0.725-0.91-1.549-1.734-2.458-2.459l-4.193,1.994c-0.647-0.347-1.334-0.632-2.049-0.849l-1.558-4.378C17.165,0.708,16.588,0.667,16,0.667s-1.166,0.041-1.737,0.105L12.707,5.15c-0.716,0.217-1.401,0.502-2.05,0.849L6.464,4.005C5.554,4.73,4.73,5.554,4.005,6.464l1.994,4.192c-0.347,0.648-0.632,1.334-0.849,2.05l-4.378,1.557C0.708,14.834,0.667,15.412,0.667,16s0.041,1.165,0.105,1.736l4.378,1.558c0.217,0.715,0.502,1.401,0.849,2.049l-1.994,4.193c0.725,0.909,1.549,1.733,2.459,2.458l4.192-1.993c0.648,0.347,1.334,0.633,2.05,0.851l1.557,4.377c0.571,0.064,1.148,0.104,1.737,0.104c0.588,0,1.165-0.04,1.736-0.104l1.558-4.377c0.715-0.218,1.399-0.504,2.049-0.851l4.193,1.993c0.909-0.725,1.733-1.549,2.458-2.458l-1.993-4.193c0.347-0.647,0.633-1.334,0.851-2.049L31.229,17.736zM16,20.871c-2.69,0-4.872-2.182-4.872-4.871c0-2.69,2.182-4.872,4.872-4.872c2.689,0,4.871,2.182,4.871,4.872C20.871,18.689,18.689,20.871,16,20.871z"></path><title>Link options.</title></g></g></g></g><g   id="j_141" ><path  stroke="#707070" d="M 1229 600 L 1127 1190 C 1125.6666666666665 1196.6666666666665 1123 1202.6666666666665 1119 1208 L 875 1500" id="v-2013" stroke-width="2" stroke-dasharray="30 30" fill="none" style="opacity: 1;"></path><path  fill="black" stroke="black" d="M 0 0 0 0" transform="matrix(-0.16998936863928363,0.9854458963076652,-0.9854458963076652,-0.16998936863928363,1228.5,600)"></path><path  fill="#707070" stroke="#707070" d="M 20 0 L 0 10 L 20 20 z" id="v-2015" transform="matrix(0.6401844186703122,-0.7682212637591819,0.7682212637591819,0.6401844186703122,867.317798644455,1493.5981174743263)" style="opacity: 1;"></path><path  d="M 1229 600 L 1127 1190 C 1125.6666666666665 1196.6666666666665 1123 1202.6666666666665 1119 1208 L 875 1500" id="v-2014" fill="none" style="cursor: auto; pointer-events: visiblepainted;"></path><g ><g id="v-2004"  label-idx="0" cursor="move" transform="matrix(1,0,0,1,1143.89599609375,1092.26806640625)" style="cursor: default; opacity: 1;"><rect joint-selector="rect" id="v-2008" fill="#ffffff" rx="3" ry="3" stroke="#ffffff" stroke-width="20px" pointer-events="none" width="174.9729766845703" height="120.00519180297852" transform="matrix(1,0,0,1,-88.4,-60)"></rect><text joint-selector="text" id="v-2007" font-size="24px" xml:space="preserve" y="0.8em" fill="#707070" text-anchor="middle" pointer-events="none" font-family="Open Sans" font-weight="normal" transform="matrix(1,0,0,1,0,-55.2)"><tspan dy="0" >Administrates</tspan><tspan dy="1.2em" x="0" >and supervises</tspan><tspan dy="1.2em" x="0" >the labeling</tspan><tspan dy="1.2em" x="0" >projects</tspan></text></g><g id="v-2005"  label-idx="1" cursor="move" transform="matrix(1,0,0,1,1143.89599609375,1164.26806640625)" style="cursor: default; opacity: 1;"><rect joint-selector="rect" id="v-2010" fill="#ffffff" rx="3" ry="3" pointer-events="none" width="65.95392036437988" height="24.003701210021973" transform="matrix(1,0,0,1,-31,-12)"></rect><text joint-selector="text" id="v-2009" font-size="17px" xml:space="preserve" y="0.8em" fill="#707070" text-anchor="middle" pointer-events="none" font-family="Open Sans" font-weight="normal" transform="matrix(1,0,0,1,0,-6.4)"><tspan dy="0" >[HTTPS]</tspan></text></g><g id="v-2006"  label-idx="2" cursor="move" transform="matrix(1,0,0,1,1133.89599609375,1173.51806640625)" style="cursor: default; opacity: 1;"><rect joint-selector="rect" id="v-2012" fill="#ffffff" rx="3" ry="3"  width="0" height="0" transform="matrix(1,0,0,1,0,0)" display="none"></rect><text joint-selector="text" id="v-2011" fill="#000000" font-size="14" text-anchor="middle" pointer-events="none"></text></g></g><g  display="none" style="display: none;"><g  transform="translate(1125, 1200)" id="v-2001"><circle  idx="0" r="10"></circle><path  idx="0" d="M16,5.333c-7.732,0-14,4.701-14,10.5c0,1.982,0.741,3.833,2.016,5.414L2,25.667l5.613-1.441c2.339,1.317,5.237,2.107,8.387,2.107c7.732,0,14-4.701,14-10.5C30,10.034,23.732,5.333,16,5.333z" transform="translate(5, -33)"></path><path  idx="0" transform="scale(.8) translate(9.5, -37)" d="M24.778,21.419 19.276,15.917 24.777,10.415 21.949,7.585 16.447,13.087 10.945,7.585 8.117,10.415 13.618,15.917 8.116,21.419 10.946,24.248 16.447,18.746 21.948,24.248z"><title>Remove vertex.</title></path></g></g><g  id="v-2017" display="none"><g  id="v-2002"><path  end="source" d="M 26 0 L 0 13 L 26 26 z"></path></g><g  id="v-2003"><path  end="target" d="M 26 0 L 0 13 L 26 26 z"></path></g></g><g  id="v-2016" display="none"><g  id="v-2000" transform="translate(1222.1858269230256, 639.4153148570075) "><g  event="remove"><circle r="11"></circle><path transform="scale(.8) translate(-16, -16)" d="M24.778,21.419 19.276,15.917 24.777,10.415 21.949,7.585 16.447,13.087 10.945,7.585 8.117,10.415 13.618,15.917 8.116,21.419 10.946,24.248 16.447,18.746 21.948,24.248z"></path><title>Remove link.</title></g><g  event="link:options"><circle r="11" transform="translate(25)"></circle><path fill="white" transform="scale(.55) translate(29, -16)" d="M31.229,17.736c0.064-0.571,0.104-1.148,0.104-1.736s-0.04-1.166-0.104-1.737l-4.377-1.557c-0.218-0.716-0.504-1.401-0.851-2.05l1.993-4.192c-0.725-0.91-1.549-1.734-2.458-2.459l-4.193,1.994c-0.647-0.347-1.334-0.632-2.049-0.849l-1.558-4.378C17.165,0.708,16.588,0.667,16,0.667s-1.166,0.041-1.737,0.105L12.707,5.15c-0.716,0.217-1.401,0.502-2.05,0.849L6.464,4.005C5.554,4.73,4.73,5.554,4.005,6.464l1.994,4.192c-0.347,0.648-0.632,1.334-0.849,2.05l-4.378,1.557C0.708,14.834,0.667,15.412,0.667,16s0.041,1.165,0.105,1.736l4.378,1.558c0.217,0.715,0.502,1.401,0.849,2.049l-1.994,4.193c0.725,0.909,1.549,1.733,2.459,2.458l4.192-1.993c0.648,0.347,1.334,0.633,2.05,0.851l1.557,4.377c0.571,0.064,1.148,0.104,1.737,0.104c0.588,0,1.165-0.04,1.736-0.104l1.558-4.377c0.715-0.218,1.399-0.504,2.049-0.851l4.193,1.993c0.909-0.725,1.733-1.549,2.458-2.458l-1.993-4.193c0.347-0.647,0.633-1.334,0.851-2.049L31.229,17.736zM16,20.871c-2.69,0-4.872-2.182-4.872-4.871c0-2.69,2.182-4.872,4.872-4.872c2.689,0,4.871,2.182,4.871,4.872C20.871,18.689,18.689,20.871,16,20.871z"></path><title>Link options.</title></g></g></g></g><g   id="j_142" ><path  stroke="#707070" d="M 387 600 L 376 786 C 375.3333333333333 792.6666666666666 375 799.3333333333333 375 806 L 375 1190 C 375 1196.6666666666665 377 1202.6666666666665 381 1208 L 625 1500" id="v-2035" stroke-width="2" stroke-dasharray="30 30" fill="none" style="opacity: 1;"></path><path  fill="black" stroke="black" d="M 0 0 0 0" transform="matrix(-0.06298691098298127,0.9980143531256562,-0.9980143531256562,-0.06298691098298127,387.3699951171875,600)"></path><path  fill="#707070" stroke="#707070" d="M 20 0 L 0 10 L 20 20 z" id="v-2037" transform="matrix(-0.6401844186703125,-0.7682212637591816,0.7682212637591816,-0.6401844186703125,617.3177760803613,1506.4018058477325)" style="opacity: 1;"></path><path  d="M 387 600 L 376 786 C 375.3333333333333 792.6666666666666 375 799.3333333333333 375 806 L 375 1190 C 375 1196.6666666666665 377 1202.6666666666665 381 1208 L 625 1500" id="v-2036" fill="none" style="cursor: auto; pointer-events: visiblepainted;"></path><g ><g id="v-2026"  label-idx="0" cursor="move" transform="matrix(1,0,0,1,375,1094.7412109375)" style="cursor: default; opacity: 1;"><rect joint-selector="rect" id="v-2030" fill="#ffffff" rx="3" ry="3" stroke="#ffffff" stroke-width="20px" pointer-events="none" width="184.37843322753906" height="86.4044418334961" transform="matrix(1,0,0,1,-92.2,-43.2)"></rect><text joint-selector="text" id="v-2029" font-size="24px" xml:space="preserve" y="0.8em" fill="#707070" text-anchor="middle" pointer-events="none" font-family="Open Sans" font-weight="normal" transform="matrix(1,0,0,1,0,-38.4)"><tspan dy="0" >Views labeling</tspan><tspan dy="1.2em" x="0" >projects and can</tspan><tspan dy="1.2em" x="0" >label them</tspan></text></g><g id="v-2027"  label-idx="1" cursor="move" transform="matrix(1,0,0,1,375,1151.7412109375)" style="cursor: default; opacity: 1;"><rect joint-selector="rect" id="v-2032" fill="#ffffff" rx="3" ry="3" pointer-events="none" width="65.95392036437988" height="24.003701210021973" transform="matrix(1,0,0,1,-31,-12)"></rect><text joint-selector="text" id="v-2031" font-size="17px" xml:space="preserve" y="0.8em" fill="#707070" text-anchor="middle" pointer-events="none" font-family="Open Sans" font-weight="normal" transform="matrix(1,0,0,1,0,-6.4)"><tspan dy="0" >[HTTPS]</tspan></text></g><g id="v-2028"  label-idx="2" cursor="move" transform="matrix(1,0,0,1,365,1160.9912109375)" style="cursor: default; opacity: 1;"><rect joint-selector="rect" id="v-2034" fill="#ffffff" rx="3" ry="3"  width="0" height="0" transform="matrix(1,0,0,1,0,0)" display="none"></rect><text joint-selector="text" id="v-2033" fill="#000000" font-size="14" text-anchor="middle" pointer-events="none"></text></g></g><g  display="none" style="display: none;"><g  transform="translate(375, 796)" id="v-2022"><circle  idx="0" r="10"></circle><path  idx="0" d="M16,5.333c-7.732,0-14,4.701-14,10.5c0,1.982,0.741,3.833,2.016,5.414L2,25.667l5.613-1.441c2.339,1.317,5.237,2.107,8.387,2.107c7.732,0,14-4.701,14-10.5C30,10.034,23.732,5.333,16,5.333z" transform="translate(5, -33)"></path><path  idx="0" transform="scale(.8) translate(9.5, -37)" d="M24.778,21.419 19.276,15.917 24.777,10.415 21.949,7.585 16.447,13.087 10.945,7.585 8.117,10.415 13.618,15.917 8.116,21.419 10.946,24.248 16.447,18.746 21.948,24.248z"><title>Remove vertex.</title></path></g><g  transform="translate(375, 1200)" id="v-2023"><circle  idx="1" r="10"></circle><path  idx="1" d="M16,5.333c-7.732,0-14,4.701-14,10.5c0,1.982,0.741,3.833,2.016,5.414L2,25.667l5.613-1.441c2.339,1.317,5.237,2.107,8.387,2.107c7.732,0,14-4.701,14-10.5C30,10.034,23.732,5.333,16,5.333z" transform="translate(5, -33)"></path><path  idx="1" transform="scale(.8) translate(9.5, -37)" d="M24.778,21.419 19.276,15.917 24.777,10.415 21.949,7.585 16.447,13.087 10.945,7.585 8.117,10.415 13.618,15.917 8.116,21.419 10.946,24.248 16.447,18.746 21.948,24.248z"><title>Remove vertex.</title></path></g></g><g  id="v-2039" display="none"><g  id="v-2024"><path  end="source" d="M 26 0 L 0 13 L 26 26 z"></path></g><g  id="v-2025"><path  end="target" d="M 26 0 L 0 13 L 26 26 z"></path></g></g><g  id="v-2038" display="none"><g  id="v-2021" transform="translate(384.63853462688655, 639.9302326726452) "><g  event="remove"><circle r="11"></circle><path transform="scale(.8) translate(-16, -16)" d="M24.778,21.419 19.276,15.917 24.777,10.415 21.949,7.585 16.447,13.087 10.945,7.585 8.117,10.415 13.618,15.917 8.116,21.419 10.946,24.248 16.447,18.746 21.948,24.248z"></path><title>Remove link.</title></g><g  event="link:options"><circle r="11" transform="translate(25)"></circle><path fill="white" transform="scale(.55) translate(29, -16)" d="M31.229,17.736c0.064-0.571,0.104-1.148,0.104-1.736s-0.04-1.166-0.104-1.737l-4.377-1.557c-0.218-0.716-0.504-1.401-0.851-2.05l1.993-4.192c-0.725-0.91-1.549-1.734-2.458-2.459l-4.193,1.994c-0.647-0.347-1.334-0.632-2.049-0.849l-1.558-4.378C17.165,0.708,16.588,0.667,16,0.667s-1.166,0.041-1.737,0.105L12.707,5.15c-0.716,0.217-1.401,0.502-2.05,0.849L6.464,4.005C5.554,4.73,4.73,5.554,4.005,6.464l1.994,4.192c-0.347,0.648-0.632,1.334-0.849,2.05l-4.378,1.557C0.708,14.834,0.667,15.412,0.667,16s0.041,1.165,0.105,1.736l4.378,1.558c0.217,0.715,0.502,1.401,0.849,2.049l-1.994,4.193c0.725,0.909,1.549,1.733,2.459,2.458l4.192-1.993c0.648,0.347,1.334,0.633,2.05,0.851l1.557,4.377c0.571,0.064,1.148,0.104,1.737,0.104c0.588,0,1.165-0.04,1.736-0.104l1.558-4.377c0.715-0.218,1.399-0.504,2.049-0.851l4.193,1.993c0.909-0.725,1.733-1.549,2.458-2.458l-1.993-4.193c0.347-0.647,0.633-1.334,0.851-2.049L31.229,17.736zM16,20.871c-2.69,0-4.872-2.182-4.872-4.871c0-2.69,2.182-4.872,4.872-4.872c2.689,0,4.871,2.182,4.871,4.872C20.871,18.689,18.689,20.871,16,20.871z"></path><title>Link options.</title></g></g></g></g><g   id="j_143" ><path  stroke="#707070" d="M 508 600 L 669 900" id="v-2055" stroke-width="2" stroke-dasharray="30 30" fill="none" style="opacity: 1;"></path><path  fill="black" stroke="black" d="M 0 0 0 0" transform="matrix(0.47410332155505014,0.8804692160947302,-0.8804692160947302,0.47410332155505014,507.69000244140625,600)"></path><path  fill="#707070" stroke="#707070" d="M 20 0 L 0 10 L 20 20 z" id="v-2057" transform="matrix(-0.4741032629342655,-0.8804692476600661,0.8804692476600661,-0.4741032629342655,660.4252927894607,904.7410376059433)" style="opacity: 1;"></path><path  d="M 508 600 L 669 900" id="v-2056" fill="none" style="cursor: auto; pointer-events: visiblepainted;"></path><g ><g id="v-2046"  label-idx="0" cursor="move" transform="matrix(1,0,0,1,588.5,750)" style="cursor: default; opacity: 1;"><rect joint-selector="rect" id="v-2050" fill="#ffffff" rx="3" ry="3" stroke="#ffffff" stroke-width="20px" pointer-events="none" width="162.2631378173828" height="28.804441452026367" transform="matrix(1,0,0,1,-81.5,-14.4)"></rect><text joint-selector="text" id="v-2049" font-size="24px" xml:space="preserve" y="0.8em" fill="#707070" text-anchor="middle" pointer-events="none" font-family="Open Sans" font-weight="normal" transform="matrix(1,0,0,1,0,-9.6)"><tspan dy="0" >Visits D-LAMA</tspan></text></g><g id="v-2047"  label-idx="1" cursor="move" transform="matrix(1,0,0,1,588.5,777)" style="cursor: default; opacity: 1;"><rect joint-selector="rect" id="v-2052" fill="#ffffff" rx="3" ry="3" pointer-events="none" width="65.95392036437988" height="24.003701210021973" transform="matrix(1,0,0,1,-31,-12)"></rect><text joint-selector="text" id="v-2051" font-size="17px" xml:space="preserve" y="0.8em" fill="#707070" text-anchor="middle" pointer-events="none" font-family="Open Sans" font-weight="normal" transform="matrix(1,0,0,1,0,-6.4)"><tspan dy="0" >[HTTPS]</tspan></text></g><g id="v-2048"  label-idx="2" cursor="move" transform="matrix(1,0,0,1,578.5,786.25)" style="cursor: default; opacity: 1;"><rect joint-selector="rect" id="v-2054" fill="#ffffff" rx="3" ry="3"  width="0" height="0" transform="matrix(1,0,0,1,0,0)" display="none"></rect><text joint-selector="text" id="v-2053" fill="#000000" font-size="14" text-anchor="middle" pointer-events="none"></text></g></g><g  display="none" style="display: none;"></g><g  id="v-2059" display="none"><g  id="v-2044"><path  end="source" d="M 26 0 L 0 13 L 26 26 z"></path></g><g  id="v-2045"><path  end="target" d="M 26 0 L 0 13 L 26 26 z"></path></g></g><g  id="v-2058" display="none"><g  id="v-2043" transform="translate(526.914933026174, 635.2452168189578) "><g  event="remove"><circle r="11"></circle><path transform="scale(.8) translate(-16, -16)" d="M24.778,21.419 19.276,15.917 24.777,10.415 21.949,7.585 16.447,13.087 10.945,7.585 8.117,10.415 13.618,15.917 8.116,21.419 10.946,24.248 16.447,18.746 21.948,24.248z"></path><title>Remove link.</title></g><g  event="link:options"><circle r="11" transform="translate(25)"></circle><path fill="white" transform="scale(.55) translate(29, -16)" d="M31.229,17.736c0.064-0.571,0.104-1.148,0.104-1.736s-0.04-1.166-0.104-1.737l-4.377-1.557c-0.218-0.716-0.504-1.401-0.851-2.05l1.993-4.192c-0.725-0.91-1.549-1.734-2.458-2.459l-4.193,1.994c-0.647-0.347-1.334-0.632-2.049-0.849l-1.558-4.378C17.165,0.708,16.588,0.667,16,0.667s-1.166,0.041-1.737,0.105L12.707,5.15c-0.716,0.217-1.401,0.502-2.05,0.849L6.464,4.005C5.554,4.73,4.73,5.554,4.005,6.464l1.994,4.192c-0.347,0.648-0.632,1.334-0.849,2.05l-4.378,1.557C0.708,14.834,0.667,15.412,0.667,16s0.041,1.165,0.105,1.736l4.378,1.558c0.217,0.715,0.502,1.401,0.849,2.049l-1.994,4.193c0.725,0.909,1.549,1.733,2.459,2.458l4.192-1.993c0.648,0.347,1.334,0.633,2.05,0.851l1.557,4.377c0.571,0.064,1.148,0.104,1.737,0.104c0.588,0,1.165-0.04,1.736-0.104l1.558-4.377c0.715-0.218,1.399-0.504,2.049-0.851l4.193,1.993c0.909-0.725,1.733-1.549,2.458-2.458l-1.993-4.193c0.347-0.647,0.633-1.334,0.851-2.049L31.229,17.736zM16,20.871c-2.69,0-4.872-2.182-4.872-4.871c0-2.69,2.182-4.872,4.872-4.872c2.689,0,4.871,2.182,4.871,4.872C20.871,18.689,18.689,20.871,16,20.871z"></path><title>Link options.</title></g></g></g></g><g   id="j_144" ><path  stroke="#707070" d="M 1105 600 L 868 900" id="v-2075" stroke-width="2" stroke-dasharray="30 30" fill="none" style="opacity: 1;"></path><path  fill="black" stroke="black" d="M 0 0 0 0" transform="matrix(-0.6195280346016931,0.7849745310152192,-0.7849745310152192,-0.6195280346016931,1105.1500244140625,600)"></path><path  fill="#707070" stroke="#707070" d="M 20 0 L 0 10 L 20 20 z" id="v-2077" transform="matrix(0.619528034601693,-0.7849745310152193,0.7849745310152193,0.619528034601693,860.5302306914871,893.8047335188228)" style="opacity: 1;"></path><path  d="M 1105 600 L 868 900" id="v-2076" fill="none" style="cursor: auto; pointer-events: visiblepainted;"></path><g ><g id="v-2066"  label-idx="0" cursor="move" transform="matrix(1,0,0,1,986.5,750)" style="cursor: default; opacity: 1;"><rect joint-selector="rect" id="v-2070" fill="#ffffff" rx="3" ry="3" stroke="#ffffff" stroke-width="20px" pointer-events="none" width="162.2631378173828" height="28.804441452026367" transform="matrix(1,0,0,1,-81.5,-14.4)"></rect><text joint-selector="text" id="v-2069" font-size="24px" xml:space="preserve" y="0.8em" fill="#707070" text-anchor="middle" pointer-events="none" font-family="Open Sans" font-weight="normal" transform="matrix(1,0,0,1,0,-9.6)"><tspan dy="0" >Visits D-LAMA</tspan></text></g><g id="v-2067"  label-idx="1" cursor="move" transform="matrix(1,0,0,1,986.5,777)" style="cursor: default; opacity: 1;"><rect joint-selector="rect" id="v-2072" fill="#ffffff" rx="3" ry="3" pointer-events="none" width="65.95392036437988" height="24.003701210021973" transform="matrix(1,0,0,1,-31,-12)"></rect><text joint-selector="text" id="v-2071" font-size="17px" xml:space="preserve" y="0.8em" fill="#707070" text-anchor="middle" pointer-events="none" font-family="Open Sans" font-weight="normal" transform="matrix(1,0,0,1,0,-6.4)"><tspan dy="0" >[HTTPS]</tspan></text></g><g id="v-2068"  label-idx="2" cursor="move" transform="matrix(1,0,0,1,976.5,786.25)" style="cursor: default; opacity: 1;"><rect joint-selector="rect" id="v-2074" fill="#ffffff" rx="3" ry="3"  width="0" height="0" transform="matrix(1,0,0,1,0,0)" display="none"></rect><text joint-selector="text" id="v-2073" fill="#000000" font-size="14" text-anchor="middle" pointer-events="none"></text></g></g><g  display="none" style="display: none;"></g><g  id="v-2079" display="none"><g  id="v-2064"><path  end="source" d="M 26 0 L 0 13 L 26 26 z"></path></g><g  id="v-2065"><path  end="target" d="M 26 0 L 0 13 L 26 26 z"></path></g></g><g  id="v-2078" display="none"><g  id="v-2063" transform="translate(1080.2040529975752, 631.3872746866136) "><g  event="remove"><circle r="11"></circle><path transform="scale(.8) translate(-16, -16)" d="M24.778,21.419 19.276,15.917 24.777,10.415 21.949,7.585 16.447,13.087 10.945,7.585 8.117,10.415 13.618,15.917 8.116,21.419 10.946,24.248 16.447,18.746 21.948,24.248z"></path><title>Remove link.</title></g><g  event="link:options"><circle r="11" transform="translate(25)"></circle><path fill="white" transform="scale(.55) translate(29, -16)" d="M31.229,17.736c0.064-0.571,0.104-1.148,0.104-1.736s-0.04-1.166-0.104-1.737l-4.377-1.557c-0.218-0.716-0.504-1.401-0.851-2.05l1.993-4.192c-0.725-0.91-1.549-1.734-2.458-2.459l-4.193,1.994c-0.647-0.347-1.334-0.632-2.049-0.849l-1.558-4.378C17.165,0.708,16.588,0.667,16,0.667s-1.166,0.041-1.737,0.105L12.707,5.15c-0.716,0.217-1.401,0.502-2.05,0.849L6.464,4.005C5.554,4.73,4.73,5.554,4.005,6.464l1.994,4.192c-0.347,0.648-0.632,1.334-0.849,2.05l-4.378,1.557C0.708,14.834,0.667,15.412,0.667,16s0.041,1.165,0.105,1.736l4.378,1.558c0.217,0.715,0.502,1.401,0.849,2.049l-1.994,4.193c0.725,0.909,1.549,1.733,2.459,2.458l4.192-1.993c0.648,0.347,1.334,0.633,2.05,0.851l1.557,4.377c0.571,0.064,1.148,0.104,1.737,0.104c0.588,0,1.165-0.04,1.736-0.104l1.558-4.377c0.715-0.218,1.399-0.504,2.049-0.851l4.193,1.993c0.909-0.725,1.733-1.549,2.458-2.458l-1.993-4.193c0.347-0.647,0.633-1.334,0.851-2.049L31.229,17.736zM16,20.871c-2.69,0-4.872-2.182-4.872-4.871c0-2.69,2.182-4.872,4.872-4.872c2.689,0,4.871,2.182,4.871,4.872C20.871,18.689,18.689,20.871,16,20.871z"></path><title>Link options.</title></g></g></g></g><g   id="j_145" ><path  stroke="#707070" d="M 750 2400 L 750 2700" id="v-2092" stroke-width="2" stroke-dasharray="30 30" fill="none" style="opacity: 1;"></path><path  fill="black" stroke="black" d="M 0 0 0 0" transform="matrix(6.123233995736766e-17,1,-1,6.123233995736766e-17,750,2400)"></path><path  fill="#707070" stroke="#707070" d="M 20 0 L 0 10 L 20 20 z" id="v-2094" transform="matrix(-1.8369701987210297e-16,-1,1,-1.8369701987210297e-16,740,2700)" style="opacity: 1;"></path><path  d="M 750 2400 L 750 2700" id="v-2093" fill="none" style="cursor: auto; pointer-events: visiblepainted;"></path><g ><g id="v-2083"  label-idx="0" cursor="move" transform="matrix(1,0,0,1,750,2550)" style="cursor: default; opacity: 1;"><rect joint-selector="rect" id="v-2087" fill="#ffffff" rx="3" ry="3" stroke="#ffffff" stroke-width="20px" pointer-events="none" width="56.733943939208984" height="28.804441452026367" transform="matrix(1,0,0,1,-26.9,-14.4)"></rect><text joint-selector="text" id="v-2086" font-size="24px" xml:space="preserve" y="0.8em" fill="#707070" text-anchor="middle" pointer-events="none" font-family="Open Sans" font-weight="normal" transform="matrix(1,0,0,1,0,-9.6)"><tspan dy="0" >Uses</tspan></text></g><g id="v-2084"  label-idx="1" cursor="move" transform="matrix(1,0,0,1,750,2577)" style="cursor: default; opacity: 1;"><rect joint-selector="rect" id="v-2089" fill="#ffffff" rx="3" ry="3" pointer-events="none" width="93.05558013916016" height="24.003701210021973" transform="matrix(1,0,0,1,-44.5,-12)"></rect><text joint-selector="text" id="v-2088" font-size="17px" xml:space="preserve" y="0.8em" fill="#707070" text-anchor="middle" pointer-events="none" font-family="Open Sans" font-weight="normal" transform="matrix(1,0,0,1,0,-6.4)"><tspan dy="0" >[.NET Core]</tspan></text></g><g id="v-2085"  label-idx="2" cursor="move" transform="matrix(1,0,0,1,740,2586.25)" style="cursor: default; opacity: 1;"><rect joint-selector="rect" id="v-2091" fill="#ffffff" rx="3" ry="3"  width="0" height="0" transform="matrix(1,0,0,1,0,0)" display="none"></rect><text joint-selector="text" id="v-2090" fill="#000000" font-size="14" text-anchor="middle" pointer-events="none"></text></g></g><g  display="none" style="display: none;"></g><g  id="v-2096" display="none"><g  id="v-2081"><path  end="source" d="M 26 0 L 0 13 L 26 26 z"></path></g><g  id="v-2082"><path  end="target" d="M 26 0 L 0 13 L 26 26 z"></path></g></g><g  id="v-2095" display="none"><g  id="v-2080" transform="translate(750, 2440) "><g  event="remove"><circle r="11"></circle><path transform="scale(.8) translate(-16, -16)" d="M24.778,21.419 19.276,15.917 24.777,10.415 21.949,7.585 16.447,13.087 10.945,7.585 8.117,10.415 13.618,15.917 8.116,21.419 10.946,24.248 16.447,18.746 21.948,24.248z"></path><title>Remove link.</title></g><g  event="link:options"><circle r="11" transform="translate(25)"></circle><path fill="white" transform="scale(.55) translate(29, -16)" d="M31.229,17.736c0.064-0.571,0.104-1.148,0.104-1.736s-0.04-1.166-0.104-1.737l-4.377-1.557c-0.218-0.716-0.504-1.401-0.851-2.05l1.993-4.192c-0.725-0.91-1.549-1.734-2.458-2.459l-4.193,1.994c-0.647-0.347-1.334-0.632-2.049-0.849l-1.558-4.378C17.165,0.708,16.588,0.667,16,0.667s-1.166,0.041-1.737,0.105L12.707,5.15c-0.716,0.217-1.401,0.502-2.05,0.849L6.464,4.005C5.554,4.73,4.73,5.554,4.005,6.464l1.994,4.192c-0.347,0.648-0.632,1.334-0.849,2.05l-4.378,1.557C0.708,14.834,0.667,15.412,0.667,16s0.041,1.165,0.105,1.736l4.378,1.558c0.217,0.715,0.502,1.401,0.849,2.049l-1.994,4.193c0.725,0.909,1.549,1.733,2.459,2.458l4.192-1.993c0.648,0.347,1.334,0.633,2.05,0.851l1.557,4.377c0.571,0.064,1.148,0.104,1.737,0.104c0.588,0,1.165-0.04,1.736-0.104l1.558-4.377c0.715-0.218,1.399-0.504,2.049-0.851l4.193,1.993c0.909-0.725,1.733-1.549,2.458-2.458l-1.993-4.193c0.347-0.647,0.633-1.334,0.851-2.049L31.229,17.736zM16,20.871c-2.69,0-4.872-2.182-4.872-4.871c0-2.69,2.182-4.872,4.872-4.872c2.689,0,4.871,2.182,4.871,4.872C20.871,18.689,18.689,20.871,16,20.871z"></path><title>Link options.</title></g></g></g></g><g   id="j_146" ><path  stroke="#707070" d="M 750 1800 L 750 2100" id="v-2112" stroke-width="2" stroke-dasharray="30 30" fill="none" style="opacity: 1;"></path><path  fill="black" stroke="black" d="M 0 0 0 0" transform="matrix(6.123233995736766e-17,1,-1,6.123233995736766e-17,750,1800)"></path><path  fill="#707070" stroke="#707070" d="M 20 0 L 0 10 L 20 20 z" id="v-2114" transform="matrix(-1.8369701987210297e-16,-1,1,-1.8369701987210297e-16,740,2100)" style="opacity: 1;"></path><path  d="M 750 1800 L 750 2100" id="v-2113" fill="none" style="cursor: auto; pointer-events: visiblepainted;"></path><g ><g id="v-2103"  label-idx="0" cursor="move" transform="matrix(1,0,0,1,750,1950)" style="cursor: default; opacity: 1;"><rect joint-selector="rect" id="v-2107" fill="#ffffff" rx="3" ry="3" stroke="#ffffff" stroke-width="20px" pointer-events="none" width="198.48060607910156" height="28.804441452026367" transform="matrix(1,0,0,1,-99.2,-14.4)"></rect><text joint-selector="text" id="v-2106" font-size="24px" xml:space="preserve" y="0.8em" fill="#707070" text-anchor="middle" pointer-events="none" font-family="Open Sans" font-weight="normal" transform="matrix(1,0,0,1,0,-9.6)"><tspan dy="0" >Makes API calls to</tspan></text></g><g id="v-2104"  label-idx="1" cursor="move" transform="matrix(1,0,0,1,750,1977)" style="cursor: default; opacity: 1;"><rect joint-selector="rect" id="v-2109" fill="#ffffff" rx="3" ry="3" pointer-events="none" width="112.083251953125" height="24.003701210021973" transform="matrix(1,0,0,1,-54,-12)"></rect><text joint-selector="text" id="v-2108" font-size="17px" xml:space="preserve" y="0.8em" fill="#707070" text-anchor="middle" pointer-events="none" font-family="Open Sans" font-weight="normal" transform="matrix(1,0,0,1,0,-6.4)"><tspan dy="0" >[JSON/HTTPS]</tspan></text></g><g id="v-2105"  label-idx="2" cursor="move" transform="matrix(1,0,0,1,740,1986.25)" style="cursor: default; opacity: 1;"><rect joint-selector="rect" id="v-2111" fill="#ffffff" rx="3" ry="3"  width="0" height="0" transform="matrix(1,0,0,1,0,0)" display="none"></rect><text joint-selector="text" id="v-2110" fill="#000000" font-size="14" text-anchor="middle" pointer-events="none"></text></g></g><g  display="none" style="display: none;"></g><g  id="v-2116" display="none"><g  id="v-2101"><path  end="source" d="M 26 0 L 0 13 L 26 26 z"></path></g><g  id="v-2102"><path  end="target" d="M 26 0 L 0 13 L 26 26 z"></path></g></g><g  id="v-2115" display="none"><g  id="v-2100" transform="translate(750, 1840) "><g  event="remove"><circle r="11"></circle><path transform="scale(.8) translate(-16, -16)" d="M24.778,21.419 19.276,15.917 24.777,10.415 21.949,7.585 16.447,13.087 10.945,7.585 8.117,10.415 13.618,15.917 8.116,21.419 10.946,24.248 16.447,18.746 21.948,24.248z"></path><title>Remove link.</title></g><g  event="link:options"><circle r="11" transform="translate(25)"></circle><path fill="white" transform="scale(.55) translate(29, -16)" d="M31.229,17.736c0.064-0.571,0.104-1.148,0.104-1.736s-0.04-1.166-0.104-1.737l-4.377-1.557c-0.218-0.716-0.504-1.401-0.851-2.05l1.993-4.192c-0.725-0.91-1.549-1.734-2.458-2.459l-4.193,1.994c-0.647-0.347-1.334-0.632-2.049-0.849l-1.558-4.378C17.165,0.708,16.588,0.667,16,0.667s-1.166,0.041-1.737,0.105L12.707,5.15c-0.716,0.217-1.401,0.502-2.05,0.849L6.464,4.005C5.554,4.73,4.73,5.554,4.005,6.464l1.994,4.192c-0.347,0.648-0.632,1.334-0.849,2.05l-4.378,1.557C0.708,14.834,0.667,15.412,0.667,16s0.041,1.165,0.105,1.736l4.378,1.558c0.217,0.715,0.502,1.401,0.849,2.049l-1.994,4.193c0.725,0.909,1.549,1.733,2.459,2.458l4.192-1.993c0.648,0.347,1.334,0.633,2.05,0.851l1.557,4.377c0.571,0.064,1.148,0.104,1.737,0.104c0.588,0,1.165-0.04,1.736-0.104l1.558-4.377c0.715-0.218,1.399-0.504,2.049-0.851l4.193,1.993c0.909-0.725,1.733-1.549,2.458-2.458l-1.993-4.193c0.347-0.647,0.633-1.334,0.851-2.049L31.229,17.736zM16,20.871c-2.69,0-4.872-2.182-4.872-4.871c0-2.69,2.182-4.872,4.872-4.872c2.689,0,4.871,2.182,4.871,4.872C20.871,18.689,18.689,20.871,16,20.871z"></path><title>Link options.</title></g></g></g></g><g   id="j_131"  transform="translate(525,1500)" style=""><g  id="v-1870" style="opacity: 1;"><rect  id="v-1871" rx="10" ry="10" stroke="#3c7fc0" stroke-width="2" pointer-events="visiblePainted" fill="#3c7fc0" width="450" height="300" style="fill: rgb(60, 127, 192); stroke: rgb(60, 127, 192);"></rect><rect  id="v-1872" rx="10" ry="10" stroke="#3c7fc0" stroke-width="0" pointer-events="visiblePainted" fill="#438dd5" width="430" height="250" x="10" y="40" style="fill: rgb(67, 141, 213);"></rect><ellipse  id="v-1879" fill="#438dd5" cx="20" cy="20" rx="10" ry="10" style="fill: rgb(67, 141, 213);"></ellipse><ellipse  id="v-1880" fill="#438dd5" cx="50" cy="20" rx="10" ry="10" style="fill: rgb(67, 141, 213);"></ellipse><ellipse  id="v-1881" fill="#438dd5" cx="80" cy="20" rx="10" ry="10" style="fill: rgb(67, 141, 213);"></ellipse><rect  id="v-1873" rx="10" ry="10" stroke="#444444" stroke-width="0" pointer-events="visiblePainted" fill="#438dd5" width="340" height="20" x="100" y="10" style="fill: rgb(67, 141, 213);"></rect><text  id="v-1874" font-size="34" xml:space="preserve" y="0.8em" font-weight="bold" text-anchor="middle" pointer-events="visible" font-family="Open Sans" fill="#ffffff" transform="matrix(1,0,0,1,225,46.9)" style="fill: rgb(255, 255, 255);"><tspan dy="0" >Progressiv Web</tspan><tspan dy="1.2em" x="0" >Application</tspan></text><text  id="v-1875" font-size="17" xml:space="preserve" y="0.8em" text-anchor="middle" font-family="Open Sans" fill="#ffffff" transform="matrix(1,0,0,1,225,131.9)" style="fill: rgb(255, 255, 255);"><tspan dy="0" >[Container: React and Ionic]</tspan></text><text  id="v-1876" font-size="24" xml:space="preserve" y="0.8em" text-anchor="middle" font-family="Open Sans" fill="#ffffff" transform="matrix(1,0,0,1,225,163.1)" style="fill: rgb(255, 255, 255);"><tspan dy="0" >Provides all of the D-LAMA</tspan><tspan dy="1.2em" x="0" >functionality to the admin and</tspan><tspan dy="1.2em" x="0" >labeler via their web browser or</tspan><tspan dy="1.2em" x="0" >mobile app</tspan></text><g  id="v-1877" font-weight="normal" text-anchor="middle" color="#ffffff" transform="matrix(1,0,0,1,210,41)" style="fill: rgb(255, 255, 255);" display="none"><g  transform="translate(5 0)"><svg xmlns="http://www.w3.org/2000/svg" width="20" height="20" fill="currentColor" viewBox="0 0 16 16"><path fill-rule="evenodd" d="M6.5 12a5.5 5.5 0 1 0 0-11 5.5 5.5 0 0 0 0 11zM13 6.5a6.5 6.5 0 1 1-13 0 6.5 6.5 0 0 1 13 0z"></path><path d="M10.344 11.742c.03.04.062.078.098.115l3.85 3.85a1 1 0 0 0 1.415-1.414l-3.85-3.85a1.007 1.007 0 0 0-.115-.1 6.538 6.538 0 0 1-1.398 1.4z"></path><path fill-rule="evenodd" d="M6.5 3a.5.5 0 0 1 .5.5V6h2.5a.5.5 0 0 1 0 1H7v2.5a.5.5 0 0 1-1 0V7H3.5a.5.5 0 0 1 0-1H6V3.5a.5.5 0 0 1 .5-.5z"></path></svg></g><g ></g><g ></g><g ></g></g><image  id="v-1878"></image></g></g><g   id="j_133"  transform="translate(200,200)" style=""><g  id="v-1890" style="opacity: 1;"><rect  x="0" y="160" width="400" height="240" rx="70" id="v-1892" stroke="#073b6f" stroke-width="2" pointer-events="visiblePainted" fill="#08427b" style="fill: rgb(8, 66, 123); stroke: rgb(7, 59, 111);"></rect><circle  cx="200" cy="88.88888888888889" r="88.88888888888889" id="v-1891" stroke="#073b6f" stroke-width="2" pointer-events="visiblePainted" fill="#08427b" style="fill: rgb(8, 66, 123); stroke: rgb(7, 59, 111);"></circle><line  x1="80" y1="266.6666666666667" x2="80" y2="400" id="v-1898" stroke="#073b6f" stroke-width="2" style="stroke: rgb(7, 59, 111);"></line><line  x1="320" y1="266.6666666666667" x2="320" y2="400" id="v-1899" stroke="#073b6f" stroke-width="2" style="stroke: rgb(7, 59, 111);"></line><text  id="v-1893" font-size="34" xml:space="preserve" y="0.8em" font-weight="bold" text-anchor="middle" pointer-events="visible" font-family="Open Sans" fill="#ffffff" transform="matrix(1,0,0,1,200,213.1)" style="fill: rgb(255, 255, 255);"><tspan dy="0" >Labeler</tspan></text><text  id="v-1894" font-size="17" xml:space="preserve" y="0.8em" text-anchor="middle" font-family="Open Sans" fill="#ffffff" transform="matrix(1,0,0,1,200,255.6)" style="fill: rgb(255, 255, 255);"><tspan dy="0" >[Person]</tspan></text><text  id="v-1895" font-size="24" xml:space="preserve" y="0.8em" text-anchor="middle" font-family="Open Sans" fill="#ffffff" transform="matrix(1,0,0,1,200,286.9)" style="fill: rgb(255, 255, 255);"><tspan dy="0" >A user of the application acting</tspan><tspan dy="1.2em" x="0" >as a data labeler</tspan></text><g  id="v-1896" font-weight="normal" text-anchor="middle" color="#ffffff" transform="matrix(1,0,0,1,197.5,356.9)" style="fill: rgb(255, 255, 255);" display="none"><g ></g><g ></g><g ></g><g ></g></g><image  id="v-1897"></image></g></g><g   id="j_134"  transform="translate(525,2700)" style=""><g  id="v-1906" style="opacity: 1;"><rect  id="v-1907" rx="20" ry="20" stroke="#3c7fc0" stroke-width="2" pointer-events="visiblePainted" fill="#438dd5" width="450" height="300" style="fill: rgb(67, 141, 213); stroke: rgb(60, 127, 192);"></rect><text  id="v-1908" font-size="34" xml:space="preserve" y="0.8em" font-weight="bold" text-anchor="middle" pointer-events="visible" font-family="Open Sans" fill="#ffffff" transform="matrix(1,0,0,1,225,83.1)" style="fill: rgb(255, 255, 255);"><tspan dy="0" >Entity Framework Core</tspan></text><text  id="v-1909" font-size="17" xml:space="preserve" y="0.8em" text-anchor="middle" font-family="Open Sans" fill="#ffffff" transform="matrix(1,0,0,1,225,125.6)" style="fill: rgb(255, 255, 255);"><tspan dy="0" >[Container: .NET Core]</tspan></text><text  id="v-1910" font-size="24" xml:space="preserve" y="0.8em" text-anchor="middle" font-family="Open Sans" fill="#ffffff" transform="matrix(1,0,0,1,225,156.9)" style="fill: rgb(255, 255, 255);"><tspan dy="0" >Provides the interface to the</tspan><tspan dy="1.2em" x="0" >database.</tspan></text><g  id="v-1911" color="#ffffff" transform="matrix(1,0,0,1,222.5,226.9)" style="fill: rgb(255, 255, 255);" display="none"><g ></g><g ></g><g ></g><g ></g></g><image  id="v-1912"></image></g></g><g   id="j_135"  transform="translate(1063,200)" style=""><g  id="v-1916" style="opacity: 1;"><rect  x="0" y="160" width="400" height="240" rx="70" id="v-1918" stroke="#073b6f" stroke-width="2" pointer-events="visiblePainted" fill="#08427b" style="fill: rgb(8, 66, 123); stroke: rgb(7, 59, 111);"></rect><circle  cx="200" cy="88.88888888888889" r="88.88888888888889" id="v-1917" stroke="#073b6f" stroke-width="2" pointer-events="visiblePainted" fill="#08427b" style="fill: rgb(8, 66, 123); stroke: rgb(7, 59, 111);"></circle><line  x1="80" y1="266.6666666666667" x2="80" y2="400" id="v-1924" stroke="#073b6f" stroke-width="2" style="stroke: rgb(7, 59, 111);"></line><line  x1="320" y1="266.6666666666667" x2="320" y2="400" id="v-1925" stroke="#073b6f" stroke-width="2" style="stroke: rgb(7, 59, 111);"></line><text  id="v-1919" font-size="34" xml:space="preserve" y="0.8em" font-weight="bold" text-anchor="middle" pointer-events="visible" font-family="Open Sans" fill="#ffffff" transform="matrix(1,0,0,1,200,183.1)" style="fill: rgb(255, 255, 255);"><tspan dy="0" >Admin</tspan></text><text  id="v-1920" font-size="17" xml:space="preserve" y="0.8em" text-anchor="middle" font-family="Open Sans" fill="#ffffff" transform="matrix(1,0,0,1,200,225.6)" style="fill: rgb(255, 255, 255);"><tspan dy="0" >[Person]</tspan></text><text  id="v-1921" font-size="24" xml:space="preserve" y="0.8em" text-anchor="middle" font-family="Open Sans" fill="#ffffff" transform="matrix(1,0,0,1,200,256.9)" style="fill: rgb(255, 255, 255);"><tspan dy="0" >A user of the application acting</tspan><tspan dy="1.2em" x="0" >as an admin who provides the</tspan><tspan dy="1.2em" x="0" >data and needs the data</tspan><tspan dy="1.2em" x="0" >labeled</tspan></text><g  id="v-1922" font-weight="normal" text-anchor="middle" color="#ffffff" transform="matrix(1,0,0,1,197.5,386.9)" style="fill: rgb(255, 255, 255);" display="none"><g ></g><g ></g><g ></g><g ></g></g><image  id="v-1923"></image></g></g><g   id="j_136"  transform="translate(525,2100)" style=""><g  id="v-1929" style="opacity: 1;"><rect  id="v-1930" rx="20" ry="20" stroke="#3c7fc0" stroke-width="2" pointer-events="visiblePainted" fill="#438dd5" width="450" height="300" style="fill: rgb(67, 141, 213); stroke: rgb(60, 127, 192);"></rect><text  id="v-1931" font-size="34" xml:space="preserve" y="0.8em" font-weight="bold" text-anchor="middle" pointer-events="visible" font-family="Open Sans" fill="#ffffff" transform="matrix(1,0,0,1,225,83.1)" style="fill: rgb(255, 255, 255);"><tspan dy="0" >REST API</tspan></text><text  id="v-1932" font-size="17" xml:space="preserve" y="0.8em" text-anchor="middle" font-family="Open Sans" fill="#ffffff" transform="matrix(1,0,0,1,225,125.6)" style="fill: rgb(255, 255, 255);"><tspan dy="0" >[Container: .NET Core]</tspan></text><text  id="v-1933" font-size="24" xml:space="preserve" y="0.8em" text-anchor="middle" font-family="Open Sans" fill="#ffffff" transform="matrix(1,0,0,1,225,156.9)" style="fill: rgb(255, 255, 255);"><tspan dy="0" >Provides the D-LAMA functionality</tspan><tspan dy="1.2em" x="0" >via JSON/HTTPS API</tspan></text><g  id="v-1934" color="#ffffff" transform="matrix(1,0,0,1,210,226.9)" style="fill: rgb(255, 255, 255);" display="none"><g  transform="translate(5 0)"><svg xmlns="http://www.w3.org/2000/svg" width="20" height="20" fill="currentColor" viewBox="0 0 16 16"><path fill-rule="evenodd" d="M6.5 12a5.5 5.5 0 1 0 0-11 5.5 5.5 0 0 0 0 11zM13 6.5a6.5 6.5 0 1 1-13 0 6.5 6.5 0 0 1 13 0z"></path><path d="M10.344 11.742c.03.04.062.078.098.115l3.85 3.85a1 1 0 0 0 1.415-1.414l-3.85-3.85a1.007 1.007 0 0 0-.115-.1 6.538 6.538 0 0 1-1.398 1.4z"></path><path fill-rule="evenodd" d="M6.5 3a.5.5 0 0 1 .5.5V6h2.5a.5.5 0 0 1 0 1H7v2.5a.5.5 0 0 1-1 0V7H3.5a.5.5 0 0 1 0-1H6V3.5a.5.5 0 0 1 .5-.5z"></path></svg></g><g ></g><g ></g><g ></g></g><image  id="v-1935"></image></g></g><g   id="j_137"  transform="translate(525,900)" style=""><g  id="v-1942" style="opacity: 1;"><rect  id="v-1943" rx="20" ry="20" stroke="#3c7fc0" stroke-width="2" pointer-events="visiblePainted" fill="#438dd5" width="450" height="300" style="fill: rgb(67, 141, 213); stroke: rgb(60, 127, 192);"></rect><text  id="v-1944" font-size="34" xml:space="preserve" y="0.8em" font-weight="bold" text-anchor="middle" pointer-events="visible" font-family="Open Sans" fill="#ffffff" transform="matrix(1,0,0,1,225,83.1)" style="fill: rgb(255, 255, 255);"><tspan dy="0" >Web Application</tspan></text><text  id="v-1945" font-size="17" xml:space="preserve" y="0.8em" text-anchor="middle" font-family="Open Sans" fill="#ffffff" transform="matrix(1,0,0,1,225,125.6)" style="fill: rgb(255, 255, 255);"><tspan dy="0" >[Container: Node.js and Express.js]</tspan></text><text  id="v-1946" font-size="24" xml:space="preserve" y="0.8em" text-anchor="middle" font-family="Open Sans" fill="#ffffff" transform="matrix(1,0,0,1,225,156.9)" style="fill: rgb(255, 255, 255);"><tspan dy="0" >Delivers the static content and the</tspan><tspan dy="1.2em" x="0" >D-LAMA Progressiv Web Application</tspan></text><g  id="v-1947" color="#ffffff" transform="matrix(1,0,0,1,222.5,226.9)" style="fill: rgb(255, 255, 255);" display="none"><g ></g><g ></g><g ></g><g ></g></g><image  id="v-1948"></image></g></g><g   id="j_138"  transform="translate(525,3300)" style=""><g  id="v-1952" style="opacity: 1;"><path  d="M 0,30 a 225,30 0,0,0 450 0 a 225,30 0,0,0 -450 0 l 0,240 a 225,30 0,0,0 450 0 l 0,-240" id="v-1953" stroke="#3c7fc0" stroke-width="2" pointer-events="visiblePainted" fill="#438dd5" style="fill: rgb(67, 141, 213); stroke: rgb(60, 127, 192);"></path><rect  id="v-1954" stroke-width="0" pointer-events="visiblePainted" fill="none" stroke="none" width="450" height="270" x="0" y="30"></rect><text  id="v-1955" font-size="34" xml:space="preserve" y="0.8em" font-weight="bold" text-anchor="middle" pointer-events="visible" font-family="Open Sans" fill="#ffffff" transform="matrix(1,0,0,1,225,68.1)" style="fill: rgb(255, 255, 255);"><tspan dy="0" >Database</tspan></text><text  id="v-1956" font-size="17" xml:space="preserve" y="0.8em" text-anchor="middle" font-family="Open Sans" fill="#ffffff" transform="matrix(1,0,0,1,225,110.6)" style="fill: rgb(255, 255, 255);"><tspan dy="0" >[Container: MSSQL]</tspan></text><text  id="v-1957" font-size="24" xml:space="preserve" y="0.8em" text-anchor="middle" font-family="Open Sans" fill="#ffffff" transform="matrix(1,0,0,1,225,141.9)" style="fill: rgb(255, 255, 255);"><tspan dy="0" >Stores labeling projects</tspan><tspan dy="1.2em" x="0" >informations and meta data. Stores</tspan><tspan dy="1.2em" x="0" >user registration information,</tspan><tspan dy="1.2em" x="0" >hashed authentication credentials,</tspan><tspan dy="1.2em" x="0" >access logs, etc.</tspan></text><g  id="v-1958" font-weight="normal" text-anchor="middle" color="#ffffff" transform="matrix(1,0,0,1,222.5,31)" style="fill: rgb(255, 255, 255);" display="none"><g ></g><g ></g><g ></g><g ></g></g><image  id="v-1959"></image></g></g></g><g ></g><g ></g><g ></g></g></svg>