<svg xmlns="http://www.w3.org/2000/svg" xmlns:xlink="http://www.w3.org/1999/xlink" version="1.1" viewBox="0 0 3140 2500" style="background: #ffffff"><defs joint-selector="defs"></defs><g joint-selector="layers"  transform="matrix(1,0,0,1,0,0)"><g ></g><g ><g   id="j_74"  transform="translate(20,2455)"><g id="v-1110"><text  id="v-1111" font-size="22px" xml:space="preserve" y="0.8em" font-weight="normal" text-anchor="start" fill="#aaaaaa" pointer-events="none" font-family="Open Sans" display="block"><tspan dy="0" >Monday, 5 June 2023 at 19:09 Central European Summer Time</tspan></text></g></g><g   id="j_73"  transform="translate(20,2411)"><g id="v-1108"><text  id="v-1109" font-size="36px" xml:space="preserve" y="0.8em" font-weight="normal" text-anchor="start" fill="#000000" pointer-events="none" font-family="Open Sans" display="block"><tspan dy="0" >[Component] D-LAMA - REST API</tspan></text></g></g><g   id="j_53"  transform="translate(199,780)" style=""><g id="v-784"><rect  id="v-785" width="2740" height="1011" rx="0" ry="0" fill="#ffffff" stroke="#3c7fc0" stroke-width="1" stroke-dasharray="20,20" pointer-events="none"></rect><text  id="v-786" font-size="24px" xml:space="preserve" y="972" font-weight="normal" fill="#3c7fc0" text-anchor="start" pointer-events="visible" font-family="Open Sans" transform="matrix(1,0,0,1,15,0)"><tspan dy="0" >REST API</tspan></text><text  id="v-787" font-size="17px" xml:space="preserve" y="996" font-weight="normal" fill="#3c7fc0" text-anchor="start" pointer-events="visible" font-family="Open Sans" transform="matrix(1,0,0,1,15,0)"><tspan dy="0" >[Container]</tspan></text><image  id="v-788" pointer-events="visible"></image></g></g><g   id="j_60" ><path  stroke="#707070" d="M 2094 1070 L 1419 1430" id="v-873" stroke-width="2" stroke-dasharray="30 30" fill="none" style="opacity: 1;"></path><path  fill="black" stroke="black" d="M 0 0 0 0" transform="matrix(-0.8823528789936014,0.47058835188697895,-0.47058835188697895,-0.8823528789936014,2094,1070)"></path><path  fill="#707070" stroke="#707070" d="M 20 0 L 0 10 L 20 20 z" id="v-875" transform="matrix(0.8823530043188289,-0.4705881169021767,0.4705881169021767,0.8823530043188289,1414.294075115915,1421.176418508646)" style="opacity: 1;"></path><path  d="M 2094 1070 L 1419 1430" id="v-874" fill="none" style="cursor: auto; pointer-events: visiblepainted;"></path><g ><g id="v-864"  label-idx="0" cursor="move" transform="matrix(1,0,0,1,1756.5,1250)" style="cursor: default; opacity: 1;"><rect joint-selector="rect" id="v-868" fill="#ffffff" rx="3" ry="3" stroke="#ffffff" stroke-width="20px" pointer-events="none" width="182.55978393554688" height="61.1694450378418" transform="matrix(1,0,0,1,-91.2,-30.6)"></rect><text joint-selector="text" id="v-867" font-size="24px" xml:space="preserve" y="0.8em" fill="#707070" text-anchor="middle" pointer-events="none" font-family="Open Sans" font-weight="normal" transform="matrix(1,0,0,1,0,-23.9)"><tspan dy="0" >Access and</tspan><tspan dy="1.2em" x="0" >manage request</tspan></text></g><g id="v-865"  label-idx="1" cursor="move" transform="matrix(1,0,0,1,1756.5,1292)" style="cursor: default; opacity: 1;"><rect joint-selector="rect" id="v-870" fill="#ffffff" rx="3" ry="3" pointer-events="none" width="89.87199401855469" height="21.579627990722656" transform="matrix(1,0,0,1,-44.5,-10.8)"></rect><text joint-selector="text" id="v-869" font-size="17px" xml:space="preserve" y="0.8em" fill="#707070" text-anchor="middle" pointer-events="none" font-family="Open Sans" font-weight="normal" transform="matrix(1,0,0,1,0,-7.1)"><tspan dy="0" >[.NET Core]</tspan></text></g><g id="v-866"  label-idx="2" cursor="move" transform="matrix(1,0,0,1,1746.5,1301.25)" style="cursor: default; opacity: 1;"><rect joint-selector="rect" id="v-872" fill="#ffffff" rx="3" ry="3"  width="0" height="0" transform="matrix(1,0,0,1,0,0)" display="none"></rect><text joint-selector="text" id="v-871" fill="#000000" font-size="14" text-anchor="middle" pointer-events="none"></text></g></g><g  display="none" style="display: none;"></g><g  id="v-877" display="none"><g  id="v-862"><path  end="source" d="M 26 0 L 0 13 L 26 26 z"></path></g><g  id="v-863"><path  end="target" d="M 26 0 L 0 13 L 26 26 z"></path></g></g><g  id="v-876" display="none"><g  id="v-861" transform="translate(2058.705882352941, 1088.8235294117646) "><g  event="remove"><circle r="11"></circle><path transform="scale(.8) translate(-16, -16)" d="M24.778,21.419 19.276,15.917 24.777,10.415 21.949,7.585 16.447,13.087 10.945,7.585 8.117,10.415 13.618,15.917 8.116,21.419 10.946,24.248 16.447,18.746 21.948,24.248z"></path><title>Remove link.</title></g><g  event="link:options"><circle r="11" transform="translate(25)"></circle><path fill="white" transform="scale(.55) translate(29, -16)" d="M31.229,17.736c0.064-0.571,0.104-1.148,0.104-1.736s-0.04-1.166-0.104-1.737l-4.377-1.557c-0.218-0.716-0.504-1.401-0.851-2.05l1.993-4.192c-0.725-0.91-1.549-1.734-2.458-2.459l-4.193,1.994c-0.647-0.347-1.334-0.632-2.049-0.849l-1.558-4.378C17.165,0.708,16.588,0.667,16,0.667s-1.166,0.041-1.737,0.105L12.707,5.15c-0.716,0.217-1.401,0.502-2.05,0.849L6.464,4.005C5.554,4.73,4.73,5.554,4.005,6.464l1.994,4.192c-0.347,0.648-0.632,1.334-0.849,2.05l-4.378,1.557C0.708,14.834,0.667,15.412,0.667,16s0.041,1.165,0.105,1.736l4.378,1.558c0.217,0.715,0.502,1.401,0.849,2.049l-1.994,4.193c0.725,0.909,1.549,1.733,2.459,2.458l4.192-1.993c0.648,0.347,1.334,0.633,2.05,0.851l1.557,4.377c0.571,0.064,1.148,0.104,1.737,0.104c0.588,0,1.165-0.04,1.736-0.104l1.558-4.377c0.715-0.218,1.399-0.504,2.049-0.851l4.193,1.993c0.909-0.725,1.733-1.549,2.458-2.458l-1.993-4.193c0.347-0.647,0.633-1.334,0.851-2.049L31.229,17.736zM16,20.871c-2.69,0-4.872-2.182-4.872-4.871c0-2.69,2.182-4.872,4.872-4.872c2.689,0,4.871,2.182,4.871,4.872C20.871,18.689,18.689,20.871,16,20.871z"></path><title>Link options.</title></g></g></g></g><g   id="j_61" ><path  stroke="#707070" d="M 2473 1700 L 2327 1798 C 2321.6666666666665 1801.9999999999998 2316 1805.333333333333 2310 1808 L 1794 2046" id="v-891" stroke-width="2" stroke-dasharray="30 30" fill="none" style="opacity: 1;"></path><path  fill="black" stroke="black" d="M 0 0 0 0" transform="matrix(-0.8279461870449123,0.5608075528715631,-0.5608075528715631,-0.8279461870449123,2472.5400390625,1700)"></path><path  fill="#707070" stroke="#707070" d="M 20 0 L 0 10 L 20 20 z" id="v-893" transform="matrix(0.9080303070619146,-0.41890447772379474,0.41890447772379474,0.9080303070619146,1789.810974417768,2037.1197280347437)" style="opacity: 1;"></path><path  d="M 2473 1700 L 2327 1798 C 2321.6666666666665 1801.9999999999998 2316 1805.333333333333 2310 1808 L 1794 2046" id="v-892" fill="none" style="cursor: auto; pointer-events: visiblepainted;"></path><g ><g id="v-882"  label-idx="0" cursor="move" transform="matrix(1,0,0,1,2140.81005859375,1886.0372314453125)" style="cursor: default; opacity: 1;"><rect joint-selector="rect" id="v-886" fill="#ffffff" rx="3" ry="3" stroke="#ffffff" stroke-width="20px" pointer-events="none" width="55.35179901123047" height="32.369441986083984" transform="matrix(1,0,0,1,-26.9,-16.2)"></rect><text joint-selector="text" id="v-885" font-size="24px" xml:space="preserve" y="0.8em" fill="#707070" text-anchor="middle" pointer-events="none" font-family="Open Sans" font-weight="normal" transform="matrix(1,0,0,1,0,-9.5)"><tspan dy="0" >Uses</tspan></text></g><g id="v-883"  label-idx="1" cursor="move" transform="matrix(1,0,0,1,2140.81005859375,1913.0372314453125)" style="cursor: default; opacity: 1;"><rect joint-selector="rect" id="v-888" fill="#ffffff" rx="3" ry="3" pointer-events="none" width="89.87199401855469" height="21.579627990722656" transform="matrix(1,0,0,1,-44.5,-10.8)"></rect><text joint-selector="text" id="v-887" font-size="17px" xml:space="preserve" y="0.8em" fill="#707070" text-anchor="middle" pointer-events="none" font-family="Open Sans" font-weight="normal" transform="matrix(1,0,0,1,0,-7.1)"><tspan dy="0" >[.NET Core]</tspan></text></g><g id="v-884"  label-idx="2" cursor="move" transform="matrix(1,0,0,1,2130.81005859375,1922.2872314453125)" style="cursor: default; opacity: 1;"><rect joint-selector="rect" id="v-890" fill="#ffffff" rx="3" ry="3"  width="0" height="0" transform="matrix(1,0,0,1,0,0)" display="none"></rect><text joint-selector="text" id="v-889" fill="#000000" font-size="14" text-anchor="middle" pointer-events="none"></text></g></g><g  display="none" style="display: none;"><g  transform="translate(2319, 1804)" id="v-1112"><circle  idx="0" r="10"></circle><path  idx="0" d="M16,5.333c-7.732,0-14,4.701-14,10.5c0,1.982,0.741,3.833,2.016,5.414L2,25.667l5.613-1.441c2.339,1.317,5.237,2.107,8.387,2.107c7.732,0,14-4.701,14-10.5C30,10.034,23.732,5.333,16,5.333z" transform="translate(5, -33)"></path><path  idx="0" transform="scale(.8) translate(9.5, -37)" d="M24.778,21.419 19.276,15.917 24.777,10.415 21.949,7.585 16.447,13.087 10.945,7.585 8.117,10.415 13.618,15.917 8.116,21.419 10.946,24.248 16.447,18.746 21.948,24.248z"><title>Remove vertex.</title></path></g></g><g  id="v-895" display="none"><g  id="v-880"><path  end="source" d="M 26 0 L 0 13 L 26 26 z"></path></g><g  id="v-881"><path  end="target" d="M 26 0 L 0 13 L 26 26 z"></path></g></g><g  id="v-894" display="none"><g  id="v-878" transform="translate(2439.788147192873, 1722.2928875006742) "><g  event="remove"><circle r="11"></circle><path transform="scale(.8) translate(-16, -16)" d="M24.778,21.419 19.276,15.917 24.777,10.415 21.949,7.585 16.447,13.087 10.945,7.585 8.117,10.415 13.618,15.917 8.116,21.419 10.946,24.248 16.447,18.746 21.948,24.248z"></path><title>Remove link.</title></g><g  event="link:options"><circle r="11" transform="translate(25)"></circle><path fill="white" transform="scale(.55) translate(29, -16)" d="M31.229,17.736c0.064-0.571,0.104-1.148,0.104-1.736s-0.04-1.166-0.104-1.737l-4.377-1.557c-0.218-0.716-0.504-1.401-0.851-2.05l1.993-4.192c-0.725-0.91-1.549-1.734-2.458-2.459l-4.193,1.994c-0.647-0.347-1.334-0.632-2.049-0.849l-1.558-4.378C17.165,0.708,16.588,0.667,16,0.667s-1.166,0.041-1.737,0.105L12.707,5.15c-0.716,0.217-1.401,0.502-2.05,0.849L6.464,4.005C5.554,4.73,4.73,5.554,4.005,6.464l1.994,4.192c-0.347,0.648-0.632,1.334-0.849,2.05l-4.378,1.557C0.708,14.834,0.667,15.412,0.667,16s0.041,1.165,0.105,1.736l4.378,1.558c0.217,0.715,0.502,1.401,0.849,2.049l-1.994,4.193c0.725,0.909,1.549,1.733,2.459,2.458l4.192-1.993c0.648,0.347,1.334,0.633,2.05,0.851l1.557,4.377c0.571,0.064,1.148,0.104,1.737,0.104c0.588,0,1.165-0.04,1.736-0.104l1.558-4.377c0.715-0.218,1.399-0.504,2.049-0.851l4.193,1.993c0.909-0.725,1.733-1.549,2.458-2.458l-1.993-4.193c0.347-0.647,0.633-1.334,0.851-2.049L31.229,17.736zM16,20.871c-2.69,0-4.872-2.182-4.872-4.871c0-2.69,2.182-4.872,4.872-4.872c2.689,0,4.871,2.182,4.871,4.872C20.871,18.689,18.689,20.871,16,20.871z"></path><title>Link options.</title></g></g></g></g><g   id="j_62" ><path  stroke="#707070" d="M 1757 500 L 2132 800" id="v-911" stroke-width="2" stroke-dasharray="30 30" fill="none" style="opacity: 1;"></path><path  fill="black" stroke="black" d="M 0 0 0 0" transform="matrix(0.7808688000832672,0.624695059254128,-0.624695059254128,0.7808688000832672,1756.5,500)"></path><path  fill="#707070" stroke="#707070" d="M 20 0 L 0 10 L 20 20 z" id="v-913" transform="matrix(-0.7808688416748548,-0.6246950072646416,0.6246950072646416,-0.7808688416748548,2125.253144594102,807.8086902472074)" style="opacity: 1;"></path><path  d="M 1757 500 L 2132 800" id="v-912" fill="none" style="cursor: auto; pointer-events: visiblepainted;"></path><g ><g id="v-902"  label-idx="0" cursor="move" transform="matrix(1,0,0,1,1944.5,650)" style="cursor: default; opacity: 1;"><rect joint-selector="rect" id="v-906" fill="#ffffff" rx="3" ry="3" stroke="#ffffff" stroke-width="20px" pointer-events="none" width="185.09469604492188" height="61.1694450378418" transform="matrix(1,0,0,1,-91.8,-30.6)"></rect><text joint-selector="text" id="v-905" font-size="24px" xml:space="preserve" y="0.8em" fill="#707070" text-anchor="middle" pointer-events="none" font-family="Open Sans" font-weight="normal" transform="matrix(1,0,0,1,0,-23.9)"><tspan dy="0" >Views and edits</tspan><tspan dy="1.2em" x="0" >labeling projects</tspan></text></g><g id="v-903"  label-idx="1" cursor="move" transform="matrix(1,0,0,1,1944.5,692)" style="cursor: default; opacity: 1;"><rect joint-selector="rect" id="v-908" fill="#ffffff" rx="3" ry="3" pointer-events="none" width="108.8868637084961" height="21.579627990722656" transform="matrix(1,0,0,1,-54,-10.8)"></rect><text joint-selector="text" id="v-907" font-size="17px" xml:space="preserve" y="0.8em" fill="#707070" text-anchor="middle" pointer-events="none" font-family="Open Sans" font-weight="normal" transform="matrix(1,0,0,1,0,-7.1)"><tspan dy="0" >[JSON/HTTPS]</tspan></text></g><g id="v-904"  label-idx="2" cursor="move" transform="matrix(1,0,0,1,1934.5,701.25)" style="cursor: default; opacity: 1;"><rect joint-selector="rect" id="v-910" fill="#ffffff" rx="3" ry="3"  width="0" height="0" transform="matrix(1,0,0,1,0,0)" display="none"></rect><text joint-selector="text" id="v-909" fill="#000000" font-size="14" text-anchor="middle" pointer-events="none"></text></g></g><g  display="none" style="display: none;"></g><g  id="v-915" display="none"><g  id="v-900"><path  end="source" d="M 26 0 L 0 13 L 26 26 z"></path></g><g  id="v-901"><path  end="target" d="M 26 0 L 0 13 L 26 26 z"></path></g></g><g  id="v-914" display="none"><g  id="v-899" transform="translate(1788.2347523777212, 524.987801902177) "><g  event="remove"><circle r="11"></circle><path transform="scale(.8) translate(-16, -16)" d="M24.778,21.419 19.276,15.917 24.777,10.415 21.949,7.585 16.447,13.087 10.945,7.585 8.117,10.415 13.618,15.917 8.116,21.419 10.946,24.248 16.447,18.746 21.948,24.248z"></path><title>Remove link.</title></g><g  event="link:options"><circle r="11" transform="translate(25)"></circle><path fill="white" transform="scale(.55) translate(29, -16)" d="M31.229,17.736c0.064-0.571,0.104-1.148,0.104-1.736s-0.04-1.166-0.104-1.737l-4.377-1.557c-0.218-0.716-0.504-1.401-0.851-2.05l1.993-4.192c-0.725-0.91-1.549-1.734-2.458-2.459l-4.193,1.994c-0.647-0.347-1.334-0.632-2.049-0.849l-1.558-4.378C17.165,0.708,16.588,0.667,16,0.667s-1.166,0.041-1.737,0.105L12.707,5.15c-0.716,0.217-1.401,0.502-2.05,0.849L6.464,4.005C5.554,4.73,4.73,5.554,4.005,6.464l1.994,4.192c-0.347,0.648-0.632,1.334-0.849,2.05l-4.378,1.557C0.708,14.834,0.667,15.412,0.667,16s0.041,1.165,0.105,1.736l4.378,1.558c0.217,0.715,0.502,1.401,0.849,2.049l-1.994,4.193c0.725,0.909,1.549,1.733,2.459,2.458l4.192-1.993c0.648,0.347,1.334,0.633,2.05,0.851l1.557,4.377c0.571,0.064,1.148,0.104,1.737,0.104c0.588,0,1.165-0.04,1.736-0.104l1.558-4.377c0.715-0.218,1.399-0.504,2.049-0.851l4.193,1.993c0.909-0.725,1.733-1.549,2.458-2.458l-1.993-4.193c0.347-0.647,0.633-1.334,0.851-2.049L31.229,17.736zM16,20.871c-2.69,0-4.872-2.182-4.872-4.871c0-2.69,2.182-4.872,4.872-4.872c2.689,0,4.871,2.182,4.871,4.872C20.871,18.689,18.689,20.871,16,20.871z"></path><title>Link options.</title></g></g></g></g><g   id="j_63" ><path  stroke="#707070" d="M 1663 1100 L 1850 1400" id="v-931" stroke-width="2" stroke-dasharray="30 30" fill="none" style="opacity: 1;"></path><path  fill="black" stroke="black" d="M 0 0 0 0" transform="matrix(0.52999893008336,0.8479983102049754,-0.8479983102049754,0.52999893008336,1662.75,1100)"></path><path  fill="#707070" stroke="#707070" d="M 20 0 L 0 10 L 20 20 z" id="v-933" transform="matrix(-0.5299989865422614,-0.8479982749181603,0.8479982749181603,-0.5299989865422614,1841.769958288116,1405.2999921458543)" style="opacity: 1;"></path><path  d="M 1663 1100 L 1850 1400" id="v-932" fill="none" style="cursor: auto; pointer-events: visiblepainted;"></path><g ><g id="v-922"  label-idx="0" cursor="move" transform="matrix(1,0,0,1,1756.5,1250)" style="cursor: default; opacity: 1;"><rect joint-selector="rect" id="v-926" fill="#ffffff" rx="3" ry="3" stroke="#ffffff" stroke-width="20px" pointer-events="none" width="182.55978393554688" height="61.1694450378418" transform="matrix(1,0,0,1,-91.2,-30.6)"></rect><text joint-selector="text" id="v-925" font-size="24px" xml:space="preserve" y="0.8em" fill="#707070" text-anchor="middle" pointer-events="none" font-family="Open Sans" font-weight="normal" transform="matrix(1,0,0,1,0,-23.9)"><tspan dy="0" >Access and</tspan><tspan dy="1.2em" x="0" >manage request</tspan></text></g><g id="v-923"  label-idx="1" cursor="move" transform="matrix(1,0,0,1,1756.5,1292)" style="cursor: default; opacity: 1;"><rect joint-selector="rect" id="v-928" fill="#ffffff" rx="3" ry="3" pointer-events="none" width="89.87199401855469" height="21.579627990722656" transform="matrix(1,0,0,1,-44.5,-10.8)"></rect><text joint-selector="text" id="v-927" font-size="17px" xml:space="preserve" y="0.8em" fill="#707070" text-anchor="middle" pointer-events="none" font-family="Open Sans" font-weight="normal" transform="matrix(1,0,0,1,0,-7.1)"><tspan dy="0" >[.NET Core]</tspan></text></g><g id="v-924"  label-idx="2" cursor="move" transform="matrix(1,0,0,1,1746.5,1301.25)" style="cursor: default; opacity: 1;"><rect joint-selector="rect" id="v-930" fill="#ffffff" rx="3" ry="3"  width="0" height="0" transform="matrix(1,0,0,1,0,0)" display="none"></rect><text joint-selector="text" id="v-929" fill="#000000" font-size="14" text-anchor="middle" pointer-events="none"></text></g></g><g  display="none" style="display: none;"></g><g  id="v-935" display="none"><g  id="v-920"><path  end="source" d="M 26 0 L 0 13 L 26 26 z"></path></g><g  id="v-921"><path  end="target" d="M 26 0 L 0 13 L 26 26 z"></path></g></g><g  id="v-934" display="none"><g  id="v-919" transform="translate(1684.1592588038857, 1133.9453349794958) "><g  event="remove"><circle r="11"></circle><path transform="scale(.8) translate(-16, -16)" d="M24.778,21.419 19.276,15.917 24.777,10.415 21.949,7.585 16.447,13.087 10.945,7.585 8.117,10.415 13.618,15.917 8.116,21.419 10.946,24.248 16.447,18.746 21.948,24.248z"></path><title>Remove link.</title></g><g  event="link:options"><circle r="11" transform="translate(25)"></circle><path fill="white" transform="scale(.55) translate(29, -16)" d="M31.229,17.736c0.064-0.571,0.104-1.148,0.104-1.736s-0.04-1.166-0.104-1.737l-4.377-1.557c-0.218-0.716-0.504-1.401-0.851-2.05l1.993-4.192c-0.725-0.91-1.549-1.734-2.458-2.459l-4.193,1.994c-0.647-0.347-1.334-0.632-2.049-0.849l-1.558-4.378C17.165,0.708,16.588,0.667,16,0.667s-1.166,0.041-1.737,0.105L12.707,5.15c-0.716,0.217-1.401,0.502-2.05,0.849L6.464,4.005C5.554,4.73,4.73,5.554,4.005,6.464l1.994,4.192c-0.347,0.648-0.632,1.334-0.849,2.05l-4.378,1.557C0.708,14.834,0.667,15.412,0.667,16s0.041,1.165,0.105,1.736l4.378,1.558c0.217,0.715,0.502,1.401,0.849,2.049l-1.994,4.193c0.725,0.909,1.549,1.733,2.459,2.458l4.192-1.993c0.648,0.347,1.334,0.633,2.05,0.851l1.557,4.377c0.571,0.064,1.148,0.104,1.737,0.104c0.588,0,1.165-0.04,1.736-0.104l1.558-4.377c0.715-0.218,1.399-0.504,2.049-0.851l4.193,1.993c0.909-0.725,1.733-1.549,2.458-2.458l-1.993-4.193c0.347-0.647,0.633-1.334,0.851-2.049L31.229,17.736zM16,20.871c-2.69,0-4.872-2.182-4.872-4.871c0-2.69,2.182-4.872,4.872-4.872c2.689,0,4.871,2.182,4.871,4.872C20.871,18.689,18.689,20.871,16,20.871z"></path><title>Link options.</title></g></g></g></g><g   id="j_64" ><path  stroke="#707070" d="M 2413 1100 L 2600 1400" id="v-951" stroke-width="2" stroke-dasharray="30 30" fill="none" style="opacity: 1;"></path><path  fill="black" stroke="black" d="M 0 0 0 0" transform="matrix(0.52999893008336,0.8479983102049754,-0.8479983102049754,0.52999893008336,2412.75,1100)"></path><path  fill="#707070" stroke="#707070" d="M 20 0 L 0 10 L 20 20 z" id="v-953" transform="matrix(-0.5299989865422614,-0.8479982749181603,0.8479982749181603,-0.5299989865422614,2591.769958288116,1405.2999921458543)" style="opacity: 1;"></path><path  d="M 2413 1100 L 2600 1400" id="v-952" fill="none" style="cursor: auto; pointer-events: visiblepainted;"></path><g ><g id="v-942"  label-idx="0" cursor="move" transform="matrix(1,0,0,1,2506.5,1250)" style="cursor: default; opacity: 1;"><rect joint-selector="rect" id="v-946" fill="#ffffff" rx="3" ry="3" stroke="#ffffff" stroke-width="20px" pointer-events="none" width="182.55978393554688" height="61.1694450378418" transform="matrix(1,0,0,1,-91.2,-30.6)"></rect><text joint-selector="text" id="v-945" font-size="24px" xml:space="preserve" y="0.8em" fill="#707070" text-anchor="middle" pointer-events="none" font-family="Open Sans" font-weight="normal" transform="matrix(1,0,0,1,0,-23.9)"><tspan dy="0" >Access and</tspan><tspan dy="1.2em" x="0" >manage request</tspan></text></g><g id="v-943"  label-idx="1" cursor="move" transform="matrix(1,0,0,1,2506.5,1292)" style="cursor: default; opacity: 1;"><rect joint-selector="rect" id="v-948" fill="#ffffff" rx="3" ry="3" pointer-events="none" width="89.87199401855469" height="21.579627990722656" transform="matrix(1,0,0,1,-44.5,-10.8)"></rect><text joint-selector="text" id="v-947" font-size="17px" xml:space="preserve" y="0.8em" fill="#707070" text-anchor="middle" pointer-events="none" font-family="Open Sans" font-weight="normal" transform="matrix(1,0,0,1,0,-7.1)"><tspan dy="0" >[.NET Core]</tspan></text></g><g id="v-944"  label-idx="2" cursor="move" transform="matrix(1,0,0,1,2496.5,1301.25)" style="cursor: default; opacity: 1;"><rect joint-selector="rect" id="v-950" fill="#ffffff" rx="3" ry="3"  width="0" height="0" transform="matrix(1,0,0,1,0,0)" display="none"></rect><text joint-selector="text" id="v-949" fill="#000000" font-size="14" text-anchor="middle" pointer-events="none"></text></g></g><g  display="none" style="display: none;"></g><g  id="v-955" display="none"><g  id="v-940"><path  end="source" d="M 26 0 L 0 13 L 26 26 z"></path></g><g  id="v-941"><path  end="target" d="M 26 0 L 0 13 L 26 26 z"></path></g></g><g  id="v-954" display="none"><g  id="v-939" transform="translate(2434.1592588038857, 1133.9453349794958) "><g  event="remove"><circle r="11"></circle><path transform="scale(.8) translate(-16, -16)" d="M24.778,21.419 19.276,15.917 24.777,10.415 21.949,7.585 16.447,13.087 10.945,7.585 8.117,10.415 13.618,15.917 8.116,21.419 10.946,24.248 16.447,18.746 21.948,24.248z"></path><title>Remove link.</title></g><g  event="link:options"><circle r="11" transform="translate(25)"></circle><path fill="white" transform="scale(.55) translate(29, -16)" d="M31.229,17.736c0.064-0.571,0.104-1.148,0.104-1.736s-0.04-1.166-0.104-1.737l-4.377-1.557c-0.218-0.716-0.504-1.401-0.851-2.05l1.993-4.192c-0.725-0.91-1.549-1.734-2.458-2.459l-4.193,1.994c-0.647-0.347-1.334-0.632-2.049-0.849l-1.558-4.378C17.165,0.708,16.588,0.667,16,0.667s-1.166,0.041-1.737,0.105L12.707,5.15c-0.716,0.217-1.401,0.502-2.05,0.849L6.464,4.005C5.554,4.73,4.73,5.554,4.005,6.464l1.994,4.192c-0.347,0.648-0.632,1.334-0.849,2.05l-4.378,1.557C0.708,14.834,0.667,15.412,0.667,16s0.041,1.165,0.105,1.736l4.378,1.558c0.217,0.715,0.502,1.401,0.849,2.049l-1.994,4.193c0.725,0.909,1.549,1.733,2.459,2.458l4.192-1.993c0.648,0.347,1.334,0.633,2.05,0.851l1.557,4.377c0.571,0.064,1.148,0.104,1.737,0.104c0.588,0,1.165-0.04,1.736-0.104l1.558-4.377c0.715-0.218,1.399-0.504,2.049-0.851l4.193,1.993c0.909-0.725,1.733-1.549,2.458-2.458l-1.993-4.193c0.347-0.647,0.633-1.334,0.851-2.049L31.229,17.736zM16,20.871c-2.69,0-4.872-2.182-4.872-4.871c0-2.69,2.182-4.872,4.872-4.872c2.689,0,4.871,2.182,4.871,4.872C20.871,18.689,18.689,20.871,16,20.871z"></path><title>Link options.</title></g></g></g></g><g   id="j_65" ><path  stroke="#707070" d="M 1382 500 L 1007 800" id="v-971" stroke-width="2" stroke-dasharray="30 30" fill="none" style="opacity: 1;"></path><path  fill="black" stroke="black" d="M 0 0 0 0" transform="matrix(-0.7808688416748546,0.6246950072646418,-0.6246950072646418,-0.7808688416748546,1381.5,500)"></path><path  fill="#707070" stroke="#707070" d="M 20 0 L 0 10 L 20 20 z" id="v-973" transform="matrix(0.7808686753084834,-0.624695215222571,0.624695215222571,0.7808686753084834,1000.253076915002,792.1913171569533)" style="opacity: 1;"></path><path  d="M 1382 500 L 1007 800" id="v-972" fill="none" style="cursor: auto; pointer-events: visiblepainted;"></path><g ><g id="v-962"  label-idx="0" cursor="move" transform="matrix(1,0,0,1,1194.5,650)" style="cursor: default; opacity: 1;"><rect joint-selector="rect" id="v-966" fill="#ffffff" rx="3" ry="3" stroke="#ffffff" stroke-width="20px" pointer-events="none" width="183.09877014160156" height="61.1694450378418" transform="matrix(1,0,0,1,-91.5,-30.6)"></rect><text joint-selector="text" id="v-965" font-size="24px" xml:space="preserve" y="0.8em" fill="#707070" text-anchor="middle" pointer-events="none" font-family="Open Sans" font-weight="normal" transform="matrix(1,0,0,1,0,-23.9)"><tspan dy="0" >Login and</tspan><tspan dy="1.2em" x="0" >Register request</tspan></text></g><g id="v-963"  label-idx="1" cursor="move" transform="matrix(1,0,0,1,1194.5,692)" style="cursor: default; opacity: 1;"><rect joint-selector="rect" id="v-968" fill="#ffffff" rx="3" ry="3" pointer-events="none" width="108.8868637084961" height="21.579627990722656" transform="matrix(1,0,0,1,-54,-10.8)"></rect><text joint-selector="text" id="v-967" font-size="17px" xml:space="preserve" y="0.8em" fill="#707070" text-anchor="middle" pointer-events="none" font-family="Open Sans" font-weight="normal" transform="matrix(1,0,0,1,0,-7.1)"><tspan dy="0" >[JSON/HTTPS]</tspan></text></g><g id="v-964"  label-idx="2" cursor="move" transform="matrix(1,0,0,1,1184.5,701.25)" style="cursor: default; opacity: 1;"><rect joint-selector="rect" id="v-970" fill="#ffffff" rx="3" ry="3"  width="0" height="0" transform="matrix(1,0,0,1,0,0)" display="none"></rect><text joint-selector="text" id="v-969" fill="#000000" font-size="14" text-anchor="middle" pointer-events="none"></text></g></g><g  display="none" style="display: none;"></g><g  id="v-975" display="none"><g  id="v-960"><path  end="source" d="M 26 0 L 0 13 L 26 26 z"></path></g><g  id="v-961"><path  end="target" d="M 26 0 L 0 13 L 26 26 z"></path></g></g><g  id="v-974" display="none"><g  id="v-959" transform="translate(1350.7652476222788, 524.987801902177) "><g  event="remove"><circle r="11"></circle><path transform="scale(.8) translate(-16, -16)" d="M24.778,21.419 19.276,15.917 24.777,10.415 21.949,7.585 16.447,13.087 10.945,7.585 8.117,10.415 13.618,15.917 8.116,21.419 10.946,24.248 16.447,18.746 21.948,24.248z"></path><title>Remove link.</title></g><g  event="link:options"><circle r="11" transform="translate(25)"></circle><path fill="white" transform="scale(.55) translate(29, -16)" d="M31.229,17.736c0.064-0.571,0.104-1.148,0.104-1.736s-0.04-1.166-0.104-1.737l-4.377-1.557c-0.218-0.716-0.504-1.401-0.851-2.05l1.993-4.192c-0.725-0.91-1.549-1.734-2.458-2.459l-4.193,1.994c-0.647-0.347-1.334-0.632-2.049-0.849l-1.558-4.378C17.165,0.708,16.588,0.667,16,0.667s-1.166,0.041-1.737,0.105L12.707,5.15c-0.716,0.217-1.401,0.502-2.05,0.849L6.464,4.005C5.554,4.73,4.73,5.554,4.005,6.464l1.994,4.192c-0.347,0.648-0.632,1.334-0.849,2.05l-4.378,1.557C0.708,14.834,0.667,15.412,0.667,16s0.041,1.165,0.105,1.736l4.378,1.558c0.217,0.715,0.502,1.401,0.849,2.049l-1.994,4.193c0.725,0.909,1.549,1.733,2.459,2.458l4.192-1.993c0.648,0.347,1.334,0.633,2.05,0.851l1.557,4.377c0.571,0.064,1.148,0.104,1.737,0.104c0.588,0,1.165-0.04,1.736-0.104l1.558-4.377c0.715-0.218,1.399-0.504,2.049-0.851l4.193,1.993c0.909-0.725,1.733-1.549,2.458-2.458l-1.993-4.193c0.347-0.647,0.633-1.334,0.851-2.049L31.229,17.736zM16,20.871c-2.69,0-4.872-2.182-4.872-4.871c0-2.69,2.182-4.872,4.872-4.872c2.689,0,4.871,2.182,4.871,4.872C20.871,18.689,18.689,20.871,16,20.871z"></path><title>Link options.</title></g></g></g></g><g   id="j_66" ><path  stroke="#707070" d="M 1569 500 L 1569 800" id="v-991" stroke-width="2" stroke-dasharray="30 30" fill="none" style="opacity: 1;"></path><path  fill="black" stroke="black" d="M 0 0 0 0" transform="matrix(6.123233995736766e-17,1,-1,6.123233995736766e-17,1569,500)"></path><path  fill="#707070" stroke="#707070" d="M 20 0 L 0 10 L 20 20 z" id="v-993" transform="matrix(-1.8369701987210297e-16,-1,1,-1.8369701987210297e-16,1559,800)" style="opacity: 1;"></path><path  d="M 1569 500 L 1569 800" id="v-992" fill="none" style="cursor: auto; pointer-events: visiblepainted;"></path><g ><g id="v-982"  label-idx="0" cursor="move" transform="matrix(1,0,0,1,1569,650)" style="cursor: default; opacity: 1;"><rect joint-selector="rect" id="v-986" fill="#ffffff" rx="3" ry="3" stroke="#ffffff" stroke-width="20px" pointer-events="none" width="176.94161987304688" height="89.96944808959961" transform="matrix(1,0,0,1,-88.8,-45)"></rect><text joint-selector="text" id="v-985" font-size="24px" xml:space="preserve" y="0.8em" fill="#707070" text-anchor="middle" pointer-events="none" font-family="Open Sans" font-weight="normal" transform="matrix(1,0,0,1,0,-38.3)"><tspan dy="0" >Views and edits</tspan><tspan dy="1.2em" x="0" >labels of a</tspan><tspan dy="1.2em" x="0" >specific project</tspan></text></g><g id="v-983"  label-idx="1" cursor="move" transform="matrix(1,0,0,1,1569,707)" style="cursor: default; opacity: 1;"><rect joint-selector="rect" id="v-988" fill="#ffffff" rx="3" ry="3" pointer-events="none" width="108.8868637084961" height="21.579627990722656" transform="matrix(1,0,0,1,-54,-10.8)"></rect><text joint-selector="text" id="v-987" font-size="17px" xml:space="preserve" y="0.8em" fill="#707070" text-anchor="middle" pointer-events="none" font-family="Open Sans" font-weight="normal" transform="matrix(1,0,0,1,0,-7.1)"><tspan dy="0" >[JSON/HTTPS]</tspan></text></g><g id="v-984"  label-idx="2" cursor="move" transform="matrix(1,0,0,1,1559,716.25)" style="cursor: default; opacity: 1;"><rect joint-selector="rect" id="v-990" fill="#ffffff" rx="3" ry="3"  width="0" height="0" transform="matrix(1,0,0,1,0,0)" display="none"></rect><text joint-selector="text" id="v-989" fill="#000000" font-size="14" text-anchor="middle" pointer-events="none"></text></g></g><g  display="none" style="display: none;"></g><g  id="v-995" display="none"><g  id="v-980"><path  end="source" d="M 26 0 L 0 13 L 26 26 z"></path></g><g  id="v-981"><path  end="target" d="M 26 0 L 0 13 L 26 26 z"></path></g></g><g  id="v-994" display="none"><g  id="v-979" transform="translate(1569, 540) "><g  event="remove"><circle r="11"></circle><path transform="scale(.8) translate(-16, -16)" d="M24.778,21.419 19.276,15.917 24.777,10.415 21.949,7.585 16.447,13.087 10.945,7.585 8.117,10.415 13.618,15.917 8.116,21.419 10.946,24.248 16.447,18.746 21.948,24.248z"></path><title>Remove link.</title></g><g  event="link:options"><circle r="11" transform="translate(25)"></circle><path fill="white" transform="scale(.55) translate(29, -16)" d="M31.229,17.736c0.064-0.571,0.104-1.148,0.104-1.736s-0.04-1.166-0.104-1.737l-4.377-1.557c-0.218-0.716-0.504-1.401-0.851-2.05l1.993-4.192c-0.725-0.91-1.549-1.734-2.458-2.459l-4.193,1.994c-0.647-0.347-1.334-0.632-2.049-0.849l-1.558-4.378C17.165,0.708,16.588,0.667,16,0.667s-1.166,0.041-1.737,0.105L12.707,5.15c-0.716,0.217-1.401,0.502-2.05,0.849L6.464,4.005C5.554,4.73,4.73,5.554,4.005,6.464l1.994,4.192c-0.347,0.648-0.632,1.334-0.849,2.05l-4.378,1.557C0.708,14.834,0.667,15.412,0.667,16s0.041,1.165,0.105,1.736l4.378,1.558c0.217,0.715,0.502,1.401,0.849,2.049l-1.994,4.193c0.725,0.909,1.549,1.733,2.459,2.458l4.192-1.993c0.648,0.347,1.334,0.633,2.05,0.851l1.557,4.377c0.571,0.064,1.148,0.104,1.737,0.104c0.588,0,1.165-0.04,1.736-0.104l1.558-4.377c0.715-0.218,1.399-0.504,2.049-0.851l4.193,1.993c0.909-0.725,1.733-1.549,2.458-2.458l-1.993-4.193c0.347-0.647,0.633-1.334,0.851-2.049L31.229,17.736zM16,20.871c-2.69,0-4.872-2.182-4.872-4.871c0-2.69,2.182-4.872,4.872-4.872c2.689,0,4.871,2.182,4.871,4.872C20.871,18.689,18.689,20.871,16,20.871z"></path><title>Link options.</title></g></g></g></g><g   id="j_67" ><path  stroke="#707070" d="M 665 1700 L 811 1798 C 816.3333333333333 1801.9999999999998 822 1805.333333333333 828 1808 L 1344 2046" id="v-1009" stroke-width="2" stroke-dasharray="30 30" fill="none" style="opacity: 1;"></path><path  fill="black" stroke="black" d="M 0 0 0 0" transform="matrix(0.8279461497068891,0.5608076079954137,-0.5608076079954137,0.8279461497068891,665.4600219726562,1700)"></path><path  fill="#707070" stroke="#707070" d="M 20 0 L 0 10 L 20 20 z" id="v-1011" transform="matrix(-0.908030195500872,-0.4189047195468775,0.4189047195468775,-0.908030195500872,1339.8109324939148,2055.2803354786024)" style="opacity: 1;"></path><path  d="M 665 1700 L 811 1798 C 816.3333333333333 1801.9999999999998 822 1805.333333333333 828 1808 L 1344 2046" id="v-1010" fill="none" style="cursor: auto; pointer-events: visiblepainted;"></path><g ><g id="v-1000"  label-idx="0" cursor="move" transform="matrix(1,0,0,1,997.1900024414062,1886.0372314453125)" style="cursor: default; opacity: 1;"><rect joint-selector="rect" id="v-1004" fill="#ffffff" rx="3" ry="3" stroke="#ffffff" stroke-width="20px" pointer-events="none" width="55.35179901123047" height="32.369441986083984" transform="matrix(1,0,0,1,-26.9,-16.2)"></rect><text joint-selector="text" id="v-1003" font-size="24px" xml:space="preserve" y="0.8em" fill="#707070" text-anchor="middle" pointer-events="none" font-family="Open Sans" font-weight="normal" transform="matrix(1,0,0,1,0,-9.5)"><tspan dy="0" >Uses</tspan></text></g><g id="v-1001"  label-idx="1" cursor="move" transform="matrix(1,0,0,1,997.1900024414062,1913.0372314453125)" style="cursor: default; opacity: 1;"><rect joint-selector="rect" id="v-1006" fill="#ffffff" rx="3" ry="3" pointer-events="none" width="89.87199401855469" height="21.579627990722656" transform="matrix(1,0,0,1,-44.5,-10.8)"></rect><text joint-selector="text" id="v-1005" font-size="17px" xml:space="preserve" y="0.8em" fill="#707070" text-anchor="middle" pointer-events="none" font-family="Open Sans" font-weight="normal" transform="matrix(1,0,0,1,0,-7.1)"><tspan dy="0" >[.NET Core]</tspan></text></g><g id="v-1002"  label-idx="2" cursor="move" transform="matrix(1,0,0,1,987.1900024414062,1922.2872314453125)" style="cursor: default; opacity: 1;"><rect joint-selector="rect" id="v-1008" fill="#ffffff" rx="3" ry="3"  width="0" height="0" transform="matrix(1,0,0,1,0,0)" display="none"></rect><text joint-selector="text" id="v-1007" fill="#000000" font-size="14" text-anchor="middle" pointer-events="none"></text></g></g><g  display="none" style="display: none;"><g  transform="translate(819, 1804)" id="v-1113"><circle  idx="0" r="10"></circle><path  idx="0" d="M16,5.333c-7.732,0-14,4.701-14,10.5c0,1.982,0.741,3.833,2.016,5.414L2,25.667l5.613-1.441c2.339,1.317,5.237,2.107,8.387,2.107c7.732,0,14-4.701,14-10.5C30,10.034,23.732,5.333,16,5.333z" transform="translate(5, -33)"></path><path  idx="0" transform="scale(.8) translate(9.5, -37)" d="M24.778,21.419 19.276,15.917 24.777,10.415 21.949,7.585 16.447,13.087 10.945,7.585 8.117,10.415 13.618,15.917 8.116,21.419 10.946,24.248 16.447,18.746 21.948,24.248z"><title>Remove vertex.</title></path></g></g><g  id="v-1013" display="none"><g  id="v-998"><path  end="source" d="M 26 0 L 0 13 L 26 26 z"></path></g><g  id="v-999"><path  end="target" d="M 26 0 L 0 13 L 26 26 z"></path></g></g><g  id="v-1012" display="none"><g  id="v-996" transform="translate(698.211852807127, 1722.2928875006742) "><g  event="remove"><circle r="11"></circle><path transform="scale(.8) translate(-16, -16)" d="M24.778,21.419 19.276,15.917 24.777,10.415 21.949,7.585 16.447,13.087 10.945,7.585 8.117,10.415 13.618,15.917 8.116,21.419 10.946,24.248 16.447,18.746 21.948,24.248z"></path><title>Remove link.</title></g><g  event="link:options"><circle r="11" transform="translate(25)"></circle><path fill="white" transform="scale(.55) translate(29, -16)" d="M31.229,17.736c0.064-0.571,0.104-1.148,0.104-1.736s-0.04-1.166-0.104-1.737l-4.377-1.557c-0.218-0.716-0.504-1.401-0.851-2.05l1.993-4.192c-0.725-0.91-1.549-1.734-2.458-2.459l-4.193,1.994c-0.647-0.347-1.334-0.632-2.049-0.849l-1.558-4.378C17.165,0.708,16.588,0.667,16,0.667s-1.166,0.041-1.737,0.105L12.707,5.15c-0.716,0.217-1.401,0.502-2.05,0.849L6.464,4.005C5.554,4.73,4.73,5.554,4.005,6.464l1.994,4.192c-0.347,0.648-0.632,1.334-0.849,2.05l-4.378,1.557C0.708,14.834,0.667,15.412,0.667,16s0.041,1.165,0.105,1.736l4.378,1.558c0.217,0.715,0.502,1.401,0.849,2.049l-1.994,4.193c0.725,0.909,1.549,1.733,2.459,2.458l4.192-1.993c0.648,0.347,1.334,0.633,2.05,0.851l1.557,4.377c0.571,0.064,1.148,0.104,1.737,0.104c0.588,0,1.165-0.04,1.736-0.104l1.558-4.377c0.715-0.218,1.399-0.504,2.049-0.851l4.193,1.993c0.909-0.725,1.733-1.549,2.458-2.458l-1.993-4.193c0.347-0.647,0.633-1.334,0.851-2.049L31.229,17.736zM16,20.871c-2.69,0-4.872-2.182-4.872-4.871c0-2.69,2.182-4.872,4.872-4.872c2.689,0,4.871,2.182,4.871,4.872C20.871,18.689,18.689,20.871,16,20.871z"></path><title>Link options.</title></g></g></g></g><g   id="j_68" ><path  stroke="#707070" d="M 725 1100 L 538 1400" id="v-1029" stroke-width="2" stroke-dasharray="30 30" fill="none" style="opacity: 1;"></path><path  fill="black" stroke="black" d="M 0 0 0 0" transform="matrix(-0.5299989865422612,0.8479982749181605,-0.8479982749181605,-0.5299989865422612,725.25,1100)"></path><path  fill="#707070" stroke="#707070" d="M 20 0 L 0 10 L 20 20 z" id="v-1031" transform="matrix(0.5299987607066415,-0.8479984160653982,0.8479984160653982,0.5299987607066415,529.2700160252483,1394.7000160848377)" style="opacity: 1;"></path><path  d="M 725 1100 L 538 1400" id="v-1030" fill="none" style="cursor: auto; pointer-events: visiblepainted;"></path><g ><g id="v-1020"  label-idx="0" cursor="move" transform="matrix(1,0,0,1,631.5,1250)" style="cursor: default; opacity: 1;"><rect joint-selector="rect" id="v-1024" fill="#ffffff" rx="3" ry="3" stroke="#ffffff" stroke-width="20px" pointer-events="none" width="182.55978393554688" height="61.1694450378418" transform="matrix(1,0,0,1,-91.2,-30.6)"></rect><text joint-selector="text" id="v-1023" font-size="24px" xml:space="preserve" y="0.8em" fill="#707070" text-anchor="middle" pointer-events="none" font-family="Open Sans" font-weight="normal" transform="matrix(1,0,0,1,0,-23.9)"><tspan dy="0" >Access and</tspan><tspan dy="1.2em" x="0" >manage request</tspan></text></g><g id="v-1021"  label-idx="1" cursor="move" transform="matrix(1,0,0,1,631.5,1292)" style="cursor: default; opacity: 1;"><rect joint-selector="rect" id="v-1026" fill="#ffffff" rx="3" ry="3" pointer-events="none" width="89.87199401855469" height="21.579627990722656" transform="matrix(1,0,0,1,-44.5,-10.8)"></rect><text joint-selector="text" id="v-1025" font-size="17px" xml:space="preserve" y="0.8em" fill="#707070" text-anchor="middle" pointer-events="none" font-family="Open Sans" font-weight="normal" transform="matrix(1,0,0,1,0,-7.1)"><tspan dy="0" >[.NET Core]</tspan></text></g><g id="v-1022"  label-idx="2" cursor="move" transform="matrix(1,0,0,1,621.5,1301.25)" style="cursor: default; opacity: 1;"><rect joint-selector="rect" id="v-1028" fill="#ffffff" rx="3" ry="3"  width="0" height="0" transform="matrix(1,0,0,1,0,0)" display="none"></rect><text joint-selector="text" id="v-1027" fill="#000000" font-size="14" text-anchor="middle" pointer-events="none"></text></g></g><g  display="none" style="display: none;"></g><g  id="v-1033" display="none"><g  id="v-1018"><path  end="source" d="M 26 0 L 0 13 L 26 26 z"></path></g><g  id="v-1019"><path  end="target" d="M 26 0 L 0 13 L 26 26 z"></path></g></g><g  id="v-1032" display="none"><g  id="v-1017" transform="translate(703.8407411961143, 1133.9453349794958) "><g  event="remove"><circle r="11"></circle><path transform="scale(.8) translate(-16, -16)" d="M24.778,21.419 19.276,15.917 24.777,10.415 21.949,7.585 16.447,13.087 10.945,7.585 8.117,10.415 13.618,15.917 8.116,21.419 10.946,24.248 16.447,18.746 21.948,24.248z"></path><title>Remove link.</title></g><g  event="link:options"><circle r="11" transform="translate(25)"></circle><path fill="white" transform="scale(.55) translate(29, -16)" d="M31.229,17.736c0.064-0.571,0.104-1.148,0.104-1.736s-0.04-1.166-0.104-1.737l-4.377-1.557c-0.218-0.716-0.504-1.401-0.851-2.05l1.993-4.192c-0.725-0.91-1.549-1.734-2.458-2.459l-4.193,1.994c-0.647-0.347-1.334-0.632-2.049-0.849l-1.558-4.378C17.165,0.708,16.588,0.667,16,0.667s-1.166,0.041-1.737,0.105L12.707,5.15c-0.716,0.217-1.401,0.502-2.05,0.849L6.464,4.005C5.554,4.73,4.73,5.554,4.005,6.464l1.994,4.192c-0.347,0.648-0.632,1.334-0.849,2.05l-4.378,1.557C0.708,14.834,0.667,15.412,0.667,16s0.041,1.165,0.105,1.736l4.378,1.558c0.217,0.715,0.502,1.401,0.849,2.049l-1.994,4.193c0.725,0.909,1.549,1.733,2.459,2.458l4.192-1.993c0.648,0.347,1.334,0.633,2.05,0.851l1.557,4.377c0.571,0.064,1.148,0.104,1.737,0.104c0.588,0,1.165-0.04,1.736-0.104l1.558-4.377c0.715-0.218,1.399-0.504,2.049-0.851l4.193,1.993c0.909-0.725,1.733-1.549,2.458-2.458l-1.993-4.193c0.347-0.647,0.633-1.334,0.851-2.049L31.229,17.736zM16,20.871c-2.69,0-4.872-2.182-4.872-4.871c0-2.69,2.182-4.872,4.872-4.872c2.689,0,4.871,2.182,4.871,4.872C20.871,18.689,18.689,20.871,16,20.871z"></path><title>Link options.</title></g></g></g></g><g   id="j_69" ><path  stroke="#707070" d="M 1288 1700 L 1475 2000" id="v-1046" stroke-width="2" stroke-dasharray="30 30" fill="none" style="opacity: 1;"></path><path  fill="black" stroke="black" d="M 0 0 0 0" transform="matrix(0.52999893008336,0.8479983102049754,-0.8479983102049754,0.52999893008336,1287.75,1700)"></path><path  fill="#707070" stroke="#707070" d="M 20 0 L 0 10 L 20 20 z" id="v-1048" transform="matrix(-0.5299989865422614,-0.8479982749181603,0.8479982749181603,-0.5299989865422614,1466.769958288116,2005.2999921458543)" style="opacity: 1;"></path><path  d="M 1288 1700 L 1475 2000" id="v-1047" fill="none" style="cursor: auto; pointer-events: visiblepainted;"></path><g ><g id="v-1037"  label-idx="0" cursor="move" transform="matrix(1,0,0,1,1381.5,1850)" style="cursor: default; opacity: 1;"><rect joint-selector="rect" id="v-1041" fill="#ffffff" rx="3" ry="3" stroke="#ffffff" stroke-width="20px" pointer-events="none" width="55.35179901123047" height="32.369441986083984" transform="matrix(1,0,0,1,-26.9,-16.2)"></rect><text joint-selector="text" id="v-1040" font-size="24px" xml:space="preserve" y="0.8em" fill="#707070" text-anchor="middle" pointer-events="none" font-family="Open Sans" font-weight="normal" transform="matrix(1,0,0,1,0,-9.5)"><tspan dy="0" >Uses</tspan></text></g><g id="v-1038"  label-idx="1" cursor="move" transform="matrix(1,0,0,1,1381.5,1877)" style="cursor: default; opacity: 1;"><rect joint-selector="rect" id="v-1043" fill="#ffffff" rx="3" ry="3" pointer-events="none" width="89.87199401855469" height="21.579627990722656" transform="matrix(1,0,0,1,-44.5,-10.8)"></rect><text joint-selector="text" id="v-1042" font-size="17px" xml:space="preserve" y="0.8em" fill="#707070" text-anchor="middle" pointer-events="none" font-family="Open Sans" font-weight="normal" transform="matrix(1,0,0,1,0,-7.1)"><tspan dy="0" >[.NET Core]</tspan></text></g><g id="v-1039"  label-idx="2" cursor="move" transform="matrix(1,0,0,1,1371.5,1886.25)" style="cursor: default; opacity: 1;"><rect joint-selector="rect" id="v-1045" fill="#ffffff" rx="3" ry="3"  width="0" height="0" transform="matrix(1,0,0,1,0,0)" display="none"></rect><text joint-selector="text" id="v-1044" fill="#000000" font-size="14" text-anchor="middle" pointer-events="none"></text></g></g><g  display="none" style="display: none;"></g><g  id="v-1050" display="none"><g  id="v-1035"><path  end="source" d="M 26 0 L 0 13 L 26 26 z"></path></g><g  id="v-1036"><path  end="target" d="M 26 0 L 0 13 L 26 26 z"></path></g></g><g  id="v-1049" display="none"><g  id="v-1034" transform="translate(1309.1592588038857, 1733.945334979496) "><g  event="remove"><circle r="11"></circle><path transform="scale(.8) translate(-16, -16)" d="M24.778,21.419 19.276,15.917 24.777,10.415 21.949,7.585 16.447,13.087 10.945,7.585 8.117,10.415 13.618,15.917 8.116,21.419 10.946,24.248 16.447,18.746 21.948,24.248z"></path><title>Remove link.</title></g><g  event="link:options"><circle r="11" transform="translate(25)"></circle><path fill="white" transform="scale(.55) translate(29, -16)" d="M31.229,17.736c0.064-0.571,0.104-1.148,0.104-1.736s-0.04-1.166-0.104-1.737l-4.377-1.557c-0.218-0.716-0.504-1.401-0.851-2.05l1.993-4.192c-0.725-0.91-1.549-1.734-2.458-2.459l-4.193,1.994c-0.647-0.347-1.334-0.632-2.049-0.849l-1.558-4.378C17.165,0.708,16.588,0.667,16,0.667s-1.166,0.041-1.737,0.105L12.707,5.15c-0.716,0.217-1.401,0.502-2.05,0.849L6.464,4.005C5.554,4.73,4.73,5.554,4.005,6.464l1.994,4.192c-0.347,0.648-0.632,1.334-0.849,2.05l-4.378,1.557C0.708,14.834,0.667,15.412,0.667,16s0.041,1.165,0.105,1.736l4.378,1.558c0.217,0.715,0.502,1.401,0.849,2.049l-1.994,4.193c0.725,0.909,1.549,1.733,2.459,2.458l4.192-1.993c0.648,0.347,1.334,0.633,2.05,0.851l1.557,4.377c0.571,0.064,1.148,0.104,1.737,0.104c0.588,0,1.165-0.04,1.736-0.104l1.558-4.377c0.715-0.218,1.399-0.504,2.049-0.851l4.193,1.993c0.909-0.725,1.733-1.549,2.458-2.458l-1.993-4.193c0.347-0.647,0.633-1.334,0.851-2.049L31.229,17.736zM16,20.871c-2.69,0-4.872-2.182-4.872-4.871c0-2.69,2.182-4.872,4.872-4.872c2.689,0,4.871,2.182,4.871,4.872C20.871,18.689,18.689,20.871,16,20.871z"></path><title>Link options.</title></g></g></g></g><g   id="j_70" ><path  stroke="#707070" d="M 1850 1700 L 1663 2000" id="v-1063" stroke-width="2" stroke-dasharray="30 30" fill="none" style="opacity: 1;"></path><path  fill="black" stroke="black" d="M 0 0 0 0" transform="matrix(-0.5299989865422612,0.8479982749181605,-0.8479982749181605,-0.5299989865422612,1850.25,1700)"></path><path  fill="#707070" stroke="#707070" d="M 20 0 L 0 10 L 20 20 z" id="v-1065" transform="matrix(0.5299987607066415,-0.8479984160653982,0.8479984160653982,0.5299987607066415,1654.2700770604047,1994.7000160848377)" style="opacity: 1;"></path><path  d="M 1850 1700 L 1663 2000" id="v-1064" fill="none" style="cursor: auto; pointer-events: visiblepainted;"></path><g ><g id="v-1054"  label-idx="0" cursor="move" transform="matrix(1,0,0,1,1756.5,1850)" style="cursor: default; opacity: 1;"><rect joint-selector="rect" id="v-1058" fill="#ffffff" rx="3" ry="3" stroke="#ffffff" stroke-width="20px" pointer-events="none" width="55.35179901123047" height="32.369441986083984" transform="matrix(1,0,0,1,-26.9,-16.2)"></rect><text joint-selector="text" id="v-1057" font-size="24px" xml:space="preserve" y="0.8em" fill="#707070" text-anchor="middle" pointer-events="none" font-family="Open Sans" font-weight="normal" transform="matrix(1,0,0,1,0,-9.5)"><tspan dy="0" >Uses</tspan></text></g><g id="v-1055"  label-idx="1" cursor="move" transform="matrix(1,0,0,1,1756.5,1877)" style="cursor: default; opacity: 1;"><rect joint-selector="rect" id="v-1060" fill="#ffffff" rx="3" ry="3" pointer-events="none" width="89.87199401855469" height="21.579627990722656" transform="matrix(1,0,0,1,-44.5,-10.8)"></rect><text joint-selector="text" id="v-1059" font-size="17px" xml:space="preserve" y="0.8em" fill="#707070" text-anchor="middle" pointer-events="none" font-family="Open Sans" font-weight="normal" transform="matrix(1,0,0,1,0,-7.1)"><tspan dy="0" >[.NET Core]</tspan></text></g><g id="v-1056"  label-idx="2" cursor="move" transform="matrix(1,0,0,1,1746.5,1886.25)" style="cursor: default; opacity: 1;"><rect joint-selector="rect" id="v-1062" fill="#ffffff" rx="3" ry="3"  width="0" height="0" transform="matrix(1,0,0,1,0,0)" display="none"></rect><text joint-selector="text" id="v-1061" fill="#000000" font-size="14" text-anchor="middle" pointer-events="none"></text></g></g><g  display="none" style="display: none;"></g><g  id="v-1067" display="none"><g  id="v-1052"><path  end="source" d="M 26 0 L 0 13 L 26 26 z"></path></g><g  id="v-1053"><path  end="target" d="M 26 0 L 0 13 L 26 26 z"></path></g></g><g  id="v-1066" display="none"><g  id="v-1051" transform="translate(1828.8407411961143, 1733.945334979496) "><g  event="remove"><circle r="11"></circle><path transform="scale(.8) translate(-16, -16)" d="M24.778,21.419 19.276,15.917 24.777,10.415 21.949,7.585 16.447,13.087 10.945,7.585 8.117,10.415 13.618,15.917 8.116,21.419 10.946,24.248 16.447,18.746 21.948,24.248z"></path><title>Remove link.</title></g><g  event="link:options"><circle r="11" transform="translate(25)"></circle><path fill="white" transform="scale(.55) translate(29, -16)" d="M31.229,17.736c0.064-0.571,0.104-1.148,0.104-1.736s-0.04-1.166-0.104-1.737l-4.377-1.557c-0.218-0.716-0.504-1.401-0.851-2.05l1.993-4.192c-0.725-0.91-1.549-1.734-2.458-2.459l-4.193,1.994c-0.647-0.347-1.334-0.632-2.049-0.849l-1.558-4.378C17.165,0.708,16.588,0.667,16,0.667s-1.166,0.041-1.737,0.105L12.707,5.15c-0.716,0.217-1.401,0.502-2.05,0.849L6.464,4.005C5.554,4.73,4.73,5.554,4.005,6.464l1.994,4.192c-0.347,0.648-0.632,1.334-0.849,2.05l-4.378,1.557C0.708,14.834,0.667,15.412,0.667,16s0.041,1.165,0.105,1.736l4.378,1.558c0.217,0.715,0.502,1.401,0.849,2.049l-1.994,4.193c0.725,0.909,1.549,1.733,2.459,2.458l4.192-1.993c0.648,0.347,1.334,0.633,2.05,0.851l1.557,4.377c0.571,0.064,1.148,0.104,1.737,0.104c0.588,0,1.165-0.04,1.736-0.104l1.558-4.377c0.715-0.218,1.399-0.504,2.049-0.851l4.193,1.993c0.909-0.725,1.733-1.549,2.458-2.458l-1.993-4.193c0.347-0.647,0.633-1.334,0.851-2.049L31.229,17.736zM16,20.871c-2.69,0-4.872-2.182-4.872-4.871c0-2.69,2.182-4.872,4.872-4.872c2.689,0,4.871,2.182,4.871,4.872C20.871,18.689,18.689,20.871,16,20.871z"></path><title>Link options.</title></g></g></g></g><g   id="j_71" ><path  stroke="#707070" d="M 913 1100 L 1100 1400" id="v-1083" stroke-width="2" stroke-dasharray="30 30" fill="none" style="opacity: 1;"></path><path  fill="black" stroke="black" d="M 0 0 0 0" transform="matrix(0.52999893008336,0.8479983102049754,-0.8479983102049754,0.52999893008336,912.75,1100)"></path><path  fill="#707070" stroke="#707070" d="M 20 0 L 0 10 L 20 20 z" id="v-1085" transform="matrix(-0.5299989865422614,-0.8479982749181603,0.8479982749181603,-0.5299989865422614,1091.769958288116,1405.2999921458543)" style="opacity: 1;"></path><path  d="M 913 1100 L 1100 1400" id="v-1084" fill="none" style="cursor: auto; pointer-events: visiblepainted;"></path><g ><g id="v-1074"  label-idx="0" cursor="move" transform="matrix(1,0,0,1,1006.5,1250)" style="cursor: default; opacity: 1;"><rect joint-selector="rect" id="v-1078" fill="#ffffff" rx="3" ry="3" stroke="#ffffff" stroke-width="20px" pointer-events="none" width="182.55978393554688" height="61.1694450378418" transform="matrix(1,0,0,1,-91.2,-30.6)"></rect><text joint-selector="text" id="v-1077" font-size="24px" xml:space="preserve" y="0.8em" fill="#707070" text-anchor="middle" pointer-events="none" font-family="Open Sans" font-weight="normal" transform="matrix(1,0,0,1,0,-23.9)"><tspan dy="0" >Access and</tspan><tspan dy="1.2em" x="0" >manage request</tspan></text></g><g id="v-1075"  label-idx="1" cursor="move" transform="matrix(1,0,0,1,1006.5,1292)" style="cursor: default; opacity: 1;"><rect joint-selector="rect" id="v-1080" fill="#ffffff" rx="3" ry="3" pointer-events="none" width="89.87199401855469" height="21.579627990722656" transform="matrix(1,0,0,1,-44.5,-10.8)"></rect><text joint-selector="text" id="v-1079" font-size="17px" xml:space="preserve" y="0.8em" fill="#707070" text-anchor="middle" pointer-events="none" font-family="Open Sans" font-weight="normal" transform="matrix(1,0,0,1,0,-7.1)"><tspan dy="0" >[.NET Core]</tspan></text></g><g id="v-1076"  label-idx="2" cursor="move" transform="matrix(1,0,0,1,996.5,1301.25)" style="cursor: default; opacity: 1;"><rect joint-selector="rect" id="v-1082" fill="#ffffff" rx="3" ry="3"  width="0" height="0" transform="matrix(1,0,0,1,0,0)" display="none"></rect><text joint-selector="text" id="v-1081" fill="#000000" font-size="14" text-anchor="middle" pointer-events="none"></text></g></g><g  display="none" style="display: none;"></g><g  id="v-1087" display="none"><g  id="v-1072"><path  end="source" d="M 26 0 L 0 13 L 26 26 z"></path></g><g  id="v-1073"><path  end="target" d="M 26 0 L 0 13 L 26 26 z"></path></g></g><g  id="v-1086" display="none"><g  id="v-1071" transform="translate(934.1592588038858, 1133.9453349794958) "><g  event="remove"><circle r="11"></circle><path transform="scale(.8) translate(-16, -16)" d="M24.778,21.419 19.276,15.917 24.777,10.415 21.949,7.585 16.447,13.087 10.945,7.585 8.117,10.415 13.618,15.917 8.116,21.419 10.946,24.248 16.447,18.746 21.948,24.248z"></path><title>Remove link.</title></g><g  event="link:options"><circle r="11" transform="translate(25)"></circle><path fill="white" transform="scale(.55) translate(29, -16)" d="M31.229,17.736c0.064-0.571,0.104-1.148,0.104-1.736s-0.04-1.166-0.104-1.737l-4.377-1.557c-0.218-0.716-0.504-1.401-0.851-2.05l1.993-4.192c-0.725-0.91-1.549-1.734-2.458-2.459l-4.193,1.994c-0.647-0.347-1.334-0.632-2.049-0.849l-1.558-4.378C17.165,0.708,16.588,0.667,16,0.667s-1.166,0.041-1.737,0.105L12.707,5.15c-0.716,0.217-1.401,0.502-2.05,0.849L6.464,4.005C5.554,4.73,4.73,5.554,4.005,6.464l1.994,4.192c-0.347,0.648-0.632,1.334-0.849,2.05l-4.378,1.557C0.708,14.834,0.667,15.412,0.667,16s0.041,1.165,0.105,1.736l4.378,1.558c0.217,0.715,0.502,1.401,0.849,2.049l-1.994,4.193c0.725,0.909,1.549,1.733,2.459,2.458l4.192-1.993c0.648,0.347,1.334,0.633,2.05,0.851l1.557,4.377c0.571,0.064,1.148,0.104,1.737,0.104c0.588,0,1.165-0.04,1.736-0.104l1.558-4.377c0.715-0.218,1.399-0.504,2.049-0.851l4.193,1.993c0.909-0.725,1.733-1.549,2.458-2.458l-1.993-4.193c0.347-0.647,0.633-1.334,0.851-2.049L31.229,17.736zM16,20.871c-2.69,0-4.872-2.182-4.872-4.871c0-2.69,2.182-4.872,4.872-4.872c2.689,0,4.871,2.182,4.871,4.872C20.871,18.689,18.689,20.871,16,20.871z"></path><title>Link options.</title></g></g></g></g><g   id="j_72" ><path  stroke="#707070" d="M 1475 1100 L 1288 1400" id="v-1103" stroke-width="2" stroke-dasharray="30 30" fill="none" style="opacity: 1;"></path><path  fill="black" stroke="black" d="M 0 0 0 0" transform="matrix(-0.5299989865422612,0.8479982749181605,-0.8479982749181605,-0.5299989865422612,1475.25,1100)"></path><path  fill="#707070" stroke="#707070" d="M 20 0 L 0 10 L 20 20 z" id="v-1105" transform="matrix(0.5299987607066415,-0.8479984160653982,0.8479984160653982,0.5299987607066415,1279.2700770604047,1394.7000160848377)" style="opacity: 1;"></path><path  d="M 1475 1100 L 1288 1400" id="v-1104" fill="none" style="cursor: auto; pointer-events: visiblepainted;"></path><g ><g id="v-1094"  label-idx="0" cursor="move" transform="matrix(1,0,0,1,1381.5,1250)" style="cursor: default; opacity: 1;"><rect joint-selector="rect" id="v-1098" fill="#ffffff" rx="3" ry="3" stroke="#ffffff" stroke-width="20px" pointer-events="none" width="182.55978393554688" height="61.1694450378418" transform="matrix(1,0,0,1,-91.2,-30.6)"></rect><text joint-selector="text" id="v-1097" font-size="24px" xml:space="preserve" y="0.8em" fill="#707070" text-anchor="middle" pointer-events="none" font-family="Open Sans" font-weight="normal" transform="matrix(1,0,0,1,0,-23.9)"><tspan dy="0" >Access and</tspan><tspan dy="1.2em" x="0" >manage request</tspan></text></g><g id="v-1095"  label-idx="1" cursor="move" transform="matrix(1,0,0,1,1381.5,1292)" style="cursor: default; opacity: 1;"><rect joint-selector="rect" id="v-1100" fill="#ffffff" rx="3" ry="3" pointer-events="none" width="89.87199401855469" height="21.579627990722656" transform="matrix(1,0,0,1,-44.5,-10.8)"></rect><text joint-selector="text" id="v-1099" font-size="17px" xml:space="preserve" y="0.8em" fill="#707070" text-anchor="middle" pointer-events="none" font-family="Open Sans" font-weight="normal" transform="matrix(1,0,0,1,0,-7.1)"><tspan dy="0" >[.NET Core]</tspan></text></g><g id="v-1096"  label-idx="2" cursor="move" transform="matrix(1,0,0,1,1371.5,1301.25)" style="cursor: default; opacity: 1;"><rect joint-selector="rect" id="v-1102" fill="#ffffff" rx="3" ry="3"  width="0" height="0" transform="matrix(1,0,0,1,0,0)" display="none"></rect><text joint-selector="text" id="v-1101" fill="#000000" font-size="14" text-anchor="middle" pointer-events="none"></text></g></g><g  display="none" style="display: none;"></g><g  id="v-1107" display="none"><g  id="v-1092"><path  end="source" d="M 26 0 L 0 13 L 26 26 z"></path></g><g  id="v-1093"><path  end="target" d="M 26 0 L 0 13 L 26 26 z"></path></g></g><g  id="v-1106" display="none"><g  id="v-1091" transform="translate(1453.8407411961143, 1133.9453349794958) "><g  event="remove"><circle r="11"></circle><path transform="scale(.8) translate(-16, -16)" d="M24.778,21.419 19.276,15.917 24.777,10.415 21.949,7.585 16.447,13.087 10.945,7.585 8.117,10.415 13.618,15.917 8.116,21.419 10.946,24.248 16.447,18.746 21.948,24.248z"></path><title>Remove link.</title></g><g  event="link:options"><circle r="11" transform="translate(25)"></circle><path fill="white" transform="scale(.55) translate(29, -16)" d="M31.229,17.736c0.064-0.571,0.104-1.148,0.104-1.736s-0.04-1.166-0.104-1.737l-4.377-1.557c-0.218-0.716-0.504-1.401-0.851-2.05l1.993-4.192c-0.725-0.91-1.549-1.734-2.458-2.459l-4.193,1.994c-0.647-0.347-1.334-0.632-2.049-0.849l-1.558-4.378C17.165,0.708,16.588,0.667,16,0.667s-1.166,0.041-1.737,0.105L12.707,5.15c-0.716,0.217-1.401,0.502-2.05,0.849L6.464,4.005C5.554,4.73,4.73,5.554,4.005,6.464l1.994,4.192c-0.347,0.648-0.632,1.334-0.849,2.05l-4.378,1.557C0.708,14.834,0.667,15.412,0.667,16s0.041,1.165,0.105,1.736l4.378,1.558c0.217,0.715,0.502,1.401,0.849,2.049l-1.994,4.193c0.725,0.909,1.549,1.733,2.459,2.458l4.192-1.993c0.648,0.347,1.334,0.633,2.05,0.851l1.557,4.377c0.571,0.064,1.148,0.104,1.737,0.104c0.588,0,1.165-0.04,1.736-0.104l1.558-4.377c0.715-0.218,1.399-0.504,2.049-0.851l4.193,1.993c0.909-0.725,1.733-1.549,2.458-2.458l-1.993-4.193c0.347-0.647,0.633-1.334,0.851-2.049L31.229,17.736zM16,20.871c-2.69,0-4.872-2.182-4.872-4.871c0-2.69,2.182-4.872,4.872-4.872c2.689,0,4.871,2.182,4.871,4.872C20.871,18.689,18.689,20.871,16,20.871z"></path><title>Link options.</title></g></g></g></g><g   id="j_50"  transform="translate(1344,200)" style=""><g  id="v-749" style="opacity: 1;"><rect  id="v-750" rx="10" ry="10" stroke="#3c7fc0" stroke-width="2" pointer-events="visiblePainted" fill="#3c7fc0" width="450" height="300" style="fill: rgb(60, 127, 192); stroke: rgb(60, 127, 192);"></rect><rect  id="v-751" rx="10" ry="10" stroke="#3c7fc0" stroke-width="0" pointer-events="visiblePainted" fill="#438dd5" width="430" height="250" x="10" y="40" style="fill: rgb(67, 141, 213);"></rect><ellipse  id="v-758" fill="#438dd5" cx="20" cy="20" rx="10" ry="10" style="fill: rgb(67, 141, 213);"></ellipse><ellipse  id="v-759" fill="#438dd5" cx="50" cy="20" rx="10" ry="10" style="fill: rgb(67, 141, 213);"></ellipse><ellipse  id="v-760" fill="#438dd5" cx="80" cy="20" rx="10" ry="10" style="fill: rgb(67, 141, 213);"></ellipse><rect  id="v-752" rx="10" ry="10" stroke="#444444" stroke-width="0" pointer-events="visiblePainted" fill="#438dd5" width="340" height="20" x="100" y="10" style="fill: rgb(67, 141, 213);"></rect><text  id="v-753" font-size="34" xml:space="preserve" y="0.8em" font-weight="bold" text-anchor="middle" pointer-events="visible" font-family="Open Sans" fill="#ffffff" transform="matrix(1,0,0,1,225,46.9)" style="fill: rgb(255, 255, 255);"><tspan dy="0" >Progressiv Web</tspan><tspan dy="1.2em" x="0" >Application</tspan></text><text  id="v-754" font-size="17" xml:space="preserve" y="0.8em" text-anchor="middle" font-family="Open Sans" fill="#ffffff" transform="matrix(1,0,0,1,225,131.9)" style="fill: rgb(255, 255, 255);"><tspan dy="0" >[Container: React and Ionic]</tspan></text><text  id="v-755" font-size="24" xml:space="preserve" y="0.8em" text-anchor="middle" font-family="Open Sans" fill="#ffffff" transform="matrix(1,0,0,1,225,163.1)" style="fill: rgb(255, 255, 255);"><tspan dy="0" >Provides all of the D-LAMA</tspan><tspan dy="1.2em" x="0" >functionality to the admin and</tspan><tspan dy="1.2em" x="0" >labeler via their web browser or</tspan><tspan dy="1.2em" x="0" >mobile app</tspan></text><g  id="v-756" font-weight="normal" text-anchor="middle" color="#ffffff" transform="matrix(1,0,0,1,210,41)" style="fill: rgb(255, 255, 255);" display="none"><g  transform="translate(5 0)"><svg xmlns="http://www.w3.org/2000/svg" width="20" height="20" fill="currentColor" viewBox="0 0 16 16"><path fill-rule="evenodd" d="M6.5 12a5.5 5.5 0 1 0 0-11 5.5 5.5 0 0 0 0 11zM13 6.5a6.5 6.5 0 1 1-13 0 6.5 6.5 0 0 1 13 0z"></path><path d="M10.344 11.742c.03.04.062.078.098.115l3.85 3.85a1 1 0 0 0 1.415-1.414l-3.85-3.85a1.007 1.007 0 0 0-.115-.1 6.538 6.538 0 0 1-1.398 1.4z"></path><path fill-rule="evenodd" d="M6.5 3a.5.5 0 0 1 .5.5V6h2.5a.5.5 0 0 1 0 1H7v2.5a.5.5 0 0 1-1 0V7H3.5a.5.5 0 0 1 0-1H6V3.5a.5.5 0 0 1 .5-.5z"></path></svg></g><g ></g><g ></g><g ></g></g><image  id="v-757"></image></g></g><g   id="j_51"  transform="translate(1344,2000)" style=""><g  id="v-767" style="opacity: 1;"><rect  id="v-768" rx="20" ry="20" stroke="#3c7fc0" stroke-width="2" pointer-events="visiblePainted" fill="#438dd5" width="450" height="300" style="fill: rgb(67, 141, 213); stroke: rgb(60, 127, 192);"></rect><text  id="v-769" font-size="34" xml:space="preserve" y="0.8em" font-weight="bold" text-anchor="middle" pointer-events="visible" font-family="Open Sans" fill="#ffffff" transform="matrix(1,0,0,1,225,83.1)" style="fill: rgb(255, 255, 255);"><tspan dy="0" >Entity Framework Core</tspan></text><text  id="v-770" font-size="17" xml:space="preserve" y="0.8em" text-anchor="middle" font-family="Open Sans" fill="#ffffff" transform="matrix(1,0,0,1,225,125.6)" style="fill: rgb(255, 255, 255);"><tspan dy="0" >[Container: .NET Core]</tspan></text><text  id="v-771" font-size="24" xml:space="preserve" y="0.8em" text-anchor="middle" font-family="Open Sans" fill="#ffffff" transform="matrix(1,0,0,1,225,156.9)" style="fill: rgb(255, 255, 255);"><tspan dy="0" >Provides the interface to the</tspan><tspan dy="1.2em" x="0" >database.</tspan></text><g  id="v-772" color="#ffffff" transform="matrix(1,0,0,1,222.5,226.9)" style="fill: rgb(255, 255, 255);" display="none"><g ></g><g ></g><g ></g><g ></g></g><image  id="v-773"></image></g></g><g   id="j_52"  transform="translate(219,1400)" style=""><g  id="v-777" style="opacity: 1;"><rect  id="v-778" rx="20" ry="20" stroke="#78a8d8" stroke-width="2" pointer-events="visiblePainted" fill="#85bbf0" width="450" height="300" style="fill: rgb(133, 187, 240); stroke: rgb(120, 168, 216);"></rect><text  id="v-779" font-size="34" xml:space="preserve" y="0.8em" font-weight="bold" text-anchor="middle" pointer-events="visible" font-family="Open Sans" fill="#000000" transform="matrix(1,0,0,1,225,68.1)" style="fill: rgb(0, 0, 0);"><tspan dy="0" >User Service</tspan></text><text  id="v-780" font-size="17" xml:space="preserve" y="0.8em" text-anchor="middle" font-family="Open Sans" fill="#000000" transform="matrix(1,0,0,1,225,110.6)" style="fill: rgb(0, 0, 0);"><tspan dy="0" >[Component: .NET Core]</tspan></text><text  id="v-781" font-size="24" xml:space="preserve" y="0.8em" text-anchor="middle" font-family="Open Sans" fill="#000000" transform="matrix(1,0,0,1,225,141.9)" style="fill: rgb(0, 0, 0);"><tspan dy="0" >Allows the internal components to</tspan><tspan dy="1.2em" x="0" >access and manage user specfic</tspan><tspan dy="1.2em" x="0" >data</tspan></text><g  id="v-782" color="#000000" transform="matrix(1,0,0,1,222.5,241.9)" style="fill: rgb(0, 0, 0);" display="none"><g ></g><g ></g><g ></g><g ></g></g><image  id="v-783"></image></g></g><g   id="j_54"  transform="translate(969,1400)" style=""><g  id="v-792" style="opacity: 1;"><rect  id="v-793" rx="20" ry="20" stroke="#78a8d8" stroke-width="2" pointer-events="visiblePainted" fill="#85bbf0" width="450" height="300" style="fill: rgb(133, 187, 240); stroke: rgb(120, 168, 216);"></rect><text  id="v-794" font-size="34" xml:space="preserve" y="0.8em" font-weight="bold" text-anchor="middle" pointer-events="visible" font-family="Open Sans" fill="#000000" transform="matrix(1,0,0,1,225,83.1)" style="fill: rgb(0, 0, 0);"><tspan dy="0" >Shared Service</tspan></text><text  id="v-795" font-size="17" xml:space="preserve" y="0.8em" text-anchor="middle" font-family="Open Sans" fill="#000000" transform="matrix(1,0,0,1,225,125.6)" style="fill: rgb(0, 0, 0);"><tspan dy="0" >[Component: .NET Core]</tspan></text><text  id="v-796" font-size="24" xml:space="preserve" y="0.8em" text-anchor="middle" font-family="Open Sans" fill="#000000" transform="matrix(1,0,0,1,225,156.9)" style="fill: rgb(0, 0, 0);"><tspan dy="0" >Allows the internal components to</tspan><tspan dy="1.2em" x="0" >access and manage shared data</tspan></text><g  id="v-797" color="#000000" transform="matrix(1,0,0,1,222.5,226.9)" style="fill: rgb(0, 0, 0);" display="none"><g ></g><g ></g><g ></g><g ></g></g><image  id="v-798"></image></g></g><g   id="j_55"  transform="translate(2094,800)" style=""><g  id="v-805" style="opacity: 1;"><rect  id="v-806" rx="20" ry="20" stroke="#78a8d8" stroke-width="2" pointer-events="visiblePainted" fill="#85bbf0" width="450" height="300" style="fill: rgb(133, 187, 240); stroke: rgb(120, 168, 216);"></rect><text  id="v-807" font-size="34" xml:space="preserve" y="0.8em" font-weight="bold" text-anchor="middle" pointer-events="visible" font-family="Open Sans" fill="#000000" transform="matrix(1,0,0,1,225,83.1)" style="fill: rgb(0, 0, 0);"><tspan dy="0" >Project Controller</tspan></text><text  id="v-808" font-size="17" xml:space="preserve" y="0.8em" text-anchor="middle" font-family="Open Sans" fill="#000000" transform="matrix(1,0,0,1,225,125.6)" style="fill: rgb(0, 0, 0);"><tspan dy="0" >[Component: .NET Core]</tspan></text><text  id="v-809" font-size="24" xml:space="preserve" y="0.8em" text-anchor="middle" font-family="Open Sans" fill="#000000" transform="matrix(1,0,0,1,225,156.9)" style="fill: rgb(0, 0, 0);"><tspan dy="0" >Allows admins to create and</tspan><tspan dy="1.2em" x="0" >maintain a project</tspan></text><g  id="v-810" color="#000000" transform="matrix(1,0,0,1,222.5,226.9)" style="fill: rgb(0, 0, 0);" display="none"><g ></g><g ></g><g ></g><g ></g></g><image  id="v-811"></image></g></g><g   id="j_56"  transform="translate(1719,1400)" style=""><g  id="v-818" style="opacity: 1;"><rect  id="v-819" rx="20" ry="20" stroke="#78a8d8" stroke-width="2" pointer-events="visiblePainted" fill="#85bbf0" width="450" height="300" style="fill: rgb(133, 187, 240); stroke: rgb(120, 168, 216);"></rect><text  id="v-820" font-size="34" xml:space="preserve" y="0.8em" font-weight="bold" text-anchor="middle" pointer-events="visible" font-family="Open Sans" fill="#000000" transform="matrix(1,0,0,1,225,68.1)" style="fill: rgb(0, 0, 0);"><tspan dy="0" >Data Point Service</tspan></text><text  id="v-821" font-size="17" xml:space="preserve" y="0.8em" text-anchor="middle" font-family="Open Sans" fill="#000000" transform="matrix(1,0,0,1,225,110.6)" style="fill: rgb(0, 0, 0);"><tspan dy="0" >[Component: .NET Core]</tspan></text><text  id="v-822" font-size="24" xml:space="preserve" y="0.8em" text-anchor="middle" font-family="Open Sans" fill="#000000" transform="matrix(1,0,0,1,225,141.9)" style="fill: rgb(0, 0, 0);"><tspan dy="0" >Allows the internal components to</tspan><tspan dy="1.2em" x="0" >access and manage single data</tspan><tspan dy="1.2em" x="0" >points</tspan></text><g  id="v-823" color="#000000" transform="matrix(1,0,0,1,222.5,241.9)" style="fill: rgb(0, 0, 0);" display="none"><g ></g><g ></g><g ></g><g ></g></g><image  id="v-824"></image></g></g><g   id="j_57"  transform="translate(1344,800)" style=""><g  id="v-831" style="opacity: 1;"><rect  id="v-832" rx="20" ry="20" stroke="#78a8d8" stroke-width="2" pointer-events="visiblePainted" fill="#85bbf0" width="450" height="300" style="fill: rgb(133, 187, 240); stroke: rgb(120, 168, 216);"></rect><text  id="v-833" font-size="34" xml:space="preserve" y="0.8em" font-weight="bold" text-anchor="middle" pointer-events="visible" font-family="Open Sans" fill="#000000" transform="matrix(1,0,0,1,225,83.1)" style="fill: rgb(0, 0, 0);"><tspan dy="0" >Data Point Controller</tspan></text><text  id="v-834" font-size="17" xml:space="preserve" y="0.8em" text-anchor="middle" font-family="Open Sans" fill="#000000" transform="matrix(1,0,0,1,225,125.6)" style="fill: rgb(0, 0, 0);"><tspan dy="0" >[Component: .NET Core]</tspan></text><text  id="v-835" font-size="24" xml:space="preserve" y="0.8em" text-anchor="middle" font-family="Open Sans" fill="#000000" transform="matrix(1,0,0,1,225,156.9)" style="fill: rgb(0, 0, 0);"><tspan dy="0" >Allows users and admins to create,</tspan><tspan dy="1.2em" x="0" >manage and label data points</tspan></text><g  id="v-836" color="#000000" transform="matrix(1,0,0,1,222.5,226.9)" style="fill: rgb(0, 0, 0);" display="none"><g ></g><g ></g><g ></g><g ></g></g><image  id="v-837"></image></g></g><g   id="j_58"  transform="translate(594,800)" style=""><g  id="v-841" style="opacity: 1;"><rect  id="v-842" rx="20" ry="20" stroke="#78a8d8" stroke-width="2" pointer-events="visiblePainted" fill="#85bbf0" width="450" height="300" style="fill: rgb(133, 187, 240); stroke: rgb(120, 168, 216);"></rect><text  id="v-843" font-size="34" xml:space="preserve" y="0.8em" font-weight="bold" text-anchor="middle" pointer-events="visible" font-family="Open Sans" fill="#000000" transform="matrix(1,0,0,1,225,83.1)" style="fill: rgb(0, 0, 0);"><tspan dy="0" >User Controller</tspan></text><text  id="v-844" font-size="17" xml:space="preserve" y="0.8em" text-anchor="middle" font-family="Open Sans" fill="#000000" transform="matrix(1,0,0,1,225,125.6)" style="fill: rgb(0, 0, 0);"><tspan dy="0" >[Component: .NET Core]</tspan></text><text  id="v-845" font-size="24" xml:space="preserve" y="0.8em" text-anchor="middle" font-family="Open Sans" fill="#000000" transform="matrix(1,0,0,1,225,156.9)" style="fill: rgb(0, 0, 0);"><tspan dy="0" >Allows user to register themselves</tspan><tspan dy="1.2em" x="0" >and sign in to D-LAMA</tspan></text><g  id="v-846" color="#000000" transform="matrix(1,0,0,1,222.5,226.9)" style="fill: rgb(0, 0, 0);" display="none"><g ></g><g ></g><g ></g><g ></g></g><image  id="v-847"></image></g></g><g   id="j_59"  transform="translate(2469,1400)" style=""><g  id="v-851" style="opacity: 1;"><rect  id="v-852" rx="20" ry="20" stroke="#78a8d8" stroke-width="2" pointer-events="visiblePainted" fill="#85bbf0" width="450" height="300" style="fill: rgb(133, 187, 240); stroke: rgb(120, 168, 216);"></rect><text  id="v-853" font-size="34" xml:space="preserve" y="0.8em" font-weight="bold" text-anchor="middle" pointer-events="visible" font-family="Open Sans" fill="#000000" transform="matrix(1,0,0,1,225,68.1)" style="fill: rgb(0, 0, 0);"><tspan dy="0" >Project Service</tspan></text><text  id="v-854" font-size="17" xml:space="preserve" y="0.8em" text-anchor="middle" font-family="Open Sans" fill="#000000" transform="matrix(1,0,0,1,225,110.6)" style="fill: rgb(0, 0, 0);"><tspan dy="0" >[Component: .NET Core]</tspan></text><text  id="v-855" font-size="24" xml:space="preserve" y="0.8em" text-anchor="middle" font-family="Open Sans" fill="#000000" transform="matrix(1,0,0,1,225,141.9)" style="fill: rgb(0, 0, 0);"><tspan dy="0" >Allows the internal components to</tspan><tspan dy="1.2em" x="0" >access and manage project specfic</tspan><tspan dy="1.2em" x="0" >data</tspan></text><g  id="v-856" color="#000000" transform="matrix(1,0,0,1,222.5,241.9)" style="fill: rgb(0, 0, 0);" display="none"><g ></g><g ></g><g ></g><g ></g></g><image  id="v-857"></image></g></g></g><g ></g><g ></g><g ></g></g></svg>